M48
METRIC,LZ,000.000
;FILE_FORMAT=3:3
;TYPE=PLATED
;Layer: PTH_Through
;EasyEDA v6.5.39, 2024-02-03 14:28:59
;bcd3f98de95e48d085ed2947a1ad00ac,362fd913e7484c3682bebf37a00ceee6,10
;Gerber Generator version 0.2
;Holesize 1 = 0.305 mm
T01C0.305
;Holesize 2 = 0.310 mm
T02C0.310
;Holesize 3 = 0.900 mm
T03C0.900
;Holesize 4 = 0.901 mm
T04C0.901
;Holesize 5 = 0.915 mm
T05C0.915
;Holesize 6 = 1.000 mm
T06C1.000
;Holesize 7 = 1.016 mm
T07C1.016
;Holesize 8 = 1.101 mm
T08C1.101
;Holesize 9 = 1.200 mm
T09C1.200
;Holesize 10 = 1.778 mm
T10C1.778
%
G05
G90
T01
X072517Y036957
T02
X044872Y036957
X055626Y020828
X057277Y025273
X028194Y027305
X039794Y027286
X075692Y042164
X028194Y050419
X044323Y050419
X035560Y029539
X056069Y029489
X010817Y019001
X031496Y025273
X053848Y022860
X061722Y016002
X049149Y025146
T03
X041402Y027305
X051562Y027305
X056769Y018796
X066929Y018796
T04
X036703Y039774G85X036703Y039728
X039243Y054991
X044323Y054991
X049403Y054991
X054483Y054991
X059563Y054991
X064643Y054991
X069723Y054991
X072263Y039774G85X072263Y039728
X067183Y039774G85X067183Y039728
X062103Y039774G85X062103Y039728
X057023Y039774G85X057023Y039728
X051943Y039774G85X051943Y039728
X046863Y039774G85X046863Y039728
X041783Y039774G85X041783Y039728
X039243Y039774G85X039243Y039728
X044323Y039774G85X044323Y039728
X049403Y039774G85X049403Y039728
X054483Y039774G85X054483Y039728
X059563Y039774G85X059563Y039728
X064643Y039774G85X064643Y039728
X069723Y039774G85X069723Y039728
X072263Y054991
X067183Y054991
X062103Y054991
X057023Y054991
X051943Y054991
X046863Y054991
X041783Y054991
X036703Y054991
T05
X046736Y060706
X041656Y060706
T06
X062103Y061620G85X062103Y061570
X064643Y061620G85X064643Y061570
X059563Y061620G85X059563Y061570
X010817Y058498
X027962Y058498
X010817Y019001
X027962Y019001
T07
X067053Y024384G85X067059Y024384
X069593Y024384G85X069599Y024384
X059560Y024257G85X059566Y024257
X062100Y024257G85X062106Y024257
T08
X052070Y033206
X054610Y033156
X057150Y033156
X059690Y033156
X062230Y033156
X064770Y033156
X067310Y033156
X069850Y033156
T09
X038100Y033904
X035560Y033914
X040640Y033904
T10
X050800Y019558
X045720Y019558
X040386Y019558
X035306Y019558
M30
