G04 Layer: TopSilkscreenLayer*
G04 EasyEDA v6.5.39, 2024-02-03 14:28:59*
G04 bcd3f98de95e48d085ed2947a1ad00ac,362fd913e7484c3682bebf37a00ceee6,10*
G04 Gerber Generator version 0.2*
G04 Scale: 100 percent, Rotated: No, Reflected: No *
G04 Dimensions in millimeters *
G04 leading zeros omitted , absolute positions ,4 integer and 5 decimal *
%FSLAX45Y45*%
%MOMM*%

%ADD10C,0.1524*%
%ADD11C,0.1000*%
%ADD12C,0.2032*%
%ADD13C,0.1500*%
%ADD14C,0.1270*%
%ADD15C,0.2540*%
%ADD16C,0.1200*%
%ADD17C,0.2000*%
%ADD18C,0.1520*%
%ADD19C,0.4000*%
%ADD20C,0.0133*%

%LPD*%
G36*
X1879600Y5703519D02*
G01*
X1879600Y5701080D01*
X1877161Y5696407D01*
X1875282Y5694172D01*
X1870202Y5690260D01*
X1867103Y5683046D01*
X1865274Y5681827D01*
X1862886Y5675223D01*
X1860651Y5672531D01*
X1858568Y5666790D01*
X1855114Y5662168D01*
X1855114Y5658764D01*
X1854149Y5654548D01*
X1850643Y5651042D01*
X1849424Y5646420D01*
X1848066Y5643829D01*
X1865223Y5643829D01*
X1865884Y5648248D01*
X1866950Y5653125D01*
X1867865Y5651347D01*
X1867814Y5643930D01*
X1867052Y5641644D01*
X1865223Y5643829D01*
X1848066Y5643829D01*
X1847088Y5642000D01*
X1845564Y5636514D01*
X1843735Y5618632D01*
X1843684Y5611825D01*
X1841906Y5608726D01*
X1840738Y5601970D01*
X1841296Y5591962D01*
X1843481Y5584698D01*
X1844548Y5579719D01*
X1843938Y5557266D01*
X1846478Y5544261D01*
X1846478Y5527294D01*
X1847545Y5522569D01*
X1850034Y5518200D01*
X1850593Y5512460D01*
X1850796Y5498236D01*
X1854606Y5489448D01*
X1854504Y5440832D01*
X1854657Y5432806D01*
X1853184Y5430367D01*
X1851964Y5434076D01*
X1852472Y5439613D01*
X1851558Y5451348D01*
X1850034Y5456834D01*
X1850034Y5461203D01*
X1846376Y5474462D01*
X1844903Y5475884D01*
X1839569Y5477408D01*
X1834946Y5475782D01*
X1832660Y5472785D01*
X1832102Y5450738D01*
X1830476Y5443626D01*
X1829409Y5444032D01*
X1828749Y5447030D01*
X1828647Y5478576D01*
X1824532Y5483148D01*
X1824532Y5500776D01*
X1823161Y5507177D01*
X1820621Y5511850D01*
X1818792Y5519623D01*
X1816506Y5522569D01*
X1813864Y5533491D01*
X1811832Y5536184D01*
X1810359Y5542889D01*
X1808835Y5546394D01*
X1806752Y5548680D01*
X1804619Y5556758D01*
X1802180Y5561126D01*
X1800910Y5567832D01*
X1797100Y5572252D01*
X1796440Y5575655D01*
X1793748Y5579110D01*
X1790547Y5584698D01*
X1783791Y5593334D01*
X1782267Y5598718D01*
X1774342Y5609234D01*
X1770735Y5611215D01*
X1767382Y5615838D01*
X1766316Y5615838D01*
X1762048Y5621426D01*
X1757019Y5621375D01*
X1753107Y5619648D01*
X1751228Y5617565D01*
X1749653Y5611926D01*
X1752549Y5606897D01*
X1757375Y5600750D01*
X1759712Y5594553D01*
X1762353Y5591556D01*
X1764030Y5584444D01*
X1766214Y5581700D01*
X1767992Y5578500D01*
X1767992Y5572912D01*
X1771497Y5564886D01*
X1773021Y5551932D01*
X1774088Y5548884D01*
X1776171Y5545785D01*
X1776323Y5493562D01*
X1774088Y5490210D01*
X1772361Y5486552D01*
X1772208Y5477256D01*
X1770888Y5472480D01*
X1768703Y5468518D01*
X1767433Y5456885D01*
X1764487Y5449519D01*
X1762353Y5439918D01*
X1762353Y5434076D01*
X1759305Y5427624D01*
X1757934Y5416550D01*
X1755190Y5411673D01*
X1753209Y5403850D01*
X1751177Y5400497D01*
X1748078Y5385562D01*
X1745589Y5380990D01*
X1743913Y5372658D01*
X1741017Y5369052D01*
X1739950Y5364327D01*
X1739950Y5361686D01*
X1736394Y5357164D01*
X1735277Y5349290D01*
X1732432Y5343956D01*
X1730146Y5335473D01*
X1727352Y5331612D01*
X1726641Y5328920D01*
X1725675Y5321808D01*
X1722678Y5317998D01*
X1720443Y5309362D01*
X1717649Y5305044D01*
X1713026Y5293918D01*
X1711756Y5284063D01*
X1709470Y5280964D01*
X1708302Y5278221D01*
X1707946Y5263692D01*
X1707134Y5261203D01*
X1703730Y5257342D01*
X1703906Y5211826D01*
X1728165Y5211826D01*
X1728876Y5221732D01*
X1728673Y5250129D01*
X1730248Y5253177D01*
X1731873Y5257444D01*
X1733753Y5275427D01*
X1736293Y5280964D01*
X1738274Y5295239D01*
X1740916Y5300116D01*
X1741982Y5305653D01*
X1741982Y5310733D01*
X1743151Y5314950D01*
X1745488Y5318302D01*
X1746554Y5325414D01*
X1747672Y5330952D01*
X1749501Y5333441D01*
X1751025Y5338978D01*
X1751736Y5345988D01*
X1754174Y5349189D01*
X1755241Y5353812D01*
X1755241Y5356301D01*
X1756714Y5364632D01*
X1758797Y5368239D01*
X1761236Y5379923D01*
X1763268Y5383428D01*
X1764334Y5387746D01*
X1765452Y5397042D01*
X1768449Y5404053D01*
X1770024Y5416143D01*
X1771904Y5419242D01*
X1773123Y5422036D01*
X1775104Y5433212D01*
X1777644Y5436920D01*
X1779168Y5446826D01*
X1782216Y5453938D01*
X1783334Y5464860D01*
X1784350Y5470702D01*
X1785772Y5472125D01*
X1787296Y5477865D01*
X1788414Y5489600D01*
X1790903Y5500725D01*
X1792478Y5519267D01*
X1793087Y5522671D01*
X1793900Y5523280D01*
X1796592Y5509158D01*
X1798370Y5506262D01*
X1799132Y5503824D01*
X1800606Y5487466D01*
X1803755Y5476036D01*
X1804314Y5455666D01*
X1803146Y5437073D01*
X1802217Y5433822D01*
X1824177Y5433822D01*
X1824685Y5440222D01*
X1825599Y5443118D01*
X1828393Y5442712D01*
X1828698Y5440019D01*
X1825955Y5430621D01*
X1824177Y5433822D01*
X1802217Y5433822D01*
X1801114Y5429961D01*
X1800098Y5419852D01*
X1799082Y5404916D01*
X1796592Y5395671D01*
X1795018Y5384698D01*
X1794967Y5377180D01*
X1796999Y5374944D01*
X1801926Y5374335D01*
X1807667Y5375808D01*
X1812086Y5379415D01*
X1813610Y5379466D01*
X1817674Y5380786D01*
X1820824Y5384850D01*
X1824024Y5386882D01*
X1825599Y5390489D01*
X1827072Y5389829D01*
X1827784Y5385358D01*
X1826615Y5372658D01*
X1823516Y5366004D01*
X1822043Y5355844D01*
X1818132Y5350713D01*
X1816811Y5345023D01*
X1814322Y5343601D01*
X1812848Y5339334D01*
X1812848Y5333847D01*
X1814423Y5331917D01*
X1816455Y5330596D01*
X1819910Y5331968D01*
X1822246Y5334203D01*
X1829155Y5336946D01*
X1831949Y5339740D01*
X1837232Y5342991D01*
X1838553Y5345328D01*
X1843887Y5348579D01*
X1851304Y5357926D01*
X1852980Y5362549D01*
X1855571Y5364581D01*
X1857502Y5369864D01*
X1860651Y5373928D01*
X1862531Y5378754D01*
X1864664Y5379923D01*
X1866493Y5384698D01*
X1869439Y5387746D01*
X1871116Y5395163D01*
X1872843Y5397652D01*
X1874062Y5400548D01*
X1876094Y5409387D01*
X1877517Y5411266D01*
X1878990Y5415534D01*
X1880971Y5447639D01*
X1882292Y5451348D01*
X1882393Y5460593D01*
X1880717Y5466181D01*
X1880158Y5470499D01*
X1879092Y5489143D01*
X1877110Y5501589D01*
X1876145Y5503824D01*
X1875028Y5511850D01*
X1873961Y5524195D01*
X1871014Y5531612D01*
X1869897Y5539638D01*
X1868322Y5544769D01*
X1866950Y5546140D01*
X1864766Y5559094D01*
X1862328Y5562600D01*
X1861261Y5568035D01*
X1859686Y5580329D01*
X1857756Y5584342D01*
X1856689Y5596077D01*
X1856689Y5619851D01*
X1857603Y5624576D01*
X1859178Y5626049D01*
X1860651Y5630367D01*
X1861769Y5640070D01*
X1862378Y5641238D01*
X1864563Y5640832D01*
X1864055Y5629148D01*
X1864258Y5583428D01*
X1865782Y5573928D01*
X1867916Y5570474D01*
X1868881Y5562447D01*
X1869439Y5559653D01*
X1872335Y5555945D01*
X1873605Y5548274D01*
X1874621Y5543956D01*
X1876653Y5540451D01*
X1878939Y5528056D01*
X1881581Y5525109D01*
X1883156Y5518810D01*
X1886254Y5514543D01*
X1887931Y5507177D01*
X1890318Y5504078D01*
X1891690Y5500725D01*
X1892350Y5496255D01*
X1895348Y5490870D01*
X1897430Y5484063D01*
X1899920Y5480558D01*
X1901139Y5476036D01*
X1904085Y5471414D01*
X1907082Y5463336D01*
X1908556Y5462676D01*
X1910892Y5454650D01*
X1913331Y5451449D01*
X1915363Y5444998D01*
X1918309Y5441137D01*
X1920036Y5433618D01*
X1922475Y5430113D01*
X1924913Y5421325D01*
X1927504Y5417616D01*
X1927504Y5416092D01*
X1929028Y5409844D01*
X1931974Y5405424D01*
X1933702Y5393029D01*
X1936292Y5388457D01*
X1938731Y5373116D01*
X1940966Y5369356D01*
X1942236Y5361228D01*
X1942287Y5354421D01*
X1940712Y5351678D01*
X1936394Y5358130D01*
X1931162Y5361838D01*
X1930146Y5364429D01*
X1926386Y5366562D01*
X1924354Y5370728D01*
X1922373Y5371490D01*
X1908911Y5386730D01*
X1904847Y5389168D01*
X1902358Y5392369D01*
X1896821Y5394299D01*
X1894484Y5397347D01*
X1891792Y5393029D01*
X1890725Y5389422D01*
X1892249Y5385155D01*
X1895805Y5378907D01*
X1896516Y5371896D01*
X1897989Y5366816D01*
X1899412Y5364886D01*
X1900986Y5356910D01*
X1900986Y5351322D01*
X1903018Y5334660D01*
X1903018Y5325110D01*
X1901545Y5313680D01*
X1899970Y5296814D01*
X1899310Y5294579D01*
X1897430Y5291480D01*
X1895856Y5281574D01*
X1894890Y5277154D01*
X1892807Y5274919D01*
X1890217Y5264607D01*
X1889252Y5264607D01*
X1886762Y5258155D01*
X1886712Y5255920D01*
X1883257Y5251754D01*
X1881479Y5245150D01*
X1878126Y5241747D01*
X1876501Y5235752D01*
X1874418Y5233466D01*
X1872030Y5227777D01*
X1869439Y5225694D01*
X1867357Y5220868D01*
X1865579Y5219242D01*
X1862582Y5214315D01*
X1854860Y5203291D01*
X1853133Y5199786D01*
X1851812Y5199786D01*
X1844446Y5190642D01*
X1844446Y5189626D01*
X1841347Y5187492D01*
X1839671Y5183987D01*
X1836775Y5181955D01*
X1834997Y5178247D01*
X1832660Y5176977D01*
X1831136Y5172557D01*
X1827580Y5170068D01*
X1826971Y5167020D01*
X1823008Y5163972D01*
X1823008Y5162651D01*
X1814220Y5152288D01*
X1813052Y5149545D01*
X1810969Y5148224D01*
X1804924Y5140858D01*
X1803196Y5137556D01*
X1801114Y5136743D01*
X1799539Y5133136D01*
X1796643Y5131308D01*
X1794510Y5126939D01*
X1791970Y5125770D01*
X1790242Y5122519D01*
X1786382Y5119573D01*
X1785061Y5116322D01*
X1781098Y5114696D01*
X1778406Y5111699D01*
X1776222Y5110276D01*
X1771294Y5110226D01*
X1767433Y5108549D01*
X1763623Y5105501D01*
X1761236Y5104638D01*
X1756257Y5111191D01*
X1754784Y5117439D01*
X1752041Y5120487D01*
X1749653Y5126888D01*
X1747672Y5128158D01*
X1745538Y5136743D01*
X1742897Y5140604D01*
X1740458Y5150104D01*
X1738630Y5153202D01*
X1737461Y5156911D01*
X1736242Y5165293D01*
X1733956Y5169408D01*
X1732889Y5173573D01*
X1732229Y5182819D01*
X1730806Y5189931D01*
X1729079Y5193080D01*
X1728165Y5211826D01*
X1703906Y5211826D01*
X1704035Y5178399D01*
X1707743Y5173370D01*
X1708454Y5166309D01*
X1707946Y5156454D01*
X1709318Y5150662D01*
X1711401Y5147970D01*
X1712417Y5144770D01*
X1712417Y5139232D01*
X1711299Y5136743D01*
X1706168Y5137607D01*
X1702460Y5139436D01*
X1693062Y5139232D01*
X1688744Y5140807D01*
X1685848Y5143296D01*
X1655876Y5143296D01*
X1652016Y5138775D01*
X1645564Y5136997D01*
X1642364Y5133289D01*
X1636776Y5131104D01*
X1634185Y5127701D01*
X1630527Y5125872D01*
X1628444Y5122621D01*
X1627835Y5122621D01*
X1622196Y5120081D01*
X1620672Y5116474D01*
X1616862Y5114290D01*
X1615490Y5110835D01*
X1609496Y5108346D01*
X1604111Y5099710D01*
X1601825Y5094630D01*
X1600911Y5093512D01*
X1596491Y5095087D01*
X1594104Y5097627D01*
X1589328Y5097424D01*
X1573377Y5097424D01*
X1562303Y5088890D01*
X1559001Y5087315D01*
X1556061Y5083860D01*
X1627225Y5083860D01*
X1627784Y5086553D01*
X1627835Y5090210D01*
X1630933Y5092395D01*
X1632407Y5096713D01*
X1635404Y5098542D01*
X1636064Y5101031D01*
X1639773Y5104434D01*
X1641703Y5107279D01*
X1645666Y5109210D01*
X1647189Y5111851D01*
X1653489Y5114950D01*
X1654556Y5117388D01*
X1656080Y5118862D01*
X1658670Y5119573D01*
X1662226Y5123281D01*
X1667814Y5125161D01*
X1669846Y5126278D01*
X1674520Y5126329D01*
X1676857Y5123332D01*
X1676146Y5117084D01*
X1672742Y5113680D01*
X1669999Y5108752D01*
X1668018Y5107127D01*
X1664970Y5100523D01*
X1663446Y5099812D01*
X1660906Y5092903D01*
X1658010Y5089906D01*
X1656740Y5083606D01*
X1653895Y5080558D01*
X1652219Y5075478D01*
X1649374Y5071567D01*
X1647088Y5060442D01*
X1643227Y5059070D01*
X1642059Y5059070D01*
X1641093Y5061864D01*
X1640027Y5067096D01*
X1636979Y5071262D01*
X1635506Y5075631D01*
X1632508Y5078526D01*
X1631340Y5081270D01*
X1627225Y5083860D01*
X1556061Y5083860D01*
X1554937Y5082540D01*
X1553514Y5082540D01*
X1546250Y5074107D01*
X1546250Y5072837D01*
X1543761Y5071465D01*
X1541729Y5066639D01*
X1538528Y5065064D01*
X1536852Y5061864D01*
X1535023Y5060188D01*
X1532585Y5054447D01*
X1530502Y5052872D01*
X1527352Y5045811D01*
X1524863Y5041595D01*
X1524863Y5039461D01*
X1523492Y5038090D01*
X1516684Y5036921D01*
X1516014Y5036413D01*
X1553311Y5036413D01*
X1554022Y5045760D01*
X1557375Y5049469D01*
X1559966Y5055768D01*
X1562608Y5057902D01*
X1564233Y5061864D01*
X1569364Y5064810D01*
X1572869Y5068824D01*
X1580692Y5070195D01*
X1587296Y5074107D01*
X1600047Y5075123D01*
X1609191Y5073192D01*
X1619910Y5069586D01*
X1624482Y5069535D01*
X1629054Y5067909D01*
X1630933Y5059680D01*
X1633321Y5056276D01*
X1633618Y5055057D01*
X1661820Y5055057D01*
X1664766Y5062728D01*
X1667713Y5064201D01*
X1669542Y5067909D01*
X1674114Y5071110D01*
X1681073Y5078069D01*
X1687575Y5085588D01*
X1698396Y5085588D01*
X1700834Y5083911D01*
X1691538Y5082387D01*
X1689252Y5079238D01*
X1685493Y5074818D01*
X1683715Y5070500D01*
X1680870Y5066182D01*
X1679295Y5061559D01*
X1677212Y5060238D01*
X1674825Y5053838D01*
X1672183Y5050891D01*
X1671015Y5043932D01*
X1671574Y5035651D01*
X1672386Y5033924D01*
X1679600Y5026456D01*
X1683664Y5025136D01*
X1687068Y5026304D01*
X1689303Y5028082D01*
X1691132Y5033060D01*
X1690471Y5036210D01*
X1687677Y5037988D01*
X1683867Y5038852D01*
X1683207Y5040071D01*
X1684934Y5041239D01*
X1687525Y5047894D01*
X1696567Y5057749D01*
X1700428Y5058562D01*
X1702612Y5060238D01*
X1704339Y5062321D01*
X1714703Y5063490D01*
X1725422Y5062016D01*
X1726996Y5060340D01*
X1731010Y5058206D01*
X1761286Y5057495D01*
X1764893Y5053330D01*
X1770634Y5052364D01*
X1773021Y5053431D01*
X1773986Y5055666D01*
X1774647Y5061864D01*
X1772513Y5065166D01*
X1766417Y5066639D01*
X1762810Y5070144D01*
X1761083Y5070754D01*
X1748485Y5071973D01*
X1744776Y5074920D01*
X1742592Y5075783D01*
X1731060Y5078120D01*
X1729486Y5080558D01*
X1718818Y5082590D01*
X1713331Y5084114D01*
X1716227Y5086502D01*
X1721357Y5086502D01*
X1730349Y5084876D01*
X1734972Y5085689D01*
X1737410Y5088636D01*
X1737410Y5090566D01*
X1735480Y5092903D01*
X1729486Y5094986D01*
X1727301Y5097424D01*
X1717293Y5100421D01*
X1715211Y5102809D01*
X1712518Y5103622D01*
X1702155Y5103825D01*
X1700682Y5106212D01*
X1701749Y5107482D01*
X1706067Y5109616D01*
X1721357Y5107686D01*
X1723085Y5106568D01*
X1725625Y5103723D01*
X1729638Y5102250D01*
X1734413Y5102250D01*
X1736648Y5100828D01*
X1737918Y5098592D01*
X1742186Y5097221D01*
X1754276Y5095595D01*
X1756003Y5093716D01*
X1760575Y5092496D01*
X1774494Y5090566D01*
X1776069Y5089855D01*
X1776577Y5088128D01*
X1781657Y5085029D01*
X1782064Y5084064D01*
X1781302Y5068011D01*
X1780133Y5064302D01*
X1777644Y5061864D01*
X1779005Y5056632D01*
X1799082Y5056632D01*
X1799082Y5060594D01*
X1800606Y5068011D01*
X1802079Y5080254D01*
X1805127Y5085435D01*
X1807260Y5092293D01*
X1808937Y5093919D01*
X1811731Y5101336D01*
X1814880Y5104993D01*
X1814880Y5106314D01*
X1818944Y5112258D01*
X1821180Y5117084D01*
X1823466Y5118912D01*
X1824583Y5123078D01*
X1828647Y5127040D01*
X1828647Y5128666D01*
X1842058Y5146192D01*
X1844141Y5149392D01*
X1848002Y5154168D01*
X1848002Y5155184D01*
X1852066Y5160213D01*
X1852066Y5162143D01*
X1856130Y5165242D01*
X1856130Y5167122D01*
X1864106Y5177282D01*
X1867255Y5182819D01*
X1869998Y5185918D01*
X1871573Y5189575D01*
X1874113Y5191963D01*
X1875536Y5196078D01*
X1878126Y5198160D01*
X1880107Y5202834D01*
X1882139Y5204155D01*
X1884578Y5208778D01*
X1887829Y5213096D01*
X1889353Y5217566D01*
X1893366Y5221478D01*
X1893366Y5222951D01*
X1897227Y5227320D01*
X1898497Y5232552D01*
X1901494Y5236210D01*
X1902663Y5241086D01*
X1906168Y5245557D01*
X1908200Y5251348D01*
X1910588Y5253837D01*
X1915261Y5264912D01*
X1916938Y5278526D01*
X1919884Y5286044D01*
X1921408Y5299964D01*
X1920595Y5337149D01*
X1920951Y5345430D01*
X1922373Y5346801D01*
X1924862Y5342026D01*
X1927606Y5339842D01*
X1928622Y5336286D01*
X1932076Y5333796D01*
X1932076Y5332018D01*
X1936496Y5326024D01*
X1939798Y5320182D01*
X1940814Y5320182D01*
X1942947Y5314289D01*
X1945792Y5310327D01*
X1947875Y5301843D01*
X1949957Y5299608D01*
X1952498Y5289448D01*
X1954072Y5287873D01*
X1955444Y5284673D01*
X1956104Y5279136D01*
X1957171Y5275122D01*
X1959203Y5273395D01*
X1961083Y5259832D01*
X1963572Y5253837D01*
X1965299Y5242102D01*
X1966417Y5235905D01*
X1968296Y5230571D01*
X1968246Y5198262D01*
X1966671Y5193334D01*
X1964791Y5185613D01*
X1964080Y5177129D01*
X1965248Y5172811D01*
X1967636Y5170119D01*
X1969262Y5170881D01*
X1972056Y5175351D01*
X1979422Y5184698D01*
X1981809Y5188407D01*
X1984705Y5192064D01*
X1985670Y5195417D01*
X1988210Y5197398D01*
X1990089Y5202631D01*
X1993696Y5207304D01*
X1995424Y5212740D01*
X1996338Y5212740D01*
X1998370Y5216804D01*
X1998370Y5222138D01*
X1999894Y5229402D01*
X2002028Y5233771D01*
X2003907Y5248249D01*
X2005533Y5258765D01*
X2007006Y5272328D01*
X2008174Y5295798D01*
X2007565Y5332831D01*
X2005939Y5345734D01*
X2004568Y5349595D01*
X2002891Y5365546D01*
X2001926Y5371490D01*
X1999437Y5377891D01*
X1998776Y5388406D01*
X1997760Y5397652D01*
X1994611Y5404916D01*
X1993747Y5418632D01*
X1990598Y5426659D01*
X1988616Y5449366D01*
X1985670Y5460238D01*
X1983435Y5477256D01*
X1982978Y5488990D01*
X1984146Y5510580D01*
X1985619Y5523585D01*
X1987499Y5526633D01*
X1988667Y5529275D01*
X1989734Y5538368D01*
X1990902Y5545785D01*
X1992426Y5541467D01*
X1993188Y5488990D01*
X1994103Y5484063D01*
X1996236Y5479135D01*
X1997405Y5469229D01*
X1998472Y5464911D01*
X2000453Y5462270D01*
X2002536Y5449519D01*
X2005431Y5443931D01*
X2006650Y5435904D01*
X2008174Y5432196D01*
X2009393Y5430367D01*
X2011832Y5421934D01*
X2014321Y5418632D01*
X2016252Y5410809D01*
X2019147Y5407152D01*
X2020824Y5398058D01*
X2023160Y5395061D01*
X2024278Y5391454D01*
X2025345Y5386374D01*
X2028443Y5381701D01*
X2030222Y5375605D01*
X2032254Y5372912D01*
X2034997Y5365546D01*
X2037486Y5362448D01*
X2039112Y5355640D01*
X2042210Y5352034D01*
X2043226Y5347462D01*
X2045868Y5343804D01*
X2048103Y5335625D01*
X2051405Y5330698D01*
X2053488Y5324805D01*
X2055368Y5322316D01*
X2058009Y5314340D01*
X2060397Y5311241D01*
X2062022Y5305247D01*
X2065629Y5300421D01*
X2065680Y5297627D01*
X2067052Y5292953D01*
X2069592Y5288381D01*
X2071319Y5281168D01*
X2073706Y5278272D01*
X2075230Y5272328D01*
X2075891Y5268366D01*
X2078888Y5263794D01*
X2080412Y5251653D01*
X2083409Y5244541D01*
X2084984Y5231231D01*
X2088032Y5224119D01*
X2089200Y5211876D01*
X2088642Y5182819D01*
X2087473Y5177282D01*
X2084933Y5170728D01*
X2083511Y5160518D01*
X2080463Y5155844D01*
X2079853Y5151323D01*
X2078228Y5145786D01*
X2075992Y5143042D01*
X2074773Y5138166D01*
X2071268Y5133035D01*
X2070049Y5128107D01*
X2066137Y5124399D01*
X2066137Y5123180D01*
X2059635Y5115306D01*
X2058365Y5117084D01*
X2058974Y5123434D01*
X2061464Y5128006D01*
X2062683Y5142077D01*
X2061667Y5177891D01*
X2059990Y5184089D01*
X2058974Y5190185D01*
X2058009Y5213705D01*
X2056892Y5223459D01*
X2055063Y5227878D01*
X2053945Y5234686D01*
X2053336Y5241493D01*
X2052320Y5246268D01*
X2049932Y5250738D01*
X2048256Y5262473D01*
X2045817Y5268620D01*
X2043226Y5282031D01*
X2041347Y5285282D01*
X2039518Y5292699D01*
X2036927Y5296103D01*
X2034438Y5293309D01*
X2033422Y5290261D01*
X2033066Y5239867D01*
X2030475Y5232806D01*
X2029460Y5226964D01*
X2028850Y5209997D01*
X2027834Y5203494D01*
X2026920Y5203494D01*
X2025396Y5199938D01*
X2023719Y5190845D01*
X2021332Y5186527D01*
X2020417Y5183428D01*
X2019147Y5172100D01*
X2016760Y5168900D01*
X2014626Y5157317D01*
X2011730Y5152948D01*
X2009952Y5145176D01*
X2007107Y5141214D01*
X2005279Y5134051D01*
X2002485Y5130088D01*
X2001266Y5122519D01*
X1997506Y5117998D01*
X1996135Y5111851D01*
X1993239Y5108752D01*
X1990953Y5103622D01*
X1986229Y5096205D01*
X1984959Y5099507D01*
X1983587Y5107432D01*
X1981098Y5111851D01*
X1979879Y5123789D01*
X1974138Y5134559D01*
X1972360Y5135880D01*
X1967331Y5129834D01*
X1965299Y5124196D01*
X1964639Y5117998D01*
X1963521Y5113680D01*
X1961184Y5109362D01*
X1959610Y5097373D01*
X1958949Y5095189D01*
X1957120Y5092344D01*
X1954885Y5079898D01*
X1952498Y5076494D01*
X1949805Y5067401D01*
X1947976Y5065877D01*
X1945741Y5057698D01*
X1942846Y5053736D01*
X1941423Y5048758D01*
X1938274Y5043932D01*
X1936648Y5038394D01*
X1933803Y5034686D01*
X1931670Y5031232D01*
X1927809Y5028082D01*
X1920798Y5026863D01*
X1919224Y5027625D01*
X1908403Y5026304D01*
X1899716Y5024983D01*
X1895652Y5022799D01*
X1893824Y5022037D01*
X1873910Y5020157D01*
X1869186Y5018887D01*
X1867611Y5017211D01*
X1851304Y5015128D01*
X1817624Y5014976D01*
X1814118Y5016703D01*
X1809750Y5021427D01*
X1807362Y5022748D01*
X1804568Y5033467D01*
X1802536Y5037734D01*
X1800656Y5049469D01*
X1799082Y5056632D01*
X1779005Y5056632D01*
X1780743Y5053939D01*
X1782318Y5047335D01*
X1784654Y5043932D01*
X1786382Y5039918D01*
X1785213Y5037277D01*
X1769719Y5039106D01*
X1766976Y5041290D01*
X1752142Y5043576D01*
X1748231Y5044897D01*
X1743760Y5047894D01*
X1736648Y5049316D01*
X1705864Y5049469D01*
X1703222Y5046522D01*
X1703222Y5043576D01*
X1704695Y5040223D01*
X1707235Y5037328D01*
X1710943Y5035804D01*
X1716227Y5036870D01*
X1729232Y5035651D01*
X1732788Y5033822D01*
X1736140Y5030724D01*
X1745284Y5026812D01*
X1754479Y5024628D01*
X1765706Y5023256D01*
X1772107Y5020106D01*
X1781505Y5018938D01*
X1786585Y5017617D01*
X1788617Y5013706D01*
X1794560Y5012690D01*
X1794154Y5011267D01*
X1770938Y5010962D01*
X1765706Y5009794D01*
X1755648Y5008270D01*
X1730502Y5010302D01*
X1700428Y5010454D01*
X1692503Y5009540D01*
X1689557Y5006543D01*
X1916328Y5006543D01*
X1918055Y5007152D01*
X1923186Y5007914D01*
X1928469Y5009692D01*
X1929942Y5012232D01*
X1933854Y5013960D01*
X1935683Y5014010D01*
X1943049Y5023154D01*
X1947113Y5029047D01*
X1949348Y5034432D01*
X1952091Y5037023D01*
X1953361Y5040680D01*
X1956104Y5044541D01*
X1961184Y5052466D01*
X1963166Y5060696D01*
X1965248Y5062982D01*
X1966163Y5067401D01*
X1967230Y5083556D01*
X1967890Y5085588D01*
X1968855Y5085588D01*
X1970786Y5084368D01*
X1971802Y5079746D01*
X1974951Y5059781D01*
X1981758Y5052720D01*
X1984959Y5057190D01*
X1988210Y5058562D01*
X1990191Y5063286D01*
X1992985Y5064963D01*
X1994255Y5068062D01*
X1998370Y5072075D01*
X1998370Y5073700D01*
X2002332Y5078984D01*
X2003602Y5084673D01*
X2007362Y5089652D01*
X2008632Y5095798D01*
X2011121Y5098237D01*
X2013610Y5106466D01*
X2016048Y5109413D01*
X2018233Y5118252D01*
X2019604Y5119268D01*
X2021230Y5122316D01*
X2021941Y5128514D01*
X2022957Y5131003D01*
X2025243Y5134254D01*
X2027478Y5146090D01*
X2028393Y5146090D01*
X2029866Y5149545D01*
X2032000Y5159908D01*
X2033473Y5161889D01*
X2035048Y5169255D01*
X2036572Y5183835D01*
X2036572Y5189372D01*
X2038096Y5192979D01*
X2039670Y5205069D01*
X2041448Y5212892D01*
X2042617Y5206492D01*
X2043277Y5184698D01*
X2044801Y5176672D01*
X2046274Y5173929D01*
X2046274Y5164226D01*
X2044242Y5153202D01*
X2043175Y5137150D01*
X2042261Y5116779D01*
X2040585Y5111242D01*
X2039477Y5106416D01*
X2070201Y5106416D01*
X2072843Y5108549D01*
X2082038Y5119573D01*
X2083003Y5119573D01*
X2087473Y5125110D01*
X2089150Y5125110D01*
X2095957Y5128818D01*
X2103069Y5129885D01*
X2107692Y5129885D01*
X2110689Y5129123D01*
X2110536Y5127904D01*
X2102053Y5125770D01*
X2099818Y5122621D01*
X2097176Y5121402D01*
X2091080Y5121402D01*
X2088591Y5118354D01*
X2088591Y5115814D01*
X2090166Y5112054D01*
X2094534Y5109718D01*
X2111248Y5107533D01*
X2112975Y5103368D01*
X2115108Y5100624D01*
X2112467Y5093462D01*
X2111756Y5089093D01*
X2109927Y5087772D01*
X2106676Y5092344D01*
X2101545Y5094732D01*
X2097989Y5097221D01*
X2092909Y5098491D01*
X2078634Y5099202D01*
X2072741Y5100574D01*
X2070862Y5103825D01*
X2070201Y5106416D01*
X2039477Y5106416D01*
X2039162Y5105044D01*
X2038096Y5089601D01*
X2037130Y5083149D01*
X2035098Y5079746D01*
X2033117Y5070703D01*
X2030425Y5067249D01*
X2028494Y5059680D01*
X2025446Y5055463D01*
X2024131Y5049926D01*
X2044649Y5049926D01*
X2045258Y5052923D01*
X2047748Y5055565D01*
X2049983Y5067757D01*
X2052878Y5071364D01*
X2054656Y5078933D01*
X2057501Y5080711D01*
X2057501Y5081574D01*
X2059533Y5085638D01*
X2062327Y5084826D01*
X2069185Y5080355D01*
X2069795Y5078120D01*
X2069287Y5077510D01*
X2063343Y5075834D01*
X2061819Y5073040D01*
X2057501Y5067960D01*
X2057501Y5066639D01*
X2059330Y5064607D01*
X2064054Y5063540D01*
X2073046Y5064760D01*
X2077364Y5066588D01*
X2077364Y5067604D01*
X2082698Y5069230D01*
X2099513Y5069179D01*
X2105456Y5067706D01*
X2108301Y5064912D01*
X2111502Y5062829D01*
X2111502Y5055870D01*
X2113178Y5051602D01*
X2116328Y5050840D01*
X2115454Y5050586D01*
X2120036Y5050586D01*
X2121662Y5051704D01*
X2126691Y5071110D01*
X2127402Y5080965D01*
X2128164Y5085435D01*
X2130298Y5088026D01*
X2131466Y5093157D01*
X2132177Y5101437D01*
X2135835Y5108143D01*
X2137410Y5112664D01*
X2139594Y5113477D01*
X2142083Y5118303D01*
X2145639Y5120132D01*
X2146858Y5123281D01*
X2147671Y5123281D01*
X2147671Y5122164D01*
X2151024Y5120589D01*
X2152751Y5118811D01*
X2153920Y5114290D01*
X2156307Y5111242D01*
X2157272Y5108092D01*
X2157984Y5099507D01*
X2161184Y5090210D01*
X2161184Y5076037D01*
X2158898Y5072430D01*
X2157374Y5066080D01*
X2156855Y5065420D01*
X2176830Y5065420D01*
X2176830Y5080152D01*
X2177643Y5089906D01*
X2178913Y5091785D01*
X2184247Y5091785D01*
X2188565Y5086553D01*
X2191156Y5080000D01*
X2193137Y5078730D01*
X2192528Y5074564D01*
X2188921Y5065115D01*
X2185517Y5059730D01*
X2184857Y5056124D01*
X2182317Y5053228D01*
X2179218Y5046726D01*
X2178862Y5046726D01*
X2176881Y5050739D01*
X2176830Y5065420D01*
X2156855Y5065420D01*
X2149754Y5056022D01*
X2147722Y5054701D01*
X2141474Y5052364D01*
X2139543Y5050282D01*
X2131618Y5049266D01*
X2124710Y5049164D01*
X2120036Y5050586D01*
X2115454Y5050586D01*
X2110740Y5049266D01*
X2096262Y5048605D01*
X2087473Y5047284D01*
X2082190Y5043932D01*
X2054148Y5043982D01*
X2045512Y5044744D01*
X2044649Y5049926D01*
X2024131Y5049926D01*
X2023821Y5048605D01*
X2017979Y5040477D01*
X1998116Y5016449D01*
X1992833Y5014569D01*
X1989124Y5010962D01*
X1981047Y5009032D01*
X1977694Y5005476D01*
X1960880Y5001564D01*
X1957832Y5000447D01*
X1945030Y4999177D01*
X1927453Y5000294D01*
X1917395Y5003698D01*
X1916328Y5006543D01*
X1689557Y5006543D01*
X1688541Y5005527D01*
X1681581Y5003952D01*
X1679295Y5002936D01*
X1674215Y5006797D01*
X1674215Y5007914D01*
X1669491Y5010404D01*
X1664157Y5016906D01*
X1661972Y5029962D01*
X1662023Y5038394D01*
X1662836Y5045049D01*
X1661820Y5055057D01*
X1633618Y5055057D01*
X1635353Y5047894D01*
X1637842Y5043932D01*
X1638554Y5041290D01*
X1639976Y5030571D01*
X1641602Y5027574D01*
X1642516Y5027574D01*
X1643989Y5021732D01*
X1645869Y5011826D01*
X1644497Y5006898D01*
X1642364Y5000498D01*
X1640078Y4999228D01*
X1637487Y4994249D01*
X1636115Y4994249D01*
X1629410Y4987086D01*
X1621434Y4983886D01*
X1614932Y4982413D01*
X1609699Y4983276D01*
X1605280Y4985613D01*
X1601571Y4985613D01*
X1597507Y4987340D01*
X1591614Y4988204D01*
X1588820Y4991608D01*
X1583944Y4995011D01*
X1580997Y5002123D01*
X1577949Y5005171D01*
X1576425Y5008829D01*
X1572260Y5011064D01*
X1570634Y5014112D01*
X1564843Y5017211D01*
X1562760Y5020360D01*
X1558696Y5022342D01*
X1554378Y5028082D01*
X1553311Y5036413D01*
X1516014Y5036413D01*
X1513382Y5034381D01*
X1507185Y5030724D01*
X1505508Y5027676D01*
X1498600Y5025796D01*
X1496060Y5022189D01*
X1493520Y5021326D01*
X1489811Y5019446D01*
X1488440Y5016347D01*
X1484122Y5012740D01*
X1482496Y5005984D01*
X1479600Y5003190D01*
X1477467Y4997196D01*
X1474927Y4994757D01*
X1474927Y4992268D01*
X1474372Y4989626D01*
X1497380Y4989626D01*
X1498701Y4995773D01*
X1502359Y4998872D01*
X1504543Y5002276D01*
X1509115Y5002276D01*
X1512874Y5004206D01*
X1515414Y5007152D01*
X1520088Y5009540D01*
X1522171Y5012944D01*
X1526641Y5013807D01*
X1545488Y5013299D01*
X1548333Y5011978D01*
X1552041Y5007864D01*
X1555292Y5005984D01*
X1556410Y5000752D01*
X1557020Y4995367D01*
X1555851Y4993640D01*
X1551127Y4993640D01*
X1547012Y4992268D01*
X1540764Y4988712D01*
X1522171Y4985410D01*
X1500124Y4986223D01*
X1497380Y4989626D01*
X1474372Y4989626D01*
X1473250Y4983988D01*
X1470406Y4982006D01*
X1469136Y4976977D01*
X1465630Y4972354D01*
X1463700Y4967224D01*
X1460144Y4964633D01*
X1459026Y4961839D01*
X1454861Y4959502D01*
X1449425Y4953508D01*
X1448460Y4953508D01*
X1444853Y4949190D01*
X1443380Y4949190D01*
X1440738Y4945176D01*
X1437690Y4941214D01*
X1437690Y4939842D01*
X1431594Y4932527D01*
X1429054Y4932527D01*
X1429054Y4906264D01*
X1446174Y4906264D01*
X1446784Y4907534D01*
X1448308Y4914950D01*
X1449374Y4918202D01*
X1451457Y4919014D01*
X1453489Y4923840D01*
X1456537Y4925771D01*
X1458264Y4928870D01*
X1461414Y4930800D01*
X1470863Y4942078D01*
X1472488Y4945786D01*
X1474470Y4947462D01*
X1476400Y4952847D01*
X1485087Y4963312D01*
X1489964Y4964023D01*
X1495552Y4965496D01*
X1500784Y4965141D01*
X1504746Y4967579D01*
X1515922Y4968900D01*
X1545488Y4970627D01*
X1554175Y4970272D01*
X1569720Y4968392D01*
X1576476Y4966309D01*
X1582216Y4967173D01*
X1584706Y4967071D01*
X1588820Y4964582D01*
X1596491Y4962652D01*
X1599336Y4958435D01*
X1600911Y4958435D01*
X1602584Y4956403D01*
X1622247Y4956403D01*
X1623822Y4962144D01*
X1626006Y4962753D01*
X1636572Y4964023D01*
X1637995Y4964023D01*
X1641856Y4968798D01*
X1645615Y4970272D01*
X1652016Y4976672D01*
X1662074Y4989017D01*
X1663344Y4992065D01*
X1664563Y5000650D01*
X1665122Y5001717D01*
X1669846Y4997704D01*
X1671523Y4995265D01*
X1670456Y4992065D01*
X1662684Y4982718D01*
X1661007Y4978450D01*
X1658823Y4976063D01*
X1656283Y4969560D01*
X1655318Y4969560D01*
X1653336Y4964328D01*
X1652778Y4960924D01*
X1648714Y4956098D01*
X1648714Y4952593D01*
X1647748Y4948478D01*
X1644751Y4944364D01*
X1644244Y4939487D01*
X1662023Y4939487D01*
X1662582Y4943957D01*
X1664106Y4947970D01*
X1669592Y4955387D01*
X1669592Y4956556D01*
X1674825Y4958435D01*
X1675638Y4957826D01*
X1686712Y4957673D01*
X1690420Y4959553D01*
X1691081Y4962144D01*
X1692960Y4963363D01*
X1710791Y4963464D01*
X1716735Y4962194D01*
X1726031Y4960924D01*
X1735632Y4960924D01*
X1751431Y4963261D01*
X1762607Y4964074D01*
X1769262Y4965293D01*
X1780997Y4966970D01*
X1785061Y4968341D01*
X1802790Y4969560D01*
X1809191Y4971389D01*
X1813102Y4971542D01*
X1824786Y4971389D01*
X1830933Y4972659D01*
X1842668Y4973929D01*
X1877822Y4974996D01*
X1881276Y4976317D01*
X1884934Y4979314D01*
X1892096Y4980838D01*
X1894128Y4982057D01*
X1901037Y4987544D01*
X1901901Y4989626D01*
X1901443Y4991201D01*
X1898192Y4993335D01*
X1867611Y4993386D01*
X1845716Y4992522D01*
X1838045Y4989474D01*
X1835251Y4988661D01*
X1816150Y4986375D01*
X1774901Y4986731D01*
X1769160Y4983124D01*
X1760067Y4981803D01*
X1749399Y4977333D01*
X1716227Y4976876D01*
X1710842Y4977688D01*
X1709064Y4980025D01*
X1705305Y4981905D01*
X1702206Y4981905D01*
X1698650Y4983683D01*
X1698650Y4984394D01*
X1701444Y4985766D01*
X1707591Y4986832D01*
X1720850Y4988204D01*
X1726438Y4986883D01*
X1742643Y4985613D01*
X1757730Y4985613D01*
X1762861Y4986934D01*
X1764639Y4989677D01*
X1765960Y4990642D01*
X1773326Y4993081D01*
X1775409Y4995418D01*
X1780997Y4996891D01*
X1794205Y4996180D01*
X1800758Y4992065D01*
X1814525Y4991658D01*
X1822043Y4992522D01*
X1825091Y4995621D01*
X1829054Y4996688D01*
X1852168Y4997958D01*
X1867103Y5000447D01*
X1873250Y5001768D01*
X1897176Y5001971D01*
X1903984Y5000955D01*
X1905101Y4997653D01*
X1908505Y4993132D01*
X1911553Y4991252D01*
X1917547Y4989372D01*
X1923186Y4987290D01*
X1946097Y4986985D01*
X1955800Y4986172D01*
X1983841Y4987899D01*
X1989429Y4991150D01*
X1995678Y4991150D01*
X1996897Y4989423D01*
X1994154Y4987137D01*
X1991106Y4983683D01*
X1985060Y4980736D01*
X1982063Y4977688D01*
X1978202Y4977028D01*
X1969109Y4976215D01*
X1964639Y4974590D01*
X1962810Y4972558D01*
X1950212Y4971440D01*
X1945081Y4970627D01*
X1942236Y4968900D01*
X1940560Y4964328D01*
X1938629Y4961636D01*
X1943455Y4958232D01*
X1948129Y4958384D01*
X1959356Y4959756D01*
X1969566Y4962245D01*
X1985873Y4961382D01*
X1998624Y4961534D01*
X2007260Y4963312D01*
X2020773Y4964734D01*
X2023516Y4965598D01*
X2026920Y4971542D01*
X2026920Y4973828D01*
X2024684Y4976317D01*
X2014931Y4978196D01*
X2012238Y4980635D01*
X2009292Y4981448D01*
X2007514Y4983327D01*
X2007565Y4989626D01*
X2009292Y4992217D01*
X2015591Y4996129D01*
X2026666Y4997450D01*
X2046376Y5002936D01*
X2048256Y5004104D01*
X2048916Y5006746D01*
X2047646Y5009692D01*
X2043988Y5010962D01*
X2035810Y5011674D01*
X2031695Y5014010D01*
X2023008Y5014010D01*
X2021789Y5017160D01*
X2022297Y5018227D01*
X2026869Y5020868D01*
X2027428Y5023002D01*
X2032254Y5025491D01*
X2050084Y5024577D01*
X2076602Y5023764D01*
X2089861Y5025136D01*
X2103069Y5026812D01*
X2109419Y5028895D01*
X2120950Y5029911D01*
X2128418Y5029708D01*
X2129840Y5027371D01*
X2129840Y5021732D01*
X2126284Y5016347D01*
X2125624Y5011826D01*
X2124049Y5006898D01*
X2121662Y5003038D01*
X2120290Y4995164D01*
X2119528Y4993030D01*
X2118664Y4993030D01*
X2116937Y4989830D01*
X2116074Y4984038D01*
X2115127Y4953812D01*
X2136749Y4953812D01*
X2137003Y4978400D01*
X2140051Y4984140D01*
X2141677Y4993944D01*
X2145030Y5002580D01*
X2145690Y5007051D01*
X2148179Y5011216D01*
X2150262Y5015788D01*
X2150262Y5017770D01*
X2153767Y5022037D01*
X2154885Y5027269D01*
X2155799Y5029962D01*
X2160625Y5030673D01*
X2162962Y5027980D01*
X2162962Y5026456D01*
X2165604Y5022646D01*
X2166569Y5018532D01*
X2167393Y5006238D01*
X2186990Y5006238D01*
X2188108Y5008778D01*
X2190445Y5012131D01*
X2191562Y5018887D01*
X2194052Y5022951D01*
X2195626Y5026304D01*
X2197150Y5034330D01*
X2199487Y5037429D01*
X2201418Y5045049D01*
X2204262Y5047030D01*
X2205431Y5050739D01*
X2219452Y5068570D01*
X2224836Y5075123D01*
X2226310Y5075123D01*
X2229510Y5079238D01*
X2237130Y5081828D01*
X2242769Y5084318D01*
X2246833Y5083606D01*
X2250592Y5081270D01*
X2259533Y5078780D01*
X2261108Y5077104D01*
X2264257Y5075174D01*
X2271115Y5073853D01*
X2274366Y5069789D01*
X2280310Y5068112D01*
X2281478Y5065725D01*
X2285339Y5063337D01*
X2291334Y5056276D01*
X2290521Y5051044D01*
X2289302Y5049215D01*
X2287066Y5048402D01*
X2277262Y5035905D01*
X2276551Y5033162D01*
X2273198Y5030012D01*
X2270912Y5022697D01*
X2268931Y5021935D01*
X2266696Y5016296D01*
X2262632Y5014620D01*
X2260447Y5011572D01*
X2257044Y5009896D01*
X2253234Y5009032D01*
X2251202Y5005933D01*
X2245309Y5003393D01*
X2242769Y5000498D01*
X2237130Y4997450D01*
X2234895Y4993741D01*
X2231796Y4992928D01*
X2227630Y4988712D01*
X2223617Y4987239D01*
X2218944Y4981905D01*
X2218131Y4981905D01*
X2216404Y4977536D01*
X2214168Y4976469D01*
X2213051Y4974793D01*
X2211425Y4967833D01*
X2208936Y4965903D01*
X2207209Y4956505D01*
X2205024Y4953203D01*
X2203196Y4948885D01*
X2201976Y4946853D01*
X2197252Y4947716D01*
X2194204Y4950714D01*
X2192528Y4954422D01*
X2191562Y4960620D01*
X2190953Y4987137D01*
X2189886Y4994859D01*
X2187854Y4998008D01*
X2186990Y5006238D01*
X2167393Y5006238D01*
X2167534Y5004257D01*
X2170328Y4994554D01*
X2170125Y4960467D01*
X2168601Y4955997D01*
X2168601Y4951120D01*
X2167534Y4947818D01*
X2166569Y4935321D01*
X2166010Y4931511D01*
X2163013Y4927396D01*
X2161387Y4921453D01*
X2158695Y4919878D01*
X2157577Y4917236D01*
X2156206Y4915255D01*
X2152751Y4915255D01*
X2152142Y4917135D01*
X2154224Y4919522D01*
X2155444Y4923891D01*
X2158339Y4925720D01*
X2159355Y4930343D01*
X2159914Y4934762D01*
X2162505Y4938979D01*
X2163521Y4943602D01*
X2164334Y4961839D01*
X2163470Y4972964D01*
X2161641Y4977231D01*
X2156104Y4979974D01*
X2153869Y4976977D01*
X2152802Y4972354D01*
X2152802Y4961737D01*
X2151735Y4951323D01*
X2147214Y4939385D01*
X2142642Y4938572D01*
X2141677Y4939284D01*
X2140407Y4945786D01*
X2136749Y4953812D01*
X2115127Y4953812D01*
X2114397Y4929124D01*
X2114397Y4917389D01*
X2114829Y4914950D01*
X2151329Y4914950D01*
X2151837Y4913426D01*
X2151380Y4911242D01*
X2151329Y4914950D01*
X2114829Y4914950D01*
X2116429Y4905908D01*
X2110943Y4899152D01*
X2107895Y4898390D01*
X2105411Y4894834D01*
X2177796Y4894834D01*
X2178304Y4896510D01*
X2181199Y4899101D01*
X2183282Y4903927D01*
X2185873Y4907330D01*
X2187549Y4913426D01*
X2189886Y4916170D01*
X2192832Y4922570D01*
X2198014Y4926888D01*
X2201468Y4927396D01*
X2201672Y4927600D01*
X2205431Y4924501D01*
X2206802Y4924501D01*
X2207266Y4923434D01*
X2223109Y4923434D01*
X2223211Y4940249D01*
X2224024Y4946243D01*
X2227224Y4949291D01*
X2229662Y4955032D01*
X2231898Y4957521D01*
X2233777Y4961991D01*
X2237384Y4964582D01*
X2238552Y4967630D01*
X2240838Y4968290D01*
X2244547Y4973269D01*
X2249982Y4976418D01*
X2252065Y4979822D01*
X2255977Y4981244D01*
X2258669Y4984242D01*
X2263648Y4987340D01*
X2265781Y4990236D01*
X2269032Y4992370D01*
X2270709Y4995875D01*
X2273604Y4997450D01*
X2275332Y5000752D01*
X2277160Y5002377D01*
X2279599Y5008118D01*
X2281732Y5010454D01*
X2284425Y5016144D01*
X2287219Y5019852D01*
X2288438Y5024374D01*
X2290876Y5026355D01*
X2293112Y5031587D01*
X2296566Y5036261D01*
X2297176Y5040071D01*
X2300325Y5042357D01*
X2302205Y5046116D01*
X2305050Y5047894D01*
X2307082Y5052009D01*
X2311095Y5053482D01*
X2313584Y5056682D01*
X2317038Y5058460D01*
X2318715Y5058460D01*
X2323287Y5062270D01*
X2330246Y5061712D01*
X2331669Y5059172D01*
X2335530Y5057648D01*
X2340610Y5051348D01*
X2342438Y5047894D01*
X2344978Y5046726D01*
X2346452Y5042509D01*
X2349296Y5039614D01*
X2350668Y5036362D01*
X2353208Y5034737D01*
X2355138Y5030063D01*
X2364536Y5017008D01*
X2368905Y5011928D01*
X2368905Y5010353D01*
X2372512Y5007000D01*
X2374493Y5002377D01*
X2376322Y5000752D01*
X2378202Y4997043D01*
X2380894Y4993944D01*
X2384399Y4988407D01*
X2386990Y4984750D01*
X2391054Y4979974D01*
X2392578Y4976063D01*
X2395118Y4974539D01*
X2397201Y4969256D01*
X2399487Y4968036D01*
X2400604Y4963058D01*
X2402128Y4959350D01*
X2404160Y4956657D01*
X2406091Y4948275D01*
X2408885Y4945278D01*
X2410155Y4940249D01*
X2410155Y4934661D01*
X2409545Y4928158D01*
X2406548Y4924806D01*
X2405176Y4921707D01*
X2390546Y4904892D01*
X2388108Y4903978D01*
X2371191Y4903825D01*
X2366772Y4905146D01*
X2362149Y4909972D01*
X2349144Y4926025D01*
X2343810Y4931816D01*
X2339340Y4934051D01*
X2338781Y4936032D01*
X2336444Y4937353D01*
X2329383Y4938217D01*
X2323896Y4941265D01*
X2317140Y4942433D01*
X2311552Y4941671D01*
X2307691Y4939284D01*
X2300427Y4936845D01*
X2297785Y4933848D01*
X2291994Y4930800D01*
X2290368Y4927701D01*
X2286355Y4925771D01*
X2284679Y4922621D01*
X2280462Y4920386D01*
X2276043Y4915865D01*
X2274468Y4915865D01*
X2270760Y4911090D01*
X2264968Y4909058D01*
X2261920Y4905908D01*
X2258669Y4904790D01*
X2250897Y4903470D01*
X2238298Y4904994D01*
X2232050Y4910328D01*
X2229154Y4911090D01*
X2228240Y4913985D01*
X2224278Y4919268D01*
X2223109Y4923434D01*
X2207266Y4923434D01*
X2207818Y4922164D01*
X2208530Y4911852D01*
X2211324Y4908651D01*
X2213864Y4901742D01*
X2215997Y4900371D01*
X2215997Y4898644D01*
X2228189Y4883759D01*
X2225040Y4881778D01*
X2218791Y4882591D01*
X2211222Y4883861D01*
X2208987Y4885639D01*
X2202027Y4887417D01*
X2187194Y4888179D01*
X2182469Y4889246D01*
X2178862Y4892090D01*
X2177796Y4894834D01*
X2105411Y4894834D01*
X2105304Y4894681D01*
X2090978Y4893665D01*
X2089861Y4894478D01*
X2065883Y4894681D01*
X2062886Y4896154D01*
X2052624Y4898034D01*
X2028189Y4898694D01*
X2017826Y4897424D01*
X2013915Y4894427D01*
X1991817Y4892344D01*
X1981809Y4889398D01*
X1974138Y4887925D01*
X1940509Y4887315D01*
X1935429Y4889144D01*
X1934311Y4898898D01*
X1932686Y4902606D01*
X1926234Y4906264D01*
X1924100Y4908448D01*
X1916175Y4910836D01*
X1912366Y4914087D01*
X1902307Y4917135D01*
X1900580Y4919014D01*
X1895754Y4920792D01*
X1887474Y4920792D01*
X1884019Y4919573D01*
X1880362Y4916525D01*
X1867611Y4914544D01*
X1860905Y4910937D01*
X1852015Y4909108D01*
X1849780Y4907635D01*
X1847240Y4905400D01*
X1837131Y4902962D01*
X1834997Y4900472D01*
X1826717Y4898085D01*
X1824278Y4896561D01*
X1822602Y4894376D01*
X1815033Y4892344D01*
X1812747Y4889398D01*
X1806702Y4886655D01*
X1804924Y4883962D01*
X1802892Y4882692D01*
X1798624Y4881880D01*
X1791665Y4883658D01*
X1786585Y4886502D01*
X1752955Y4887315D01*
X1743100Y4889296D01*
X1735632Y4888077D01*
X1717090Y4887264D01*
X1710994Y4888839D01*
X1708810Y4892395D01*
X1705508Y4894072D01*
X1702714Y4898542D01*
X1697583Y4900371D01*
X1694535Y4903470D01*
X1691284Y4904130D01*
X1677974Y4905959D01*
X1673758Y4905959D01*
X1673148Y4907178D01*
X1664563Y4910429D01*
X1663649Y4911852D01*
X1662531Y4917389D01*
X1663395Y4922774D01*
X1664766Y4923840D01*
X1671370Y4923891D01*
X1685645Y4925618D01*
X1688541Y4926939D01*
X1697888Y4926939D01*
X1701952Y4925720D01*
X1727454Y4924298D01*
X1734870Y4925872D01*
X1737664Y4928616D01*
X1739493Y4929428D01*
X1754479Y4931308D01*
X1758035Y4932476D01*
X1759661Y4934661D01*
X1763877Y4939385D01*
X1763877Y4940249D01*
X1761439Y4943805D01*
X1742236Y4943043D01*
X1737664Y4941722D01*
X1732534Y4939080D01*
X1721357Y4939030D01*
X1717751Y4941366D01*
X1712671Y4943043D01*
X1692300Y4943754D01*
X1682292Y4942484D01*
X1677568Y4939284D01*
X1670862Y4938115D01*
X1664563Y4938064D01*
X1662023Y4939487D01*
X1644244Y4939487D01*
X1643481Y4931613D01*
X1644040Y4912461D01*
X1645259Y4908143D01*
X1646529Y4906518D01*
X1643583Y4899863D01*
X1641856Y4899253D01*
X1637538Y4898948D01*
X1636420Y4900269D01*
X1635506Y4909007D01*
X1632204Y4916779D01*
X1631442Y4930343D01*
X1630426Y4934458D01*
X1627936Y4939639D01*
X1626362Y4948174D01*
X1624228Y4951323D01*
X1622247Y4956403D01*
X1602584Y4956403D01*
X1605178Y4953203D01*
X1610868Y4946954D01*
X1613509Y4941824D01*
X1615490Y4940554D01*
X1617167Y4933035D01*
X1620520Y4928971D01*
X1621180Y4918252D01*
X1622602Y4914138D01*
X1624330Y4912969D01*
X1625244Y4908143D01*
X1625244Y4898745D01*
X1624634Y4894834D01*
X1621688Y4893005D01*
X1619554Y4887874D01*
X1614322Y4895037D01*
X1612798Y4898491D01*
X1608378Y4904181D01*
X1605635Y4906264D01*
X1603705Y4909210D01*
X1600301Y4910937D01*
X1597253Y4915001D01*
X1591614Y4917135D01*
X1590649Y4919421D01*
X1584756Y4922215D01*
X1581556Y4926228D01*
X1577695Y4927549D01*
X1574952Y4931206D01*
X1565910Y4933848D01*
X1564182Y4935677D01*
X1559712Y4937353D01*
X1551635Y4938166D01*
X1546148Y4939436D01*
X1542948Y4941773D01*
X1536344Y4941773D01*
X1533042Y4939385D01*
X1527149Y4937506D01*
X1523085Y4932019D01*
X1521358Y4931359D01*
X1518615Y4926025D01*
X1517091Y4925009D01*
X1515211Y4919878D01*
X1515160Y4917338D01*
X1511655Y4912817D01*
X1510030Y4904740D01*
X1507642Y4902809D01*
X1505356Y4895799D01*
X1502918Y4889855D01*
X1500378Y4874514D01*
X1514652Y4874514D01*
X1516278Y4878374D01*
X1517751Y4890871D01*
X1519783Y4893919D01*
X1520850Y4897018D01*
X1522222Y4906264D01*
X1522882Y4908346D01*
X1524304Y4909007D01*
X1527454Y4916525D01*
X1530705Y4918913D01*
X1550619Y4918913D01*
X1554683Y4917541D01*
X1557375Y4915255D01*
X1562303Y4914036D01*
X1565910Y4913376D01*
X1571345Y4909159D01*
X1578254Y4907127D01*
X1580489Y4903419D01*
X1583029Y4902301D01*
X1584756Y4898288D01*
X1587754Y4894732D01*
X1589633Y4889601D01*
X1592783Y4885690D01*
X1593596Y4880356D01*
X1593596Y4867402D01*
X1592732Y4861864D01*
X1590446Y4859985D01*
X1586890Y4855921D01*
X1579676Y4852212D01*
X1578051Y4850434D01*
X1566570Y4848606D01*
X1562760Y4847336D01*
X1560880Y4844846D01*
X1557223Y4843729D01*
X1546504Y4842459D01*
X1539900Y4843526D01*
X1536446Y4844846D01*
X1534972Y4847336D01*
X1532026Y4849164D01*
X1526641Y4849215D01*
X1523034Y4850434D01*
X1520748Y4854092D01*
X1517853Y4855921D01*
X1516075Y4864608D01*
X1513992Y4867859D01*
X1513535Y4874514D01*
X1500378Y4874514D01*
X1500378Y4872583D01*
X1495755Y4870094D01*
X1486865Y4871415D01*
X1476400Y4872634D01*
X1471168Y4875885D01*
X1466392Y4877562D01*
X1464462Y4880152D01*
X1461922Y4881727D01*
X1458061Y4882591D01*
X1453845Y4887163D01*
X1449019Y4893208D01*
X1446428Y4902606D01*
X1446174Y4906264D01*
X1429054Y4906264D01*
X1429054Y4881270D01*
X1431188Y4881270D01*
X1434490Y4878832D01*
X1440688Y4870399D01*
X1446682Y4868367D01*
X1450390Y4863998D01*
X1453743Y4863998D01*
X1459128Y4862271D01*
X1462379Y4858918D01*
X1468323Y4859578D01*
X1476603Y4856480D01*
X1482547Y4857343D01*
X1488541Y4852466D01*
X1494840Y4850942D01*
X1496568Y4848352D01*
X1501648Y4841595D01*
X1504594Y4839411D01*
X1506778Y4835093D01*
X1513789Y4825746D01*
X1519529Y4823155D01*
X1521663Y4820767D01*
X1527657Y4819548D01*
X1532534Y4819548D01*
X1538884Y4816906D01*
X1561287Y4815992D01*
X1566926Y4818278D01*
X1574038Y4820259D01*
X1578610Y4819497D01*
X1583232Y4822545D01*
X1587296Y4824933D01*
X1592122Y4825695D01*
X1593646Y4823002D01*
X1593646Y4817872D01*
X1592122Y4812588D01*
X1592122Y4806035D01*
X1608886Y4806035D01*
X1610106Y4810607D01*
X1612544Y4813757D01*
X1614068Y4822545D01*
X1615490Y4842103D01*
X1617472Y4849520D01*
X1618234Y4856276D01*
X1619605Y4859477D01*
X1621332Y4861204D01*
X1623720Y4867656D01*
X1625854Y4869027D01*
X1627733Y4874412D01*
X1630629Y4876241D01*
X1632813Y4879848D01*
X1639570Y4882032D01*
X1641093Y4884674D01*
X1667814Y4885436D01*
X1684020Y4885029D01*
X1686763Y4881422D01*
X1692808Y4879289D01*
X1696161Y4875123D01*
X1697634Y4875123D01*
X1702866Y4869230D01*
X1708567Y4861915D01*
X1734870Y4861915D01*
X1737969Y4867605D01*
X1744776Y4868824D01*
X1757019Y4870246D01*
X1760575Y4872837D01*
X1764639Y4874412D01*
X1771294Y4874463D01*
X1773631Y4872888D01*
X1769770Y4870856D01*
X1766316Y4870043D01*
X1763217Y4866436D01*
X1757934Y4864608D01*
X1755546Y4861509D01*
X1750263Y4858562D01*
X1749552Y4855870D01*
X1744116Y4852974D01*
X1743506Y4851755D01*
X1738274Y4854448D01*
X1736293Y4859985D01*
X1734870Y4861915D01*
X1708607Y4861864D01*
X1711807Y4858054D01*
X1713433Y4854143D01*
X1716582Y4851349D01*
X1717903Y4847640D01*
X1725625Y4837125D01*
X1727809Y4830064D01*
X1729892Y4828692D01*
X1729232Y4823053D01*
X1726742Y4812436D01*
X1725574Y4805324D01*
X1723034Y4801666D01*
X1721053Y4792167D01*
X1718106Y4786528D01*
X1715922Y4772964D01*
X1714004Y4771694D01*
X1732737Y4771694D01*
X1733905Y4778298D01*
X1736242Y4782464D01*
X1737461Y4792726D01*
X1738477Y4797348D01*
X1739239Y4797348D01*
X1740966Y4800955D01*
X1742897Y4812334D01*
X1744624Y4813503D01*
X1747621Y4821631D01*
X1751177Y4826355D01*
X1751177Y4828844D01*
X1754632Y4831334D01*
X1756003Y4835499D01*
X1760067Y4841443D01*
X1763268Y4845253D01*
X1769770Y4848098D01*
X1773834Y4851603D01*
X1781251Y4853482D01*
X1787093Y4857445D01*
X1803806Y4858410D01*
X1810613Y4862779D01*
X1817979Y4864455D01*
X1821230Y4868113D01*
X1828139Y4870297D01*
X1830425Y4873701D01*
X1837436Y4875784D01*
X1841957Y4879695D01*
X1854352Y4880508D01*
X1857146Y4881880D01*
X1861007Y4884978D01*
X1869439Y4886756D01*
X1873961Y4889804D01*
X1877314Y4890719D01*
X1889556Y4892243D01*
X1895144Y4891684D01*
X1900732Y4890414D01*
X1904847Y4887214D01*
X1909318Y4885283D01*
X1910080Y4883454D01*
X1911248Y4877358D01*
X1914499Y4869891D01*
X1917700Y4867351D01*
X1914398Y4864760D01*
X1910102Y4862626D01*
X1939645Y4862626D01*
X1944624Y4867605D01*
X1978202Y4868164D01*
X1993493Y4869586D01*
X2000656Y4870958D01*
X2004720Y4873193D01*
X2009292Y4874463D01*
X2013508Y4874514D01*
X2022551Y4876393D01*
X2027123Y4879035D01*
X2030730Y4879898D01*
X2047036Y4880051D01*
X2058009Y4878781D01*
X2062988Y4876393D01*
X2082190Y4873244D01*
X2088845Y4870653D01*
X2101240Y4870805D01*
X2103221Y4867452D01*
X2101291Y4860645D01*
X2099868Y4859680D01*
X2098802Y4856276D01*
X2113330Y4856276D01*
X2114702Y4859375D01*
X2116734Y4862118D01*
X2118512Y4868367D01*
X2123490Y4875276D01*
X2128367Y4881168D01*
X2133701Y4884318D01*
X2137765Y4885486D01*
X2144522Y4884318D01*
X2145792Y4882489D01*
X2152548Y4880000D01*
X2153454Y4879136D01*
X2241854Y4879136D01*
X2243429Y4883658D01*
X2247696Y4886909D01*
X2252421Y4887874D01*
X2255977Y4889855D01*
X2265121Y4891836D01*
X2267864Y4893564D01*
X2268474Y4895545D01*
X2273452Y4898034D01*
X2274874Y4901234D01*
X2279345Y4903571D01*
X2281478Y4906467D01*
X2285796Y4909667D01*
X2287422Y4912715D01*
X2292502Y4914747D01*
X2293569Y4917490D01*
X2300630Y4920234D01*
X2303475Y4923637D01*
X2309520Y4925263D01*
X2312060Y4926228D01*
X2312924Y4926330D01*
X2325827Y4924450D01*
X2328570Y4923790D01*
X2332837Y4918913D01*
X2335225Y4918202D01*
X2337257Y4914239D01*
X2339898Y4912512D01*
X2341524Y4908346D01*
X2343912Y4907026D01*
X2346909Y4900726D01*
X2350109Y4896408D01*
X2351684Y4892090D01*
X2353513Y4889601D01*
X2355799Y4882845D01*
X2358593Y4879136D01*
X2360269Y4872024D01*
X2363266Y4867859D01*
X2364790Y4858207D01*
X2367229Y4853736D01*
X2368600Y4846421D01*
X2368600Y4806899D01*
X2367889Y4803597D01*
X2363673Y4797755D01*
X2362657Y4794961D01*
X2357628Y4792421D01*
X2354427Y4788052D01*
X2350668Y4786833D01*
X2346858Y4783124D01*
X2343150Y4782007D01*
X2335834Y4780788D01*
X2329891Y4777333D01*
X2302865Y4776673D01*
X2298293Y4777689D01*
X2295093Y4781397D01*
X2287625Y4783124D01*
X2283002Y4789576D01*
X2279497Y4793945D01*
X2277160Y4802936D01*
X2277160Y4805832D01*
X2275281Y4808778D01*
X2274620Y4811064D01*
X2273096Y4819650D01*
X2270150Y4823714D01*
X2268372Y4832604D01*
X2266086Y4835906D01*
X2264562Y4839614D01*
X2263902Y4842916D01*
X2261463Y4846421D01*
X2258771Y4852873D01*
X2256688Y4854448D01*
X2254707Y4859020D01*
X2251710Y4860899D01*
X2249982Y4864455D01*
X2246528Y4866487D01*
X2245512Y4869840D01*
X2242464Y4872939D01*
X2241854Y4879136D01*
X2153454Y4879136D01*
X2156968Y4875784D01*
X2160676Y4874971D01*
X2164334Y4872736D01*
X2165807Y4870602D01*
X2170988Y4867808D01*
X2173630Y4864811D01*
X2179828Y4862576D01*
X2182774Y4859172D01*
X2187194Y4858512D01*
X2228900Y4857800D01*
X2232863Y4856378D01*
X2239314Y4848199D01*
X2240432Y4843322D01*
X2240991Y4838801D01*
X2243836Y4834483D01*
X2245664Y4826406D01*
X2248103Y4823460D01*
X2250135Y4815382D01*
X2253691Y4812080D01*
X2253742Y4809388D01*
X2255723Y4804410D01*
X2257806Y4801362D01*
X2259279Y4790897D01*
X2260904Y4785004D01*
X2261666Y4784445D01*
X2258364Y4772507D01*
X2257348Y4771288D01*
X2255012Y4769866D01*
X2253945Y4767376D01*
X2247696Y4759706D01*
X2246630Y4759706D01*
X2243328Y4754727D01*
X2241702Y4754727D01*
X2237790Y4753406D01*
X2234488Y4749444D01*
X2217267Y4747666D01*
X2190242Y4747666D01*
X2165299Y4749241D01*
X2156714Y4750511D01*
X2154275Y4752797D01*
X2150821Y4754168D01*
X2148789Y4759502D01*
X2146300Y4761433D01*
X2145588Y4776673D01*
X2144623Y4781245D01*
X2142286Y4784699D01*
X2139899Y4791862D01*
X2137054Y4794402D01*
X2136444Y4797399D01*
X2128012Y4808778D01*
X2125522Y4813096D01*
X2118258Y4822342D01*
X2117547Y4825187D01*
X2114600Y4829251D01*
X2113432Y4832807D01*
X2113330Y4856276D01*
X2098802Y4856276D01*
X2097735Y4852822D01*
X2097735Y4850587D01*
X2094941Y4847031D01*
X2091893Y4840274D01*
X2088591Y4837988D01*
X2081326Y4836769D01*
X2073656Y4834382D01*
X2063851Y4837379D01*
X2056688Y4838192D01*
X2052980Y4839309D01*
X2052421Y4841087D01*
X2048560Y4842408D01*
X2038197Y4842408D01*
X2030374Y4841087D01*
X2024075Y4838598D01*
X2005228Y4837379D01*
X1999996Y4836160D01*
X1998167Y4833721D01*
X1992680Y4831791D01*
X1989429Y4828387D01*
X1987194Y4826965D01*
X1985568Y4826965D01*
X1982317Y4831181D01*
X1976323Y4833061D01*
X1973021Y4837379D01*
X1968296Y4838852D01*
X1965299Y4842306D01*
X1959152Y4844389D01*
X1955241Y4849012D01*
X1949450Y4849876D01*
X1947519Y4852822D01*
X1941830Y4856073D01*
X1940204Y4859070D01*
X1939645Y4862626D01*
X1910102Y4862626D01*
X1907692Y4861458D01*
X1893824Y4859324D01*
X1890420Y4855057D01*
X1885696Y4853533D01*
X1882393Y4849672D01*
X1878279Y4847488D01*
X1876552Y4844338D01*
X1870964Y4842357D01*
X1868728Y4838750D01*
X1864918Y4836922D01*
X1862531Y4833315D01*
X1857298Y4831232D01*
X1850085Y4823409D01*
X1851050Y4819345D01*
X1853133Y4816652D01*
X1856892Y4818938D01*
X1859483Y4818989D01*
X1863547Y4821428D01*
X1866849Y4824374D01*
X1871675Y4825238D01*
X1875028Y4829556D01*
X1881276Y4831842D01*
X1883410Y4834229D01*
X1885442Y4835448D01*
X1892046Y4836972D01*
X1898192Y4840833D01*
X1913991Y4840833D01*
X1920290Y4836820D01*
X1929790Y4834331D01*
X1933397Y4832045D01*
X1940509Y4830114D01*
X1948129Y4828692D01*
X1952243Y4825847D01*
X1960524Y4823866D01*
X1964334Y4820158D01*
X1968449Y4818684D01*
X1970379Y4814671D01*
X1972208Y4813960D01*
X1973834Y4811826D01*
X1975002Y4800752D01*
X1978101Y4793996D01*
X1978558Y4784090D01*
X1975002Y4771085D01*
X1973275Y4761839D01*
X1970481Y4758131D01*
X1969423Y4755388D01*
X1990039Y4755388D01*
X1990699Y4761738D01*
X1992731Y4764379D01*
X1993747Y4768037D01*
X1995322Y4787036D01*
X1997202Y4790948D01*
X1999437Y4799126D01*
X2002942Y4804410D01*
X2002942Y4805832D01*
X2004568Y4807458D01*
X2015896Y4812842D01*
X2023465Y4814620D01*
X2027682Y4818227D01*
X2037842Y4820208D01*
X2042464Y4823409D01*
X2052624Y4824323D01*
X2058771Y4824476D01*
X2065883Y4823307D01*
X2069947Y4820920D01*
X2076094Y4819396D01*
X2106168Y4818888D01*
X2109927Y4817668D01*
X2112010Y4813503D01*
X2113432Y4812842D01*
X2119020Y4803800D01*
X2125370Y4795774D01*
X2126742Y4792573D01*
X2129332Y4790541D01*
X2131263Y4785918D01*
X2133396Y4783632D01*
X2134971Y4777740D01*
X2135174Y4764938D01*
X2133854Y4759350D01*
X2127554Y4751933D01*
X2123490Y4749495D01*
X2084222Y4749393D01*
X2075688Y4747869D01*
X2071471Y4745888D01*
X2070455Y4745024D01*
X2061311Y4743551D01*
X2055215Y4741672D01*
X2052421Y4738776D01*
X2049576Y4738166D01*
X2035302Y4737455D01*
X2010867Y4738471D01*
X2006244Y4740656D01*
X2001164Y4741875D01*
X1995119Y4743958D01*
X1994306Y4745786D01*
X1993239Y4751070D01*
X1990039Y4755388D01*
X1969423Y4755388D01*
X1967788Y4750968D01*
X1961388Y4747463D01*
X1959102Y4743653D01*
X1957324Y4743602D01*
X1953514Y4742332D01*
X1950008Y4737862D01*
X1920646Y4736947D01*
X1917547Y4735779D01*
X1913483Y4733239D01*
X1905863Y4731766D01*
X1902256Y4730496D01*
X1899564Y4728210D01*
X1893112Y4726432D01*
X1880362Y4725619D01*
X1871675Y4724450D01*
X1869338Y4722571D01*
X1857400Y4720844D01*
X1794205Y4720793D01*
X1789125Y4722622D01*
X1786077Y4722622D01*
X1781200Y4725771D01*
X1772818Y4727041D01*
X1769770Y4728006D01*
X1766062Y4731054D01*
X1757019Y4733188D01*
X1752803Y4736896D01*
X1746656Y4738217D01*
X1741322Y4742332D01*
X1738528Y4743094D01*
X1736496Y4745786D01*
X1735785Y4751019D01*
X1733651Y4754321D01*
X1732737Y4771694D01*
X1714004Y4771694D01*
X1706676Y4766868D01*
X1701800Y4768088D01*
X1694840Y4767122D01*
X1673453Y4769612D01*
X1659991Y4771948D01*
X1654505Y4775708D01*
X1646428Y4777028D01*
X1642872Y4778400D01*
X1640078Y4781194D01*
X1632356Y4783277D01*
X1630781Y4786172D01*
X1626006Y4787950D01*
X1623212Y4788712D01*
X1620977Y4791811D01*
X1615846Y4795316D01*
X1610360Y4802581D01*
X1608886Y4806035D01*
X1592122Y4806035D01*
X1592122Y4805426D01*
X1593291Y4801971D01*
X1593596Y4787595D01*
X1595120Y4783226D01*
X1600708Y4777892D01*
X1605432Y4770932D01*
X1611376Y4768443D01*
X1619605Y4759096D01*
X1628597Y4756505D01*
X1630629Y4754270D01*
X1633169Y4752644D01*
X1647189Y4752136D01*
X1649475Y4749139D01*
X1652524Y4747056D01*
X1666798Y4746853D01*
X1671116Y4745431D01*
X1671726Y4744262D01*
X1674723Y4742383D01*
X1687220Y4739030D01*
X1711096Y4739335D01*
X1715668Y4737201D01*
X1720850Y4730800D01*
X1728673Y4728718D01*
X1731518Y4725720D01*
X1734108Y4724958D01*
X1737156Y4723079D01*
X1739849Y4720336D01*
X1749399Y4718202D01*
X1757019Y4714138D01*
X1760982Y4712614D01*
X1766366Y4713376D01*
X1769262Y4712055D01*
X1771802Y4709109D01*
X1776374Y4707839D01*
X1780032Y4707839D01*
X1781251Y4706366D01*
X1781251Y4703521D01*
X1914753Y4703521D01*
X1914753Y4706315D01*
X1916938Y4707940D01*
X1942134Y4708296D01*
X1945386Y4710379D01*
X1945944Y4712106D01*
X1949145Y4713376D01*
X1963420Y4713122D01*
X1968042Y4715662D01*
X1969363Y4717643D01*
X1974392Y4719675D01*
X1977237Y4723841D01*
X1981809Y4725771D01*
X1986889Y4724958D01*
X1988464Y4723942D01*
X1993493Y4718964D01*
X1994814Y4718964D01*
X1998725Y4713782D01*
X2004212Y4712868D01*
X2009902Y4712766D01*
X2013407Y4709617D01*
X2018741Y4707737D01*
X2026818Y4708906D01*
X2033371Y4712766D01*
X2052929Y4712766D01*
X2060803Y4714748D01*
X2066391Y4717135D01*
X2074062Y4719574D01*
X2087575Y4720590D01*
X2090674Y4724146D01*
X2098497Y4725009D01*
X2120950Y4725162D01*
X2125370Y4726228D01*
X2127859Y4729429D01*
X2134463Y4731359D01*
X2137918Y4735017D01*
X2140813Y4732070D01*
X2145690Y4730038D01*
X2147163Y4730038D01*
X2151380Y4725466D01*
X2173935Y4725060D01*
X2179015Y4723688D01*
X2183638Y4720488D01*
X2239060Y4720132D01*
X2243074Y4723333D01*
X2247849Y4725111D01*
X2252218Y4725111D01*
X2254961Y4726889D01*
X2256637Y4729276D01*
X2262987Y4730648D01*
X2264410Y4732070D01*
X2265680Y4735118D01*
X2271115Y4737303D01*
X2274366Y4741011D01*
X2277668Y4743043D01*
X2279853Y4748276D01*
X2289048Y4760010D01*
X2290165Y4759553D01*
X2332939Y4758994D01*
X2338070Y4760823D01*
X2344166Y4763516D01*
X2355900Y4763719D01*
X2359152Y4765852D01*
X2359964Y4767529D01*
X2363012Y4769358D01*
X2371191Y4770932D01*
X2373274Y4773218D01*
X2377744Y4775149D01*
X2379218Y4776622D01*
X2380081Y4779416D01*
X2383586Y4781194D01*
X2385161Y4784801D01*
X2392273Y4793691D01*
X2394458Y4800752D01*
X2397048Y4807204D01*
X2397810Y4824780D01*
X2397658Y4848250D01*
X2396286Y4853178D01*
X2394458Y4855667D01*
X2392832Y4863693D01*
X2391664Y4866436D01*
X2389682Y4867198D01*
X2394407Y4873040D01*
X2400096Y4875225D01*
X2406497Y4883454D01*
X2408631Y4888534D01*
X2413762Y4893513D01*
X2418537Y4899964D01*
X2426512Y4908448D01*
X2429052Y4908448D01*
X2429052Y4962753D01*
X2426766Y4962804D01*
X2421432Y4970678D01*
X2419858Y4977231D01*
X2416911Y4980990D01*
X2415082Y4987747D01*
X2410510Y4993640D01*
X2408123Y4994402D01*
X2405938Y5000498D01*
X2394000Y5014315D01*
X2391410Y5019243D01*
X2388514Y5022545D01*
X2383942Y5028895D01*
X2380183Y5033619D01*
X2378557Y5037429D01*
X2375712Y5039207D01*
X2374544Y5042357D01*
X2370480Y5045456D01*
X2369464Y5047792D01*
X2366518Y5049215D01*
X2364689Y5053025D01*
X2361387Y5055362D01*
X2360269Y5058410D01*
X2356256Y5061508D01*
X2355545Y5064048D01*
X2351836Y5066385D01*
X2343150Y5076037D01*
X2339594Y5079238D01*
X2334869Y5080660D01*
X2329942Y5079542D01*
X2320239Y5080762D01*
X2315819Y5079949D01*
X2315260Y5078222D01*
X2309520Y5074970D01*
X2307488Y5072786D01*
X2302459Y5070805D01*
X2298344Y5070805D01*
X2290165Y5080711D01*
X2284222Y5086807D01*
X2278684Y5088788D01*
X2277414Y5090312D01*
X2271826Y5094884D01*
X2271115Y5094884D01*
X2268169Y5098389D01*
X2262124Y5100523D01*
X2260092Y5102758D01*
X2257552Y5104434D01*
X2225395Y5104739D01*
X2220620Y5103368D01*
X2216251Y5099913D01*
X2205786Y5099558D01*
X2198268Y5108295D01*
X2193696Y5111546D01*
X2191918Y5113934D01*
X2184958Y5117185D01*
X2183739Y5118963D01*
X2179116Y5118963D01*
X2174189Y5122773D01*
X2172614Y5130850D01*
X2169718Y5134356D01*
X2166620Y5142331D01*
X2162251Y5145024D01*
X2158542Y5148021D01*
X2150821Y5150205D01*
X2147722Y5153406D01*
X2142845Y5154066D01*
X2109825Y5154015D01*
X2108911Y5155996D01*
X2110130Y5160619D01*
X2111502Y5163159D01*
X2113127Y5169255D01*
X2113889Y5194858D01*
X2116683Y5199684D01*
X2118106Y5205577D01*
X2118106Y5221122D01*
X2117090Y5225694D01*
X2114448Y5228183D01*
X2113584Y5233466D01*
X2113534Y5241544D01*
X2111959Y5247182D01*
X2109927Y5249824D01*
X2108504Y5255564D01*
X2107793Y5262372D01*
X2104390Y5266486D01*
X2103221Y5272125D01*
X2099818Y5277053D01*
X2099157Y5281574D01*
X2097227Y5286248D01*
X2096312Y5286248D01*
X2094077Y5292953D01*
X2092553Y5294528D01*
X2088388Y5301945D01*
X2086559Y5304129D01*
X2084476Y5312562D01*
X2082342Y5314950D01*
X2080463Y5319420D01*
X2077466Y5322316D01*
X2075230Y5328716D01*
X2072792Y5331460D01*
X2071116Y5337759D01*
X2068779Y5340858D01*
X2066188Y5347004D01*
X2063343Y5350256D01*
X2062124Y5355691D01*
X2058924Y5360009D01*
X2056587Y5366359D01*
X2055012Y5367375D01*
X2052370Y5375351D01*
X2050237Y5378094D01*
X2047798Y5384495D01*
X2044242Y5389524D01*
X2044242Y5391810D01*
X2040839Y5395925D01*
X2039061Y5408117D01*
X2036165Y5413705D01*
X2034539Y5420563D01*
X2032355Y5422950D01*
X2028443Y5433110D01*
X2027529Y5433110D01*
X2024837Y5446725D01*
X2022398Y5451348D01*
X2020671Y5458764D01*
X2017826Y5464302D01*
X2015693Y5474817D01*
X2013610Y5478221D01*
X2014270Y5488381D01*
X2011578Y5503062D01*
X2011629Y5539892D01*
X2013204Y5544312D01*
X2014728Y5555691D01*
X2017115Y5561838D01*
X2017775Y5567730D01*
X2020722Y5569559D01*
X2022703Y5574995D01*
X2024888Y5575808D01*
X2027478Y5582056D01*
X2030222Y5585104D01*
X2033879Y5587390D01*
X2035556Y5590540D01*
X2039620Y5593029D01*
X2039620Y5594248D01*
X2041702Y5596737D01*
X2046325Y5596737D01*
X2051608Y5603544D01*
X2053386Y5605373D01*
X2053386Y5612841D01*
X2050897Y5615838D01*
X2042972Y5616092D01*
X2030222Y5615736D01*
X2026361Y5614568D01*
X2022957Y5610910D01*
X2014575Y5609132D01*
X2012137Y5607202D01*
X2012137Y5606186D01*
X2009546Y5604764D01*
X2003958Y5603951D01*
X2000859Y5599226D01*
X1998116Y5597652D01*
X1996744Y5594146D01*
X1993392Y5591708D01*
X1992122Y5588050D01*
X1989277Y5585612D01*
X1986229Y5579110D01*
X1984095Y5576773D01*
X1982978Y5571896D01*
X1979523Y5568035D01*
X1977542Y5562346D01*
X1975053Y5559298D01*
X1972818Y5551220D01*
X1970328Y5548325D01*
X1969312Y5543956D01*
X1969312Y5534202D01*
X1965248Y5529630D01*
X1965147Y5522315D01*
X1964385Y5516575D01*
X1961134Y5512104D01*
X1961134Y5489803D01*
X1958543Y5476900D01*
X1959152Y5473547D01*
X1958187Y5467400D01*
X1959254Y5461863D01*
X1960829Y5456275D01*
X1961388Y5433618D01*
X1963470Y5431586D01*
X1965248Y5428538D01*
X1965248Y5415280D01*
X1968246Y5411114D01*
X1969465Y5407507D01*
X1969262Y5399684D01*
X1970786Y5393283D01*
X1973325Y5390388D01*
X1973224Y5380990D01*
X1975357Y5371084D01*
X1975866Y5364124D01*
X1978456Y5357215D01*
X1980438Y5345633D01*
X1982978Y5341162D01*
X1983689Y5330139D01*
X1983181Y5329123D01*
X1984146Y5322316D01*
X1986889Y5317388D01*
X1987448Y5255666D01*
X1986381Y5252974D01*
X1981606Y5255463D01*
X1981098Y5258155D01*
X1980387Y5268620D01*
X1978507Y5278374D01*
X1977085Y5280355D01*
X1975408Y5284317D01*
X1975408Y5289804D01*
X1971395Y5294477D01*
X1970684Y5301945D01*
X1967585Y5305653D01*
X1966264Y5314086D01*
X1963216Y5322976D01*
X1960981Y5332831D01*
X1960880Y5372963D01*
X1958492Y5377637D01*
X1957070Y5384088D01*
X1957070Y5398617D01*
X1955596Y5402884D01*
X1954123Y5403596D01*
X1952853Y5407253D01*
X1953412Y5411470D01*
X1952040Y5418632D01*
X1948840Y5421884D01*
X1947316Y5430012D01*
X1944776Y5434533D01*
X1942236Y5446420D01*
X1940255Y5448960D01*
X1938121Y5456478D01*
X1935530Y5459882D01*
X1932686Y5468416D01*
X1931162Y5470499D01*
X1929028Y5479694D01*
X1926082Y5483453D01*
X1924913Y5487873D01*
X1922322Y5490870D01*
X1921002Y5493918D01*
X1919782Y5500979D01*
X1916887Y5505450D01*
X1915668Y5509971D01*
X1912620Y5514695D01*
X1910181Y5522264D01*
X1907692Y5526633D01*
X1906473Y5535168D01*
X1903272Y5539638D01*
X1900428Y5547868D01*
X1898548Y5549900D01*
X1896821Y5561533D01*
X1893925Y5566816D01*
X1892909Y5574385D01*
X1891334Y5577890D01*
X1889302Y5580989D01*
X1887931Y5589828D01*
X1884781Y5595162D01*
X1885442Y5606288D01*
X1884172Y5614720D01*
X1883714Y5615635D01*
X1882597Y5624169D01*
X1882698Y5644946D01*
X1885086Y5656275D01*
X1884578Y5661914D01*
X1887829Y5668924D01*
X1889252Y5675274D01*
X1892249Y5679135D01*
X1894433Y5688990D01*
X1896364Y5691479D01*
X1897430Y5694934D01*
X1897430Y5703519D01*
G37*
G36*
X1812137Y5360314D02*
G01*
X1807464Y5359603D01*
X1806092Y5358180D01*
X1803755Y5353812D01*
X1800453Y5349494D01*
X1798523Y5344261D01*
X1797202Y5344261D01*
X1794967Y5341416D01*
X1794967Y5339994D01*
X1791157Y5334203D01*
X1786889Y5329123D01*
X1784654Y5322976D01*
X1782724Y5321300D01*
X1780235Y5314594D01*
X1778660Y5313832D01*
X1776780Y5309362D01*
X1776069Y5305552D01*
X1773275Y5303012D01*
X1771040Y5296001D01*
X1768957Y5292801D01*
X1766417Y5282641D01*
X1764842Y5281066D01*
X1763928Y5278932D01*
X1761947Y5266537D01*
X1759864Y5263083D01*
X1758848Y5258155D01*
X1757730Y5240223D01*
X1756206Y5229453D01*
X1752498Y5228234D01*
X1750466Y5236362D01*
X1748078Y5238242D01*
X1745589Y5236921D01*
X1744522Y5232196D01*
X1745183Y5210606D01*
X1746605Y5205730D01*
X1747977Y5203799D01*
X1749755Y5197144D01*
X1753158Y5192623D01*
X1755343Y5185511D01*
X1756816Y5184851D01*
X1760372Y5176316D01*
X1761896Y5175605D01*
X1764436Y5170271D01*
X1766976Y5168290D01*
X1768398Y5164074D01*
X1771345Y5162245D01*
X1772716Y5159146D01*
X1775714Y5157622D01*
X1778152Y5152999D01*
X1780184Y5152186D01*
X1784350Y5153558D01*
X1786382Y5155996D01*
X1783791Y5160619D01*
X1782216Y5169865D01*
X1779168Y5177332D01*
X1777695Y5189880D01*
X1775002Y5197652D01*
X1775663Y5205679D01*
X1775612Y5229148D01*
X1775002Y5236768D01*
X1778152Y5250738D01*
X1779676Y5264302D01*
X1782114Y5270042D01*
X1783892Y5281879D01*
X1786280Y5286197D01*
X1788820Y5295950D01*
X1790954Y5300116D01*
X1793036Y5308650D01*
X1795983Y5313070D01*
X1796643Y5317388D01*
X1798167Y5321096D01*
X1800453Y5324195D01*
X1802180Y5330596D01*
X1805178Y5335168D01*
X1806803Y5341823D01*
X1809191Y5343702D01*
X1810816Y5348579D01*
X1810816Y5350967D01*
X1814931Y5355945D01*
X1814220Y5357520D01*
G37*
G36*
X1952498Y3572916D02*
G01*
X1949754Y3570528D01*
X1944674Y3564178D01*
X1937969Y3554780D01*
X1927555Y3538778D01*
X1921713Y3528822D01*
X1915566Y3517798D01*
X1909368Y3506063D01*
X1903222Y3493820D01*
X1894332Y3475228D01*
X1883867Y3451504D01*
X1879498Y3440633D01*
X1875891Y3430930D01*
X1873148Y3422548D01*
X1868525Y3403396D01*
X1867204Y3398875D01*
X1866188Y3396386D01*
X1865172Y3396335D01*
X1863089Y3397300D01*
X1859991Y3399231D01*
X1851456Y3405581D01*
X1840636Y3414623D01*
X1816607Y3435756D01*
X1810562Y3440633D01*
X1805939Y3443732D01*
X1802333Y3445357D01*
X1799386Y3445662D01*
X1796643Y3444900D01*
X1793748Y3443325D01*
X1791716Y3441598D01*
X1789226Y3438804D01*
X1783232Y3430625D01*
X1776475Y3419957D01*
X1769821Y3408172D01*
X1763928Y3396538D01*
X1759712Y3386378D01*
X1753768Y3370834D01*
X1745335Y3350717D01*
X1735074Y3327349D01*
X1723593Y3302203D01*
X1705559Y3264153D01*
X1693976Y3240684D01*
X1679993Y3213811D01*
X1778050Y3213811D01*
X1778203Y3215386D01*
X1778660Y3216706D01*
X1779270Y3217570D01*
X1780082Y3217875D01*
X1781048Y3217570D01*
X1782318Y3216706D01*
X1784908Y3213811D01*
X1785620Y3212236D01*
X1785467Y3210915D01*
X1784553Y3210052D01*
X1782876Y3209747D01*
X1780997Y3210052D01*
X1779473Y3210915D01*
X1778457Y3212236D01*
X1778050Y3213811D01*
X1679993Y3213811D01*
X1654098Y3166872D01*
X1656236Y3106978D01*
X1754835Y3106978D01*
X1754835Y3110890D01*
X1757121Y3116630D01*
X1761388Y3123590D01*
X1773580Y3139033D01*
X1778101Y3145739D01*
X1781048Y3151530D01*
X1782318Y3156254D01*
X1782013Y3159963D01*
X1780032Y3162655D01*
X1776425Y3164281D01*
X1766773Y3165144D01*
X1763115Y3166059D01*
X1760677Y3167329D01*
X1759813Y3168904D01*
X1761185Y3170529D01*
X1764995Y3171799D01*
X1770634Y3172663D01*
X1786839Y3173425D01*
X1792986Y3175050D01*
X1797151Y3178556D01*
X1800555Y3184550D01*
X1802688Y3189732D01*
X1804517Y3195269D01*
X1805939Y3200603D01*
X1807210Y3208375D01*
X1808276Y3211220D01*
X1809648Y3213100D01*
X1813255Y3215030D01*
X1815896Y3218332D01*
X1818893Y3223158D01*
X1834591Y3256788D01*
X1836521Y3262223D01*
X1841144Y3279546D01*
X1842516Y3283864D01*
X1843836Y3286861D01*
X1845157Y3288639D01*
X1846376Y3289198D01*
X1847494Y3288537D01*
X1848510Y3286709D01*
X1849374Y3283762D01*
X1850085Y3279648D01*
X1850643Y3274466D01*
X1850999Y3268167D01*
X1851202Y3253994D01*
X1852218Y3240633D01*
X1852980Y3234436D01*
X1853996Y3228644D01*
X1855165Y3223412D01*
X1856486Y3218942D01*
X1859033Y3212693D01*
X1944116Y3212693D01*
X1945690Y3213201D01*
X1948891Y3213506D01*
X1952040Y3213404D01*
X1954225Y3212998D01*
X1955241Y3212287D01*
X1954834Y3211372D01*
X1953310Y3210560D01*
X1951177Y3210255D01*
X1948637Y3210407D01*
X1946097Y3211017D01*
X1944268Y3211931D01*
X1944116Y3212693D01*
X1859033Y3212693D01*
X1860600Y3208985D01*
X1862785Y3202838D01*
X1864258Y3197453D01*
X1864766Y3193542D01*
X1865375Y3191967D01*
X1867974Y3188411D01*
X1925370Y3188411D01*
X1927606Y3189071D01*
X1937410Y3189630D01*
X1940255Y3190748D01*
X1941372Y3192627D01*
X1940153Y3197910D01*
X1940560Y3199841D01*
X1941931Y3201111D01*
X1944166Y3201568D01*
X1946706Y3200908D01*
X1948180Y3198977D01*
X1948637Y3195828D01*
X1948078Y3191357D01*
X1945690Y3184956D01*
X1941728Y3181807D01*
X1936140Y3181959D01*
X1928723Y3185261D01*
X1925777Y3187192D01*
X1925370Y3188411D01*
X1867974Y3188411D01*
X1873250Y3182467D01*
X1884014Y3171545D01*
X1926437Y3171545D01*
X1928114Y3173018D01*
X1931873Y3174238D01*
X1941779Y3176625D01*
X1942134Y3175914D01*
X1941982Y3173628D01*
X1941372Y3170174D01*
X1940306Y3165856D01*
X1938731Y3161182D01*
X1936800Y3156712D01*
X1934667Y3153003D01*
X1932686Y3150565D01*
X1930907Y3149244D01*
X1930095Y3149295D01*
X1930196Y3150819D01*
X1931212Y3153664D01*
X1931974Y3156915D01*
X1931822Y3160420D01*
X1930806Y3163824D01*
X1926742Y3169462D01*
X1926437Y3171545D01*
X1884014Y3171545D01*
X1905762Y3151225D01*
X1918106Y3140303D01*
X1929638Y3130600D01*
X1939391Y3122930D01*
X1943303Y3120085D01*
X1946452Y3118104D01*
X1948637Y3117088D01*
X1949805Y3117037D01*
X1951685Y3120085D01*
X1955088Y3126841D01*
X1971243Y3162300D01*
X1973884Y3167075D01*
X1976221Y3170428D01*
X1978456Y3172460D01*
X1980692Y3173374D01*
X1983079Y3173374D01*
X1994814Y3170224D01*
X2002840Y3169310D01*
X2008682Y3169920D01*
X2010867Y3172053D01*
X2010054Y3174034D01*
X2007666Y3177133D01*
X1999488Y3185972D01*
X1988464Y3196539D01*
X1976678Y3206902D01*
X1971243Y3211423D01*
X1966366Y3215132D01*
X1962404Y3217773D01*
X1955647Y3221380D01*
X1953615Y3225800D01*
X1953209Y3233877D01*
X1954225Y3247085D01*
X1955495Y3257499D01*
X1957019Y3266948D01*
X1958644Y3274415D01*
X1961642Y3283254D01*
X1962912Y3290366D01*
X1963928Y3299358D01*
X1965248Y3319068D01*
X1966620Y3328415D01*
X1968398Y3336188D01*
X1972106Y3345586D01*
X1973173Y3351174D01*
X1973427Y3357321D01*
X1972005Y3369767D01*
X1972360Y3373983D01*
X1973935Y3376320D01*
X1979574Y3377946D01*
X1982165Y3380333D01*
X1984400Y3383940D01*
X1987702Y3394049D01*
X1990598Y3401009D01*
X1994204Y3408629D01*
X1998218Y3416198D01*
X2002231Y3423158D01*
X2006041Y3428847D01*
X2009190Y3432759D01*
X2011375Y3434181D01*
X2013254Y3432606D01*
X2016302Y3428288D01*
X2020011Y3421887D01*
X2024024Y3414064D01*
X2026107Y3409289D01*
X2028037Y3404158D01*
X2031085Y3393389D01*
X2032203Y3387902D01*
X2033016Y3382416D01*
X2033524Y3377082D01*
X2033828Y3365703D01*
X2034844Y3353968D01*
X2035810Y3348431D01*
X2037029Y3343148D01*
X2038553Y3337966D01*
X2040432Y3332987D01*
X2042566Y3328111D01*
X2045106Y3323336D01*
X2047951Y3318662D01*
X2051202Y3314039D01*
X2054758Y3309467D01*
X2058720Y3304895D01*
X2063089Y3300272D01*
X2073046Y3290976D01*
X2105964Y3262223D01*
X2225446Y3262172D01*
X2227783Y3265017D01*
X2233422Y3268776D01*
X2240534Y3272383D01*
X2247188Y3274771D01*
X2247188Y3274212D01*
X2244750Y3269996D01*
X2242667Y3266846D01*
X2237587Y3261766D01*
X2231898Y3258972D01*
X2227326Y3258972D01*
X2225446Y3262172D01*
X2106033Y3262172D01*
X2109673Y3259480D01*
X2114042Y3257042D01*
X2118563Y3255111D01*
X2123998Y3253689D01*
X2126183Y3252876D01*
X2127097Y3252114D01*
X2127910Y3250996D01*
X2129180Y3247593D01*
X2130094Y3241903D01*
X2130704Y3233470D01*
X2131009Y3221583D01*
X2130907Y3185160D01*
X2130196Y3130804D01*
X2129282Y3083255D01*
X2128113Y3045815D01*
X2126589Y3017723D01*
X2125675Y3006852D01*
X2124659Y2998012D01*
X2123490Y2991104D01*
X2122220Y2985973D01*
X2120798Y2982569D01*
X2120087Y2981452D01*
X2119274Y2980740D01*
X2118461Y2980385D01*
X2117547Y2980385D01*
X2116632Y2980740D01*
X2115261Y2982163D01*
X2113788Y2984804D01*
X2112314Y2988564D01*
X2109266Y2999079D01*
X2106472Y3012694D01*
X2099919Y3056686D01*
X2072639Y3057956D01*
X2061768Y3058769D01*
X2052472Y3060090D01*
X2045665Y3061716D01*
X2042363Y3063494D01*
X2038451Y3068878D01*
X2034387Y3073908D01*
X2030272Y3078530D01*
X2026157Y3082747D01*
X2017979Y3089910D01*
X2014016Y3092805D01*
X2010257Y3095244D01*
X2006701Y3097174D01*
X2003399Y3098596D01*
X2000402Y3099511D01*
X1997760Y3099866D01*
X1995525Y3099663D01*
X1993747Y3098850D01*
X1992477Y3097479D01*
X1991766Y3095498D01*
X1991614Y3092856D01*
X1992122Y3089554D01*
X1993341Y3085592D01*
X1996592Y3077718D01*
X1997811Y3073704D01*
X1999843Y3064052D01*
X2001266Y3053334D01*
X2001774Y3042767D01*
X2001672Y3035858D01*
X2001316Y3030067D01*
X2000656Y3025140D01*
X1999589Y3020872D01*
X1998167Y3017113D01*
X1996236Y3013659D01*
X1993747Y3010357D01*
X1990648Y3006902D01*
X1985772Y3002381D01*
X1981657Y2999689D01*
X1978202Y2998876D01*
X1975357Y2999994D01*
X1973021Y3003143D01*
X1971090Y3008376D01*
X1969566Y3015742D01*
X1967433Y3031947D01*
X1966315Y3037586D01*
X1964689Y3042564D01*
X1962353Y3047288D01*
X1959102Y3052064D01*
X1954784Y3057245D01*
X1949145Y3063189D01*
X1931466Y3080359D01*
X1923034Y3088182D01*
X1916277Y3094075D01*
X1910842Y3098241D01*
X1906219Y3101035D01*
X1902104Y3102660D01*
X1898091Y3103422D01*
X1893671Y3103626D01*
X1890217Y3103422D01*
X1887016Y3102813D01*
X1884121Y3101797D01*
X1881530Y3100222D01*
X1879142Y3098190D01*
X1877009Y3095548D01*
X1875078Y3092297D01*
X1873351Y3088436D01*
X1871827Y3083864D01*
X1870506Y3078530D01*
X1869287Y3072485D01*
X1867357Y3057906D01*
X1865884Y3039821D01*
X1863598Y2999790D01*
X1862531Y2988614D01*
X1861921Y2985160D01*
X1861261Y2983077D01*
X1860448Y2982112D01*
X1859534Y2982214D01*
X1858467Y2983230D01*
X1852371Y2992678D01*
X1848459Y2997962D01*
X1844446Y3002838D01*
X1837740Y3009849D01*
X1835200Y3013456D01*
X1833473Y3016961D01*
X1831949Y3022752D01*
X1829460Y3026105D01*
X1825853Y3029508D01*
X1816963Y3035604D01*
X1813356Y3038906D01*
X1810918Y3042107D01*
X1809445Y3046374D01*
X1807921Y3048914D01*
X1802282Y3056026D01*
X1793951Y3065170D01*
X1773326Y3085642D01*
X1764436Y3094990D01*
X1757934Y3102457D01*
X1755902Y3105150D01*
X1754835Y3106978D01*
X1656236Y3106978D01*
X1657807Y3078429D01*
X1658874Y3065983D01*
X1660093Y3056026D01*
X1661312Y3049219D01*
X1661922Y3047136D01*
X1662531Y3046120D01*
X1665020Y3045206D01*
X1668525Y3046069D01*
X1672742Y3048558D01*
X1681886Y3056331D01*
X1686001Y3059176D01*
X1689963Y3061055D01*
X1693925Y3062020D01*
X1697837Y3061970D01*
X1701800Y3060954D01*
X1705914Y3058871D01*
X1710182Y3055772D01*
X1714703Y3051556D01*
X1719529Y3046222D01*
X1724710Y3039770D01*
X1733143Y3028188D01*
X1738945Y3019348D01*
X1774952Y3019348D01*
X1775104Y3020618D01*
X1777136Y3022600D01*
X1780793Y3025038D01*
X1785620Y3027629D01*
X1794408Y3031591D01*
X1800555Y3033674D01*
X1804212Y3033928D01*
X1805432Y3032302D01*
X1801012Y3028645D01*
X1791106Y3023819D01*
X1780743Y3020009D01*
X1774952Y3019348D01*
X1738945Y3019348D01*
X1749755Y3001822D01*
X1763010Y2978912D01*
X1797354Y2978912D01*
X1798624Y2982518D01*
X1803907Y2988614D01*
X1810562Y2994406D01*
X1815693Y2997200D01*
X1817065Y2996996D01*
X1818132Y2996285D01*
X1818893Y2995117D01*
X1819148Y2993644D01*
X1816150Y2989173D01*
X1809292Y2983738D01*
X1801926Y2979572D01*
X1797354Y2978912D01*
X1763010Y2978912D01*
X1774799Y2957372D01*
X1781307Y2944926D01*
X2202637Y2944926D01*
X2202992Y2946349D01*
X2203958Y2947111D01*
X2205431Y2947162D01*
X2207209Y2946501D01*
X2208936Y2945180D01*
X2210409Y2943504D01*
X2211374Y2941675D01*
X2211730Y2939897D01*
X2211374Y2938526D01*
X2210409Y2937764D01*
X2208936Y2937662D01*
X2207209Y2938322D01*
X2205431Y2939643D01*
X2203958Y2941320D01*
X2202992Y2943148D01*
X2202637Y2944926D01*
X1781307Y2944926D01*
X1786636Y2934360D01*
X1791157Y2924860D01*
X1794357Y2917342D01*
X1796084Y2912160D01*
X1796288Y2910586D01*
X1797405Y2908046D01*
X1800453Y2904083D01*
X1805127Y2898952D01*
X1817776Y2886659D01*
X1832559Y2873654D01*
X1839823Y2867660D01*
X1846529Y2862478D01*
X1852320Y2858363D01*
X1856790Y2855671D01*
X1859686Y2854706D01*
X1862124Y2855163D01*
X1863394Y2856484D01*
X1863547Y2858719D01*
X1862531Y2861818D01*
X1854657Y2880360D01*
X1848510Y2897174D01*
X1846325Y2904236D01*
X1844852Y2909976D01*
X1844192Y2914040D01*
X1844446Y2916224D01*
X1846732Y2917698D01*
X1850237Y2917748D01*
X1854657Y2916478D01*
X1859584Y2914142D01*
X1864817Y2910890D01*
X1869897Y2906877D01*
X1874621Y2902305D01*
X1878584Y2897378D01*
X1882139Y2891383D01*
X1884781Y2885186D01*
X1886508Y2878937D01*
X1887270Y2872892D01*
X1887118Y2867202D01*
X1885950Y2862173D01*
X1883867Y2857906D01*
X1880768Y2854706D01*
X1878126Y2852420D01*
X1875942Y2850032D01*
X1874469Y2847797D01*
X1873910Y2846019D01*
X1874875Y2843733D01*
X1877618Y2840278D01*
X1881784Y2835808D01*
X1887016Y2830677D01*
X1899615Y2819450D01*
X1906270Y2813862D01*
X1918817Y2804261D01*
X1924050Y2800705D01*
X1928114Y2798368D01*
X1930806Y2797556D01*
X1933549Y2797200D01*
X1935784Y2796336D01*
X1937257Y2795066D01*
X1937816Y2793492D01*
X1940509Y2790088D01*
X1946960Y2789580D01*
X1954682Y2791714D01*
X1961235Y2796133D01*
X1962759Y2798368D01*
X1964080Y2801569D01*
X1965147Y2805836D01*
X1966010Y2811119D01*
X1966671Y2817622D01*
X1967433Y2834284D01*
X1967484Y2886303D01*
X1978101Y2878886D01*
X1981657Y2876753D01*
X1985873Y2874772D01*
X1990699Y2872994D01*
X1996033Y2871470D01*
X2001672Y2870149D01*
X2007616Y2869082D01*
X2019807Y2867761D01*
X2025853Y2867558D01*
X2031695Y2867660D01*
X2037283Y2868117D01*
X2042414Y2868879D01*
X2046579Y2870098D01*
X2051456Y2872232D01*
X2056739Y2875076D01*
X2062276Y2878480D01*
X2067915Y2882290D01*
X2073402Y2886405D01*
X2078634Y2890672D01*
X2083307Y2894888D01*
X2087270Y2898902D01*
X2090369Y2902610D01*
X2092401Y2905861D01*
X2093112Y2908452D01*
X2093468Y2910992D01*
X2094382Y2913938D01*
X2095652Y2916936D01*
X2097227Y2919577D01*
X2100326Y2921406D01*
X2105507Y2919780D01*
X2113584Y2914243D01*
X2135327Y2896108D01*
X2143810Y2889453D01*
X2150160Y2884932D01*
X2153412Y2883255D01*
X2154783Y2884170D01*
X2155952Y2886710D01*
X2156714Y2890418D01*
X2157425Y2899867D01*
X2158644Y2904490D01*
X2160473Y2908300D01*
X2162657Y2910840D01*
X2167534Y2913380D01*
X2173884Y2915208D01*
X2181250Y2916377D01*
X2189175Y2916834D01*
X2197303Y2916631D01*
X2205177Y2915666D01*
X2212390Y2913989D01*
X2224125Y2909265D01*
X2231237Y2907131D01*
X2239772Y2905201D01*
X2249627Y2903474D01*
X2260549Y2901950D01*
X2272436Y2900680D01*
X2285187Y2899613D01*
X2298598Y2898800D01*
X2312517Y2898241D01*
X2326843Y2897987D01*
X2341372Y2897987D01*
X2356002Y2898292D01*
X2370582Y2898851D01*
X2398725Y2900527D01*
X2406497Y2899867D01*
X2410409Y2897022D01*
X2412542Y2891434D01*
X2414117Y2886202D01*
X2415387Y2884119D01*
X2416810Y2885084D01*
X2418638Y2888945D01*
X2419654Y2892450D01*
X2419553Y2896209D01*
X2418181Y2900324D01*
X2415438Y2904998D01*
X2411171Y2910433D01*
X2405227Y2916834D01*
X2397506Y2924403D01*
X2380335Y2940050D01*
X2368042Y2950413D01*
X2362860Y2954223D01*
X2358136Y2957169D01*
X2353716Y2959404D01*
X2349398Y2960928D01*
X2344978Y2961843D01*
X2340406Y2962198D01*
X2335377Y2962046D01*
X2329840Y2961538D01*
X2316480Y2959709D01*
X2300732Y2958185D01*
X2284323Y2957271D01*
X2268575Y2957017D01*
X2255012Y2957372D01*
X2245004Y2958388D01*
X2241804Y2959201D01*
X2239010Y2960522D01*
X2236724Y2962249D01*
X2235149Y2964180D01*
X2233574Y2968752D01*
X2230882Y2972765D01*
X2226919Y2977540D01*
X2215896Y2988564D01*
X2213508Y2991561D01*
X2214727Y2991866D01*
X2226106Y2987395D01*
X2230323Y2988106D01*
X2233371Y2993034D01*
X2236419Y3003042D01*
X2237333Y3008680D01*
X2237028Y3014116D01*
X2235454Y3019298D01*
X2232660Y3024124D01*
X2229256Y3029204D01*
X2228088Y3032760D01*
X2229154Y3035554D01*
X2232456Y3038449D01*
X2235149Y3041446D01*
X2237130Y3045612D01*
X2238400Y3050590D01*
X2238959Y3056026D01*
X2238756Y3061512D01*
X2237841Y3066592D01*
X2236114Y3071012D01*
X2233676Y3074263D01*
X2231440Y3076600D01*
X2231186Y3078124D01*
X2233015Y3078886D01*
X2237079Y3079089D01*
X2241092Y3078734D01*
X2245410Y3077870D01*
X2249474Y3076549D01*
X2252827Y3074974D01*
X2255977Y3072841D01*
X2257145Y3071114D01*
X2256383Y3069437D01*
X2251659Y3066034D01*
X2250744Y3064408D01*
X2251100Y3062681D01*
X2252776Y3060700D01*
X2255875Y3058414D01*
X2260549Y3055670D01*
X2274874Y3048762D01*
X2283764Y3045053D01*
X2290064Y3044190D01*
X2296363Y3046526D01*
X2311349Y3056229D01*
X2316581Y3059125D01*
X2321204Y3061157D01*
X2325268Y3062224D01*
X2328976Y3062427D01*
X2332380Y3061766D01*
X2335580Y3060242D01*
X2340813Y3056331D01*
X2342540Y3055620D01*
X2343708Y3055823D01*
X2344166Y3056991D01*
X2343810Y3059074D01*
X2342896Y3061512D01*
X2341372Y3064306D01*
X2339340Y3067405D01*
X2336800Y3070758D01*
X2330297Y3078124D01*
X2322271Y3086201D01*
X2312974Y3094685D01*
X2302662Y3103321D01*
X2291689Y3111804D01*
X2280259Y3119932D01*
X2268778Y3127400D01*
X2252980Y3137204D01*
X2245461Y3143097D01*
X2240737Y3148228D01*
X2239162Y3152495D01*
X2238806Y3155696D01*
X2237892Y3158693D01*
X2236520Y3161131D01*
X2234844Y3162655D01*
X2233523Y3164535D01*
X2233320Y3167786D01*
X2234336Y3172256D01*
X2238349Y3182620D01*
X2239619Y3188004D01*
X2240229Y3193389D01*
X2240178Y3198469D01*
X2239518Y3202940D01*
X2238248Y3206546D01*
X2236419Y3208883D01*
X2230729Y3211118D01*
X2230272Y3214674D01*
X2232507Y3219602D01*
X2240127Y3228492D01*
X2242058Y3232810D01*
X2242921Y3237788D01*
X2242616Y3243021D01*
X2242058Y3247542D01*
X2241905Y3251200D01*
X2242159Y3253689D01*
X2242870Y3254603D01*
X2244445Y3253943D01*
X2250846Y3249015D01*
X2260295Y3240532D01*
X2271318Y3229965D01*
X2282393Y3218688D01*
X2292096Y3208172D01*
X2299360Y3199638D01*
X2308148Y3190087D01*
X2318816Y3179267D01*
X2330348Y3168040D01*
X2341829Y3157321D01*
X2352294Y3147923D01*
X2360879Y3140811D01*
X2366518Y3136798D01*
X2367991Y3136290D01*
X2370226Y3136646D01*
X2371293Y3137916D01*
X2371140Y3139998D01*
X2369718Y3143097D01*
X2367076Y3147212D01*
X2363063Y3152394D01*
X2357729Y3158693D01*
X2344826Y3173120D01*
X2340000Y3178911D01*
X2336393Y3183940D01*
X2333802Y3188512D01*
X2332075Y3193084D01*
X2331059Y3197910D01*
X2330551Y3203346D01*
X2330399Y3214065D01*
X2329992Y3221380D01*
X2329484Y3224631D01*
X2328621Y3227832D01*
X2327351Y3231032D01*
X2325674Y3234283D01*
X2323388Y3237788D01*
X2320544Y3241649D01*
X2312619Y3250641D01*
X2301392Y3262223D01*
X2269490Y3293364D01*
X2256536Y3305149D01*
X2250998Y3309772D01*
X2241854Y3316478D01*
X2238248Y3318560D01*
X2235301Y3319830D01*
X2232964Y3320237D01*
X2231339Y3319779D01*
X2230323Y3318459D01*
X2230018Y3316325D01*
X2229002Y3314344D01*
X2226310Y3311651D01*
X2222347Y3308604D01*
X2217470Y3305556D01*
X2210866Y3301949D01*
X2208987Y3301542D01*
X2211882Y3304895D01*
X2234844Y3326637D01*
X2223566Y3337509D01*
X2218537Y3341725D01*
X2213559Y3344672D01*
X2209038Y3346196D01*
X2205482Y3346094D01*
X2202434Y3345434D01*
X2200757Y3346145D01*
X2200402Y3348482D01*
X2201570Y3353765D01*
X2201672Y3355086D01*
X2201367Y3356610D01*
X2200605Y3358387D01*
X2199284Y3360572D01*
X2194306Y3366566D01*
X2188108Y3372916D01*
X2175764Y3384600D01*
X2157882Y3400856D01*
X2101494Y3450488D01*
X2017522Y3523589D01*
X2004212Y3534968D01*
X1981047Y3553866D01*
X1971548Y3561130D01*
X1963724Y3566769D01*
X1957730Y3570630D01*
X1953717Y3572662D01*
G37*
G36*
X1588719Y3254603D02*
G01*
X1584960Y3253790D01*
X1580184Y3251453D01*
X1575054Y3248050D01*
X1570177Y3243884D01*
X1566367Y3239922D01*
X1563116Y3235909D01*
X1560372Y3231692D01*
X1558137Y3227171D01*
X1556359Y3222294D01*
X1554988Y3216910D01*
X1554124Y3210915D01*
X1553616Y3204260D01*
X1553514Y3196844D01*
X1553768Y3188512D01*
X1554378Y3179267D01*
X1556562Y3154172D01*
X1557578Y3132328D01*
X1557934Y3108401D01*
X1557578Y3082950D01*
X1556613Y3056382D01*
X1554073Y3015538D01*
X1550974Y2981655D01*
X1547926Y2955239D01*
X1544370Y2929991D01*
X1540357Y2906420D01*
X1537411Y2890774D01*
X1537258Y2886760D01*
X1538020Y2883001D01*
X1539951Y2879090D01*
X1543304Y2874670D01*
X1548282Y2869234D01*
X1555140Y2862478D01*
X1571599Y2847136D01*
X1583791Y2836214D01*
X1588719Y2832150D01*
X1592935Y2829052D01*
X1596491Y2826918D01*
X1599488Y2825750D01*
X1601927Y2825597D01*
X1603959Y2826461D01*
X1605584Y2828290D01*
X1606905Y2831185D01*
X1607972Y2835046D01*
X1609547Y2845968D01*
X1612392Y2876854D01*
X1614424Y2891485D01*
X1616659Y2903321D01*
X1617726Y2907690D01*
X1619402Y2912618D01*
X1620621Y2918663D01*
X1621739Y2927400D01*
X1622755Y2938526D01*
X1624482Y2966262D01*
X1625701Y2998825D01*
X1626260Y3024632D01*
X1626362Y3066440D01*
X1625650Y3095447D01*
X1625041Y3107385D01*
X1624177Y3117189D01*
X1622552Y3130042D01*
X1621840Y3138271D01*
X1621485Y3145790D01*
X1621637Y3152648D01*
X1622145Y3158896D01*
X1623161Y3164535D01*
X1624584Y3169716D01*
X1626514Y3174339D01*
X1628901Y3178505D01*
X1631746Y3182264D01*
X1635099Y3185668D01*
X1643329Y3192272D01*
X1646936Y3196031D01*
X1649323Y3199638D01*
X1650238Y3202533D01*
X1649171Y3205226D01*
X1646326Y3209188D01*
X1641906Y3214065D01*
X1636369Y3219602D01*
X1623009Y3231591D01*
X1608836Y3242868D01*
X1602282Y3247593D01*
X1596542Y3251301D01*
X1591868Y3253740D01*
G37*
G36*
X2034641Y2771495D02*
G01*
X2030323Y2770733D01*
X2025700Y2769158D01*
X2017014Y2764739D01*
X2012340Y2763367D01*
X2007870Y2762859D01*
X2004212Y2763367D01*
X1999843Y2763418D01*
X1994204Y2761081D01*
X1987143Y2756204D01*
X1978761Y2748889D01*
X1973427Y2743758D01*
X1969262Y2739339D01*
X1966061Y2735326D01*
X1963775Y2731516D01*
X1962200Y2727604D01*
X1961286Y2723337D01*
X1960829Y2718460D01*
X1960676Y2712720D01*
X1960981Y2706624D01*
X1961743Y2700832D01*
X1962691Y2696972D01*
X1974342Y2696972D01*
X1974697Y2699308D01*
X1975053Y2699613D01*
X1984276Y2689860D01*
X2003298Y2689860D01*
X2004060Y2691434D01*
X2006600Y2694330D01*
X2007870Y2695194D01*
X2008886Y2695549D01*
X2009648Y2695194D01*
X2010308Y2694330D01*
X2010714Y2693009D01*
X2010867Y2691434D01*
X2010511Y2689860D01*
X2009444Y2688539D01*
X2007920Y2687675D01*
X2006041Y2687370D01*
X2004364Y2687675D01*
X2003450Y2688539D01*
X2003298Y2689860D01*
X1984276Y2689860D01*
X1991766Y2681986D01*
X1994662Y2678430D01*
X1996135Y2675991D01*
X1995881Y2675128D01*
X1990648Y2677922D01*
X1983435Y2684373D01*
X1977085Y2691638D01*
X1974342Y2696972D01*
X1962691Y2696972D01*
X1964943Y2689961D01*
X1967230Y2684983D01*
X1970024Y2680258D01*
X1973275Y2675940D01*
X1976983Y2671978D01*
X1978335Y2670810D01*
X2180539Y2670810D01*
X2181352Y2672994D01*
X2183993Y2675686D01*
X2188413Y2678887D01*
X2194610Y2682595D01*
X2204923Y2687929D01*
X2211578Y2690622D01*
X2215184Y2690723D01*
X2216251Y2688386D01*
X2215845Y2683103D01*
X2214880Y2678633D01*
X2213305Y2674924D01*
X2211120Y2671978D01*
X2208225Y2669743D01*
X2204669Y2668168D01*
X2200351Y2667254D01*
X2195220Y2666949D01*
X2188870Y2667203D01*
X2184247Y2667914D01*
X2181504Y2669133D01*
X2180539Y2670810D01*
X1978335Y2670810D01*
X1981098Y2668422D01*
X1985619Y2665222D01*
X1990598Y2662478D01*
X1995932Y2660192D01*
X2000961Y2658567D01*
X2006346Y2657348D01*
X2011984Y2656535D01*
X2017775Y2656128D01*
X2023567Y2656078D01*
X2029307Y2656433D01*
X2034946Y2657094D01*
X2040331Y2658160D01*
X2045360Y2659583D01*
X2049983Y2661310D01*
X2054047Y2663342D01*
X2062175Y2669133D01*
X2065680Y2670251D01*
X2069236Y2669032D01*
X2077770Y2662936D01*
X2081885Y2660802D01*
X2085797Y2659329D01*
X2092096Y2658414D01*
X2095347Y2657398D01*
X2098446Y2655925D01*
X2101037Y2654147D01*
X2104034Y2652776D01*
X2108555Y2652471D01*
X2114042Y2653030D01*
X2120087Y2654350D01*
X2126132Y2656332D01*
X2131771Y2658770D01*
X2136495Y2661615D01*
X2141169Y2666034D01*
X2142236Y2666187D01*
X2142947Y2665069D01*
X2143201Y2662783D01*
X2144471Y2659786D01*
X2147203Y2656890D01*
X2223770Y2656890D01*
X2224328Y2660853D01*
X2225294Y2664815D01*
X2226360Y2668016D01*
X2227427Y2670251D01*
X2228240Y2671064D01*
X2228951Y2670251D01*
X2229510Y2668016D01*
X2229696Y2666339D01*
X2244191Y2666339D01*
X2248408Y2684170D01*
X2249322Y2688793D01*
X2249982Y2688234D01*
X2250795Y2685846D01*
X2251608Y2681782D01*
X2251913Y2676855D01*
X2251354Y2672130D01*
X2249982Y2668168D01*
X2248001Y2665425D01*
X2245461Y2663698D01*
X2244242Y2663952D01*
X2244191Y2666339D01*
X2229696Y2666339D01*
X2230018Y2660853D01*
X2229713Y2656890D01*
X2228850Y2653639D01*
X2227630Y2651455D01*
X2226056Y2650642D01*
X2224735Y2651455D01*
X2223922Y2653639D01*
X2223770Y2656890D01*
X2147203Y2656890D01*
X2147874Y2656179D01*
X2152954Y2652420D01*
X2159101Y2648966D01*
X2167788Y2645156D01*
X2174595Y2643581D01*
X2181047Y2644089D01*
X2188921Y2646527D01*
X2199233Y2649372D01*
X2205329Y2648864D01*
X2206853Y2645105D01*
X2206757Y2644902D01*
X2312365Y2644902D01*
X2312720Y2651150D01*
X2314194Y2657856D01*
X2316632Y2664307D01*
X2319731Y2669844D01*
X2323388Y2673654D01*
X2327300Y2675128D01*
X2329891Y2674924D01*
X2332482Y2674416D01*
X2334666Y2673604D01*
X2336241Y2672638D01*
X2336698Y2669997D01*
X2335377Y2665222D01*
X2332736Y2659075D01*
X2329281Y2652471D01*
X2325420Y2646121D01*
X2321610Y2640838D01*
X2318308Y2637485D01*
X2315972Y2636774D01*
X2313381Y2639872D01*
X2312365Y2644902D01*
X2206757Y2644902D01*
X2203602Y2638247D01*
X2199436Y2631744D01*
X2199233Y2627630D01*
X2203958Y2624277D01*
X2214575Y2620060D01*
X2227427Y2615641D01*
X2234844Y2614371D01*
X2238298Y2616250D01*
X2239162Y2621432D01*
X2241905Y2626969D01*
X2248916Y2632506D01*
X2258009Y2636723D01*
X2267254Y2638399D01*
X2269845Y2637586D01*
X2273350Y2635351D01*
X2277313Y2631998D01*
X2286355Y2622905D01*
X2291130Y2620111D01*
X2296515Y2619298D01*
X2309774Y2620924D01*
X2314498Y2620314D01*
X2318105Y2618130D01*
X2323846Y2610916D01*
X2327452Y2608224D01*
X2331466Y2606395D01*
X2340000Y2604820D01*
X2345537Y2602280D01*
X2351430Y2598572D01*
X2356345Y2594559D01*
X2394813Y2594559D01*
X2395321Y2595727D01*
X2397810Y2598166D01*
X2399995Y2600706D01*
X2401824Y2603957D01*
X2403043Y2607360D01*
X2403500Y2610662D01*
X2403652Y2613507D01*
X2404160Y2615844D01*
X2404872Y2617419D01*
X2405786Y2617978D01*
X2406650Y2617216D01*
X2407361Y2615133D01*
X2407869Y2611983D01*
X2408072Y2608224D01*
X2407462Y2604160D01*
X2405786Y2600452D01*
X2403246Y2597556D01*
X2400046Y2595727D01*
X2396388Y2594610D01*
X2356345Y2594559D01*
X2361590Y2589936D01*
X2366162Y2586482D01*
X2370683Y2583637D01*
X2375103Y2581503D01*
X2379522Y2580030D01*
X2383840Y2579166D01*
X2388108Y2579014D01*
X2392324Y2579471D01*
X2396490Y2580589D01*
X2400604Y2582367D01*
X2404668Y2584805D01*
X2408682Y2587904D01*
X2413762Y2592984D01*
X2417927Y2598521D01*
X2420721Y2603855D01*
X2421737Y2608275D01*
X2422398Y2612847D01*
X2424633Y2615895D01*
X2429052Y2617724D01*
X2441803Y2619654D01*
X2446731Y2621178D01*
X2450896Y2623362D01*
X2454148Y2626004D01*
X2456434Y2629103D01*
X2457704Y2632506D01*
X2457856Y2636215D01*
X2456789Y2640076D01*
X2454910Y2643327D01*
X2452522Y2644698D01*
X2448966Y2644241D01*
X2438806Y2639974D01*
X2435402Y2639314D01*
X2433167Y2639923D01*
X2431846Y2641955D01*
X2429611Y2646273D01*
X2426512Y2650032D01*
X2422601Y2653080D01*
X2418130Y2655519D01*
X2413152Y2657297D01*
X2407869Y2658364D01*
X2402382Y2658770D01*
X2396794Y2658414D01*
X2391359Y2657297D01*
X2386126Y2655417D01*
X2381250Y2652776D01*
X2376881Y2649372D01*
X2373020Y2645156D01*
X2369870Y2640634D01*
X2367737Y2636418D01*
X2366416Y2630373D01*
X2364790Y2628188D01*
X2362504Y2626664D01*
X2359609Y2626156D01*
X2356764Y2626918D01*
X2355088Y2629103D01*
X2354529Y2632456D01*
X2354986Y2636774D01*
X2356510Y2641803D01*
X2358999Y2647340D01*
X2362403Y2653182D01*
X2370124Y2664002D01*
X2372004Y2668473D01*
X2372360Y2672435D01*
X2369972Y2678988D01*
X2370683Y2681732D01*
X2373477Y2684221D01*
X2378506Y2686659D01*
X2386126Y2691434D01*
X2389428Y2697124D01*
X2388158Y2702560D01*
X2382215Y2706522D01*
X2378354Y2706979D01*
X2374138Y2705862D01*
X2369718Y2703118D01*
X2360625Y2694482D01*
X2356104Y2690876D01*
X2351836Y2688132D01*
X2347874Y2686304D01*
X2344521Y2685440D01*
X2341880Y2685643D01*
X2340203Y2687015D01*
X2339238Y2691841D01*
X2338222Y2693771D01*
X2336800Y2695041D01*
X2333244Y2696311D01*
X2331770Y2698496D01*
X2330805Y2701747D01*
X2329992Y2709926D01*
X2328621Y2712974D01*
X2326386Y2714904D01*
X2323287Y2715666D01*
X2319324Y2715310D01*
X2314498Y2713786D01*
X2308809Y2711094D01*
X2302306Y2707284D01*
X2288794Y2698699D01*
X2277973Y2707741D01*
X2273350Y2711043D01*
X2268778Y2713278D01*
X2264816Y2714294D01*
X2258923Y2713126D01*
X2254910Y2713278D01*
X2250287Y2714294D01*
X2239721Y2718409D01*
X2234488Y2719273D01*
X2229104Y2718612D01*
X2216353Y2714294D01*
X2211628Y2714142D01*
X2207463Y2716276D01*
X2197608Y2726029D01*
X2192832Y2728010D01*
X2185974Y2727198D01*
X2174646Y2723743D01*
X2165604Y2720238D01*
X2158898Y2716479D01*
X2154377Y2712212D01*
X2151837Y2707436D01*
X2150059Y2701899D01*
X2149094Y2700223D01*
X2148586Y2702356D01*
X2148281Y2708503D01*
X2147265Y2713024D01*
X2144674Y2717749D01*
X2140813Y2722422D01*
X2136089Y2726791D01*
X2130704Y2730601D01*
X2125014Y2733598D01*
X2119274Y2735630D01*
X2113788Y2736342D01*
X2107234Y2735783D01*
X2100986Y2734208D01*
X2095144Y2731719D01*
X2089912Y2728417D01*
X2085390Y2724353D01*
X2081682Y2719628D01*
X2078939Y2714396D01*
X2075027Y2700121D01*
X2071420Y2694482D01*
X2064867Y2690368D01*
X2063236Y2689758D01*
X2106879Y2689758D01*
X2107082Y2694889D01*
X2107793Y2699562D01*
X2108860Y2703220D01*
X2110181Y2705455D01*
X2113432Y2705354D01*
X2114956Y2699766D01*
X2114499Y2691790D01*
X2111756Y2684424D01*
X2109317Y2681173D01*
X2107844Y2680766D01*
X2107133Y2683560D01*
X2106879Y2689758D01*
X2063236Y2689758D01*
X2053996Y2686304D01*
X2038640Y2681224D01*
X2089353Y2681224D01*
X2089505Y2685592D01*
X2089912Y2688386D01*
X2090623Y2689453D01*
X2091486Y2688488D01*
X2092198Y2685948D01*
X2092452Y2682798D01*
X2092299Y2679395D01*
X2091639Y2676245D01*
X2090826Y2674366D01*
X2090115Y2674721D01*
X2089607Y2677058D01*
X2089353Y2681224D01*
X2038640Y2681224D01*
X2033727Y2679598D01*
X2033727Y2722727D01*
X2034286Y2736342D01*
X2035048Y2740101D01*
X2036216Y2742285D01*
X2037943Y2743149D01*
X2040280Y2743047D01*
X2043379Y2742285D01*
X2048256Y2741523D01*
X2053488Y2741828D01*
X2058720Y2742996D01*
X2063699Y2744876D01*
X2068118Y2747416D01*
X2071624Y2750362D01*
X2073960Y2753664D01*
X2074773Y2757119D01*
X2073859Y2760421D01*
X2071116Y2763164D01*
X2066493Y2765298D01*
X2059939Y2766923D01*
X2047443Y2769311D01*
X2038146Y2771343D01*
G37*
G36*
X1851710Y2768447D02*
G01*
X1847596Y2767330D01*
X1842871Y2764078D01*
X1840738Y2761335D01*
X1839010Y2757525D01*
X1837842Y2753106D01*
X1836928Y2744063D01*
X1835708Y2739593D01*
X1833930Y2735681D01*
X1831746Y2732887D01*
X1829409Y2729026D01*
X1827885Y2722372D01*
X1827275Y2713177D01*
X1827834Y2690977D01*
X1827428Y2682595D01*
X1826310Y2677109D01*
X1824685Y2675128D01*
X1822704Y2675991D01*
X1820875Y2678531D01*
X1819148Y2682494D01*
X1817624Y2687675D01*
X1816354Y2693873D01*
X1815388Y2700883D01*
X1814779Y2708503D01*
X1814575Y2716580D01*
X1814169Y2723134D01*
X1812848Y2728315D01*
X1810715Y2732125D01*
X1807718Y2734564D01*
X1803857Y2735630D01*
X1799082Y2735376D01*
X1793493Y2733751D01*
X1781352Y2728163D01*
X1776730Y2726842D01*
X1773326Y2726791D01*
X1766773Y2731312D01*
X1760372Y2732024D01*
X1753158Y2730296D01*
X1741830Y2723489D01*
X1737055Y2722219D01*
X1731162Y2722422D01*
X1715922Y2725572D01*
X1709724Y2725775D01*
X1704289Y2724658D01*
X1694484Y2719933D01*
X1688947Y2718612D01*
X1683004Y2718155D01*
X1670304Y2719425D01*
X1665579Y2718511D01*
X1661972Y2715514D01*
X1658620Y2710027D01*
X1656334Y2704795D01*
X1655470Y2700934D01*
X1656029Y2698140D01*
X1658010Y2696260D01*
X1660245Y2693619D01*
X1661209Y2691434D01*
X1678330Y2691434D01*
X1678533Y2694990D01*
X1678990Y2697124D01*
X1679752Y2697734D01*
X1680616Y2696565D01*
X1681327Y2694178D01*
X1681581Y2691434D01*
X1681327Y2688742D01*
X1680616Y2686354D01*
X1679752Y2685186D01*
X1678990Y2685745D01*
X1678533Y2687878D01*
X1678330Y2691434D01*
X1661209Y2691434D01*
X1662531Y2688437D01*
X1664665Y2681528D01*
X1666341Y2673604D01*
X1667713Y2663850D01*
X1667764Y2658059D01*
X1666392Y2655468D01*
X1663496Y2655519D01*
X1660804Y2656890D01*
X1658366Y2659329D01*
X1656283Y2662834D01*
X1654454Y2667254D01*
X1652981Y2672638D01*
X1651863Y2678938D01*
X1651101Y2686100D01*
X1650136Y2703677D01*
X1648155Y2708757D01*
X1643430Y2710688D01*
X1634540Y2711043D01*
X1627479Y2710484D01*
X1620977Y2708960D01*
X1615338Y2706522D01*
X1611020Y2703322D01*
X1607159Y2700020D01*
X1603705Y2698343D01*
X1600555Y2698242D01*
X1593900Y2701696D01*
X1590141Y2702356D01*
X1586534Y2701848D01*
X1583131Y2700375D01*
X1580083Y2698089D01*
X1577492Y2695143D01*
X1575511Y2691688D01*
X1574241Y2687929D01*
X1573784Y2684018D01*
X1574292Y2680157D01*
X1575624Y2677160D01*
X1614068Y2677160D01*
X1614322Y2685338D01*
X1618284Y2677160D01*
X1619808Y2673502D01*
X1621129Y2669590D01*
X1622044Y2665882D01*
X1622450Y2662885D01*
X1622450Y2659786D01*
X1621891Y2658770D01*
X1620621Y2659786D01*
X1618284Y2662885D01*
X1616557Y2665882D01*
X1615186Y2669590D01*
X1614322Y2673502D01*
X1614068Y2677160D01*
X1575624Y2677160D01*
X1575917Y2676499D01*
X1585214Y2665577D01*
X1588820Y2657652D01*
X1589176Y2650794D01*
X1585874Y2646324D01*
X1582928Y2644952D01*
X1580286Y2644394D01*
X1577594Y2645003D01*
X1574647Y2646883D01*
X1571091Y2650337D01*
X1566672Y2655519D01*
X1554276Y2672130D01*
X1547114Y2682849D01*
X1544015Y2688132D01*
X1541322Y2693212D01*
X1539138Y2697937D01*
X1537512Y2702153D01*
X1536446Y2705760D01*
X1535531Y2713126D01*
X1533956Y2716580D01*
X1531721Y2718917D01*
X1529029Y2720086D01*
X1526133Y2719984D01*
X1523390Y2718663D01*
X1520952Y2715920D01*
X1517548Y2708605D01*
X1514906Y2706014D01*
X1511554Y2704287D01*
X1507845Y2703677D01*
X1503578Y2703372D01*
X1499006Y2702509D01*
X1494231Y2701036D01*
X1489252Y2699054D01*
X1484172Y2696514D01*
X1478991Y2693517D01*
X1473860Y2690063D01*
X1468729Y2686151D01*
X1465783Y2683052D01*
X1463294Y2679192D01*
X1461312Y2674620D01*
X1460850Y2673096D01*
X1535531Y2673096D01*
X1548485Y2658668D01*
X1551432Y2654757D01*
X1553464Y2651607D01*
X1554226Y2649626D01*
X1553514Y2646629D01*
X1551178Y2647492D01*
X1547520Y2651963D01*
X1542796Y2659837D01*
X1535531Y2673096D01*
X1460850Y2673096D01*
X1459788Y2669590D01*
X1458722Y2664104D01*
X1458112Y2658414D01*
X1457988Y2654858D01*
X1515770Y2654858D01*
X1516227Y2660954D01*
X1517243Y2668778D01*
X1518005Y2669641D01*
X1519580Y2669133D01*
X1521764Y2667457D01*
X1524304Y2664714D01*
X1526946Y2660802D01*
X1528114Y2657449D01*
X1527810Y2654452D01*
X1526032Y2651658D01*
X1522679Y2648407D01*
X1519986Y2646629D01*
X1518005Y2646324D01*
X1516634Y2647594D01*
X1515872Y2650439D01*
X1515770Y2654858D01*
X1457988Y2654858D01*
X1457909Y2652572D01*
X1458163Y2646781D01*
X1458855Y2641346D01*
X1478483Y2641346D01*
X1480616Y2642209D01*
X1485290Y2642463D01*
X1489647Y2641803D01*
X1560372Y2641803D01*
X1560880Y2642463D01*
X1562150Y2641803D01*
X1563928Y2640076D01*
X1565960Y2637485D01*
X1568043Y2634335D01*
X1569770Y2631135D01*
X1570837Y2628544D01*
X1571142Y2626766D01*
X1570634Y2626156D01*
X1569364Y2626766D01*
X1567586Y2628544D01*
X1565554Y2631135D01*
X1563471Y2634335D01*
X1561744Y2637485D01*
X1560677Y2640076D01*
X1560372Y2641803D01*
X1489647Y2641803D01*
X1492250Y2640736D01*
X1494282Y2638806D01*
X1494993Y2636367D01*
X1494688Y2633980D01*
X1493824Y2631998D01*
X1492554Y2630728D01*
X1490980Y2630220D01*
X1488998Y2630728D01*
X1486509Y2631998D01*
X1483817Y2633980D01*
X1481277Y2636367D01*
X1478788Y2639466D01*
X1478483Y2641346D01*
X1458855Y2641346D01*
X1459941Y2635859D01*
X1461414Y2630982D01*
X1463243Y2626664D01*
X1465478Y2623058D01*
X1468069Y2620314D01*
X1471015Y2618587D01*
X1474266Y2617978D01*
X1481668Y2615844D01*
X1516176Y2615844D01*
X1519631Y2618841D01*
X1527098Y2623667D01*
X1532839Y2626766D01*
X1537817Y2628646D01*
X1541830Y2629408D01*
X1544523Y2629103D01*
X1545742Y2627833D01*
X1545285Y2625750D01*
X1542796Y2622854D01*
X1538122Y2619349D01*
X1534160Y2617216D01*
X1529486Y2615488D01*
X1524762Y2614320D01*
X1520494Y2613914D01*
X1516583Y2614320D01*
X1516176Y2615844D01*
X1481668Y2615844D01*
X1488236Y2610967D01*
X1492656Y2604770D01*
X1493113Y2599080D01*
X1492504Y2596083D01*
X1492656Y2592070D01*
X1493520Y2587650D01*
X1494993Y2583281D01*
X1497533Y2579065D01*
X1500835Y2575915D01*
X1504594Y2573832D01*
X1508455Y2572969D01*
X1512011Y2573223D01*
X1515008Y2574645D01*
X1517040Y2577338D01*
X1518462Y2585161D01*
X1520647Y2587701D01*
X1524762Y2589022D01*
X1536496Y2589834D01*
X1541576Y2591003D01*
X1546250Y2592781D01*
X1550416Y2595168D01*
X1553921Y2597962D01*
X1556613Y2601163D01*
X1558290Y2604566D01*
X1559509Y2610713D01*
X1561490Y2612085D01*
X1564843Y2612390D01*
X1575155Y2610916D01*
X1579676Y2611628D01*
X1583588Y2613761D01*
X1590446Y2620924D01*
X1593646Y2622804D01*
X1596847Y2623108D01*
X1600200Y2621838D01*
X1606397Y2618943D01*
X1611426Y2618790D01*
X1616862Y2621838D01*
X1629308Y2632862D01*
X1633321Y2635351D01*
X1636471Y2635961D01*
X1638503Y2634742D01*
X1643532Y2631186D01*
X1650339Y2630424D01*
X1656892Y2632252D01*
X1661109Y2636570D01*
X1663141Y2639415D01*
X1666544Y2640888D01*
X1671675Y2641193D01*
X1686356Y2639517D01*
X1692300Y2639771D01*
X1696872Y2641244D01*
X1700123Y2643886D01*
X1702104Y2647797D01*
X1702816Y2653030D01*
X1702358Y2659583D01*
X1697431Y2682494D01*
X1696415Y2688894D01*
X1696059Y2693466D01*
X1696212Y2697378D01*
X1696872Y2698953D01*
X1698193Y2698292D01*
X1700428Y2695549D01*
X1702155Y2692095D01*
X1703578Y2687218D01*
X1704543Y2681579D01*
X1705305Y2669692D01*
X1706321Y2664104D01*
X1707896Y2659075D01*
X1709978Y2654706D01*
X1712518Y2651048D01*
X1715465Y2648102D01*
X1718716Y2646019D01*
X1722221Y2644698D01*
X1725930Y2644343D01*
X1729739Y2644902D01*
X1733702Y2646476D01*
X1737614Y2649118D01*
X1743151Y2655468D01*
X1745792Y2662377D01*
X1745284Y2668320D01*
X1741424Y2671724D01*
X1739392Y2674061D01*
X1737309Y2679293D01*
X1735429Y2686761D01*
X1733956Y2695549D01*
X1731111Y2717952D01*
X1740317Y2707792D01*
X1778762Y2707792D01*
X1778965Y2711348D01*
X1779422Y2713482D01*
X1780184Y2714040D01*
X1780303Y2713888D01*
X1797202Y2713888D01*
X1797304Y2718257D01*
X1797761Y2721051D01*
X1798421Y2722067D01*
X1799285Y2721102D01*
X1799996Y2718562D01*
X1800301Y2715463D01*
X1800098Y2712059D01*
X1799488Y2708859D01*
X1798624Y2707030D01*
X1797913Y2707386D01*
X1797456Y2709722D01*
X1797202Y2713888D01*
X1780303Y2713888D01*
X1781098Y2712872D01*
X1781810Y2710484D01*
X1782013Y2707741D01*
X1781810Y2705049D01*
X1781098Y2702661D01*
X1780184Y2701493D01*
X1779422Y2702052D01*
X1778965Y2704185D01*
X1778762Y2707792D01*
X1740317Y2707792D01*
X1744878Y2701696D01*
X1747926Y2695346D01*
X1749388Y2690520D01*
X1780692Y2690520D01*
X1780844Y2693111D01*
X1781606Y2694889D01*
X1783029Y2695549D01*
X1784654Y2694889D01*
X1785975Y2693111D01*
X1786839Y2690520D01*
X1787194Y2687370D01*
X1787042Y2684170D01*
X1786686Y2681579D01*
X1786128Y2679852D01*
X1785416Y2679192D01*
X1784553Y2679852D01*
X1783486Y2681579D01*
X1782368Y2684170D01*
X1781302Y2687370D01*
X1780692Y2690520D01*
X1749388Y2690520D01*
X1749958Y2688640D01*
X1751330Y2675788D01*
X1753158Y2669235D01*
X1755902Y2663190D01*
X1759254Y2658364D01*
X1764182Y2653487D01*
X1768449Y2651302D01*
X1773275Y2651506D01*
X1786026Y2655824D01*
X1791360Y2656636D01*
X1796237Y2656281D01*
X1805228Y2653284D01*
X1809597Y2653284D01*
X1814271Y2654960D01*
X1825650Y2662326D01*
X1830222Y2663799D01*
X1834794Y2662936D01*
X1846732Y2656687D01*
X1851101Y2655824D01*
X1855266Y2657246D01*
X1865630Y2664714D01*
X1869795Y2666238D01*
X1873859Y2665882D01*
X1887474Y2660040D01*
X1895805Y2659075D01*
X1903679Y2660954D01*
X1911248Y2665577D01*
X1915464Y2669387D01*
X1917090Y2672334D01*
X1916226Y2675229D01*
X1913026Y2678938D01*
X1909521Y2683662D01*
X1907032Y2689707D01*
X1905507Y2696514D01*
X1905000Y2703728D01*
X1905507Y2710738D01*
X1906981Y2717139D01*
X1909470Y2722422D01*
X1912975Y2726131D01*
X1917852Y2729738D01*
X1919325Y2732481D01*
X1917293Y2735478D01*
X1907590Y2743403D01*
X1904339Y2746857D01*
X1902104Y2749956D01*
X1900580Y2755087D01*
X1898497Y2756560D01*
X1895398Y2756916D01*
X1891588Y2756204D01*
X1887270Y2754426D01*
X1882749Y2751785D01*
X1878330Y2748280D01*
X1874266Y2744063D01*
X1869490Y2737561D01*
X1866900Y2732227D01*
X1866678Y2729890D01*
X1883410Y2729890D01*
X1883511Y2732735D01*
X1883968Y2734665D01*
X1884781Y2735580D01*
X1885797Y2735224D01*
X1886712Y2733852D01*
X1887067Y2731922D01*
X1886864Y2729687D01*
X1886153Y2727401D01*
X1885137Y2725724D01*
X1884324Y2725623D01*
X1883714Y2727045D01*
X1883410Y2729890D01*
X1866678Y2729890D01*
X1866442Y2727401D01*
X1867865Y2722626D01*
X1869795Y2717241D01*
X1871014Y2710891D01*
X1871624Y2704134D01*
X1871624Y2697429D01*
X1871065Y2691180D01*
X1869897Y2685948D01*
X1868170Y2682138D01*
X1865934Y2680258D01*
X1863293Y2680868D01*
X1861515Y2684983D01*
X1860550Y2693009D01*
X1859889Y2718257D01*
X1858721Y2726994D01*
X1856689Y2732328D01*
X1853539Y2734818D01*
X1850288Y2736342D01*
X1849272Y2738424D01*
X1850542Y2741676D01*
X1854047Y2746908D01*
X1857248Y2752445D01*
X1858772Y2757576D01*
X1858822Y2762046D01*
X1857502Y2765552D01*
X1855114Y2767787D01*
G37*
D10*
X6411722Y5917437D02*
G01*
X6375400Y5821934D01*
X6411722Y5917437D02*
G01*
X6448043Y5821934D01*
X6389115Y5853937D02*
G01*
X6434581Y5853937D01*
X6505447Y5917437D02*
G01*
X6491731Y5912865D01*
X6482588Y5899404D01*
X6478015Y5876544D01*
X6478015Y5863081D01*
X6482588Y5840221D01*
X6491731Y5826505D01*
X6505447Y5821934D01*
X6514591Y5821934D01*
X6528054Y5826505D01*
X6537197Y5840221D01*
X6541770Y5863081D01*
X6541770Y5876544D01*
X6537197Y5899404D01*
X6528054Y5912865D01*
X6514591Y5917437D01*
X6505447Y5917437D01*
X6157722Y5917437D02*
G01*
X6121400Y5821934D01*
X6157722Y5917437D02*
G01*
X6194043Y5821934D01*
X6135115Y5853937D02*
G01*
X6180581Y5853937D01*
X6224015Y5899404D02*
G01*
X6233159Y5903976D01*
X6246875Y5917437D01*
X6246875Y5821934D01*
X5891022Y5917437D02*
G01*
X5854700Y5821934D01*
X5891022Y5917437D02*
G01*
X5927343Y5821934D01*
X5868415Y5853937D02*
G01*
X5913881Y5853937D01*
X5961888Y5894831D02*
G01*
X5961888Y5899404D01*
X5966459Y5908294D01*
X5971031Y5912865D01*
X5980175Y5917437D01*
X5998209Y5917437D01*
X6007354Y5912865D01*
X6011925Y5908294D01*
X6016497Y5899404D01*
X6016497Y5890260D01*
X6011925Y5881115D01*
X6002781Y5867400D01*
X5957315Y5821934D01*
X6021070Y5821934D01*
X5130800Y3745737D02*
G01*
X5130800Y3650234D01*
X5130800Y3745737D02*
G01*
X5162550Y3745737D01*
X5176265Y3741165D01*
X5185409Y3732276D01*
X5189981Y3723131D01*
X5194554Y3709415D01*
X5194554Y3686810D01*
X5189981Y3673094D01*
X5185409Y3663950D01*
X5176265Y3654805D01*
X5162550Y3650234D01*
X5130800Y3650234D01*
X5269991Y3745737D02*
G01*
X5224525Y3682237D01*
X5292597Y3682237D01*
X5269991Y3745737D02*
G01*
X5269991Y3650234D01*
X5626100Y3745737D02*
G01*
X5626100Y3650234D01*
X5626100Y3745737D02*
G01*
X5657850Y3745737D01*
X5671565Y3741165D01*
X5680709Y3732276D01*
X5685281Y3723131D01*
X5689854Y3709415D01*
X5689854Y3686810D01*
X5685281Y3673094D01*
X5680709Y3663950D01*
X5671565Y3654805D01*
X5657850Y3650234D01*
X5626100Y3650234D01*
X5774181Y3732276D02*
G01*
X5769609Y3741165D01*
X5756147Y3745737D01*
X5747004Y3745737D01*
X5733288Y3741165D01*
X5724397Y3727704D01*
X5719825Y3704844D01*
X5719825Y3682237D01*
X5724397Y3663950D01*
X5733288Y3654805D01*
X5747004Y3650234D01*
X5751575Y3650234D01*
X5765291Y3654805D01*
X5774181Y3663950D01*
X5778754Y3677665D01*
X5778754Y3682237D01*
X5774181Y3695700D01*
X5765291Y3704844D01*
X5751575Y3709415D01*
X5747004Y3709415D01*
X5733288Y3704844D01*
X5724397Y3695700D01*
X5719825Y3682237D01*
X5880100Y3745737D02*
G01*
X5880100Y3650234D01*
X5880100Y3745737D02*
G01*
X5911850Y3745737D01*
X5925565Y3741165D01*
X5934709Y3732276D01*
X5939281Y3723131D01*
X5943854Y3709415D01*
X5943854Y3686810D01*
X5939281Y3673094D01*
X5934709Y3663950D01*
X5925565Y3654805D01*
X5911850Y3650234D01*
X5880100Y3650234D01*
X6037325Y3745737D02*
G01*
X5991859Y3650234D01*
X5973825Y3745737D02*
G01*
X6037325Y3745737D01*
X6134100Y3745737D02*
G01*
X6134100Y3650234D01*
X6134100Y3745737D02*
G01*
X6165850Y3745737D01*
X6179565Y3741165D01*
X6188709Y3732276D01*
X6193281Y3723131D01*
X6197854Y3709415D01*
X6197854Y3686810D01*
X6193281Y3673094D01*
X6188709Y3663950D01*
X6179565Y3654805D01*
X6165850Y3650234D01*
X6134100Y3650234D01*
X6250431Y3745737D02*
G01*
X6236715Y3741165D01*
X6232397Y3732276D01*
X6232397Y3723131D01*
X6236715Y3713987D01*
X6245859Y3709415D01*
X6264147Y3704844D01*
X6277609Y3700271D01*
X6286754Y3691381D01*
X6291325Y3682237D01*
X6291325Y3668521D01*
X6286754Y3659378D01*
X6282181Y3654805D01*
X6268720Y3650234D01*
X6250431Y3650234D01*
X6236715Y3654805D01*
X6232397Y3659378D01*
X6227825Y3668521D01*
X6227825Y3682237D01*
X6232397Y3691381D01*
X6241288Y3700271D01*
X6255004Y3704844D01*
X6273291Y3709415D01*
X6282181Y3713987D01*
X6286754Y3723131D01*
X6286754Y3732276D01*
X6282181Y3741165D01*
X6268720Y3745737D01*
X6250431Y3745737D01*
X6413500Y3745737D02*
G01*
X6413500Y3650234D01*
X6413500Y3745737D02*
G01*
X6445250Y3745737D01*
X6458965Y3741165D01*
X6468109Y3732276D01*
X6472681Y3723131D01*
X6477254Y3709415D01*
X6477254Y3686810D01*
X6472681Y3673094D01*
X6468109Y3663950D01*
X6458965Y3654805D01*
X6445250Y3650234D01*
X6413500Y3650234D01*
X6566154Y3713987D02*
G01*
X6561581Y3700271D01*
X6552691Y3691381D01*
X6538975Y3686810D01*
X6534404Y3686810D01*
X6520688Y3691381D01*
X6511797Y3700271D01*
X6507225Y3713987D01*
X6507225Y3718560D01*
X6511797Y3732276D01*
X6520688Y3741165D01*
X6534404Y3745737D01*
X6538975Y3745737D01*
X6552691Y3741165D01*
X6561581Y3732276D01*
X6566154Y3713987D01*
X6566154Y3691381D01*
X6561581Y3668521D01*
X6552691Y3654805D01*
X6538975Y3650234D01*
X6529831Y3650234D01*
X6516115Y3654805D01*
X6511797Y3663950D01*
X6642100Y3745737D02*
G01*
X6642100Y3650234D01*
X6642100Y3745737D02*
G01*
X6673850Y3745737D01*
X6687565Y3741165D01*
X6696709Y3732276D01*
X6701281Y3723131D01*
X6705854Y3709415D01*
X6705854Y3686810D01*
X6701281Y3673094D01*
X6696709Y3663950D01*
X6687565Y3654805D01*
X6673850Y3650234D01*
X6642100Y3650234D01*
X6735825Y3727704D02*
G01*
X6744715Y3732276D01*
X6758431Y3745737D01*
X6758431Y3650234D01*
X6815836Y3745737D02*
G01*
X6802120Y3741165D01*
X6792975Y3727704D01*
X6788404Y3704844D01*
X6788404Y3691381D01*
X6792975Y3668521D01*
X6802120Y3654805D01*
X6815836Y3650234D01*
X6824725Y3650234D01*
X6838441Y3654805D01*
X6847586Y3668521D01*
X6852158Y3691381D01*
X6852158Y3704844D01*
X6847586Y3727704D01*
X6838441Y3741165D01*
X6824725Y3745737D01*
X6815836Y3745737D01*
X6896100Y3745737D02*
G01*
X6896100Y3650234D01*
X6896100Y3745737D02*
G01*
X6927850Y3745737D01*
X6941565Y3741165D01*
X6950709Y3732276D01*
X6955281Y3723131D01*
X6959854Y3709415D01*
X6959854Y3686810D01*
X6955281Y3673094D01*
X6950709Y3663950D01*
X6941565Y3654805D01*
X6927850Y3650234D01*
X6896100Y3650234D01*
X6989825Y3727704D02*
G01*
X6998715Y3732276D01*
X7012431Y3745737D01*
X7012431Y3650234D01*
X7042404Y3727704D02*
G01*
X7051547Y3732276D01*
X7065263Y3745737D01*
X7065263Y3650234D01*
X5372100Y3745737D02*
G01*
X5372100Y3650234D01*
X5372100Y3745737D02*
G01*
X5403850Y3745737D01*
X5417565Y3741165D01*
X5426709Y3732276D01*
X5431281Y3723131D01*
X5435854Y3709415D01*
X5435854Y3686810D01*
X5431281Y3673094D01*
X5426709Y3663950D01*
X5417565Y3654805D01*
X5403850Y3650234D01*
X5372100Y3650234D01*
X5520181Y3745737D02*
G01*
X5474715Y3745737D01*
X5470397Y3704844D01*
X5474715Y3709415D01*
X5488431Y3713987D01*
X5502147Y3713987D01*
X5515609Y3709415D01*
X5524754Y3700271D01*
X5529325Y3686810D01*
X5529325Y3677665D01*
X5524754Y3663950D01*
X5515609Y3654805D01*
X5502147Y3650234D01*
X5488431Y3650234D01*
X5474715Y3654805D01*
X5470397Y3659378D01*
X5465825Y3668521D01*
X7573009Y2227071D02*
G01*
X7543800Y2150618D01*
X7573009Y2227071D02*
G01*
X7601965Y2150618D01*
X7554722Y2176018D02*
G01*
X7591043Y2176018D01*
X7531100Y2823971D02*
G01*
X7531100Y2747518D01*
X7581900Y2823971D02*
G01*
X7531100Y2772918D01*
X7549388Y2791205D02*
G01*
X7581900Y2747518D01*
D11*
X3530854Y3606800D02*
G01*
X3578606Y3606800D01*
X3530854Y3606800D02*
G01*
X3530854Y3636263D01*
X3553713Y3606800D02*
G01*
X3553713Y3625087D01*
X3578606Y3606800D02*
G01*
X3578606Y3636263D01*
X3521963Y3667252D02*
G01*
X3526281Y3662679D01*
X3533140Y3658107D01*
X3542284Y3653536D01*
X3553713Y3651250D01*
X3562858Y3651250D01*
X3574034Y3653536D01*
X3583177Y3658107D01*
X3590036Y3662679D01*
X3594608Y3667252D01*
X3530854Y3686810D02*
G01*
X3530854Y3711702D01*
X3549141Y3698239D01*
X3549141Y3705097D01*
X3551427Y3709415D01*
X3553713Y3711702D01*
X3560572Y3713987D01*
X3565143Y3713987D01*
X3571747Y3711702D01*
X3576320Y3707129D01*
X3578606Y3700526D01*
X3578606Y3693668D01*
X3576320Y3686810D01*
X3574034Y3684523D01*
X3569461Y3682237D01*
X3521963Y3728973D02*
G01*
X3526281Y3733545D01*
X3533140Y3738118D01*
X3542284Y3742689D01*
X3553713Y3744976D01*
X3562858Y3744976D01*
X3574034Y3742689D01*
X3583177Y3738118D01*
X3590036Y3733545D01*
X3594608Y3728973D01*
X3783584Y3640836D02*
G01*
X3779011Y3638550D01*
X3774440Y3633978D01*
X3772154Y3629405D01*
X3772154Y3620515D01*
X3774440Y3615944D01*
X3779011Y3611371D01*
X3783584Y3609086D01*
X3790441Y3606800D01*
X3801872Y3606800D01*
X3808729Y3609086D01*
X3813047Y3611371D01*
X3817620Y3615944D01*
X3819906Y3620515D01*
X3819906Y3629405D01*
X3817620Y3633978D01*
X3813047Y3638550D01*
X3808729Y3640836D01*
X3763263Y3671823D02*
G01*
X3767581Y3667252D01*
X3774440Y3662679D01*
X3783584Y3658107D01*
X3795013Y3655821D01*
X3804158Y3655821D01*
X3815334Y3658107D01*
X3824477Y3662679D01*
X3831336Y3667252D01*
X3835908Y3671823D01*
X3783584Y3689095D02*
G01*
X3781297Y3689095D01*
X3776725Y3691381D01*
X3774440Y3693668D01*
X3772154Y3698239D01*
X3772154Y3707129D01*
X3774440Y3711702D01*
X3776725Y3713987D01*
X3781297Y3716273D01*
X3785870Y3716273D01*
X3790441Y3713987D01*
X3797300Y3709415D01*
X3819906Y3686810D01*
X3819906Y3718560D01*
X3763263Y3733545D02*
G01*
X3767581Y3738118D01*
X3774440Y3742689D01*
X3783584Y3747262D01*
X3795013Y3749547D01*
X3804158Y3749547D01*
X3815334Y3747262D01*
X3824477Y3742689D01*
X3831336Y3738118D01*
X3835908Y3733545D01*
X3975354Y3606800D02*
G01*
X4023106Y3606800D01*
X3975354Y3606800D02*
G01*
X3975354Y3627373D01*
X3977640Y3633978D01*
X3979925Y3636263D01*
X3984497Y3638550D01*
X3989070Y3638550D01*
X3993641Y3636263D01*
X3995927Y3633978D01*
X3998213Y3627373D01*
X3998213Y3606800D02*
G01*
X3998213Y3627373D01*
X4000500Y3633978D01*
X4002786Y3636263D01*
X4007358Y3638550D01*
X4013961Y3638550D01*
X4018534Y3636263D01*
X4020820Y3633978D01*
X4023106Y3627373D01*
X4023106Y3606800D01*
X3966463Y3669537D02*
G01*
X3970781Y3664965D01*
X3977640Y3660394D01*
X3986784Y3655821D01*
X3998213Y3653536D01*
X4007358Y3653536D01*
X4018534Y3655821D01*
X4027677Y3660394D01*
X4034536Y3664965D01*
X4039108Y3669537D01*
X3984497Y3684523D02*
G01*
X3982211Y3689095D01*
X3975354Y3695954D01*
X4023106Y3695954D01*
X3966463Y3710939D02*
G01*
X3970781Y3715512D01*
X3977640Y3720084D01*
X3986784Y3724402D01*
X3998213Y3726687D01*
X4007358Y3726687D01*
X4018534Y3724402D01*
X4027677Y3720084D01*
X4034536Y3715512D01*
X4039108Y3710939D01*
D12*
X4544313Y4929378D02*
G01*
X4470400Y4735576D01*
X4544313Y4929378D02*
G01*
X4618227Y4735576D01*
X4498086Y4800092D02*
G01*
X4590541Y4800092D01*
X4679188Y4929378D02*
G01*
X4679188Y4735576D01*
X4679188Y4929378D02*
G01*
X4762245Y4929378D01*
X4789931Y4920234D01*
X4799329Y4911089D01*
X4808474Y4892547D01*
X4808474Y4874005D01*
X4799329Y4855463D01*
X4789931Y4846320D01*
X4762245Y4837176D01*
X4679188Y4837176D01*
X4743704Y4837176D02*
G01*
X4808474Y4735576D01*
X4869434Y4929378D02*
G01*
X4869434Y4735576D01*
X4869434Y4929378D02*
G01*
X4933950Y4929378D01*
X4961890Y4920234D01*
X4980177Y4901692D01*
X4989575Y4883150D01*
X4998720Y4855463D01*
X4998720Y4809489D01*
X4989575Y4781550D01*
X4980177Y4763262D01*
X4961890Y4744720D01*
X4933950Y4735576D01*
X4869434Y4735576D01*
X5059679Y4929378D02*
G01*
X5059679Y4790947D01*
X5068824Y4763262D01*
X5087365Y4744720D01*
X5115052Y4735576D01*
X5133593Y4735576D01*
X5161279Y4744720D01*
X5179822Y4763262D01*
X5188965Y4790947D01*
X5188965Y4929378D01*
X5249925Y4929378D02*
G01*
X5249925Y4735576D01*
X5310886Y4929378D02*
G01*
X5310886Y4735576D01*
X5310886Y4929378D02*
G01*
X5440172Y4735576D01*
X5440172Y4929378D02*
G01*
X5440172Y4735576D01*
X5556504Y4929378D02*
G01*
X5538215Y4920234D01*
X5519674Y4901692D01*
X5510529Y4883150D01*
X5501131Y4855463D01*
X5501131Y4809489D01*
X5510529Y4781550D01*
X5519674Y4763262D01*
X5538215Y4744720D01*
X5556504Y4735576D01*
X5593588Y4735576D01*
X5612129Y4744720D01*
X5630418Y4763262D01*
X5639815Y4781550D01*
X5648959Y4809489D01*
X5648959Y4855463D01*
X5639815Y4883150D01*
X5630418Y4901692D01*
X5612129Y4920234D01*
X5593588Y4929378D01*
X5556504Y4929378D01*
X5852159Y4929378D02*
G01*
X5852159Y4735576D01*
X5852159Y4929378D02*
G01*
X5981445Y4735576D01*
X5981445Y4929378D02*
G01*
X5981445Y4735576D01*
X6116320Y4929378D02*
G01*
X6042406Y4735576D01*
X6116320Y4929378D02*
G01*
X6190234Y4735576D01*
X6070091Y4800092D02*
G01*
X6162547Y4800092D01*
X6251193Y4929378D02*
G01*
X6251193Y4735576D01*
X6251193Y4929378D02*
G01*
X6380479Y4735576D01*
X6380479Y4929378D02*
G01*
X6380479Y4735576D01*
X6496811Y4929378D02*
G01*
X6478270Y4920234D01*
X6459981Y4901692D01*
X6450584Y4883150D01*
X6441440Y4855463D01*
X6441440Y4809489D01*
X6450584Y4781550D01*
X6459981Y4763262D01*
X6478270Y4744720D01*
X6496811Y4735576D01*
X6533895Y4735576D01*
X6552184Y4744720D01*
X6570725Y4763262D01*
X6579870Y4781550D01*
X6589268Y4809489D01*
X6589268Y4855463D01*
X6579870Y4883150D01*
X6570725Y4901692D01*
X6552184Y4920234D01*
X6533895Y4929378D01*
X6496811Y4929378D01*
D11*
X939800Y6283197D02*
G01*
X939800Y6178295D01*
X1009904Y6283197D02*
G01*
X939800Y6213094D01*
X964692Y6238239D02*
G01*
X1009904Y6178295D01*
X1082802Y6283197D02*
G01*
X1042923Y6178295D01*
X1082802Y6283197D02*
G01*
X1122679Y6178295D01*
X1057910Y6213094D02*
G01*
X1107694Y6213094D01*
X1155700Y6283197D02*
G01*
X1155700Y6178295D01*
X1155700Y6283197D02*
G01*
X1195831Y6178295D01*
X1235710Y6283197D02*
G01*
X1195831Y6178295D01*
X1235710Y6283197D02*
G01*
X1235710Y6178295D01*
X1268729Y6283197D02*
G01*
X1268729Y6178295D01*
X1301750Y6283197D02*
G01*
X1301750Y6178295D01*
X1371854Y6283197D02*
G01*
X1301750Y6213094D01*
X1326895Y6238239D02*
G01*
X1371854Y6178295D01*
X1444752Y6283197D02*
G01*
X1404873Y6178295D01*
X1444752Y6283197D02*
G01*
X1484884Y6178295D01*
X1419860Y6213094D02*
G01*
X1469897Y6213094D01*
X1587754Y6283197D02*
G01*
X1517904Y6178295D01*
X1517904Y6283197D02*
G01*
X1587754Y6283197D01*
X1517904Y6178295D02*
G01*
X1587754Y6178295D01*
X1620773Y6283197D02*
G01*
X1620773Y6178295D01*
X1620773Y6283197D02*
G01*
X1685797Y6283197D01*
X1620773Y6233160D02*
G01*
X1660905Y6233160D01*
X1620773Y6178295D02*
G01*
X1685797Y6178295D01*
X1865884Y6268212D02*
G01*
X1855723Y6278118D01*
X1840737Y6283197D01*
X1820671Y6283197D01*
X1805686Y6278118D01*
X1795779Y6268212D01*
X1795779Y6258305D01*
X1800860Y6248145D01*
X1805686Y6243320D01*
X1815845Y6238239D01*
X1845818Y6228079D01*
X1855723Y6223254D01*
X1860804Y6218173D01*
X1865884Y6208268D01*
X1865884Y6193281D01*
X1855723Y6183121D01*
X1840737Y6178295D01*
X1820671Y6178295D01*
X1805686Y6183121D01*
X1795779Y6193281D01*
X1928876Y6283197D02*
G01*
X1918715Y6278118D01*
X1908810Y6268212D01*
X1903729Y6258305D01*
X1898904Y6243320D01*
X1898904Y6218173D01*
X1903729Y6203187D01*
X1908810Y6193281D01*
X1918715Y6183121D01*
X1928876Y6178295D01*
X1948688Y6178295D01*
X1958847Y6183121D01*
X1968754Y6193281D01*
X1973834Y6203187D01*
X1978913Y6218173D01*
X1978913Y6243320D01*
X1973834Y6258305D01*
X1968754Y6268212D01*
X1958847Y6278118D01*
X1948688Y6283197D01*
X1928876Y6283197D01*
X2011679Y6283197D02*
G01*
X2011679Y6178295D01*
X2011679Y6178295D02*
G01*
X2071877Y6178295D01*
X2104897Y6283197D02*
G01*
X2104897Y6208268D01*
X2109724Y6193281D01*
X2119884Y6183121D01*
X2134870Y6178295D01*
X2144775Y6178295D01*
X2159761Y6183121D01*
X2169922Y6193281D01*
X2174747Y6208268D01*
X2174747Y6283197D01*
X2282697Y6258305D02*
G01*
X2277872Y6268212D01*
X2267711Y6278118D01*
X2257806Y6283197D01*
X2237740Y6283197D01*
X2227834Y6278118D01*
X2217674Y6268212D01*
X2212847Y6258305D01*
X2207768Y6243320D01*
X2207768Y6218173D01*
X2212847Y6203187D01*
X2217674Y6193281D01*
X2227834Y6183121D01*
X2237740Y6178295D01*
X2257806Y6178295D01*
X2267711Y6183121D01*
X2277872Y6193281D01*
X2282697Y6203187D01*
X2315718Y6283197D02*
G01*
X2315718Y6178295D01*
X2378709Y6283197D02*
G01*
X2368804Y6278118D01*
X2358897Y6268212D01*
X2353818Y6258305D01*
X2348738Y6243320D01*
X2348738Y6218173D01*
X2353818Y6203187D01*
X2358897Y6193281D01*
X2368804Y6183121D01*
X2378709Y6178295D01*
X2398775Y6178295D01*
X2408681Y6183121D01*
X2418841Y6193281D01*
X2423922Y6203187D01*
X2428747Y6218173D01*
X2428747Y6243320D01*
X2423922Y6258305D01*
X2418841Y6268212D01*
X2408681Y6278118D01*
X2398775Y6283197D01*
X2378709Y6283197D01*
X2461768Y6283197D02*
G01*
X2461768Y6178295D01*
X2461768Y6283197D02*
G01*
X2531872Y6178295D01*
X2531872Y6283197D02*
G01*
X2531872Y6178295D01*
X2564891Y6283197D02*
G01*
X2564891Y6178295D01*
X2564891Y6283197D02*
G01*
X2629915Y6283197D01*
X2564891Y6233160D02*
G01*
X2604770Y6233160D01*
X2564891Y6178295D02*
G01*
X2629915Y6178295D01*
X2732786Y6268212D02*
G01*
X2722879Y6278118D01*
X2707893Y6283197D01*
X2687827Y6283197D01*
X2672841Y6278118D01*
X2662681Y6268212D01*
X2662681Y6258305D01*
X2667761Y6248145D01*
X2672841Y6243320D01*
X2682747Y6238239D01*
X2712720Y6228079D01*
X2722879Y6223254D01*
X2727706Y6218173D01*
X2732786Y6208268D01*
X2732786Y6193281D01*
X2722879Y6183121D01*
X2707893Y6178295D01*
X2687827Y6178295D01*
X2672841Y6183121D01*
X2662681Y6193281D01*
X2842768Y6283197D02*
G01*
X2842768Y6178295D01*
X2842768Y6283197D02*
G01*
X2907791Y6283197D01*
X2842768Y6233160D02*
G01*
X2882900Y6233160D01*
X2842768Y6178295D02*
G01*
X2907791Y6178295D01*
X2940811Y6283197D02*
G01*
X2940811Y6178295D01*
X2940811Y6178295D02*
G01*
X3000756Y6178295D01*
X3033775Y6283197D02*
G01*
X3033775Y6178295D01*
X3033775Y6283197D02*
G01*
X3098800Y6283197D01*
X3033775Y6233160D02*
G01*
X3073908Y6233160D01*
X3033775Y6178295D02*
G01*
X3098800Y6178295D01*
X3206750Y6258305D02*
G01*
X3201670Y6268212D01*
X3191763Y6278118D01*
X3181858Y6283197D01*
X3161791Y6283197D01*
X3151886Y6278118D01*
X3141725Y6268212D01*
X3136900Y6258305D01*
X3131820Y6243320D01*
X3131820Y6218173D01*
X3136900Y6203187D01*
X3141725Y6193281D01*
X3151886Y6183121D01*
X3161791Y6178295D01*
X3181858Y6178295D01*
X3191763Y6183121D01*
X3201670Y6193281D01*
X3206750Y6203187D01*
X3274822Y6283197D02*
G01*
X3274822Y6178295D01*
X3239770Y6283197D02*
G01*
X3309874Y6283197D01*
X3342893Y6283197D02*
G01*
X3342893Y6178295D01*
X3342893Y6283197D02*
G01*
X3387852Y6283197D01*
X3402838Y6278118D01*
X3407918Y6273292D01*
X3412743Y6263131D01*
X3412743Y6253226D01*
X3407918Y6243320D01*
X3402838Y6238239D01*
X3387852Y6233160D01*
X3342893Y6233160D01*
X3377691Y6233160D02*
G01*
X3412743Y6178295D01*
X3475736Y6283197D02*
G01*
X3465829Y6278118D01*
X3455670Y6268212D01*
X3450843Y6258305D01*
X3445763Y6243320D01*
X3445763Y6218173D01*
X3450843Y6203187D01*
X3455670Y6193281D01*
X3465829Y6183121D01*
X3475736Y6178295D01*
X3495802Y6178295D01*
X3505708Y6183121D01*
X3515868Y6193281D01*
X3520693Y6203187D01*
X3525774Y6218173D01*
X3525774Y6243320D01*
X3520693Y6258305D01*
X3515868Y6268212D01*
X3505708Y6278118D01*
X3495802Y6283197D01*
X3475736Y6283197D01*
X3558793Y6283197D02*
G01*
X3558793Y6178295D01*
X3558793Y6283197D02*
G01*
X3628897Y6178295D01*
X3628897Y6283197D02*
G01*
X3628897Y6178295D01*
X3661918Y6283197D02*
G01*
X3661918Y6178295D01*
X3769868Y6258305D02*
G01*
X3764788Y6268212D01*
X3754881Y6278118D01*
X3744722Y6283197D01*
X3724909Y6283197D01*
X3714750Y6278118D01*
X3704843Y6268212D01*
X3699763Y6258305D01*
X3694684Y6243320D01*
X3694684Y6218173D01*
X3699763Y6203187D01*
X3704843Y6193281D01*
X3714750Y6183121D01*
X3724909Y6178295D01*
X3744722Y6178295D01*
X3754881Y6183121D01*
X3764788Y6193281D01*
X3769868Y6203187D01*
X3842765Y6283197D02*
G01*
X3802888Y6178295D01*
X3842765Y6283197D02*
G01*
X3882897Y6178295D01*
X3817874Y6213094D02*
G01*
X3867911Y6213094D01*
X3985768Y6268212D02*
G01*
X3975861Y6278118D01*
X3960875Y6283197D01*
X3940809Y6283197D01*
X3925824Y6278118D01*
X3915918Y6268212D01*
X3915918Y6258305D01*
X3920743Y6248145D01*
X3925824Y6243320D01*
X3935729Y6238239D01*
X3965702Y6228079D01*
X3975861Y6223254D01*
X3980688Y6218173D01*
X3985768Y6208268D01*
X3985768Y6193281D01*
X3975861Y6183121D01*
X3960875Y6178295D01*
X3940809Y6178295D01*
X3925824Y6183121D01*
X3915918Y6193281D01*
D10*
X6569456Y2922015D02*
G01*
X6527800Y2813050D01*
X6569456Y2922015D02*
G01*
X6610858Y2813050D01*
X6543293Y2849371D02*
G01*
X6595363Y2849371D01*
X6645147Y2922015D02*
G01*
X6645147Y2844037D01*
X6650481Y2828544D01*
X6660895Y2818129D01*
X6676390Y2813050D01*
X6686804Y2813050D01*
X6702297Y2818129D01*
X6712711Y2828544D01*
X6718045Y2844037D01*
X6718045Y2922015D01*
X6788658Y2922015D02*
G01*
X6788658Y2813050D01*
X6752336Y2922015D02*
G01*
X6824979Y2922015D01*
X6952741Y2942844D02*
G01*
X6859270Y2776473D01*
X6987031Y2922015D02*
G01*
X6987031Y2813050D01*
X6987031Y2922015D02*
G01*
X7028688Y2813050D01*
X7070090Y2922015D02*
G01*
X7028688Y2813050D01*
X7070090Y2922015D02*
G01*
X7070090Y2813050D01*
X7146036Y2922015D02*
G01*
X7104379Y2813050D01*
X7146036Y2922015D02*
G01*
X7187691Y2813050D01*
X7120127Y2849371D02*
G01*
X7171943Y2849371D01*
X7221981Y2922015D02*
G01*
X7221981Y2813050D01*
X7221981Y2922015D02*
G01*
X7294625Y2813050D01*
X7294625Y2922015D02*
G01*
X7294625Y2813050D01*
X5797041Y2909315D02*
G01*
X5786627Y2904236D01*
X5776213Y2893821D01*
X5770879Y2883407D01*
X5765800Y2867660D01*
X5765800Y2841752D01*
X5770879Y2826257D01*
X5776213Y2815844D01*
X5786627Y2805429D01*
X5797041Y2800350D01*
X5817870Y2800350D01*
X5828029Y2805429D01*
X5838443Y2815844D01*
X5843777Y2826257D01*
X5848858Y2841752D01*
X5848858Y2867660D01*
X5843777Y2883407D01*
X5838443Y2893821D01*
X5828029Y2904236D01*
X5817870Y2909315D01*
X5797041Y2909315D01*
X5883147Y2909315D02*
G01*
X5883147Y2800350D01*
X5883147Y2909315D02*
G01*
X5956045Y2800350D01*
X5956045Y2909315D02*
G01*
X5956045Y2800350D01*
X6083808Y2930144D02*
G01*
X5990336Y2763773D01*
X6149340Y2909315D02*
G01*
X6138925Y2904236D01*
X6128511Y2893821D01*
X6123177Y2883407D01*
X6118097Y2867660D01*
X6118097Y2841752D01*
X6123177Y2826257D01*
X6128511Y2815844D01*
X6138925Y2805429D01*
X6149340Y2800350D01*
X6169913Y2800350D01*
X6180327Y2805429D01*
X6190741Y2815844D01*
X6196075Y2826257D01*
X6201156Y2841752D01*
X6201156Y2867660D01*
X6196075Y2883407D01*
X6190741Y2893821D01*
X6180327Y2904236D01*
X6169913Y2909315D01*
X6149340Y2909315D01*
X6235445Y2909315D02*
G01*
X6235445Y2800350D01*
X6235445Y2909315D02*
G01*
X6303009Y2909315D01*
X6235445Y2857500D02*
G01*
X6277102Y2857500D01*
X6337300Y2909315D02*
G01*
X6337300Y2800350D01*
X6337300Y2909315D02*
G01*
X6404863Y2909315D01*
X6337300Y2857500D02*
G01*
X6378956Y2857500D01*
X4813300Y3404615D02*
G01*
X4813300Y3295650D01*
X4813300Y3404615D02*
G01*
X4860036Y3404615D01*
X4875529Y3399536D01*
X4880863Y3394202D01*
X4885943Y3383787D01*
X4885943Y3373373D01*
X4880863Y3362960D01*
X4875529Y3357879D01*
X4860036Y3352800D01*
X4813300Y3352800D02*
G01*
X4860036Y3352800D01*
X4875529Y3347465D01*
X4880863Y3342386D01*
X4885943Y3331971D01*
X4885943Y3316223D01*
X4880863Y3305810D01*
X4875529Y3300729D01*
X4860036Y3295650D01*
X4813300Y3295650D01*
X4930647Y3404615D02*
G01*
X4987797Y3404615D01*
X4956809Y3362960D01*
X4972304Y3362960D01*
X4982718Y3357879D01*
X4987797Y3352800D01*
X4993131Y3337052D01*
X4993131Y3326637D01*
X4987797Y3311144D01*
X4977384Y3300729D01*
X4961890Y3295650D01*
X4946395Y3295650D01*
X4930647Y3300729D01*
X4925568Y3305810D01*
X4920234Y3316223D01*
X6654800Y6198615D02*
G01*
X6654800Y6089650D01*
X6654800Y6198615D02*
G01*
X6701536Y6198615D01*
X6717029Y6193536D01*
X6722363Y6188202D01*
X6727443Y6177787D01*
X6727443Y6167373D01*
X6722363Y6156960D01*
X6717029Y6151879D01*
X6701536Y6146800D01*
X6654800Y6146800D02*
G01*
X6701536Y6146800D01*
X6717029Y6141465D01*
X6722363Y6136386D01*
X6727443Y6125971D01*
X6727443Y6110223D01*
X6722363Y6099810D01*
X6717029Y6094729D01*
X6701536Y6089650D01*
X6654800Y6089650D01*
X6813804Y6198615D02*
G01*
X6761734Y6125971D01*
X6839711Y6125971D01*
X6813804Y6198615D02*
G01*
X6813804Y6089650D01*
D12*
X4533900Y1532381D02*
G01*
X4615688Y1532381D01*
X5082793Y1573276D02*
G01*
X5082793Y1491234D01*
X5041900Y1532381D02*
G01*
X5123688Y1532381D01*
D10*
X4305300Y2553715D02*
G01*
X4305300Y2444750D01*
X4305300Y2553715D02*
G01*
X4346956Y2444750D01*
X4388358Y2553715D02*
G01*
X4346956Y2444750D01*
X4388358Y2553715D02*
G01*
X4388358Y2444750D01*
X4453890Y2553715D02*
G01*
X4443475Y2548636D01*
X4433061Y2538221D01*
X4427981Y2527807D01*
X4422647Y2512060D01*
X4422647Y2486152D01*
X4427981Y2470657D01*
X4433061Y2460244D01*
X4443475Y2449829D01*
X4453890Y2444750D01*
X4474718Y2444750D01*
X4485131Y2449829D01*
X4495545Y2460244D01*
X4500625Y2470657D01*
X4505959Y2486152D01*
X4505959Y2512060D01*
X4500625Y2527807D01*
X4495545Y2538221D01*
X4485131Y2548636D01*
X4474718Y2553715D01*
X4453890Y2553715D01*
X4576572Y2553715D02*
G01*
X4576572Y2444750D01*
X4540250Y2553715D02*
G01*
X4612893Y2553715D01*
X4678425Y2553715D02*
G01*
X4668011Y2548636D01*
X4657597Y2538221D01*
X4652263Y2527807D01*
X4647184Y2512060D01*
X4647184Y2486152D01*
X4652263Y2470657D01*
X4657597Y2460244D01*
X4668011Y2449829D01*
X4678425Y2444750D01*
X4699000Y2444750D01*
X4709413Y2449829D01*
X4719827Y2460244D01*
X4725161Y2470657D01*
X4730241Y2486152D01*
X4730241Y2512060D01*
X4725161Y2527807D01*
X4719827Y2538221D01*
X4709413Y2548636D01*
X4699000Y2553715D01*
X4678425Y2553715D01*
X4764531Y2553715D02*
G01*
X4764531Y2444750D01*
X4764531Y2553715D02*
G01*
X4811268Y2553715D01*
X4827015Y2548636D01*
X4832095Y2543302D01*
X4837429Y2532887D01*
X4837429Y2522473D01*
X4832095Y2512060D01*
X4827015Y2506979D01*
X4811268Y2501900D01*
X4764531Y2501900D01*
X4800854Y2501900D02*
G01*
X4837429Y2444750D01*
D12*
X3533393Y1573276D02*
G01*
X3533393Y1491234D01*
X3492500Y1532381D02*
G01*
X3574288Y1532381D01*
X4000500Y1532381D02*
G01*
X4082288Y1532381D01*
D10*
X3276600Y2553715D02*
G01*
X3276600Y2444750D01*
X3276600Y2553715D02*
G01*
X3323336Y2553715D01*
X3338829Y2548636D01*
X3344163Y2543302D01*
X3349243Y2532887D01*
X3349243Y2517394D01*
X3344163Y2506979D01*
X3338829Y2501900D01*
X3323336Y2496565D01*
X3276600Y2496565D01*
X3414775Y2553715D02*
G01*
X3404361Y2548636D01*
X3393947Y2538221D01*
X3388868Y2527807D01*
X3383534Y2512060D01*
X3383534Y2486152D01*
X3388868Y2470657D01*
X3393947Y2460244D01*
X3404361Y2449829D01*
X3414775Y2444750D01*
X3435604Y2444750D01*
X3446018Y2449829D01*
X3456431Y2460244D01*
X3461511Y2470657D01*
X3466845Y2486152D01*
X3466845Y2512060D01*
X3461511Y2527807D01*
X3456431Y2538221D01*
X3446018Y2548636D01*
X3435604Y2553715D01*
X3414775Y2553715D01*
X3501136Y2553715D02*
G01*
X3527043Y2444750D01*
X3552952Y2553715D02*
G01*
X3527043Y2444750D01*
X3552952Y2553715D02*
G01*
X3578859Y2444750D01*
X3605022Y2553715D02*
G01*
X3578859Y2444750D01*
X3639311Y2553715D02*
G01*
X3639311Y2444750D01*
X3639311Y2553715D02*
G01*
X3706875Y2553715D01*
X3639311Y2501900D02*
G01*
X3680713Y2501900D01*
X3639311Y2444750D02*
G01*
X3706875Y2444750D01*
X3741165Y2553715D02*
G01*
X3741165Y2444750D01*
X3741165Y2553715D02*
G01*
X3787902Y2553715D01*
X3803395Y2548636D01*
X3808729Y2543302D01*
X3813809Y2532887D01*
X3813809Y2522473D01*
X3808729Y2512060D01*
X3803395Y2506979D01*
X3787902Y2501900D01*
X3741165Y2501900D01*
X3777488Y2501900D02*
G01*
X3813809Y2444750D01*
X7708900Y2553715D02*
G01*
X7708900Y2444750D01*
X7708900Y2553715D02*
G01*
X7755636Y2553715D01*
X7771129Y2548636D01*
X7776463Y2543302D01*
X7781543Y2532887D01*
X7781543Y2522473D01*
X7776463Y2512060D01*
X7771129Y2506979D01*
X7755636Y2501900D01*
X7708900Y2501900D01*
X7745222Y2501900D02*
G01*
X7781543Y2444750D01*
X7815834Y2553715D02*
G01*
X7815834Y2475737D01*
X7821168Y2460244D01*
X7831581Y2449829D01*
X7847075Y2444750D01*
X7857490Y2444750D01*
X7872984Y2449829D01*
X7883397Y2460244D01*
X7888731Y2475737D01*
X7888731Y2553715D01*
X7923022Y2553715D02*
G01*
X7923022Y2444750D01*
X7923022Y2553715D02*
G01*
X7995665Y2444750D01*
X7995665Y2553715D02*
G01*
X7995665Y2444750D01*
X4876800Y6173215D02*
G01*
X4876800Y6064250D01*
X4876800Y6173215D02*
G01*
X4923536Y6173215D01*
X4939029Y6168136D01*
X4944363Y6162802D01*
X4949443Y6152387D01*
X4949443Y6141973D01*
X4944363Y6131560D01*
X4939029Y6126479D01*
X4923536Y6121400D01*
X4876800Y6121400D01*
X4913122Y6121400D02*
G01*
X4949443Y6064250D01*
X4983734Y6173215D02*
G01*
X4983734Y6064250D01*
X4983734Y6173215D02*
G01*
X5051297Y6173215D01*
X4983734Y6121400D02*
G01*
X5025390Y6121400D01*
X4983734Y6064250D02*
G01*
X5051297Y6064250D01*
X5158486Y6157721D02*
G01*
X5148072Y6168136D01*
X5132324Y6173215D01*
X5111750Y6173215D01*
X5096002Y6168136D01*
X5085588Y6157721D01*
X5085588Y6147307D01*
X5090922Y6136894D01*
X5096002Y6131560D01*
X5106415Y6126479D01*
X5137658Y6116065D01*
X5148072Y6110986D01*
X5153152Y6105652D01*
X5158486Y6095237D01*
X5158486Y6079744D01*
X5148072Y6069329D01*
X5132324Y6064250D01*
X5111750Y6064250D01*
X5096002Y6069329D01*
X5085588Y6079744D01*
X5192775Y6173215D02*
G01*
X5192775Y6064250D01*
X5192775Y6173215D02*
G01*
X5260340Y6173215D01*
X5192775Y6121400D02*
G01*
X5234177Y6121400D01*
X5192775Y6064250D02*
G01*
X5260340Y6064250D01*
X5330952Y6173215D02*
G01*
X5330952Y6064250D01*
X5294629Y6173215D02*
G01*
X5367274Y6173215D01*
X3104641Y3480815D02*
G01*
X3094227Y3475736D01*
X3083813Y3465321D01*
X3078479Y3454907D01*
X3073400Y3439160D01*
X3073400Y3413252D01*
X3078479Y3397757D01*
X3083813Y3387344D01*
X3094227Y3376929D01*
X3104641Y3371850D01*
X3125470Y3371850D01*
X3135629Y3376929D01*
X3146043Y3387344D01*
X3151377Y3397757D01*
X3156458Y3413252D01*
X3156458Y3439160D01*
X3151377Y3454907D01*
X3146043Y3465321D01*
X3135629Y3475736D01*
X3125470Y3480815D01*
X3104641Y3480815D01*
X3120136Y3392423D02*
G01*
X3151377Y3361436D01*
X3190747Y3459987D02*
G01*
X3201161Y3465321D01*
X3216909Y3480815D01*
X3216909Y3371850D01*
X4597400Y3061715D02*
G01*
X4597400Y2952750D01*
X4597400Y3061715D02*
G01*
X4644136Y3061715D01*
X4659629Y3056636D01*
X4664963Y3051302D01*
X4670043Y3040887D01*
X4670043Y3030473D01*
X4664963Y3020060D01*
X4659629Y3014979D01*
X4644136Y3009900D01*
X4597400Y3009900D01*
X4633722Y3009900D02*
G01*
X4670043Y2952750D01*
X4704334Y3040887D02*
G01*
X4714747Y3046221D01*
X4730495Y3061715D01*
X4730495Y2952750D01*
X5867400Y1664715D02*
G01*
X5867400Y1555750D01*
X5867400Y1664715D02*
G01*
X5914136Y1664715D01*
X5929629Y1659636D01*
X5934963Y1654302D01*
X5940043Y1643887D01*
X5940043Y1633473D01*
X5934963Y1623060D01*
X5929629Y1617979D01*
X5914136Y1612900D01*
X5867400Y1612900D01*
X5903722Y1612900D02*
G01*
X5940043Y1555750D01*
X5984747Y1664715D02*
G01*
X6041897Y1664715D01*
X6010909Y1623060D01*
X6026404Y1623060D01*
X6036818Y1617979D01*
X6041897Y1612900D01*
X6047231Y1597152D01*
X6047231Y1586737D01*
X6041897Y1571244D01*
X6031484Y1560829D01*
X6015990Y1555750D01*
X6000495Y1555750D01*
X5984747Y1560829D01*
X5979668Y1565910D01*
X5974334Y1576323D01*
X7734300Y3455415D02*
G01*
X7734300Y3346450D01*
X7734300Y3455415D02*
G01*
X7781036Y3455415D01*
X7796529Y3450336D01*
X7801863Y3445002D01*
X7806943Y3434587D01*
X7806943Y3424173D01*
X7801863Y3413760D01*
X7796529Y3408679D01*
X7781036Y3403600D01*
X7734300Y3403600D01*
X7770622Y3403600D02*
G01*
X7806943Y3346450D01*
X7846568Y3429507D02*
G01*
X7846568Y3434587D01*
X7851647Y3445002D01*
X7856981Y3450336D01*
X7867395Y3455415D01*
X7887970Y3455415D01*
X7898384Y3450336D01*
X7903718Y3445002D01*
X7908797Y3434587D01*
X7908797Y3424173D01*
X7903718Y3413760D01*
X7893304Y3398265D01*
X7841234Y3346450D01*
X7914131Y3346450D01*
X5422900Y4611115D02*
G01*
X5422900Y4533137D01*
X5427979Y4517644D01*
X5438393Y4507229D01*
X5454141Y4502150D01*
X5464556Y4502150D01*
X5480050Y4507229D01*
X5490463Y4517644D01*
X5495543Y4533137D01*
X5495543Y4611115D01*
X5529834Y4590287D02*
G01*
X5540247Y4595621D01*
X5555995Y4611115D01*
X5555995Y4502150D01*
D13*
X7272337Y5336105D02*
G01*
X7176833Y5336105D01*
X7272337Y5336105D02*
G01*
X7272337Y5304355D01*
X7267765Y5290639D01*
X7258875Y5281495D01*
X7249731Y5276923D01*
X7236015Y5272351D01*
X7213409Y5272351D01*
X7199693Y5276923D01*
X7190549Y5281495D01*
X7181405Y5290639D01*
X7176833Y5304355D01*
X7176833Y5336105D01*
X7254303Y5242379D02*
G01*
X7258875Y5233489D01*
X7272337Y5219773D01*
X7176833Y5219773D01*
X7272337Y5180657D02*
G01*
X7272337Y5130619D01*
X7236015Y5157797D01*
X7236015Y5144335D01*
X7231443Y5135191D01*
X7226871Y5130619D01*
X7213409Y5126047D01*
X7204265Y5126047D01*
X7190549Y5130619D01*
X7181405Y5139763D01*
X7176833Y5153479D01*
X7176833Y5166941D01*
X7181405Y5180657D01*
X7185977Y5185229D01*
X7195121Y5189801D01*
X7018342Y5326966D02*
G01*
X7018342Y5276928D01*
X6982020Y5304360D01*
X6982020Y5290644D01*
X6977448Y5281500D01*
X6972876Y5276928D01*
X6959414Y5272356D01*
X6950270Y5272356D01*
X6936554Y5276928D01*
X6927410Y5286072D01*
X6922838Y5299788D01*
X6922838Y5313504D01*
X6927410Y5326966D01*
X6931982Y5331538D01*
X6941126Y5336110D01*
X7018342Y5242384D02*
G01*
X6922838Y5206062D01*
X7018342Y5169740D02*
G01*
X6922838Y5206062D01*
X7018342Y5130624D02*
G01*
X7018342Y5080586D01*
X6982020Y5108018D01*
X6982020Y5094302D01*
X6977448Y5085158D01*
X6972876Y5080586D01*
X6959414Y5076014D01*
X6950270Y5076014D01*
X6936554Y5080586D01*
X6927410Y5089730D01*
X6922838Y5103446D01*
X6922838Y5116908D01*
X6927410Y5130624D01*
X6931982Y5135196D01*
X6941126Y5139768D01*
X6764342Y5336110D02*
G01*
X6668838Y5336110D01*
X6764342Y5336110D02*
G01*
X6764342Y5295216D01*
X6759770Y5281500D01*
X6755198Y5276928D01*
X6746308Y5272356D01*
X6737164Y5272356D01*
X6728020Y5276928D01*
X6723448Y5281500D01*
X6718876Y5295216D01*
X6718876Y5336110D01*
X6718876Y5304360D02*
G01*
X6668838Y5272356D01*
X6764342Y5242384D02*
G01*
X6668838Y5242384D01*
X6764342Y5242384D02*
G01*
X6764342Y5183456D01*
X6718876Y5242384D02*
G01*
X6718876Y5206062D01*
X6668838Y5242384D02*
G01*
X6668838Y5183456D01*
X6764342Y5153484D02*
G01*
X6668838Y5153484D01*
X6764342Y5153484D02*
G01*
X6764342Y5094302D01*
X6718876Y5153484D02*
G01*
X6718876Y5116908D01*
X6510340Y5299786D02*
G01*
X6414836Y5336108D01*
X6510340Y5299786D02*
G01*
X6414836Y5263464D01*
X6446840Y5322392D02*
G01*
X6446840Y5276926D01*
X6510340Y5206060D02*
G01*
X6505768Y5219776D01*
X6492306Y5228920D01*
X6469446Y5233492D01*
X6455984Y5233492D01*
X6433124Y5228920D01*
X6419408Y5219776D01*
X6414836Y5206060D01*
X6414836Y5196916D01*
X6419408Y5183454D01*
X6433124Y5174310D01*
X6455984Y5169738D01*
X6469446Y5169738D01*
X6492306Y5174310D01*
X6505768Y5183454D01*
X6510340Y5196916D01*
X6510340Y5206060D01*
X6256342Y5299788D02*
G01*
X6160838Y5336110D01*
X6256342Y5299788D02*
G01*
X6160838Y5263466D01*
X6192842Y5322394D02*
G01*
X6192842Y5276928D01*
X6238308Y5233494D02*
G01*
X6242880Y5224350D01*
X6256342Y5210634D01*
X6160838Y5210634D01*
X6002340Y5299786D02*
G01*
X5906836Y5336108D01*
X6002340Y5299786D02*
G01*
X5906836Y5263464D01*
X5938840Y5322392D02*
G01*
X5938840Y5276926D01*
X5979734Y5228920D02*
G01*
X5984306Y5228920D01*
X5993196Y5224348D01*
X5997768Y5219776D01*
X6002340Y5210632D01*
X6002340Y5192598D01*
X5997768Y5183454D01*
X5993196Y5178882D01*
X5984306Y5174310D01*
X5975162Y5174310D01*
X5966018Y5178882D01*
X5952302Y5188026D01*
X5906836Y5233492D01*
X5906836Y5169738D01*
X5748340Y5299786D02*
G01*
X5652836Y5336108D01*
X5748340Y5299786D02*
G01*
X5652836Y5263464D01*
X5684840Y5322392D02*
G01*
X5684840Y5276926D01*
X5748340Y5224348D02*
G01*
X5748340Y5174310D01*
X5712018Y5201488D01*
X5712018Y5188026D01*
X5707446Y5178882D01*
X5702874Y5174310D01*
X5689412Y5169738D01*
X5680268Y5169738D01*
X5666552Y5174310D01*
X5657408Y5183454D01*
X5652836Y5196916D01*
X5652836Y5210632D01*
X5657408Y5224348D01*
X5661980Y5228920D01*
X5671124Y5233492D01*
X5494337Y5299783D02*
G01*
X5398833Y5336105D01*
X5494337Y5299783D02*
G01*
X5398833Y5263461D01*
X5430837Y5322389D02*
G01*
X5430837Y5276923D01*
X5494337Y5188023D02*
G01*
X5430837Y5233489D01*
X5430837Y5165163D01*
X5494337Y5188023D02*
G01*
X5398833Y5188023D01*
X5240340Y5299786D02*
G01*
X5144836Y5336108D01*
X5240340Y5299786D02*
G01*
X5144836Y5263464D01*
X5176840Y5322392D02*
G01*
X5176840Y5276926D01*
X5240340Y5178882D02*
G01*
X5240340Y5224348D01*
X5199446Y5228920D01*
X5204018Y5224348D01*
X5208590Y5210632D01*
X5208590Y5196916D01*
X5204018Y5183454D01*
X5194874Y5174310D01*
X5181412Y5169738D01*
X5172268Y5169738D01*
X5158552Y5174310D01*
X5149408Y5183454D01*
X5144836Y5196916D01*
X5144836Y5210632D01*
X5149408Y5224348D01*
X5153980Y5228920D01*
X5163124Y5233492D01*
X4986337Y5299783D02*
G01*
X4890833Y5336105D01*
X4986337Y5299783D02*
G01*
X4890833Y5263461D01*
X4922837Y5322389D02*
G01*
X4922837Y5276923D01*
X4972875Y5178879D02*
G01*
X4981765Y5183451D01*
X4986337Y5196913D01*
X4986337Y5206057D01*
X4981765Y5219773D01*
X4968303Y5228917D01*
X4945443Y5233489D01*
X4922837Y5233489D01*
X4904549Y5228917D01*
X4895405Y5219773D01*
X4890833Y5206057D01*
X4890833Y5201485D01*
X4895405Y5188023D01*
X4904549Y5178879D01*
X4918265Y5174307D01*
X4922837Y5174307D01*
X4936299Y5178879D01*
X4945443Y5188023D01*
X4950015Y5201485D01*
X4950015Y5206057D01*
X4945443Y5219773D01*
X4936299Y5228917D01*
X4922837Y5233489D01*
X4732340Y5299786D02*
G01*
X4636836Y5336108D01*
X4732340Y5299786D02*
G01*
X4636836Y5263464D01*
X4668840Y5322392D02*
G01*
X4668840Y5276926D01*
X4732340Y5169738D02*
G01*
X4636836Y5215204D01*
X4732340Y5233492D02*
G01*
X4732340Y5169738D01*
X4478340Y5281498D02*
G01*
X4478340Y5326964D01*
X4437446Y5331536D01*
X4442018Y5326964D01*
X4446590Y5313502D01*
X4446590Y5299786D01*
X4442018Y5286070D01*
X4432874Y5276926D01*
X4419412Y5272354D01*
X4410268Y5272354D01*
X4396552Y5276926D01*
X4387408Y5286070D01*
X4382836Y5299786D01*
X4382836Y5313502D01*
X4387408Y5326964D01*
X4391980Y5331536D01*
X4401124Y5336108D01*
X4478340Y5242382D02*
G01*
X4382836Y5206060D01*
X4478340Y5169738D02*
G01*
X4382836Y5206060D01*
X4224342Y5336110D02*
G01*
X4128838Y5336110D01*
X4224342Y5336110D02*
G01*
X4224342Y5295216D01*
X4219770Y5281500D01*
X4215198Y5276928D01*
X4206308Y5272356D01*
X4197164Y5272356D01*
X4188020Y5276928D01*
X4183448Y5281500D01*
X4178876Y5295216D01*
X4178876Y5336110D01*
X4178876Y5304360D02*
G01*
X4128838Y5272356D01*
X4210880Y5178884D02*
G01*
X4219770Y5188028D01*
X4224342Y5201490D01*
X4224342Y5219778D01*
X4219770Y5233494D01*
X4210880Y5242384D01*
X4201736Y5242384D01*
X4192592Y5237812D01*
X4188020Y5233494D01*
X4183448Y5224350D01*
X4174304Y5196918D01*
X4169986Y5188028D01*
X4165414Y5183456D01*
X4156270Y5178884D01*
X4142554Y5178884D01*
X4133410Y5188028D01*
X4128838Y5201490D01*
X4128838Y5219778D01*
X4133410Y5233494D01*
X4142554Y5242384D01*
X4224342Y5116908D02*
G01*
X4128838Y5116908D01*
X4224342Y5148912D02*
G01*
X4224342Y5085158D01*
X3947734Y5268036D02*
G01*
X3956878Y5272354D01*
X3965768Y5281498D01*
X3970340Y5290642D01*
X3970340Y5308930D01*
X3965768Y5317820D01*
X3956878Y5326964D01*
X3947734Y5331536D01*
X3934018Y5336108D01*
X3911412Y5336108D01*
X3897696Y5331536D01*
X3888552Y5326964D01*
X3879408Y5317820D01*
X3874836Y5308930D01*
X3874836Y5290642D01*
X3879408Y5281498D01*
X3888552Y5272354D01*
X3897696Y5268036D01*
X3911412Y5268036D01*
X3911412Y5290642D02*
G01*
X3911412Y5268036D01*
X3970340Y5237810D02*
G01*
X3874836Y5237810D01*
X3970340Y5237810D02*
G01*
X3874836Y5174310D01*
X3970340Y5174310D02*
G01*
X3874836Y5174310D01*
X3970340Y5144338D02*
G01*
X3874836Y5144338D01*
X3970340Y5144338D02*
G01*
X3970340Y5112588D01*
X3965768Y5098872D01*
X3956878Y5089728D01*
X3947734Y5085156D01*
X3934018Y5080584D01*
X3911412Y5080584D01*
X3897696Y5085156D01*
X3888552Y5089728D01*
X3879408Y5098872D01*
X3874836Y5112588D01*
X3874836Y5144338D01*
X3716337Y5336105D02*
G01*
X3620833Y5299783D01*
X3716337Y5263461D02*
G01*
X3620833Y5299783D01*
X3716337Y5233489D02*
G01*
X3620833Y5233489D01*
X3716337Y5203263D02*
G01*
X3620833Y5203263D01*
X3716337Y5203263D02*
G01*
X3620833Y5139763D01*
X3716337Y5139763D02*
G01*
X3620833Y5139763D01*
X7274341Y4347207D02*
G01*
X7178837Y4347207D01*
X7274341Y4347207D02*
G01*
X7274341Y4315457D01*
X7269769Y4301741D01*
X7260879Y4292597D01*
X7251735Y4288025D01*
X7238019Y4283453D01*
X7215413Y4283453D01*
X7201697Y4288025D01*
X7192553Y4292597D01*
X7183409Y4301741D01*
X7178837Y4315457D01*
X7178837Y4347207D01*
X7256307Y4253481D02*
G01*
X7260879Y4244591D01*
X7274341Y4230875D01*
X7178837Y4230875D01*
X7251735Y4196331D02*
G01*
X7256307Y4196331D01*
X7265197Y4191759D01*
X7269769Y4187187D01*
X7274341Y4178043D01*
X7274341Y4160009D01*
X7269769Y4150865D01*
X7265197Y4146293D01*
X7256307Y4141721D01*
X7247163Y4141721D01*
X7238019Y4146293D01*
X7224303Y4155437D01*
X7178837Y4200903D01*
X7178837Y4137149D01*
X7020344Y4306313D02*
G01*
X6924840Y4306313D01*
X7020344Y4306313D02*
G01*
X7020344Y4274563D01*
X7015772Y4260847D01*
X7006882Y4251703D01*
X6997738Y4247131D01*
X6984022Y4242559D01*
X6961416Y4242559D01*
X6947700Y4247131D01*
X6938556Y4251703D01*
X6929412Y4260847D01*
X6924840Y4274563D01*
X6924840Y4306313D01*
X7002310Y4212587D02*
G01*
X7006882Y4203697D01*
X7020344Y4189981D01*
X6924840Y4189981D01*
X7002310Y4160009D02*
G01*
X7006882Y4150865D01*
X7020344Y4137149D01*
X6924840Y4137149D01*
X6766341Y4347207D02*
G01*
X6670837Y4347207D01*
X6766341Y4347207D02*
G01*
X6766341Y4315457D01*
X6761769Y4301741D01*
X6752879Y4292597D01*
X6743735Y4288025D01*
X6730019Y4283453D01*
X6707413Y4283453D01*
X6693697Y4288025D01*
X6684553Y4292597D01*
X6675409Y4301741D01*
X6670837Y4315457D01*
X6670837Y4347207D01*
X6748307Y4253481D02*
G01*
X6752879Y4244591D01*
X6766341Y4230875D01*
X6670837Y4230875D01*
X6766341Y4173471D02*
G01*
X6761769Y4187187D01*
X6748307Y4196331D01*
X6725447Y4200903D01*
X6711985Y4200903D01*
X6689125Y4196331D01*
X6675409Y4187187D01*
X6670837Y4173471D01*
X6670837Y4164581D01*
X6675409Y4150865D01*
X6689125Y4141721D01*
X6711985Y4137149D01*
X6725447Y4137149D01*
X6748307Y4141721D01*
X6761769Y4150865D01*
X6766341Y4164581D01*
X6766341Y4173471D01*
X6512341Y4289803D02*
G01*
X6416837Y4289803D01*
X6512341Y4289803D02*
G01*
X6512341Y4258053D01*
X6507769Y4244337D01*
X6498879Y4235193D01*
X6489735Y4230621D01*
X6476019Y4226049D01*
X6453413Y4226049D01*
X6439697Y4230621D01*
X6430553Y4235193D01*
X6421409Y4244337D01*
X6416837Y4258053D01*
X6416837Y4289803D01*
X6480591Y4137149D02*
G01*
X6466875Y4141721D01*
X6457985Y4150611D01*
X6453413Y4164327D01*
X6453413Y4168899D01*
X6457985Y4182615D01*
X6466875Y4191505D01*
X6480591Y4196077D01*
X6485163Y4196077D01*
X6498879Y4191505D01*
X6507769Y4182615D01*
X6512341Y4168899D01*
X6512341Y4164327D01*
X6507769Y4150611D01*
X6498879Y4141721D01*
X6480591Y4137149D01*
X6457985Y4137149D01*
X6435125Y4141721D01*
X6421409Y4150611D01*
X6416837Y4164327D01*
X6416837Y4173471D01*
X6421409Y4187187D01*
X6430553Y4191505D01*
X6258344Y4294375D02*
G01*
X6162840Y4294375D01*
X6258344Y4294375D02*
G01*
X6258344Y4262625D01*
X6253772Y4248909D01*
X6244882Y4239765D01*
X6235738Y4235193D01*
X6222022Y4230621D01*
X6199416Y4230621D01*
X6185700Y4235193D01*
X6176556Y4239765D01*
X6167412Y4248909D01*
X6162840Y4262625D01*
X6162840Y4294375D01*
X6258344Y4178043D02*
G01*
X6253772Y4191759D01*
X6244882Y4196077D01*
X6235738Y4196077D01*
X6226594Y4191759D01*
X6222022Y4182615D01*
X6217450Y4164327D01*
X6212878Y4150865D01*
X6203988Y4141721D01*
X6194844Y4137149D01*
X6181128Y4137149D01*
X6171984Y4141721D01*
X6167412Y4146293D01*
X6162840Y4159755D01*
X6162840Y4178043D01*
X6167412Y4191759D01*
X6171984Y4196077D01*
X6181128Y4200649D01*
X6194844Y4200649D01*
X6203988Y4196077D01*
X6212878Y4187187D01*
X6217450Y4173471D01*
X6222022Y4155183D01*
X6226594Y4146293D01*
X6235738Y4141721D01*
X6244882Y4141721D01*
X6253772Y4146293D01*
X6258344Y4159755D01*
X6258344Y4178043D01*
X6004341Y4294375D02*
G01*
X5908837Y4294375D01*
X6004341Y4294375D02*
G01*
X6004341Y4262625D01*
X5999769Y4248909D01*
X5990879Y4239765D01*
X5981735Y4235193D01*
X5968019Y4230621D01*
X5945413Y4230621D01*
X5931697Y4235193D01*
X5922553Y4239765D01*
X5913409Y4248909D01*
X5908837Y4262625D01*
X5908837Y4294375D01*
X6004341Y4137149D02*
G01*
X5908837Y4182615D01*
X6004341Y4200649D02*
G01*
X6004341Y4137149D01*
X5750341Y4289803D02*
G01*
X5654837Y4289803D01*
X5750341Y4289803D02*
G01*
X5750341Y4258053D01*
X5745769Y4244337D01*
X5736879Y4235193D01*
X5727735Y4230621D01*
X5714019Y4226049D01*
X5691413Y4226049D01*
X5677697Y4230621D01*
X5668553Y4235193D01*
X5659409Y4244337D01*
X5654837Y4258053D01*
X5654837Y4289803D01*
X5736879Y4141721D02*
G01*
X5745769Y4146293D01*
X5750341Y4159755D01*
X5750341Y4168899D01*
X5745769Y4182615D01*
X5732307Y4191505D01*
X5709447Y4196077D01*
X5686841Y4196077D01*
X5668553Y4191505D01*
X5659409Y4182615D01*
X5654837Y4168899D01*
X5654837Y4164327D01*
X5659409Y4150611D01*
X5668553Y4141721D01*
X5682269Y4137149D01*
X5686841Y4137149D01*
X5700303Y4141721D01*
X5709447Y4150611D01*
X5714019Y4164327D01*
X5714019Y4168899D01*
X5709447Y4182615D01*
X5700303Y4191505D01*
X5686841Y4196077D01*
X5496344Y4294375D02*
G01*
X5400840Y4294375D01*
X5496344Y4294375D02*
G01*
X5496344Y4262625D01*
X5491772Y4248909D01*
X5482882Y4239765D01*
X5473738Y4235193D01*
X5460022Y4230621D01*
X5437416Y4230621D01*
X5423700Y4235193D01*
X5414556Y4239765D01*
X5405412Y4248909D01*
X5400840Y4262625D01*
X5400840Y4294375D01*
X5496344Y4146293D02*
G01*
X5496344Y4191759D01*
X5455450Y4196077D01*
X5460022Y4191759D01*
X5464594Y4178043D01*
X5464594Y4164327D01*
X5460022Y4150865D01*
X5450878Y4141721D01*
X5437416Y4137149D01*
X5428272Y4137149D01*
X5414556Y4141721D01*
X5405412Y4150865D01*
X5400840Y4164327D01*
X5400840Y4178043D01*
X5405412Y4191759D01*
X5409984Y4196077D01*
X5419128Y4200649D01*
X5242341Y4298947D02*
G01*
X5146837Y4298947D01*
X5242341Y4298947D02*
G01*
X5242341Y4267197D01*
X5237769Y4253481D01*
X5228879Y4244337D01*
X5219735Y4239765D01*
X5206019Y4235193D01*
X5183413Y4235193D01*
X5169697Y4239765D01*
X5160553Y4244337D01*
X5151409Y4253481D01*
X5146837Y4267197D01*
X5146837Y4298947D01*
X5242341Y4159755D02*
G01*
X5178841Y4205221D01*
X5178841Y4137149D01*
X5242341Y4159755D02*
G01*
X5146837Y4159755D01*
X4988341Y4294375D02*
G01*
X4892837Y4294375D01*
X4988341Y4294375D02*
G01*
X4988341Y4262625D01*
X4983769Y4248909D01*
X4974879Y4239765D01*
X4965735Y4235193D01*
X4952019Y4230621D01*
X4929413Y4230621D01*
X4915697Y4235193D01*
X4906553Y4239765D01*
X4897409Y4248909D01*
X4892837Y4262625D01*
X4892837Y4294375D01*
X4988341Y4191759D02*
G01*
X4988341Y4141721D01*
X4952019Y4168899D01*
X4952019Y4155183D01*
X4947447Y4146293D01*
X4942875Y4141721D01*
X4929413Y4137149D01*
X4920269Y4137149D01*
X4906553Y4141721D01*
X4897409Y4150865D01*
X4892837Y4164327D01*
X4892837Y4178043D01*
X4897409Y4191759D01*
X4901981Y4196077D01*
X4911125Y4200649D01*
X4734344Y4294375D02*
G01*
X4638840Y4294375D01*
X4734344Y4294375D02*
G01*
X4734344Y4262625D01*
X4729772Y4248909D01*
X4720882Y4239765D01*
X4711738Y4235193D01*
X4698022Y4230621D01*
X4675416Y4230621D01*
X4661700Y4235193D01*
X4652556Y4239765D01*
X4643412Y4248909D01*
X4638840Y4262625D01*
X4638840Y4294375D01*
X4711738Y4196077D02*
G01*
X4716310Y4196077D01*
X4725200Y4191759D01*
X4729772Y4187187D01*
X4734344Y4178043D01*
X4734344Y4159755D01*
X4729772Y4150865D01*
X4725200Y4146293D01*
X4716310Y4141721D01*
X4707166Y4141721D01*
X4698022Y4146293D01*
X4684306Y4155183D01*
X4638840Y4200649D01*
X4638840Y4137149D01*
X4457735Y4324601D02*
G01*
X4466879Y4328919D01*
X4475769Y4338063D01*
X4480341Y4347207D01*
X4480341Y4365495D01*
X4475769Y4374385D01*
X4466879Y4383529D01*
X4457735Y4388101D01*
X4444019Y4392673D01*
X4421413Y4392673D01*
X4407697Y4388101D01*
X4398553Y4383529D01*
X4389409Y4374385D01*
X4384837Y4365495D01*
X4384837Y4347207D01*
X4389409Y4338063D01*
X4398553Y4328919D01*
X4407697Y4324601D01*
X4421413Y4324601D01*
X4421413Y4347207D02*
G01*
X4421413Y4324601D01*
X4480341Y4294375D02*
G01*
X4384837Y4294375D01*
X4480341Y4294375D02*
G01*
X4384837Y4230875D01*
X4480341Y4230875D02*
G01*
X4384837Y4230875D01*
X4480341Y4200903D02*
G01*
X4384837Y4200903D01*
X4480341Y4200903D02*
G01*
X4480341Y4169153D01*
X4475769Y4155437D01*
X4466879Y4146293D01*
X4457735Y4141721D01*
X4444019Y4137149D01*
X4421413Y4137149D01*
X4407697Y4141721D01*
X4398553Y4146293D01*
X4389409Y4155437D01*
X4384837Y4169153D01*
X4384837Y4200903D01*
X4226341Y4388101D02*
G01*
X4130837Y4388101D01*
X4226341Y4388101D02*
G01*
X4226341Y4347207D01*
X4221769Y4333491D01*
X4217197Y4328919D01*
X4208307Y4324347D01*
X4199163Y4324347D01*
X4190019Y4328919D01*
X4185447Y4333491D01*
X4180875Y4347207D01*
X4180875Y4388101D01*
X4180875Y4356351D02*
G01*
X4130837Y4324347D01*
X4212879Y4230875D02*
G01*
X4221769Y4240019D01*
X4226341Y4253481D01*
X4226341Y4271769D01*
X4221769Y4285485D01*
X4212879Y4294375D01*
X4203735Y4294375D01*
X4194591Y4289803D01*
X4190019Y4285485D01*
X4185447Y4276341D01*
X4176303Y4248909D01*
X4171985Y4240019D01*
X4167413Y4235447D01*
X4158269Y4230875D01*
X4144553Y4230875D01*
X4135409Y4240019D01*
X4130837Y4253481D01*
X4130837Y4271769D01*
X4135409Y4285485D01*
X4144553Y4294375D01*
X4226341Y4168899D02*
G01*
X4130837Y4168899D01*
X4226341Y4200903D02*
G01*
X4226341Y4137149D01*
X3972344Y4388101D02*
G01*
X3876840Y4388101D01*
X3972344Y4388101D02*
G01*
X3972344Y4347207D01*
X3967772Y4333491D01*
X3963200Y4328919D01*
X3954310Y4324347D01*
X3945166Y4324347D01*
X3936022Y4328919D01*
X3931450Y4333491D01*
X3926878Y4347207D01*
X3926878Y4388101D01*
X3926878Y4356351D02*
G01*
X3876840Y4324347D01*
X3972344Y4294375D02*
G01*
X3876840Y4230875D01*
X3972344Y4230875D02*
G01*
X3876840Y4294375D01*
X3972344Y4200903D02*
G01*
X3876840Y4200903D01*
X3972344Y4200903D02*
G01*
X3972344Y4168899D01*
X3967772Y4155437D01*
X3958882Y4146293D01*
X3949738Y4141721D01*
X3936022Y4137149D01*
X3913416Y4137149D01*
X3899700Y4141721D01*
X3890556Y4146293D01*
X3881412Y4155437D01*
X3876840Y4168899D01*
X3876840Y4200903D01*
X3718341Y4356351D02*
G01*
X3622837Y4356351D01*
X3718341Y4388101D02*
G01*
X3718341Y4324347D01*
X3718341Y4294375D02*
G01*
X3622837Y4230875D01*
X3718341Y4230875D02*
G01*
X3622837Y4294375D01*
X3718341Y4200903D02*
G01*
X3622837Y4200903D01*
X3718341Y4200903D02*
G01*
X3718341Y4168899D01*
X3713769Y4155437D01*
X3704879Y4146293D01*
X3695735Y4141721D01*
X3682019Y4137149D01*
X3659413Y4137149D01*
X3645697Y4141721D01*
X3636553Y4146293D01*
X3627409Y4155437D01*
X3622837Y4168899D01*
X3622837Y4200903D01*
D10*
X1778007Y5944623D02*
G01*
X1778007Y5866645D01*
X1783087Y5851151D01*
X1793501Y5840737D01*
X1809249Y5835657D01*
X1819663Y5835657D01*
X1835157Y5840737D01*
X1845571Y5851151D01*
X1850651Y5866645D01*
X1850651Y5944623D01*
X1890275Y5918715D02*
G01*
X1890275Y5923795D01*
X1895355Y5934209D01*
X1900689Y5939543D01*
X1911103Y5944623D01*
X1931677Y5944623D01*
X1942091Y5939543D01*
X1947425Y5934209D01*
X1952505Y5923795D01*
X1952505Y5913381D01*
X1947425Y5902967D01*
X1937011Y5887473D01*
X1884941Y5835657D01*
X1957839Y5835657D01*
D12*
X2366401Y2314008D02*
G01*
X2348367Y2304864D01*
X2330079Y2286576D01*
X2320935Y2268542D01*
X2311791Y2241110D01*
X2311791Y2195644D01*
X2320935Y2168466D01*
X2330079Y2150178D01*
X2348367Y2132144D01*
X2366401Y2123000D01*
X2402723Y2123000D01*
X2421011Y2132144D01*
X2439045Y2150178D01*
X2448189Y2168466D01*
X2457333Y2195644D01*
X2457333Y2241110D01*
X2448189Y2268542D01*
X2439045Y2286576D01*
X2421011Y2304864D01*
X2402723Y2314008D01*
X2366401Y2314008D01*
X2517277Y2314008D02*
G01*
X2517277Y2177610D01*
X2526421Y2150178D01*
X2544709Y2132144D01*
X2571887Y2123000D01*
X2590175Y2123000D01*
X2617353Y2132144D01*
X2635641Y2150178D01*
X2644531Y2177610D01*
X2644531Y2314008D01*
X2768229Y2314008D02*
G01*
X2768229Y2123000D01*
X2704729Y2314008D02*
G01*
X2831983Y2314008D01*
X2533787Y1985078D02*
G01*
X2533787Y1821502D01*
X2451999Y1903290D02*
G01*
X2615575Y1903290D01*
X1356403Y2314008D02*
G01*
X1338115Y2304864D01*
X1320081Y2286830D01*
X1310937Y2268542D01*
X1301793Y2241364D01*
X1301793Y2195898D01*
X1310937Y2168466D01*
X1320081Y2150432D01*
X1338115Y2132144D01*
X1356403Y2123000D01*
X1392725Y2123000D01*
X1411013Y2132144D01*
X1429047Y2150432D01*
X1438191Y2168466D01*
X1447335Y2195898D01*
X1447335Y2241364D01*
X1438191Y2268542D01*
X1429047Y2286830D01*
X1411013Y2304864D01*
X1392725Y2314008D01*
X1356403Y2314008D01*
X1507279Y2314008D02*
G01*
X1507279Y2177610D01*
X1516423Y2150432D01*
X1534457Y2132144D01*
X1561889Y2123000D01*
X1579923Y2123000D01*
X1607355Y2132144D01*
X1625389Y2150432D01*
X1634533Y2177610D01*
X1634533Y2314008D01*
X1758231Y2314008D02*
G01*
X1758231Y2123000D01*
X1694477Y2314008D02*
G01*
X1821731Y2314008D01*
X1441747Y1903290D02*
G01*
X1605577Y1903290D01*
X2341791Y5934001D02*
G01*
X2341791Y5743247D01*
X2401735Y5934001D02*
G01*
X2401735Y5743247D01*
X2401735Y5934001D02*
G01*
X2529243Y5743247D01*
X2529243Y5934001D02*
G01*
X2529243Y5743247D01*
X2423579Y5605325D02*
G01*
X2423579Y5441495D01*
X2341791Y5523283D02*
G01*
X2505367Y5523283D01*
X1281793Y5924001D02*
G01*
X1281793Y5732993D01*
X1341991Y5924001D02*
G01*
X1341991Y5732993D01*
X1341991Y5924001D02*
G01*
X1469245Y5732993D01*
X1469245Y5924001D02*
G01*
X1469245Y5732993D01*
X1281793Y5513283D02*
G01*
X1445623Y5513283D01*
X1231079Y4496064D02*
G01*
X1212791Y4514606D01*
X1184851Y4524004D01*
X1148021Y4524004D01*
X1120335Y4514606D01*
X1101793Y4496064D01*
X1101793Y4477776D01*
X1111191Y4459234D01*
X1120335Y4450090D01*
X1138877Y4440692D01*
X1194249Y4422404D01*
X1212791Y4413006D01*
X1221935Y4403862D01*
X1231079Y4385320D01*
X1231079Y4357634D01*
X1212791Y4339092D01*
X1184851Y4329948D01*
X1148021Y4329948D01*
X1120335Y4339092D01*
X1101793Y4357634D01*
X1356809Y4524004D02*
G01*
X1356809Y4329948D01*
X1292039Y4524004D02*
G01*
X1421325Y4524004D01*
X1482285Y4524004D02*
G01*
X1482285Y4329948D01*
X1482285Y4524004D02*
G01*
X1602427Y4524004D01*
X1482285Y4431548D02*
G01*
X1556199Y4431548D01*
X1482285Y4329948D02*
G01*
X1602427Y4329948D01*
X1663387Y4524004D02*
G01*
X1663387Y4329948D01*
X1663387Y4524004D02*
G01*
X1746445Y4524004D01*
X1774131Y4514606D01*
X1783529Y4505462D01*
X1792673Y4486920D01*
X1792673Y4459234D01*
X1783529Y4440692D01*
X1774131Y4431548D01*
X1746445Y4422404D01*
X1663387Y4422404D01*
X1995873Y4524004D02*
G01*
X1995873Y4329948D01*
X1995873Y4524004D02*
G01*
X2060643Y4524004D01*
X2088329Y4514606D01*
X2106871Y4496064D01*
X2116015Y4477776D01*
X2125159Y4450090D01*
X2125159Y4403862D01*
X2116015Y4376176D01*
X2106871Y4357634D01*
X2088329Y4339092D01*
X2060643Y4329948D01*
X1995873Y4329948D01*
X2241491Y4524004D02*
G01*
X2223203Y4514606D01*
X2204661Y4496064D01*
X2195517Y4477776D01*
X2186119Y4450090D01*
X2186119Y4403862D01*
X2195517Y4376176D01*
X2204661Y4357634D01*
X2223203Y4339092D01*
X2241491Y4329948D01*
X2278575Y4329948D01*
X2297117Y4339092D01*
X2315405Y4357634D01*
X2324803Y4376176D01*
X2333947Y4403862D01*
X2333947Y4450090D01*
X2324803Y4477776D01*
X2315405Y4496064D01*
X2297117Y4514606D01*
X2278575Y4524004D01*
X2241491Y4524004D01*
X2394907Y4524004D02*
G01*
X2441135Y4329948D01*
X2487363Y4524004D02*
G01*
X2441135Y4329948D01*
X2487363Y4524004D02*
G01*
X2533591Y4329948D01*
X2579565Y4524004D02*
G01*
X2533591Y4329948D01*
X2640525Y4524004D02*
G01*
X2640525Y4329948D01*
X2640525Y4524004D02*
G01*
X2769811Y4329948D01*
X2769811Y4524004D02*
G01*
X2769811Y4329948D01*
X1141793Y4004005D02*
G01*
X1141793Y3765499D01*
X1141793Y3765499D02*
G01*
X1277937Y3765499D01*
X1353121Y4004005D02*
G01*
X1353121Y3765499D01*
X1353121Y4004005D02*
G01*
X1444053Y3765499D01*
X1534985Y4004005D02*
G01*
X1444053Y3765499D01*
X1534985Y4004005D02*
G01*
X1534985Y3765499D01*
X1621345Y3947109D02*
G01*
X1621345Y3958539D01*
X1632521Y3981399D01*
X1643951Y3992575D01*
X1666557Y4004005D01*
X1712023Y4004005D01*
X1734883Y3992575D01*
X1746313Y3981399D01*
X1757489Y3958539D01*
X1757489Y3935933D01*
X1746313Y3913073D01*
X1723453Y3879037D01*
X1609915Y3765499D01*
X1768919Y3765499D01*
X1980247Y4004005D02*
G01*
X1866709Y4004005D01*
X1855279Y3901643D01*
X1866709Y3913073D01*
X1900745Y3924503D01*
X1934781Y3924503D01*
X1969071Y3913073D01*
X1991677Y3890467D01*
X2003107Y3856177D01*
X2003107Y3833571D01*
X1991677Y3799535D01*
X1969071Y3776675D01*
X1934781Y3765499D01*
X1900745Y3765499D01*
X1866709Y3776675D01*
X1855279Y3788105D01*
X1843849Y3810711D01*
X2225865Y3924503D02*
G01*
X2214435Y3890467D01*
X2191575Y3867607D01*
X2157539Y3856177D01*
X2146109Y3856177D01*
X2112073Y3867607D01*
X2089467Y3890467D01*
X2078037Y3924503D01*
X2078037Y3935933D01*
X2089467Y3969969D01*
X2112073Y3992575D01*
X2146109Y4004005D01*
X2157539Y4004005D01*
X2191575Y3992575D01*
X2214435Y3969969D01*
X2225865Y3924503D01*
X2225865Y3867607D01*
X2214435Y3810711D01*
X2191575Y3776675D01*
X2157539Y3765499D01*
X2134933Y3765499D01*
X2100643Y3776675D01*
X2089467Y3799535D01*
X2437193Y3969969D02*
G01*
X2425763Y3992575D01*
X2391727Y4004005D01*
X2368867Y4004005D01*
X2334831Y3992575D01*
X2312225Y3958539D01*
X2300795Y3901643D01*
X2300795Y3845001D01*
X2312225Y3799535D01*
X2334831Y3776675D01*
X2368867Y3765499D01*
X2380297Y3765499D01*
X2414333Y3776675D01*
X2437193Y3799535D01*
X2448623Y3833571D01*
X2448623Y3845001D01*
X2437193Y3879037D01*
X2414333Y3901643D01*
X2380297Y3913073D01*
X2368867Y3913073D01*
X2334831Y3901643D01*
X2312225Y3879037D01*
X2300795Y3845001D01*
X2682557Y3969969D02*
G01*
X2659951Y3992575D01*
X2625661Y4004005D01*
X2580195Y4004005D01*
X2546159Y3992575D01*
X2523553Y3969969D01*
X2523553Y3947109D01*
X2534983Y3924503D01*
X2546159Y3913073D01*
X2569019Y3901643D01*
X2637091Y3879037D01*
X2659951Y3867607D01*
X2671127Y3856177D01*
X2682557Y3833571D01*
X2682557Y3799535D01*
X2659951Y3776675D01*
X2625661Y3765499D01*
X2580195Y3765499D01*
X2546159Y3776675D01*
X2523553Y3799535D01*
D14*
X6705600Y2184400D02*
G01*
X6959600Y2184400D01*
X7086600Y2184400D01*
X7086600Y2743200D01*
X6578600Y2743200D01*
X6578600Y2184400D01*
X6705600Y2184400D01*
X6705600Y2311400D01*
X6959600Y2311400D01*
X6959600Y2184400D01*
X5956300Y2171700D02*
G01*
X6210300Y2171700D01*
X6337300Y2171700D01*
X6337300Y2730500D01*
X5829300Y2730500D01*
X5829300Y2171700D01*
X5956300Y2171700D01*
X5956300Y2298700D01*
X6210300Y2298700D01*
X6210300Y2171700D01*
D15*
X5080002Y3565555D02*
G01*
X7112002Y3565555D01*
X7112002Y3075564D01*
X5080002Y3075564D01*
X5080002Y3565555D01*
D16*
X5829300Y6286500D02*
G01*
X5829300Y6032500D01*
X6591300Y6032500D01*
X6591300Y6286500D01*
X6591300Y6286500D02*
G01*
X5829300Y6286500D01*
D15*
X4318000Y1625600D02*
G01*
X4318000Y2387600D01*
X5334000Y2387600D01*
X5334000Y1625600D01*
X4318000Y1625600D01*
X4318000Y1727200D02*
G01*
X5334000Y1727200D01*
X3276600Y1625600D02*
G01*
X3276600Y2387600D01*
X4292600Y2387600D01*
X4292600Y1625600D01*
X3276600Y1625600D01*
X3276600Y1727200D02*
G01*
X4292600Y1727200D01*
D17*
X7308999Y2343200D02*
G01*
X7309104Y2302141D01*
X7345934Y2302141D01*
D15*
X7443000Y2439200D02*
G01*
X7542999Y2439200D01*
X7647000Y2649202D02*
G01*
X7647000Y2329200D01*
X7338999Y2649202D02*
G01*
X7338999Y2329200D01*
X7493116Y2530200D02*
G01*
X7493116Y2446200D01*
X4673600Y5816600D02*
G01*
X4673600Y6324600D01*
X4165600Y6324600D01*
X4165600Y5816600D01*
X4673600Y5816600D01*
X4673600Y5842000D01*
X4340113Y3081497D02*
G01*
X3279912Y3081497D01*
X3279912Y3561306D01*
X4340113Y3561306D01*
X4340113Y3082005D01*
X4340113Y3081497D01*
X3280016Y3141413D02*
G01*
X4340009Y3141413D01*
X4333240Y2611120D02*
G01*
X4333240Y2849879D01*
X4333240Y2849879D02*
G01*
X4963159Y2849879D01*
X4963159Y2849879D02*
G01*
X4963159Y2611120D01*
X4963159Y2611120D02*
G01*
X4333240Y2611120D01*
X5869940Y1760220D02*
G01*
X5869940Y1998979D01*
X5869940Y1998979D02*
G01*
X6499859Y1998979D01*
X6499859Y1998979D02*
G01*
X6499859Y1760220D01*
X6499859Y1760220D02*
G01*
X5869940Y1760220D01*
X7446500Y3443201D02*
G01*
X7446500Y3628199D01*
X7661501Y3628199D01*
X7661501Y3443201D01*
X7451501Y3128200D02*
G01*
X7451501Y3308200D01*
X7451501Y3128200D01*
X7656499Y3128200D01*
X7661501Y3128200D01*
X7661501Y3313201D01*
D18*
X5130840Y5626039D02*
G01*
X5067340Y5562539D01*
X5003840Y5626039D01*
X7289825Y5372051D02*
G01*
X7353325Y5435551D01*
X7353325Y5562551D01*
X7289825Y5626051D01*
X7035825Y5372051D02*
G01*
X7099325Y5435551D01*
X7162825Y5372051D01*
X6781825Y5372051D02*
G01*
X6845325Y5435551D01*
X6908825Y5372051D01*
X6527871Y5372051D02*
G01*
X6591348Y5435551D01*
X6654848Y5372051D01*
X6273876Y5372051D02*
G01*
X6337376Y5435551D01*
X6400876Y5372051D01*
X6019876Y5372051D02*
G01*
X6083376Y5435551D01*
X6146876Y5372051D01*
X5765876Y5372051D02*
G01*
X5829376Y5435551D01*
X5892876Y5372051D01*
X5511876Y5372051D02*
G01*
X5575376Y5435551D01*
X5638876Y5372051D01*
X5257876Y5372051D02*
G01*
X5321376Y5435551D01*
X5384876Y5372051D01*
X5003876Y5372051D02*
G01*
X5067376Y5435551D01*
X5130876Y5372051D01*
X4749876Y5372051D02*
G01*
X4813376Y5435551D01*
X4876876Y5372051D01*
X4495876Y5372051D02*
G01*
X4559376Y5435551D01*
X4622876Y5372051D01*
X4241848Y5372051D02*
G01*
X4305371Y5435551D01*
X4368876Y5372051D01*
X3987840Y5372051D02*
G01*
X4051340Y5435551D01*
X4114840Y5372051D01*
X3733840Y5372051D02*
G01*
X3797340Y5435551D01*
X3860840Y5372051D01*
X3606840Y5626051D02*
G01*
X3543340Y5562551D01*
X3543340Y5435551D01*
X3606840Y5372051D01*
X3860840Y5626051D02*
G01*
X3797340Y5562551D01*
X3733840Y5626051D01*
X4114840Y5626051D02*
G01*
X4051340Y5562551D01*
X3987840Y5626051D01*
X4368876Y5626051D02*
G01*
X4305371Y5562551D01*
X4241848Y5626051D01*
X6654848Y5626051D02*
G01*
X6591348Y5562551D01*
X6527871Y5626051D01*
X7162825Y5626051D02*
G01*
X7099325Y5562551D01*
X7035825Y5626051D01*
X6908825Y5626051D02*
G01*
X6845325Y5562551D01*
X6781825Y5626051D01*
X6400876Y5626051D02*
G01*
X6337376Y5562551D01*
X6273876Y5626051D01*
X6146876Y5626051D02*
G01*
X6083376Y5562551D01*
X6019876Y5626051D01*
X5892876Y5626051D02*
G01*
X5829376Y5562551D01*
X5765876Y5626051D01*
X5638876Y5626051D02*
G01*
X5575376Y5562551D01*
X5511876Y5626051D01*
X5384876Y5626051D02*
G01*
X5321376Y5562551D01*
X5257876Y5626051D01*
X4876876Y5626051D02*
G01*
X4813376Y5562551D01*
X4749876Y5626051D01*
X4622876Y5626051D02*
G01*
X4559376Y5562551D01*
X4495876Y5626051D01*
X4368876Y5626051D02*
G01*
X4305371Y5562551D01*
X4241848Y5626051D01*
X4114840Y5626051D01*
X4051340Y5562551D01*
X3987840Y5626051D01*
X3860840Y5626051D01*
X3797340Y5562551D01*
X3733840Y5626051D01*
X3606840Y5626051D01*
X3543340Y5562551D01*
X3543340Y5435551D01*
X3606840Y5372051D01*
X3733840Y5372051D01*
X3797340Y5435551D01*
X3860840Y5372051D01*
X3987840Y5372051D01*
X4051340Y5435551D01*
X4114840Y5372051D01*
X4241848Y5372051D01*
X4305371Y5435551D01*
X4368876Y5372051D01*
X4495876Y5372051D01*
X4559376Y5435551D01*
X4622876Y5372051D01*
X4749876Y5372051D01*
X4813376Y5435551D01*
X4876876Y5372051D01*
X5003876Y5372051D01*
X5067376Y5435551D01*
X5130876Y5372051D01*
X5257876Y5372051D01*
X5321376Y5435551D01*
X5384876Y5372051D01*
X5511876Y5372051D01*
X5575376Y5435551D01*
X5638876Y5372051D01*
X5765876Y5372051D01*
X5829376Y5435551D01*
X5892876Y5372051D01*
X6019876Y5372051D01*
X6083376Y5435551D01*
X6146876Y5372051D01*
X6273876Y5372051D01*
X6337376Y5435551D01*
X6400876Y5372051D01*
X6527871Y5372051D01*
X6591348Y5435551D01*
X6654848Y5372051D01*
X6781825Y5372051D01*
X6845325Y5435551D01*
X6908825Y5372051D01*
X7035825Y5372051D01*
X7099325Y5435551D01*
X7162825Y5372051D01*
X7289825Y5372051D01*
X7353325Y5435551D01*
X7353325Y5562551D01*
X7289825Y5626051D01*
X5765774Y3848143D02*
G01*
X5829274Y3911643D01*
X5892774Y3848143D01*
X6527733Y3848133D02*
G01*
X6591236Y3911633D01*
X6654761Y3848133D01*
X6781774Y3848133D01*
X6845274Y3911633D01*
X6908774Y3848133D01*
X7035774Y3848133D01*
X7099274Y3911633D01*
X7162774Y3848133D01*
X7289774Y3848133D01*
X7353274Y3911633D01*
X7353274Y4038633D01*
X7289774Y4102133D01*
X7162774Y4102133D01*
X7099274Y4038633D01*
X7035774Y4102133D01*
X6908774Y4102133D01*
X6845274Y4038633D01*
X6781774Y4102133D01*
X6654761Y4102133D01*
X6591236Y4038633D01*
X6527733Y4102133D01*
X6400733Y4102133D01*
X6337233Y4038633D01*
X6273733Y4102133D01*
X6146733Y4102133D01*
X6083233Y4038633D01*
X6019733Y4102133D01*
X5892733Y4102133D01*
X5829233Y4038633D01*
X5765733Y4102133D01*
X5638733Y4102133D01*
X5575233Y4038633D01*
X5511733Y4102133D01*
X5384733Y4102133D01*
X5321233Y4038633D01*
X5257733Y4102133D01*
X5130733Y4102133D01*
X5067233Y4038633D01*
X5003733Y4102133D01*
X4876733Y4102133D01*
X4813233Y4038633D01*
X4749733Y4102133D01*
X4622733Y4102133D01*
X4559233Y4038633D01*
X4495733Y4102133D01*
X4368739Y4102133D01*
X4305261Y4038633D01*
X4241761Y4102133D01*
X4114784Y4102133D01*
X4051284Y4038633D01*
X3987784Y4102133D01*
X3860784Y4102133D01*
X3797284Y4038633D01*
X3733784Y4102133D01*
X3606784Y4102133D01*
X3543284Y4038633D01*
X3543284Y3911633D01*
X3606784Y3848133D01*
X4241761Y3848133D02*
G01*
X4305261Y3911633D01*
X4368739Y3848133D01*
X3733784Y3848133D02*
G01*
X3797284Y3911633D01*
X3860784Y3848133D01*
X3987784Y3848133D02*
G01*
X4051284Y3911633D01*
X4114784Y3848133D01*
X4495733Y3848133D02*
G01*
X4559233Y3911633D01*
X4622733Y3848133D01*
X4749733Y3848133D02*
G01*
X4813233Y3911633D01*
X4876733Y3848133D01*
X5003733Y3848133D02*
G01*
X5067233Y3911633D01*
X5130733Y3848133D01*
X5257733Y3848133D02*
G01*
X5321233Y3911633D01*
X5384733Y3848133D01*
X5511733Y3848133D02*
G01*
X5575233Y3911633D01*
X5638733Y3848133D01*
X6019733Y3848133D02*
G01*
X6083233Y3911633D01*
X6146733Y3848133D01*
X6273733Y3848133D02*
G01*
X6337233Y3911633D01*
X6400733Y3848133D01*
X7218679Y4457700D02*
G01*
X7218679Y4483089D01*
X7607300Y4457700D02*
G01*
X7759700Y4457700D01*
X7759700Y5016500D01*
X7218679Y5016500D01*
X7218679Y4995595D01*
X7607300Y4457700D02*
G01*
X7218679Y4457700D01*
X7218679Y4483089D02*
G01*
X7218679Y4991100D01*
D10*
X7614920Y3840482D02*
G01*
X3281687Y3840482D01*
X3281687Y5633720D01*
X7614920Y5633720D01*
X7614920Y3840482D01*
D15*
X881794Y6034006D02*
G01*
X2989994Y6034006D01*
X2989994Y1716006D01*
X881794Y1716006D01*
X881794Y6034006D01*
D19*
G75*
G01*
X4087010Y3623904D02*
G03*
X4086756Y3623904I-127J20000D01*
D15*
G75*
G01
X4546600Y6070600D02*
G03X4546600Y6070600I-127000J0D01*
G75*
G01
X4221658Y5854700D02*
G03X4221658Y5854700I-17958J0D01*
G75*
G01
X4221658Y6286500D02*
G03X4221658Y6286500I-17958J0D01*
G75*
G01
X4653458Y6286500D02*
G03X4653458Y6286500I-17958J0D01*
G75*
G01
X4653458Y5854700D02*
G03X4653458Y5854700I-17958J0D01*
M02*
