G04 Layer: BottomSilkscreenLayer*
G04 EasyEDA v6.5.39, 2024-02-03 14:28:59*
G04 bcd3f98de95e48d085ed2947a1ad00ac,362fd913e7484c3682bebf37a00ceee6,10*
G04 Gerber Generator version 0.2*
G04 Scale: 100 percent, Rotated: No, Reflected: No *
G04 Dimensions in millimeters *
G04 leading zeros omitted , absolute positions ,4 integer and 5 decimal *
%FSLAX45Y45*%
%MOMM*%

%ADD10C,0.1000*%
%ADD11C,0.1524*%
%ADD12C,0.2032*%
%ADD13C,0.1500*%
%ADD14C,0.2540*%
%ADD15C,0.0121*%

%LPD*%
G36*
X1921002Y3763416D02*
G01*
X1919782Y3763162D01*
X1915769Y3761130D01*
X1909775Y3757269D01*
X1901952Y3751630D01*
X1892452Y3744366D01*
X1869287Y3725468D01*
X1836166Y3696919D01*
X1755038Y3626154D01*
X1705914Y3582619D01*
X1685391Y3563416D01*
X1679193Y3557066D01*
X1674215Y3551072D01*
X1672894Y3548887D01*
X1672132Y3547110D01*
X1671828Y3545586D01*
X1671929Y3544265D01*
X1673098Y3538982D01*
X1672742Y3536645D01*
X1671066Y3535934D01*
X1668018Y3536594D01*
X1664462Y3536696D01*
X1659940Y3535172D01*
X1654962Y3532225D01*
X1649933Y3528009D01*
X1638655Y3517137D01*
X1661617Y3495395D01*
X1664512Y3492042D01*
X1662633Y3492449D01*
X1656029Y3496056D01*
X1651152Y3499104D01*
X1647189Y3502151D01*
X1644497Y3504844D01*
X1643481Y3506825D01*
X1643176Y3508959D01*
X1642160Y3510279D01*
X1640535Y3510737D01*
X1638198Y3510330D01*
X1635251Y3509060D01*
X1631645Y3506978D01*
X1622501Y3500272D01*
X1616964Y3495649D01*
X1604010Y3483864D01*
X1584811Y3465271D01*
X1626311Y3465271D01*
X1632966Y3462883D01*
X1640078Y3459276D01*
X1645716Y3455517D01*
X1648053Y3452672D01*
X1646174Y3449472D01*
X1641602Y3449472D01*
X1635912Y3452266D01*
X1630832Y3457346D01*
X1627174Y3463036D01*
X1626311Y3464712D01*
X1626311Y3465271D01*
X1584811Y3465271D01*
X1572107Y3452723D01*
X1560880Y3441141D01*
X1552956Y3432149D01*
X1550111Y3428288D01*
X1547825Y3424783D01*
X1546148Y3421532D01*
X1544878Y3418332D01*
X1544015Y3415131D01*
X1543202Y3408375D01*
X1542948Y3393846D01*
X1542440Y3388410D01*
X1541424Y3383584D01*
X1539697Y3379012D01*
X1537106Y3374440D01*
X1533499Y3369411D01*
X1528673Y3363620D01*
X1515770Y3349193D01*
X1510436Y3342894D01*
X1506423Y3337712D01*
X1503781Y3333597D01*
X1502359Y3330498D01*
X1502206Y3328415D01*
X1503273Y3327146D01*
X1505508Y3326790D01*
X1506982Y3327298D01*
X1512620Y3331311D01*
X1521206Y3338423D01*
X1531670Y3347821D01*
X1543151Y3358540D01*
X1554683Y3369767D01*
X1565351Y3380587D01*
X1574139Y3390137D01*
X1581404Y3398672D01*
X1591106Y3409187D01*
X1602181Y3420465D01*
X1613204Y3431032D01*
X1622653Y3439515D01*
X1629054Y3444443D01*
X1630629Y3445103D01*
X1631340Y3444189D01*
X1631594Y3441700D01*
X1631442Y3438042D01*
X1630883Y3433521D01*
X1630578Y3428288D01*
X1631442Y3423310D01*
X1633372Y3418992D01*
X1640992Y3410102D01*
X1643227Y3405174D01*
X1642770Y3401618D01*
X1637080Y3399383D01*
X1635251Y3397046D01*
X1634947Y3396183D01*
X1742439Y3396183D01*
X1742490Y3412083D01*
X1742795Y3423970D01*
X1743405Y3432403D01*
X1744319Y3438093D01*
X1745589Y3441496D01*
X1746402Y3442614D01*
X1747316Y3443376D01*
X1749501Y3444189D01*
X1754936Y3445611D01*
X1759457Y3447542D01*
X1763826Y3449980D01*
X1767535Y3452723D01*
X1800453Y3481476D01*
X1810410Y3490772D01*
X1814779Y3495395D01*
X1818741Y3499967D01*
X1822297Y3504539D01*
X1825548Y3509162D01*
X1828393Y3513836D01*
X1830933Y3518611D01*
X1833067Y3523487D01*
X1834946Y3528466D01*
X1836470Y3533648D01*
X1837689Y3538931D01*
X1838655Y3544468D01*
X1839671Y3556203D01*
X1839975Y3567582D01*
X1840484Y3572916D01*
X1841296Y3578402D01*
X1842414Y3583889D01*
X1845462Y3594658D01*
X1847392Y3599789D01*
X1849475Y3604564D01*
X1853488Y3612387D01*
X1857197Y3618788D01*
X1860245Y3623106D01*
X1862124Y3624681D01*
X1864309Y3623259D01*
X1867458Y3619347D01*
X1871268Y3613658D01*
X1875282Y3606698D01*
X1879295Y3599129D01*
X1882902Y3591509D01*
X1885797Y3584549D01*
X1889099Y3574440D01*
X1891334Y3570833D01*
X1893925Y3568446D01*
X1899564Y3566820D01*
X1901139Y3564483D01*
X1901494Y3560267D01*
X1900072Y3547821D01*
X1900326Y3541674D01*
X1901393Y3536086D01*
X1905101Y3526688D01*
X1906879Y3518915D01*
X1908251Y3509568D01*
X1909572Y3489858D01*
X1910588Y3480866D01*
X1911857Y3473754D01*
X1914855Y3464915D01*
X1916480Y3457448D01*
X1918004Y3447999D01*
X1919274Y3437585D01*
X1920290Y3424377D01*
X1919884Y3416300D01*
X1917852Y3411880D01*
X1911096Y3408273D01*
X1907133Y3405632D01*
X1903392Y3402787D01*
X1918258Y3402787D01*
X1919274Y3403498D01*
X1921459Y3403904D01*
X1924608Y3404006D01*
X1927809Y3403701D01*
X1929384Y3403193D01*
X1929231Y3402431D01*
X1927402Y3401517D01*
X1924862Y3400907D01*
X1922322Y3400755D01*
X1920189Y3401060D01*
X1918665Y3401872D01*
X1918258Y3402787D01*
X1903392Y3402787D01*
X1896821Y3397402D01*
X1884277Y3386328D01*
X1924862Y3386328D01*
X1925320Y3389477D01*
X1926793Y3391408D01*
X1929282Y3392068D01*
X1931568Y3391611D01*
X1932939Y3390341D01*
X1933346Y3388410D01*
X1932127Y3383127D01*
X1933244Y3381248D01*
X1936089Y3380130D01*
X1945893Y3379571D01*
X1948129Y3378911D01*
X1947722Y3377692D01*
X1944776Y3375761D01*
X1937359Y3372459D01*
X1931771Y3372307D01*
X1927809Y3375456D01*
X1925421Y3381857D01*
X1924862Y3386328D01*
X1884277Y3386328D01*
X1874012Y3376472D01*
X1864893Y3366414D01*
X1931365Y3366414D01*
X1931720Y3367125D01*
X1941626Y3364737D01*
X1945386Y3363518D01*
X1947062Y3362045D01*
X1946757Y3359962D01*
X1942693Y3354324D01*
X1941677Y3350920D01*
X1941525Y3347415D01*
X1942287Y3344164D01*
X1943303Y3341319D01*
X1943404Y3339795D01*
X1942592Y3339744D01*
X1940814Y3341065D01*
X1938832Y3343503D01*
X1936699Y3347212D01*
X1934768Y3351682D01*
X1933193Y3356356D01*
X1932127Y3360674D01*
X1931517Y3364128D01*
X1931365Y3366414D01*
X1864893Y3366414D01*
X1863445Y3364534D01*
X1862632Y3362553D01*
X1864817Y3360420D01*
X1870659Y3359810D01*
X1878685Y3360724D01*
X1890420Y3363874D01*
X1892807Y3363874D01*
X1895043Y3362960D01*
X1897278Y3360928D01*
X1899615Y3357575D01*
X1902256Y3352800D01*
X1918411Y3317341D01*
X1921814Y3310585D01*
X1923694Y3307537D01*
X1924862Y3307587D01*
X1927047Y3308604D01*
X1930196Y3310585D01*
X1938680Y3316935D01*
X1949450Y3325774D01*
X1961489Y3336188D01*
X1973935Y3347313D01*
X1985721Y3358387D01*
X1995982Y3368497D01*
X2003806Y3376828D01*
X2006447Y3380028D01*
X2008124Y3382467D01*
X2008733Y3384042D01*
X2009241Y3387953D01*
X2010714Y3393338D01*
X2012899Y3399485D01*
X2017014Y3409442D01*
X2018334Y3413912D01*
X2019503Y3419144D01*
X2020519Y3424936D01*
X2021890Y3437737D01*
X2022297Y3444494D01*
X2022500Y3458667D01*
X2022856Y3464966D01*
X2023414Y3470148D01*
X2024125Y3474262D01*
X2024989Y3477209D01*
X2026005Y3479037D01*
X2027123Y3479698D01*
X2028342Y3479139D01*
X2029663Y3477361D01*
X2030984Y3474364D01*
X2032355Y3470046D01*
X2035200Y3458667D01*
X2036978Y3452723D01*
X2038908Y3447287D01*
X2054606Y3413658D01*
X2057603Y3408832D01*
X2060244Y3405530D01*
X2063851Y3403600D01*
X2064481Y3402736D01*
X2087880Y3402736D01*
X2088591Y3404311D01*
X2091182Y3407206D01*
X2092452Y3408070D01*
X2093417Y3408375D01*
X2094230Y3408070D01*
X2094839Y3407206D01*
X2095296Y3405886D01*
X2095449Y3404311D01*
X2095042Y3402736D01*
X2094026Y3401415D01*
X2092502Y3400551D01*
X2090623Y3400247D01*
X2088946Y3400551D01*
X2088032Y3401415D01*
X2087880Y3402736D01*
X2064481Y3402736D01*
X2065223Y3401720D01*
X2066289Y3398875D01*
X2067560Y3391103D01*
X2068982Y3385769D01*
X2070811Y3380232D01*
X2072944Y3375050D01*
X2076348Y3369056D01*
X2080514Y3365550D01*
X2086660Y3363925D01*
X2102866Y3363163D01*
X2108504Y3362299D01*
X2112314Y3361029D01*
X2113686Y3359404D01*
X2112822Y3357829D01*
X2110384Y3356559D01*
X2106726Y3355644D01*
X2097074Y3354781D01*
X2093468Y3353155D01*
X2091486Y3350463D01*
X2091182Y3346754D01*
X2092452Y3342030D01*
X2095398Y3336239D01*
X2099919Y3329533D01*
X2112111Y3314090D01*
X2116378Y3307130D01*
X2118664Y3301390D01*
X2118664Y3297478D01*
X2117598Y3295650D01*
X2112670Y3289554D01*
X2104847Y3281019D01*
X2095093Y3271062D01*
X2084476Y3260699D01*
X2075078Y3250946D01*
X2068017Y3242665D01*
X2065578Y3239414D01*
X2064054Y3236874D01*
X2062581Y3232607D01*
X2060143Y3229406D01*
X2056536Y3226104D01*
X2051631Y3222802D01*
X2068068Y3222802D01*
X2069287Y3224428D01*
X2072944Y3224174D01*
X2079091Y3222091D01*
X2087880Y3218129D01*
X2092706Y3215538D01*
X2096363Y3213100D01*
X2098395Y3211118D01*
X2098548Y3209848D01*
X2092756Y3210509D01*
X2082393Y3214319D01*
X2072487Y3219145D01*
X2068068Y3222802D01*
X2051631Y3222802D01*
X2047646Y3220008D01*
X2044039Y3216605D01*
X2041550Y3213252D01*
X2040026Y3207461D01*
X2038299Y3203956D01*
X2035759Y3200349D01*
X2029053Y3193338D01*
X2025040Y3188462D01*
X2021843Y3184144D01*
X2054352Y3184144D01*
X2054606Y3185617D01*
X2055368Y3186785D01*
X2056434Y3187496D01*
X2057806Y3187700D01*
X2062937Y3184906D01*
X2069592Y3179114D01*
X2074875Y3173018D01*
X2076145Y3169412D01*
X2071573Y3170072D01*
X2064207Y3174238D01*
X2057349Y3179673D01*
X2054352Y3184144D01*
X2021843Y3184144D01*
X2015032Y3173730D01*
X2013966Y3172714D01*
X2013051Y3172612D01*
X2012238Y3173577D01*
X2011578Y3175660D01*
X2010968Y3179114D01*
X2009902Y3190290D01*
X2007616Y3230321D01*
X2006142Y3248406D01*
X2004212Y3262985D01*
X2002993Y3269030D01*
X2001672Y3274364D01*
X2000148Y3278936D01*
X1998421Y3282797D01*
X1996490Y3286048D01*
X1994357Y3288690D01*
X1991969Y3290722D01*
X1989378Y3292297D01*
X1986483Y3293313D01*
X1983282Y3293922D01*
X1979777Y3294126D01*
X1975408Y3293922D01*
X1971395Y3293160D01*
X1967280Y3291535D01*
X1962657Y3288741D01*
X1957222Y3284575D01*
X1950466Y3278682D01*
X1931517Y3260750D01*
X1924354Y3253689D01*
X1918716Y3247745D01*
X1914398Y3242564D01*
X1911146Y3237788D01*
X1908810Y3233064D01*
X1907184Y3228086D01*
X1906066Y3222447D01*
X1903933Y3206242D01*
X1902409Y3198876D01*
X1900478Y3193643D01*
X1898142Y3190494D01*
X1895297Y3189376D01*
X1891842Y3190189D01*
X1887728Y3192881D01*
X1882851Y3197402D01*
X1879752Y3200857D01*
X1877263Y3204159D01*
X1875332Y3207613D01*
X1873910Y3211372D01*
X1872843Y3215640D01*
X1872183Y3220567D01*
X1871827Y3226358D01*
X1871725Y3233267D01*
X1872234Y3243834D01*
X1873656Y3254552D01*
X1875688Y3264204D01*
X1876907Y3268217D01*
X1880158Y3276092D01*
X1881378Y3280054D01*
X1881886Y3283356D01*
X1881733Y3285998D01*
X1881022Y3287979D01*
X1879752Y3289350D01*
X1877974Y3290163D01*
X1875739Y3290366D01*
X1873097Y3290011D01*
X1870100Y3289096D01*
X1866798Y3287674D01*
X1863242Y3285744D01*
X1859483Y3283305D01*
X1855520Y3280410D01*
X1847342Y3273247D01*
X1843227Y3269030D01*
X1839112Y3264408D01*
X1835048Y3259378D01*
X1831136Y3253994D01*
X1827834Y3252215D01*
X1821027Y3250590D01*
X1811731Y3249269D01*
X1800860Y3248456D01*
X1773580Y3247186D01*
X1767027Y3203194D01*
X1764233Y3189579D01*
X1761185Y3179064D01*
X1759712Y3175304D01*
X1758238Y3172663D01*
X1756867Y3171240D01*
X1755952Y3170885D01*
X1755038Y3170885D01*
X1754225Y3171240D01*
X1753412Y3171952D01*
X1751939Y3174593D01*
X1750618Y3178860D01*
X1749399Y3184855D01*
X1748332Y3192729D01*
X1747367Y3202533D01*
X1745742Y3228441D01*
X1744472Y3263442D01*
X1743506Y3308400D01*
X1742439Y3396183D01*
X1634947Y3396183D01*
X1633982Y3393440D01*
X1633321Y3388969D01*
X1633270Y3383889D01*
X1633880Y3378504D01*
X1635150Y3373120D01*
X1639163Y3362756D01*
X1640179Y3358286D01*
X1639976Y3355035D01*
X1638655Y3353155D01*
X1636979Y3351631D01*
X1635607Y3349193D01*
X1634693Y3346196D01*
X1634337Y3342995D01*
X1632762Y3338728D01*
X1628038Y3333597D01*
X1620520Y3327704D01*
X1604721Y3317900D01*
X1593189Y3310432D01*
X1581810Y3302304D01*
X1570837Y3293821D01*
X1560525Y3285185D01*
X1551228Y3276701D01*
X1543202Y3268624D01*
X1536700Y3261258D01*
X1534160Y3257905D01*
X1532128Y3254806D01*
X1530604Y3252012D01*
X1529689Y3249574D01*
X1529334Y3247491D01*
X1529791Y3246323D01*
X1530959Y3246120D01*
X1532686Y3246831D01*
X1537919Y3250742D01*
X1541119Y3252266D01*
X1544523Y3252927D01*
X1548231Y3252724D01*
X1552295Y3251657D01*
X1556918Y3249625D01*
X1562150Y3246729D01*
X1577136Y3237026D01*
X1583436Y3234690D01*
X1589735Y3235553D01*
X1598625Y3239262D01*
X1612950Y3246170D01*
X1617624Y3248914D01*
X1620723Y3251200D01*
X1622399Y3253181D01*
X1622755Y3254908D01*
X1621840Y3256534D01*
X1617116Y3259937D01*
X1616354Y3261614D01*
X1617522Y3263341D01*
X1620672Y3265474D01*
X1624025Y3267049D01*
X1628089Y3268370D01*
X1632407Y3269234D01*
X1636420Y3269589D01*
X1640484Y3269386D01*
X1642313Y3268624D01*
X1642059Y3267100D01*
X1639824Y3264763D01*
X1637385Y3261512D01*
X1635658Y3257092D01*
X1634744Y3252012D01*
X1634540Y3246526D01*
X1635099Y3241090D01*
X1636369Y3236112D01*
X1638350Y3231946D01*
X1641043Y3228949D01*
X1644345Y3226054D01*
X1645412Y3223260D01*
X1644243Y3219704D01*
X1640839Y3214624D01*
X1638046Y3209798D01*
X1636471Y3204616D01*
X1636166Y3199180D01*
X1637080Y3193542D01*
X1640128Y3183534D01*
X1643176Y3178606D01*
X1647393Y3177895D01*
X1658772Y3182366D01*
X1659991Y3182061D01*
X1657604Y3179064D01*
X1646580Y3168040D01*
X1642618Y3163265D01*
X1639925Y3159252D01*
X1638350Y3154680D01*
X1636776Y3152749D01*
X1634489Y3151022D01*
X1631696Y3149701D01*
X1628495Y3148888D01*
X1618488Y3147872D01*
X1604924Y3147517D01*
X1589176Y3147771D01*
X1572768Y3148685D01*
X1557020Y3150209D01*
X1543659Y3152038D01*
X1538122Y3152546D01*
X1533093Y3152698D01*
X1528521Y3152343D01*
X1524101Y3151428D01*
X1519783Y3149904D01*
X1515364Y3147669D01*
X1510639Y3144723D01*
X1505458Y3140913D01*
X1492993Y3130397D01*
X1661769Y3130397D01*
X1662125Y3132175D01*
X1663090Y3134004D01*
X1664563Y3135680D01*
X1666290Y3137001D01*
X1668068Y3137662D01*
X1669542Y3137611D01*
X1670507Y3136849D01*
X1670862Y3135426D01*
X1670507Y3133648D01*
X1669542Y3131820D01*
X1668068Y3130143D01*
X1666290Y3128822D01*
X1664563Y3128162D01*
X1663090Y3128264D01*
X1662125Y3129026D01*
X1661769Y3130397D01*
X1492993Y3130397D01*
X1475994Y3114903D01*
X1468272Y3107334D01*
X1462328Y3100933D01*
X1458061Y3095498D01*
X1455318Y3090824D01*
X1453946Y3086709D01*
X1453845Y3082950D01*
X1454861Y3079445D01*
X1456690Y3075584D01*
X1458112Y3074619D01*
X1459382Y3076702D01*
X1460957Y3081934D01*
X1463090Y3087522D01*
X1467002Y3090367D01*
X1474774Y3091027D01*
X1510182Y3089046D01*
X1524812Y3088589D01*
X1539443Y3088436D01*
X1553870Y3088589D01*
X1567992Y3088995D01*
X1594764Y3090621D01*
X1607108Y3091789D01*
X1618538Y3093212D01*
X1628952Y3094837D01*
X1638147Y3096666D01*
X1646021Y3098698D01*
X1652371Y3100882D01*
X1654962Y3102102D01*
X1661109Y3104489D01*
X1668322Y3106166D01*
X1676196Y3107131D01*
X1684324Y3107334D01*
X1692249Y3106877D01*
X1699615Y3105708D01*
X1705965Y3103880D01*
X1710842Y3101340D01*
X1713026Y3098800D01*
X1714855Y3094990D01*
X1716074Y3090367D01*
X1716786Y3080918D01*
X1717548Y3077210D01*
X1718716Y3074670D01*
X1720088Y3073755D01*
X1723339Y3075432D01*
X1729689Y3079953D01*
X1738172Y3086608D01*
X1759915Y3104743D01*
X1767992Y3110280D01*
X1773174Y3111906D01*
X1776272Y3110077D01*
X1777847Y3107436D01*
X1779117Y3104438D01*
X1780032Y3101492D01*
X1780387Y3098952D01*
X1781098Y3096361D01*
X1783130Y3093110D01*
X1786229Y3089402D01*
X1790192Y3085388D01*
X1794865Y3081172D01*
X1800098Y3076905D01*
X1805584Y3072790D01*
X1811223Y3068980D01*
X1816760Y3065576D01*
X1822043Y3062732D01*
X1826920Y3060598D01*
X1831086Y3059379D01*
X1836216Y3058617D01*
X1841804Y3058160D01*
X1847646Y3058058D01*
X1853692Y3058261D01*
X1865884Y3059582D01*
X1871827Y3060649D01*
X1877466Y3061970D01*
X1882800Y3063494D01*
X1887626Y3065272D01*
X1891842Y3067253D01*
X1895398Y3069386D01*
X1906016Y3076803D01*
X1906066Y3024784D01*
X1906828Y3008122D01*
X1907489Y3001619D01*
X1908352Y2996336D01*
X1909419Y2992069D01*
X1910740Y2988868D01*
X1912264Y2986633D01*
X1918817Y2982214D01*
X1926539Y2980080D01*
X1932990Y2980588D01*
X1935683Y2983992D01*
X1936242Y2985566D01*
X1937715Y2986836D01*
X1939950Y2987700D01*
X1942693Y2988056D01*
X1945386Y2988868D01*
X1949450Y2991205D01*
X1954682Y2994761D01*
X1967230Y3004362D01*
X1980438Y3015640D01*
X1986483Y3021177D01*
X1991715Y3026308D01*
X1995881Y3030778D01*
X1998624Y3034233D01*
X1999589Y3036519D01*
X1999030Y3038297D01*
X1997557Y3040532D01*
X1995373Y3042920D01*
X1992731Y3045206D01*
X1989632Y3048406D01*
X1987550Y3052673D01*
X1986381Y3057702D01*
X1986229Y3063392D01*
X1986991Y3069437D01*
X1988718Y3075686D01*
X1991360Y3081883D01*
X1994916Y3087878D01*
X1998878Y3092805D01*
X2003602Y3097377D01*
X2008682Y3101390D01*
X2013915Y3104642D01*
X2018842Y3106978D01*
X2023262Y3108248D01*
X2026767Y3108198D01*
X2029053Y3106724D01*
X2029307Y3104540D01*
X2028647Y3100476D01*
X2027174Y3094736D01*
X2024989Y3087674D01*
X2018842Y3070860D01*
X2010968Y3052318D01*
X2009952Y3049219D01*
X2010105Y3046984D01*
X2011375Y3045663D01*
X2013813Y3045206D01*
X2016709Y3046171D01*
X2021179Y3048863D01*
X2026970Y3052978D01*
X2033676Y3058160D01*
X2048408Y3070555D01*
X2062480Y3083560D01*
X2068372Y3089452D01*
X2073046Y3094583D01*
X2076094Y3098546D01*
X2077212Y3101086D01*
X2077415Y3102660D01*
X2079142Y3107842D01*
X2082342Y3115360D01*
X2086864Y3124860D01*
X2098700Y3147872D01*
X2112822Y3173526D01*
X2127351Y3198266D01*
X2134158Y3209239D01*
X2140356Y3218688D01*
X2148789Y3230270D01*
X2153970Y3236722D01*
X2158796Y3242056D01*
X2163318Y3246272D01*
X2167585Y3249371D01*
X2171700Y3251453D01*
X2175662Y3252470D01*
X2179574Y3252520D01*
X2183536Y3251555D01*
X2187498Y3249676D01*
X2191613Y3246831D01*
X2200757Y3239058D01*
X2204974Y3236569D01*
X2208479Y3235706D01*
X2210968Y3236620D01*
X2211578Y3237636D01*
X2212797Y3242716D01*
X2214016Y3251149D01*
X2215184Y3262426D01*
X2216200Y3275888D01*
X2217013Y3290976D01*
X2219401Y3357372D01*
X2187498Y3415537D01*
X2176678Y3436823D01*
X2164943Y3460851D01*
X2146960Y3499104D01*
X2135733Y3523894D01*
X2125878Y3546601D01*
X2118004Y3565702D01*
X2111908Y3581654D01*
X2109571Y3587038D01*
X2103678Y3598672D01*
X2097024Y3610457D01*
X2090267Y3621125D01*
X2084273Y3629304D01*
X2081784Y3632098D01*
X2079752Y3633825D01*
X2076856Y3635400D01*
X2074113Y3636162D01*
X2071166Y3635857D01*
X2067560Y3634232D01*
X2062937Y3631133D01*
X2056892Y3626256D01*
X2027224Y3600297D01*
X2017420Y3592525D01*
X2013508Y3589731D01*
X2010410Y3587800D01*
X2008327Y3586835D01*
X2007311Y3586886D01*
X2006295Y3589375D01*
X2003501Y3599738D01*
X2001367Y3609441D01*
X1999132Y3617061D01*
X1995932Y3626154D01*
X1991918Y3636467D01*
X1981962Y3659632D01*
X1976272Y3671925D01*
X1967230Y3690467D01*
X1961032Y3702507D01*
X1948840Y3724452D01*
X1943100Y3733800D01*
X1935530Y3745280D01*
X1928825Y3754678D01*
X1923745Y3761028D01*
G37*
G36*
X2284780Y3445103D02*
G01*
X2281631Y3444240D01*
X2276957Y3441801D01*
X2271217Y3438093D01*
X2264664Y3433368D01*
X2250490Y3422091D01*
X2237130Y3410102D01*
X2231593Y3404565D01*
X2227173Y3399688D01*
X2224328Y3395726D01*
X2223262Y3393033D01*
X2224176Y3390137D01*
X2226564Y3386531D01*
X2230170Y3382772D01*
X2238400Y3376168D01*
X2241753Y3372764D01*
X2244598Y3369005D01*
X2246985Y3364839D01*
X2248916Y3360216D01*
X2250338Y3355035D01*
X2251354Y3349396D01*
X2251862Y3343148D01*
X2252014Y3336290D01*
X2251659Y3328771D01*
X2250948Y3320542D01*
X2249322Y3307689D01*
X2248458Y3297885D01*
X2247392Y3272180D01*
X2247138Y3256940D01*
X2247239Y3215132D01*
X2248357Y3172612D01*
X2249830Y3142081D01*
X2250744Y3129026D01*
X2251760Y3117900D01*
X2252878Y3109163D01*
X2254097Y3103118D01*
X2255774Y3098190D01*
X2257958Y3088386D01*
X2260142Y3074924D01*
X2261920Y3059531D01*
X2263292Y3043478D01*
X2264714Y3030474D01*
X2265527Y3025546D01*
X2266594Y3021685D01*
X2267915Y3018790D01*
X2269540Y3016961D01*
X2271572Y3016097D01*
X2274011Y3016250D01*
X2277008Y3017418D01*
X2280564Y3019552D01*
X2284780Y3022650D01*
X2295398Y3031693D01*
X2318359Y3052978D01*
X2325217Y3059734D01*
X2330196Y3065170D01*
X2333548Y3069590D01*
X2335479Y3073501D01*
X2336241Y3077260D01*
X2336088Y3081274D01*
X2332075Y3102610D01*
X2328214Y3126689D01*
X2324760Y3152241D01*
X2321864Y3178860D01*
X2318918Y3212896D01*
X2317191Y3240125D01*
X2316073Y3266897D01*
X2315616Y3292652D01*
X2315768Y3316986D01*
X2316581Y3339388D01*
X2319731Y3379012D01*
X2319985Y3387344D01*
X2319883Y3394760D01*
X2319375Y3401415D01*
X2318512Y3407410D01*
X2317140Y3412794D01*
X2315362Y3417671D01*
X2313127Y3422192D01*
X2310384Y3426409D01*
X2307132Y3430422D01*
X2303373Y3434384D01*
X2298446Y3438550D01*
X2293315Y3441954D01*
X2288540Y3444290D01*
G37*
G36*
X1838858Y2961995D02*
G01*
X1835353Y2961843D01*
X1826056Y2959811D01*
X1813560Y2957423D01*
X1807006Y2955798D01*
X1802384Y2953664D01*
X1799640Y2950921D01*
X1798726Y2947619D01*
X1799539Y2944164D01*
X1801875Y2940862D01*
X1805381Y2937916D01*
X1809800Y2935376D01*
X1814779Y2933496D01*
X1820011Y2932328D01*
X1825243Y2932023D01*
X1830120Y2932785D01*
X1833219Y2933547D01*
X1835556Y2933649D01*
X1837283Y2932785D01*
X1838452Y2930601D01*
X1839214Y2926842D01*
X1839772Y2913227D01*
X1839823Y2881934D01*
X1862632Y2881934D01*
X1862785Y2883509D01*
X1863191Y2884830D01*
X1863852Y2885694D01*
X1864614Y2886049D01*
X1865630Y2885694D01*
X1866900Y2884830D01*
X1869490Y2881934D01*
X1870202Y2880360D01*
X1870049Y2879039D01*
X1869135Y2878175D01*
X1867458Y2877870D01*
X1865579Y2878175D01*
X1864055Y2879039D01*
X1862988Y2880360D01*
X1862632Y2881934D01*
X1839823Y2881934D01*
X1839823Y2870098D01*
X1819503Y2876804D01*
X1808632Y2880868D01*
X1802079Y2884982D01*
X1798472Y2890621D01*
X1794560Y2904896D01*
X1791817Y2910128D01*
X1788109Y2914853D01*
X1783588Y2918917D01*
X1778355Y2922219D01*
X1772513Y2924708D01*
X1766265Y2926283D01*
X1759712Y2926842D01*
X1754225Y2926130D01*
X1748485Y2924098D01*
X1742795Y2921101D01*
X1737410Y2917291D01*
X1732686Y2912922D01*
X1728825Y2908249D01*
X1726234Y2903524D01*
X1725218Y2899003D01*
X1724914Y2892856D01*
X1724406Y2890723D01*
X1723440Y2892399D01*
X1721662Y2897936D01*
X1719122Y2902712D01*
X1714601Y2906979D01*
X1707896Y2910738D01*
X1698853Y2914243D01*
X1687525Y2917698D01*
X1680667Y2918510D01*
X1675892Y2916529D01*
X1666036Y2906776D01*
X1661871Y2904642D01*
X1657146Y2904794D01*
X1644396Y2909112D01*
X1639011Y2909773D01*
X1633778Y2908909D01*
X1623212Y2904794D01*
X1618589Y2903778D01*
X1614576Y2903626D01*
X1608683Y2904794D01*
X1604721Y2903778D01*
X1600149Y2901543D01*
X1595526Y2898241D01*
X1585982Y2890266D01*
X1758543Y2890266D01*
X1760067Y2895854D01*
X1763318Y2895955D01*
X1764639Y2893720D01*
X1765706Y2890062D01*
X1766417Y2885389D01*
X1766620Y2880258D01*
X1766366Y2874060D01*
X1766172Y2873298D01*
X1781048Y2873298D01*
X1781302Y2876448D01*
X1782013Y2878988D01*
X1782876Y2879953D01*
X1783588Y2878886D01*
X1783994Y2876092D01*
X1784146Y2871724D01*
X1783892Y2867558D01*
X1783660Y2866491D01*
X1877364Y2866491D01*
X1878838Y2868930D01*
X1881733Y2872486D01*
X1898446Y2890113D01*
X1898802Y2889808D01*
X1899157Y2887472D01*
X1896414Y2882138D01*
X1890064Y2874873D01*
X1882851Y2868422D01*
X1877618Y2865628D01*
X1877364Y2866491D01*
X1783660Y2866491D01*
X1783384Y2865221D01*
X1782673Y2864866D01*
X1781860Y2866745D01*
X1781200Y2869895D01*
X1781048Y2873298D01*
X1766172Y2873298D01*
X1765655Y2871266D01*
X1764182Y2871673D01*
X1761743Y2874924D01*
X1759000Y2882290D01*
X1758543Y2890266D01*
X1585982Y2890266D01*
X1584706Y2889199D01*
X1571193Y2897784D01*
X1564690Y2901594D01*
X1559001Y2904286D01*
X1554175Y2905810D01*
X1550212Y2906166D01*
X1547114Y2905404D01*
X1544878Y2903474D01*
X1543507Y2900426D01*
X1542694Y2892247D01*
X1541729Y2888996D01*
X1540256Y2886811D01*
X1536700Y2885541D01*
X1535277Y2884271D01*
X1534261Y2882341D01*
X1533296Y2877515D01*
X1531620Y2876143D01*
X1528978Y2875940D01*
X1525625Y2876804D01*
X1521663Y2878632D01*
X1517396Y2881376D01*
X1512874Y2884982D01*
X1503781Y2893618D01*
X1499362Y2896362D01*
X1495145Y2897479D01*
X1491284Y2897022D01*
X1485341Y2893060D01*
X1484071Y2887624D01*
X1487373Y2881934D01*
X1494993Y2877159D01*
X1500022Y2874721D01*
X1502816Y2872232D01*
X1503527Y2869488D01*
X1502714Y2867355D01*
X1621586Y2867355D01*
X1621891Y2872282D01*
X1622704Y2876346D01*
X1623517Y2878734D01*
X1624177Y2879293D01*
X1624293Y2878886D01*
X1657248Y2878886D01*
X1658315Y2881223D01*
X1661922Y2881122D01*
X1668576Y2878429D01*
X1678889Y2873095D01*
X1685086Y2869387D01*
X1689506Y2866186D01*
X1692148Y2863494D01*
X1692960Y2861310D01*
X1691995Y2859633D01*
X1689252Y2858414D01*
X1684629Y2857703D01*
X1678279Y2857449D01*
X1673148Y2857754D01*
X1668830Y2858668D01*
X1665274Y2860243D01*
X1662379Y2862478D01*
X1660194Y2865424D01*
X1658620Y2869133D01*
X1657654Y2873603D01*
X1657248Y2878886D01*
X1624293Y2878886D01*
X1627022Y2865983D01*
X1629308Y2856839D01*
X1629257Y2854452D01*
X1628038Y2854198D01*
X1625498Y2855925D01*
X1623517Y2858668D01*
X1622145Y2862630D01*
X1621586Y2867355D01*
X1502714Y2867355D01*
X1501140Y2862935D01*
X1501358Y2860497D01*
X1536801Y2860497D01*
X1537258Y2863138D01*
X1538833Y2864104D01*
X1541018Y2864916D01*
X1543608Y2865424D01*
X1546199Y2865628D01*
X1550111Y2864154D01*
X1553768Y2860344D01*
X1556867Y2854807D01*
X1558173Y2851353D01*
X1643481Y2851353D01*
X1643634Y2855315D01*
X1643989Y2858516D01*
X1644548Y2860751D01*
X1645259Y2861564D01*
X1646072Y2860751D01*
X1647139Y2858516D01*
X1648206Y2855315D01*
X1649171Y2851353D01*
X1649730Y2847390D01*
X1649577Y2844139D01*
X1648764Y2841955D01*
X1647443Y2841142D01*
X1645869Y2841955D01*
X1644650Y2844139D01*
X1643786Y2847390D01*
X1643481Y2851353D01*
X1558173Y2851353D01*
X1559306Y2848356D01*
X1560779Y2841650D01*
X1561134Y2835402D01*
X1560118Y2830372D01*
X1557528Y2827274D01*
X1555191Y2827985D01*
X1551889Y2831338D01*
X1548079Y2836621D01*
X1544218Y2842971D01*
X1540764Y2849575D01*
X1538122Y2855722D01*
X1536801Y2860497D01*
X1501358Y2860497D01*
X1501495Y2858973D01*
X1503375Y2854502D01*
X1511096Y2843682D01*
X1514500Y2837840D01*
X1516989Y2832303D01*
X1518513Y2827274D01*
X1518970Y2822956D01*
X1518412Y2819603D01*
X1516735Y2817418D01*
X1513890Y2816656D01*
X1510995Y2817164D01*
X1508709Y2818688D01*
X1507083Y2820873D01*
X1505762Y2826918D01*
X1503629Y2831134D01*
X1500479Y2835656D01*
X1496618Y2839872D01*
X1492250Y2843276D01*
X1487373Y2845917D01*
X1482140Y2847797D01*
X1476705Y2848914D01*
X1471117Y2849270D01*
X1465630Y2848864D01*
X1460347Y2847797D01*
X1455369Y2846019D01*
X1450898Y2843580D01*
X1446987Y2840532D01*
X1443888Y2836773D01*
X1441653Y2832455D01*
X1440332Y2830423D01*
X1438097Y2829814D01*
X1434693Y2830474D01*
X1424533Y2834741D01*
X1420977Y2835198D01*
X1418590Y2833827D01*
X1416710Y2830576D01*
X1415643Y2826715D01*
X1415796Y2823006D01*
X1417066Y2819603D01*
X1419352Y2816504D01*
X1422603Y2813862D01*
X1426768Y2811678D01*
X1431696Y2810154D01*
X1444447Y2808224D01*
X1448866Y2806395D01*
X1451102Y2803347D01*
X1451774Y2798724D01*
X1465427Y2798724D01*
X1465630Y2802483D01*
X1466138Y2805633D01*
X1466850Y2807716D01*
X1467713Y2808478D01*
X1468628Y2807919D01*
X1469339Y2806344D01*
X1469847Y2804007D01*
X1469999Y2801162D01*
X1470456Y2797860D01*
X1471676Y2794457D01*
X1473504Y2791206D01*
X1475689Y2788666D01*
X1478178Y2786227D01*
X1478686Y2785059D01*
X1477111Y2785110D01*
X1473454Y2786227D01*
X1470253Y2788056D01*
X1467713Y2790952D01*
X1466037Y2794660D01*
X1465427Y2798724D01*
X1451774Y2798724D01*
X1452778Y2794355D01*
X1455572Y2789021D01*
X1459738Y2783484D01*
X1464818Y2778404D01*
X1468831Y2775305D01*
X1472895Y2772867D01*
X1477010Y2771089D01*
X1481175Y2769971D01*
X1485392Y2769514D01*
X1489659Y2769666D01*
X1493977Y2770530D01*
X1498396Y2772003D01*
X1502816Y2774137D01*
X1507337Y2776982D01*
X1511909Y2780436D01*
X1516532Y2784551D01*
X1522069Y2789072D01*
X1527962Y2792780D01*
X1533499Y2795320D01*
X1542034Y2796895D01*
X1546047Y2798724D01*
X1549654Y2801416D01*
X1555394Y2808630D01*
X1559001Y2810814D01*
X1563725Y2811424D01*
X1576984Y2809798D01*
X1582369Y2810611D01*
X1587144Y2813405D01*
X1596186Y2822498D01*
X1600149Y2825851D01*
X1603654Y2828086D01*
X1606245Y2828899D01*
X1615490Y2827223D01*
X1624584Y2823006D01*
X1631594Y2817469D01*
X1634337Y2811932D01*
X1635201Y2806750D01*
X1638655Y2804871D01*
X1646072Y2806141D01*
X1658924Y2810560D01*
X1669542Y2814777D01*
X1674266Y2818130D01*
X1674063Y2822244D01*
X1669897Y2828747D01*
X1666646Y2835605D01*
X1668170Y2839364D01*
X1674266Y2839872D01*
X1684578Y2837027D01*
X1692452Y2834589D01*
X1698904Y2834081D01*
X1705711Y2835656D01*
X1714398Y2839466D01*
X1720545Y2842920D01*
X1725625Y2846679D01*
X1729028Y2850286D01*
X1730298Y2853283D01*
X1730552Y2855569D01*
X1731264Y2856687D01*
X1732330Y2856534D01*
X1737004Y2852115D01*
X1741728Y2849270D01*
X1747367Y2846832D01*
X1753412Y2844850D01*
X1759457Y2843530D01*
X1764944Y2842971D01*
X1769465Y2843276D01*
X1772462Y2844647D01*
X1775053Y2846425D01*
X1778152Y2847898D01*
X1781403Y2848914D01*
X1787702Y2849829D01*
X1791614Y2851302D01*
X1795729Y2853436D01*
X1804263Y2859532D01*
X1807819Y2860751D01*
X1811324Y2859633D01*
X1819452Y2853842D01*
X1823516Y2851810D01*
X1828139Y2850083D01*
X1833168Y2848660D01*
X1838553Y2847594D01*
X1844192Y2846933D01*
X1849932Y2846578D01*
X1855724Y2846628D01*
X1861515Y2847035D01*
X1867154Y2847848D01*
X1872538Y2849067D01*
X1877568Y2850692D01*
X1882902Y2852978D01*
X1887880Y2855722D01*
X1892401Y2858922D01*
X1896516Y2862478D01*
X1900224Y2866440D01*
X1903475Y2870758D01*
X1906270Y2875483D01*
X1908556Y2880461D01*
X1910384Y2885744D01*
X1911756Y2891332D01*
X1912518Y2897124D01*
X1912823Y2903220D01*
X1912670Y2908960D01*
X1912213Y2913837D01*
X1911299Y2918104D01*
X1909724Y2922016D01*
X1907438Y2925826D01*
X1904238Y2929839D01*
X1900072Y2934258D01*
X1894738Y2939389D01*
X1886356Y2946704D01*
X1879295Y2951581D01*
X1873656Y2953918D01*
X1869287Y2953867D01*
X1865630Y2953359D01*
X1861159Y2953867D01*
X1856486Y2955239D01*
X1847799Y2959658D01*
X1843176Y2961233D01*
G37*
G36*
X2021789Y2958947D02*
G01*
X2018385Y2958287D01*
X2015998Y2956052D01*
X2014677Y2952546D01*
X2014728Y2948076D01*
X2016252Y2942945D01*
X2019452Y2937408D01*
X2022957Y2932176D01*
X2024227Y2928924D01*
X2023211Y2926842D01*
X2019960Y2925318D01*
X2016810Y2922828D01*
X2014778Y2917494D01*
X2013610Y2908757D01*
X2012950Y2883509D01*
X2011984Y2875483D01*
X2010206Y2871368D01*
X2007565Y2870758D01*
X2005330Y2872638D01*
X2003602Y2876448D01*
X2002434Y2881680D01*
X2001875Y2887929D01*
X2001875Y2894634D01*
X2002485Y2901391D01*
X2003704Y2907741D01*
X2005634Y2913126D01*
X2007057Y2917901D01*
X2006600Y2922727D01*
X2004009Y2928061D01*
X1999234Y2934563D01*
X1995170Y2938780D01*
X1990750Y2942285D01*
X1986229Y2944926D01*
X1981911Y2946704D01*
X1978101Y2947416D01*
X1975002Y2947060D01*
X1972919Y2945587D01*
X1971395Y2940456D01*
X1969160Y2937357D01*
X1965909Y2933903D01*
X1956206Y2925978D01*
X1954174Y2922981D01*
X1954474Y2922422D01*
X1986432Y2922422D01*
X1986788Y2924352D01*
X1987702Y2925724D01*
X1988718Y2926080D01*
X1989531Y2925165D01*
X1989988Y2923235D01*
X1990089Y2920390D01*
X1989785Y2917545D01*
X1989175Y2916123D01*
X1988362Y2916224D01*
X1987346Y2917901D01*
X1986635Y2920187D01*
X1986432Y2922422D01*
X1954474Y2922422D01*
X1955647Y2920238D01*
X1960524Y2916631D01*
X1964029Y2912922D01*
X1966518Y2907639D01*
X1967992Y2901238D01*
X1968500Y2894228D01*
X1967992Y2887014D01*
X1966468Y2880207D01*
X1963978Y2874162D01*
X1960473Y2869438D01*
X1957273Y2865729D01*
X1956409Y2862834D01*
X1958035Y2859887D01*
X1962251Y2856077D01*
X1969820Y2851454D01*
X1977694Y2849575D01*
X1986025Y2850540D01*
X1999640Y2856382D01*
X2003704Y2856738D01*
X2007870Y2855214D01*
X2018233Y2847746D01*
X2022398Y2846324D01*
X2026767Y2847187D01*
X2038705Y2853436D01*
X2043277Y2854299D01*
X2047849Y2852826D01*
X2059228Y2845460D01*
X2063902Y2843784D01*
X2068271Y2843784D01*
X2077262Y2846781D01*
X2082139Y2847136D01*
X2087473Y2846324D01*
X2100224Y2842006D01*
X2105050Y2841802D01*
X2109317Y2843987D01*
X2114245Y2848864D01*
X2117598Y2853690D01*
X2120341Y2859735D01*
X2122170Y2866288D01*
X2123541Y2879140D01*
X2125573Y2885846D01*
X2128621Y2892196D01*
X2132584Y2897632D01*
X2142388Y2908452D01*
X2139543Y2886049D01*
X2138070Y2877261D01*
X2136190Y2869793D01*
X2134108Y2864561D01*
X2132076Y2862224D01*
X2128215Y2858820D01*
X2127707Y2852877D01*
X2130348Y2845968D01*
X2135886Y2839618D01*
X2139797Y2836976D01*
X2143760Y2835402D01*
X2147570Y2834843D01*
X2151278Y2835198D01*
X2154783Y2836519D01*
X2158034Y2838602D01*
X2160981Y2841548D01*
X2163521Y2845206D01*
X2165604Y2849575D01*
X2167178Y2854604D01*
X2168194Y2860192D01*
X2168956Y2872079D01*
X2169922Y2877718D01*
X2171344Y2882595D01*
X2173071Y2886049D01*
X2175306Y2888792D01*
X2176627Y2889453D01*
X2177288Y2887878D01*
X2177440Y2883966D01*
X2177282Y2881934D01*
X2191918Y2881934D01*
X2192172Y2884678D01*
X2192883Y2887065D01*
X2193747Y2888234D01*
X2194509Y2887624D01*
X2194966Y2885490D01*
X2195169Y2881934D01*
X2194966Y2878378D01*
X2194509Y2876245D01*
X2193747Y2875686D01*
X2192883Y2876854D01*
X2192172Y2879242D01*
X2191918Y2881934D01*
X2177282Y2881934D01*
X2177084Y2879394D01*
X2176068Y2872994D01*
X2171141Y2850083D01*
X2170684Y2843530D01*
X2171395Y2838297D01*
X2173376Y2834386D01*
X2176627Y2831744D01*
X2181199Y2830271D01*
X2187143Y2830017D01*
X2201824Y2831693D01*
X2206955Y2831388D01*
X2210358Y2829915D01*
X2212390Y2827070D01*
X2216607Y2822752D01*
X2223160Y2820924D01*
X2229967Y2821686D01*
X2234996Y2825242D01*
X2237028Y2826461D01*
X2240178Y2825851D01*
X2244191Y2823362D01*
X2251195Y2817266D01*
X2302357Y2817266D01*
X2302662Y2819044D01*
X2303729Y2821635D01*
X2305456Y2824835D01*
X2307539Y2827985D01*
X2309571Y2830576D01*
X2311349Y2832303D01*
X2312619Y2832963D01*
X2313127Y2832303D01*
X2312822Y2830576D01*
X2311142Y2826867D01*
X2378506Y2826867D01*
X2379218Y2829306D01*
X2381250Y2831236D01*
X2384348Y2832506D01*
X2388209Y2832963D01*
X2392883Y2832709D01*
X2395016Y2831846D01*
X2394712Y2829966D01*
X2392172Y2826867D01*
X2389682Y2824480D01*
X2386990Y2822498D01*
X2384501Y2821228D01*
X2382520Y2820720D01*
X2380945Y2821228D01*
X2379675Y2822498D01*
X2378811Y2824480D01*
X2378506Y2826867D01*
X2311142Y2826867D01*
X2307945Y2821635D01*
X2305202Y2818333D01*
X2327757Y2818333D01*
X2328976Y2819603D01*
X2331669Y2819908D01*
X2335682Y2819146D01*
X2340660Y2817266D01*
X2346401Y2814167D01*
X2353868Y2809341D01*
X2357323Y2806344D01*
X2356916Y2804820D01*
X2353005Y2804414D01*
X2348738Y2804820D01*
X2344013Y2805988D01*
X2339340Y2807716D01*
X2335377Y2809849D01*
X2330704Y2813354D01*
X2328214Y2816250D01*
X2327757Y2818333D01*
X2305202Y2818333D01*
X2304135Y2817266D01*
X2302865Y2816656D01*
X2302357Y2817266D01*
X2251195Y2817266D01*
X2256637Y2812338D01*
X2262073Y2809290D01*
X2267102Y2809443D01*
X2273300Y2812338D01*
X2276652Y2813608D01*
X2279853Y2813304D01*
X2283053Y2811424D01*
X2289911Y2804261D01*
X2293823Y2802128D01*
X2298344Y2801416D01*
X2308656Y2802890D01*
X2312009Y2802585D01*
X2313990Y2801213D01*
X2315210Y2795066D01*
X2316886Y2791663D01*
X2319578Y2788462D01*
X2323084Y2785668D01*
X2327249Y2783281D01*
X2331923Y2781503D01*
X2337003Y2780334D01*
X2348738Y2779522D01*
X2352852Y2778201D01*
X2355037Y2775661D01*
X2356459Y2767838D01*
X2358491Y2765145D01*
X2361488Y2763723D01*
X2365044Y2763469D01*
X2368905Y2764332D01*
X2372664Y2766415D01*
X2375966Y2769565D01*
X2378506Y2773781D01*
X2379980Y2778150D01*
X2380843Y2782570D01*
X2380996Y2786583D01*
X2380386Y2789580D01*
X2380843Y2795270D01*
X2385263Y2801467D01*
X2391968Y2806446D01*
X2399233Y2808478D01*
X2402484Y2809087D01*
X2405430Y2810814D01*
X2408021Y2813558D01*
X2410256Y2817164D01*
X2412085Y2821482D01*
X2413558Y2826359D01*
X2414625Y2831693D01*
X2415336Y2837281D01*
X2415590Y2843072D01*
X2415387Y2848914D01*
X2414778Y2854604D01*
X2413711Y2860090D01*
X2412187Y2865120D01*
X2410206Y2869692D01*
X2407716Y2873552D01*
X2404770Y2876651D01*
X2399639Y2880563D01*
X2394508Y2884017D01*
X2389327Y2887014D01*
X2384247Y2889554D01*
X2379268Y2891536D01*
X2374493Y2893009D01*
X2369921Y2893872D01*
X2365654Y2894177D01*
X2361946Y2894787D01*
X2358593Y2896514D01*
X2355951Y2899105D01*
X2352548Y2906420D01*
X2350109Y2909163D01*
X2347366Y2910484D01*
X2344470Y2910586D01*
X2341778Y2909417D01*
X2339543Y2907080D01*
X2337968Y2903626D01*
X2337054Y2896260D01*
X2335987Y2892653D01*
X2334361Y2888437D01*
X2332177Y2883712D01*
X2329484Y2878632D01*
X2322931Y2867964D01*
X2312314Y2853232D01*
X2306828Y2846019D01*
X2301676Y2840126D01*
X2319274Y2840126D01*
X2320036Y2842107D01*
X2322068Y2845257D01*
X2325014Y2849168D01*
X2337968Y2863596D01*
X2329306Y2847949D01*
X2345385Y2847949D01*
X2346553Y2851302D01*
X2349195Y2855214D01*
X2351735Y2857957D01*
X2353919Y2859633D01*
X2355494Y2860141D01*
X2356256Y2859278D01*
X2357272Y2851454D01*
X2357729Y2845358D01*
X2357628Y2840939D01*
X2356866Y2838094D01*
X2355494Y2836824D01*
X2353513Y2837129D01*
X2350820Y2838907D01*
X2347468Y2842158D01*
X2345690Y2844952D01*
X2345385Y2847949D01*
X2329306Y2847949D01*
X2325979Y2842463D01*
X2322322Y2837992D01*
X2319985Y2837129D01*
X2319274Y2840126D01*
X2301676Y2840126D01*
X2298852Y2837383D01*
X2295906Y2835503D01*
X2293213Y2834894D01*
X2290572Y2835452D01*
X2287625Y2836824D01*
X2284323Y2841294D01*
X2284679Y2848152D01*
X2288286Y2856077D01*
X2297582Y2866999D01*
X2299208Y2870657D01*
X2299716Y2874518D01*
X2299258Y2878429D01*
X2297988Y2882188D01*
X2296007Y2885643D01*
X2293416Y2888589D01*
X2290368Y2890875D01*
X2286965Y2892348D01*
X2283358Y2892856D01*
X2279599Y2892196D01*
X2272944Y2888742D01*
X2269794Y2888843D01*
X2266340Y2890520D01*
X2262479Y2893822D01*
X2258161Y2897022D01*
X2252522Y2899460D01*
X2246020Y2900984D01*
X2238959Y2901543D01*
X2230069Y2901188D01*
X2225344Y2899257D01*
X2223363Y2894177D01*
X2222398Y2876600D01*
X2221636Y2869438D01*
X2220518Y2863138D01*
X2219045Y2857754D01*
X2217216Y2853334D01*
X2215405Y2850286D01*
X2251049Y2850286D01*
X2251049Y2853385D01*
X2251456Y2856382D01*
X2252370Y2860090D01*
X2253691Y2864002D01*
X2255215Y2867660D01*
X2259177Y2875838D01*
X2259431Y2867660D01*
X2259177Y2864002D01*
X2258314Y2860090D01*
X2256942Y2856382D01*
X2255215Y2853385D01*
X2252878Y2850286D01*
X2251608Y2849270D01*
X2251049Y2850286D01*
X2215405Y2850286D01*
X2212695Y2847390D01*
X2210003Y2846019D01*
X2207107Y2845968D01*
X2205736Y2848559D01*
X2205786Y2854350D01*
X2207158Y2864104D01*
X2208834Y2872028D01*
X2210968Y2878937D01*
X2213254Y2884119D01*
X2215489Y2886760D01*
X2217470Y2888640D01*
X2218029Y2891434D01*
X2217166Y2895295D01*
X2214880Y2900527D01*
X2211527Y2906014D01*
X2207920Y2909011D01*
X2203196Y2909925D01*
X2190496Y2908655D01*
X2184552Y2909112D01*
X2179015Y2910433D01*
X2169210Y2915158D01*
X2163775Y2916275D01*
X2157577Y2916072D01*
X2142337Y2912922D01*
X2136444Y2912719D01*
X2131669Y2913989D01*
X2120341Y2920796D01*
X2113127Y2922524D01*
X2106726Y2921812D01*
X2100173Y2917291D01*
X2096770Y2917342D01*
X2092147Y2918663D01*
X2080006Y2924251D01*
X2074418Y2925876D01*
X2069642Y2926130D01*
X2065782Y2925064D01*
X2062784Y2922625D01*
X2060651Y2918815D01*
X2059330Y2913634D01*
X2058895Y2905963D01*
X2073198Y2905963D01*
X2073503Y2909062D01*
X2074214Y2911602D01*
X2075078Y2912567D01*
X2075738Y2911551D01*
X2076196Y2908757D01*
X2076297Y2904388D01*
X2076043Y2900222D01*
X2075655Y2898241D01*
X2091486Y2898241D01*
X2091689Y2900984D01*
X2092401Y2903372D01*
X2093315Y2904540D01*
X2094077Y2903982D01*
X2094534Y2901848D01*
X2094738Y2898292D01*
X2094534Y2894685D01*
X2094077Y2892552D01*
X2093315Y2891993D01*
X2092401Y2893161D01*
X2091689Y2895549D01*
X2091486Y2898241D01*
X2075655Y2898241D01*
X2075586Y2897886D01*
X2074875Y2897530D01*
X2074011Y2899359D01*
X2073402Y2902559D01*
X2073198Y2905963D01*
X2058895Y2905963D01*
X2058720Y2899003D01*
X2058111Y2891383D01*
X2057146Y2884373D01*
X2055786Y2877870D01*
X2086305Y2877870D01*
X2086660Y2881020D01*
X2087524Y2883611D01*
X2088845Y2885389D01*
X2090470Y2886049D01*
X2091893Y2885389D01*
X2092655Y2883611D01*
X2092807Y2881020D01*
X2092198Y2877870D01*
X2091131Y2874670D01*
X2090013Y2872079D01*
X2088946Y2870352D01*
X2088083Y2869692D01*
X2087372Y2870352D01*
X2086813Y2872079D01*
X2086457Y2874670D01*
X2086305Y2877870D01*
X2055786Y2877870D01*
X2054352Y2872994D01*
X2052624Y2869031D01*
X2050796Y2866491D01*
X2048814Y2865628D01*
X2047189Y2867609D01*
X2046071Y2873095D01*
X2045665Y2881477D01*
X2046224Y2903677D01*
X2045614Y2912872D01*
X2044090Y2919526D01*
X2041753Y2923387D01*
X2039569Y2926181D01*
X2037791Y2930093D01*
X2036572Y2934563D01*
X2035657Y2943606D01*
X2034489Y2948025D01*
X2032762Y2951835D01*
X2030628Y2954578D01*
X2025904Y2957830D01*
G37*
G36*
X1898497Y5084673D02*
G01*
X1898497Y5076139D01*
X1899564Y5072684D01*
X1901494Y5070195D01*
X1903679Y5060340D01*
X1906727Y5056479D01*
X1908098Y5050129D01*
X1911350Y5043119D01*
X1910842Y5037480D01*
X1911897Y5032552D01*
X1928063Y5032552D01*
X1928977Y5034280D01*
X1930044Y5029454D01*
X1930704Y5025034D01*
X1928875Y5022799D01*
X1928114Y5025136D01*
X1928063Y5032552D01*
X1911897Y5032552D01*
X1913280Y5026152D01*
X1913382Y5005374D01*
X1912213Y4996840D01*
X1911756Y4995926D01*
X1910486Y4987493D01*
X1911146Y4976368D01*
X1907997Y4971034D01*
X1906625Y4962144D01*
X1904644Y4959096D01*
X1903018Y4955590D01*
X1902002Y4947970D01*
X1899107Y4942738D01*
X1897380Y4931105D01*
X1895500Y4929022D01*
X1892706Y4920792D01*
X1889455Y4916373D01*
X1888236Y4907838D01*
X1885746Y4903470D01*
X1883308Y4895900D01*
X1880260Y4891176D01*
X1879092Y4886655D01*
X1876145Y4882134D01*
X1874926Y4875123D01*
X1873605Y4872024D01*
X1871014Y4869078D01*
X1869846Y4864658D01*
X1866900Y4860848D01*
X1864766Y4851654D01*
X1863242Y4849622D01*
X1860397Y4841087D01*
X1857806Y4837684D01*
X1855673Y4830165D01*
X1853692Y4827625D01*
X1851152Y4815738D01*
X1848612Y4811217D01*
X1847088Y4803089D01*
X1843887Y4799838D01*
X1842516Y4792624D01*
X1843074Y4788408D01*
X1841804Y4784801D01*
X1840331Y4784090D01*
X1838858Y4779822D01*
X1838858Y4765243D01*
X1837436Y4758791D01*
X1835048Y4754118D01*
X1835001Y4735576D01*
X1853641Y4735576D01*
X1853692Y4742434D01*
X1854962Y4750562D01*
X1857197Y4754321D01*
X1859635Y4769662D01*
X1862226Y4774234D01*
X1864004Y4786579D01*
X1866900Y4791049D01*
X1868424Y4797247D01*
X1868424Y4798822D01*
X1871014Y4802530D01*
X1873504Y4811318D01*
X1875891Y4814824D01*
X1877669Y4822342D01*
X1880565Y4826203D01*
X1882597Y4832654D01*
X1885035Y4835804D01*
X1887372Y4843881D01*
X1888845Y4844542D01*
X1891842Y4852619D01*
X1894839Y4857242D01*
X1896008Y4861712D01*
X1898497Y4865268D01*
X1900631Y4872024D01*
X1903577Y4877460D01*
X1904238Y4881930D01*
X1905609Y4885232D01*
X1907997Y4888331D01*
X1909724Y4895748D01*
X1912772Y4900015D01*
X1914347Y4906314D01*
X1916988Y4909261D01*
X1919274Y4921656D01*
X1921306Y4925110D01*
X1922373Y4929428D01*
X1923592Y4937150D01*
X1926488Y4940808D01*
X1927047Y4943652D01*
X1928063Y4951628D01*
X1930146Y4955133D01*
X1931670Y4964633D01*
X1931873Y5010302D01*
X1931365Y5022037D01*
X1933549Y5022443D01*
X1934159Y5021224D01*
X1935276Y5011572D01*
X1936750Y5007254D01*
X1938324Y5005781D01*
X1939239Y5001056D01*
X1939289Y4977231D01*
X1938172Y4965496D01*
X1936242Y4961483D01*
X1934667Y4949190D01*
X1933651Y4943754D01*
X1931212Y4940249D01*
X1928977Y4927346D01*
X1927606Y4925974D01*
X1926031Y4920792D01*
X1924913Y4912766D01*
X1921967Y4905400D01*
X1920900Y4893056D01*
X1919782Y4885029D01*
X1918817Y4882794D01*
X1916887Y4870297D01*
X1915820Y4851654D01*
X1915210Y4847336D01*
X1913534Y4841798D01*
X1913636Y4832553D01*
X1914956Y4828844D01*
X1916938Y4796739D01*
X1918411Y4792472D01*
X1919833Y4790541D01*
X1921865Y4781753D01*
X1923084Y4778857D01*
X1924862Y4776368D01*
X1926488Y4768951D01*
X1929434Y4765852D01*
X1931263Y4761128D01*
X1933397Y4759909D01*
X1935276Y4755134D01*
X1938426Y4751070D01*
X1940356Y4745786D01*
X1942947Y4743704D01*
X1944624Y4739132D01*
X1952040Y4729784D01*
X1957374Y4726482D01*
X1958695Y4724196D01*
X1963978Y4720945D01*
X1966772Y4718151D01*
X1973681Y4715357D01*
X1976018Y4713173D01*
X1979472Y4711801D01*
X1981504Y4713071D01*
X1983079Y4715052D01*
X1983079Y4720539D01*
X1981606Y4724806D01*
X1979117Y4726178D01*
X1977796Y4731918D01*
X1973884Y4737049D01*
X1972411Y4747209D01*
X1969312Y4753864D01*
X1968195Y4766564D01*
X1968855Y4770983D01*
X1970379Y4771694D01*
X1971903Y4768037D01*
X1975154Y4766056D01*
X1978253Y4761992D01*
X1982317Y4760620D01*
X1983892Y4760620D01*
X1988261Y4757013D01*
X1994001Y4755540D01*
X1998929Y4756099D01*
X2000961Y4758334D01*
X2000961Y4765852D01*
X1999335Y4776876D01*
X1996846Y4786122D01*
X1994814Y4811166D01*
X1992782Y4818278D01*
X1991664Y4836871D01*
X1992223Y4857242D01*
X1995373Y4868672D01*
X1996795Y4885029D01*
X1997557Y4887468D01*
X1999386Y4890312D01*
X2002028Y4904486D01*
X2002840Y4903876D01*
X2003450Y4900422D01*
X2005025Y4881930D01*
X2007514Y4870805D01*
X2008632Y4859070D01*
X2010156Y4853330D01*
X2011578Y4851908D01*
X2012594Y4846066D01*
X2013712Y4835144D01*
X2016760Y4827981D01*
X2018284Y4818126D01*
X2020824Y4814417D01*
X2022805Y4803241D01*
X2024024Y4800447D01*
X2025904Y4797348D01*
X2027478Y4785258D01*
X2030475Y4778197D01*
X2031593Y4768951D01*
X2032711Y4764633D01*
X2034743Y4761128D01*
X2037130Y4749444D01*
X2039213Y4745837D01*
X2040686Y4737455D01*
X2040686Y4735017D01*
X2041753Y4730394D01*
X2044192Y4727194D01*
X2044903Y4720183D01*
X2046427Y4714646D01*
X2048256Y4712157D01*
X2049373Y4706620D01*
X2050440Y4699508D01*
X2052777Y4696104D01*
X2053945Y4691938D01*
X2053996Y4686858D01*
X2055012Y4681321D01*
X2057654Y4676444D01*
X2059635Y4662170D01*
X2062175Y4656632D01*
X2064054Y4638598D01*
X2065680Y4634382D01*
X2067255Y4631283D01*
X2067052Y4602886D01*
X2067814Y4593031D01*
X2066848Y4574286D01*
X2065121Y4571136D01*
X2063699Y4564024D01*
X2063038Y4554778D01*
X2061972Y4550562D01*
X2059686Y4546498D01*
X2058466Y4538116D01*
X2057298Y4534408D01*
X2055469Y4531309D01*
X2053031Y4521758D01*
X2050389Y4517948D01*
X2048256Y4509363D01*
X2046274Y4508093D01*
X2044970Y4504537D01*
X2119071Y4504537D01*
X2121408Y4507534D01*
X2126081Y4507433D01*
X2128113Y4506366D01*
X2133701Y4504486D01*
X2137257Y4500778D01*
X2139848Y4500067D01*
X2141372Y4498543D01*
X2142490Y4496155D01*
X2148738Y4493056D01*
X2150262Y4490415D01*
X2154224Y4488484D01*
X2156155Y4485640D01*
X2159914Y4482236D01*
X2160524Y4479747D01*
X2163521Y4477867D01*
X2165045Y4473549D01*
X2168093Y4471416D01*
X2168144Y4467707D01*
X2168753Y4465015D01*
X2164588Y4462475D01*
X2163419Y4459681D01*
X2160473Y4456785D01*
X2158949Y4452467D01*
X2155952Y4448302D01*
X2154834Y4443018D01*
X2153869Y4440275D01*
X2152700Y4440275D01*
X2148840Y4441647D01*
X2146554Y4452772D01*
X2143709Y4456684D01*
X2142032Y4461713D01*
X2139188Y4464812D01*
X2137968Y4471111D01*
X2135022Y4474108D01*
X2132482Y4481017D01*
X2130958Y4481728D01*
X2127910Y4488281D01*
X2125980Y4489958D01*
X2123186Y4494885D01*
X2119782Y4498289D01*
X2119071Y4504537D01*
X2044970Y4504537D01*
X2043887Y4501692D01*
X2041194Y4498644D01*
X2039670Y4492396D01*
X2034692Y4485792D01*
X2032304Y4486656D01*
X2028545Y4489754D01*
X2024634Y4491431D01*
X2019757Y4491482D01*
X2017522Y4492853D01*
X2014829Y4495901D01*
X2010867Y4497527D01*
X2009546Y4500778D01*
X2005736Y4503724D01*
X2003958Y4506976D01*
X2001418Y4508144D01*
X1999284Y4512513D01*
X1996389Y4514342D01*
X1994865Y4517948D01*
X1992782Y4518761D01*
X1991004Y4522063D01*
X1985010Y4529429D01*
X1982876Y4530699D01*
X1981707Y4533493D01*
X1972919Y4543856D01*
X1972919Y4545177D01*
X1968957Y4548174D01*
X1968347Y4551222D01*
X1964791Y4553762D01*
X1963267Y4558131D01*
X1960930Y4559452D01*
X1959203Y4563110D01*
X1956257Y4565142D01*
X1954580Y4568698D01*
X1951532Y4570831D01*
X1951482Y4571796D01*
X1944116Y4580991D01*
X1942846Y4580991D01*
X1941068Y4584496D01*
X1931822Y4597958D01*
X1930349Y4600448D01*
X1928571Y4602073D01*
X1926539Y4606899D01*
X1923897Y4608982D01*
X1921560Y4614621D01*
X1919427Y4616958D01*
X1917801Y4622952D01*
X1914448Y4626356D01*
X1912670Y4632909D01*
X1909216Y4637125D01*
X1909165Y4639310D01*
X1906676Y4645812D01*
X1905711Y4645812D01*
X1903120Y4656074D01*
X1901037Y4658360D01*
X1900072Y4662779D01*
X1898497Y4672685D01*
X1896668Y4675733D01*
X1895957Y4678019D01*
X1894382Y4694885D01*
X1892909Y4706315D01*
X1892909Y4715865D01*
X1894941Y4732528D01*
X1894941Y4738116D01*
X1896516Y4746091D01*
X1897938Y4748022D01*
X1899412Y4753051D01*
X1900174Y4760112D01*
X1903679Y4766360D01*
X1905203Y4770628D01*
X1904136Y4774184D01*
X1901443Y4778552D01*
X1899107Y4775504D01*
X1893570Y4773574D01*
X1891131Y4770374D01*
X1887016Y4767884D01*
X1873554Y4752695D01*
X1871573Y4751933D01*
X1869541Y4747768D01*
X1865782Y4745634D01*
X1864766Y4743043D01*
X1859534Y4739335D01*
X1855216Y4732883D01*
X1853641Y4735576D01*
X1835001Y4735576D01*
X1834946Y4714036D01*
X1832711Y4704130D01*
X1829663Y4695291D01*
X1828342Y4686858D01*
X1825243Y4683150D01*
X1824583Y4675682D01*
X1820519Y4671009D01*
X1820519Y4665522D01*
X1818843Y4661560D01*
X1817420Y4659528D01*
X1815541Y4649825D01*
X1814830Y4639310D01*
X1814322Y4636668D01*
X1809546Y4634179D01*
X1808480Y4636871D01*
X1809038Y4698593D01*
X1811782Y4703521D01*
X1812798Y4710328D01*
X1812239Y4711344D01*
X1813001Y4722368D01*
X1815490Y4726838D01*
X1817471Y4738420D01*
X1820113Y4745329D01*
X1820570Y4752289D01*
X1822704Y4762195D01*
X1822602Y4771593D01*
X1825142Y4774438D01*
X1826666Y4780838D01*
X1826514Y4788712D01*
X1827682Y4792319D01*
X1830730Y4796485D01*
X1830730Y4809744D01*
X1832457Y4812792D01*
X1834540Y4814824D01*
X1835099Y4837480D01*
X1836724Y4843018D01*
X1837791Y4848606D01*
X1836826Y4854752D01*
X1837385Y4858054D01*
X1834794Y4870958D01*
X1834794Y4893310D01*
X1831543Y4897729D01*
X1830781Y4903520D01*
X1830730Y4910836D01*
X1826615Y4915357D01*
X1826615Y4925110D01*
X1825599Y4929530D01*
X1823110Y4932426D01*
X1820875Y4940503D01*
X1818386Y4943500D01*
X1816404Y4949190D01*
X1812950Y4953101D01*
X1811832Y4957978D01*
X1809699Y4960315D01*
X1806651Y4966817D01*
X1803806Y4969256D01*
X1802587Y4972913D01*
X1799234Y4975301D01*
X1797812Y4978806D01*
X1795119Y4980432D01*
X1792020Y4985156D01*
X1786432Y4985918D01*
X1783842Y4987391D01*
X1783842Y4988356D01*
X1781352Y4990338D01*
X1773021Y4992116D01*
X1769567Y4995773D01*
X1765706Y4996942D01*
X1753006Y4997297D01*
X1745030Y4997043D01*
X1742541Y4993995D01*
X1742541Y4986528D01*
X1744319Y4984699D01*
X1749602Y4977892D01*
X1754276Y4977892D01*
X1756308Y4975453D01*
X1756308Y4974234D01*
X1760372Y4971745D01*
X1762048Y4968595D01*
X1765706Y4966309D01*
X1768449Y4963261D01*
X1771040Y4957013D01*
X1773224Y4956200D01*
X1775206Y4950764D01*
X1778152Y4948885D01*
X1778812Y4943043D01*
X1781200Y4936845D01*
X1782775Y4925517D01*
X1784299Y4921097D01*
X1784350Y4884267D01*
X1781708Y4869586D01*
X1782318Y4859426D01*
X1780235Y4855972D01*
X1778101Y4845507D01*
X1775256Y4839970D01*
X1773529Y4832553D01*
X1771091Y4827930D01*
X1768398Y4814316D01*
X1767484Y4814316D01*
X1763572Y4804156D01*
X1761388Y4801768D01*
X1759762Y4794910D01*
X1756867Y4789322D01*
X1755089Y4777079D01*
X1751685Y4773015D01*
X1751685Y4770729D01*
X1748129Y4765649D01*
X1745691Y4759299D01*
X1743557Y4756556D01*
X1740916Y4748580D01*
X1739392Y4747514D01*
X1737055Y4741164D01*
X1733804Y4736846D01*
X1732584Y4731410D01*
X1729739Y4728210D01*
X1727149Y4722063D01*
X1724812Y4718964D01*
X1723136Y4712665D01*
X1720697Y4709871D01*
X1718462Y4703521D01*
X1715516Y4700625D01*
X1713585Y4696104D01*
X1711452Y4693767D01*
X1709369Y4685334D01*
X1707540Y4683150D01*
X1703374Y4675682D01*
X1701850Y4674158D01*
X1699615Y4667402D01*
X1698701Y4667402D01*
X1696821Y4662779D01*
X1696110Y4658207D01*
X1692706Y4653280D01*
X1691538Y4647692D01*
X1688134Y4643577D01*
X1687423Y4636719D01*
X1686001Y4631029D01*
X1683969Y4628337D01*
X1682394Y4622749D01*
X1682343Y4614621D01*
X1681530Y4609388D01*
X1678838Y4606848D01*
X1677822Y4602276D01*
X1677822Y4593082D01*
X1706727Y4593082D01*
X1707896Y4605274D01*
X1710943Y4612436D01*
X1712569Y4625746D01*
X1715516Y4632858D01*
X1717039Y4644999D01*
X1720037Y4649571D01*
X1720697Y4653534D01*
X1722221Y4659477D01*
X1724660Y4662373D01*
X1726336Y4669586D01*
X1728876Y4674158D01*
X1730248Y4678832D01*
X1730298Y4681626D01*
X1733905Y4686452D01*
X1735531Y4692396D01*
X1737918Y4695545D01*
X1740611Y4703521D01*
X1742490Y4706010D01*
X1744573Y4711903D01*
X1747824Y4716830D01*
X1750110Y4725009D01*
X1752701Y4728616D01*
X1753717Y4733239D01*
X1756867Y4736846D01*
X1758442Y4743653D01*
X1760931Y4746752D01*
X1763674Y4754067D01*
X1765706Y4756810D01*
X1767484Y4762906D01*
X1770583Y4767580D01*
X1771650Y4772660D01*
X1772767Y4776216D01*
X1775104Y4779264D01*
X1776780Y4788357D01*
X1779676Y4792014D01*
X1781606Y4799838D01*
X1784096Y4803089D01*
X1786534Y4811572D01*
X1787753Y4813401D01*
X1789277Y4817110D01*
X1790547Y4825136D01*
X1793392Y4830673D01*
X1795475Y4843475D01*
X1797456Y4846116D01*
X1798523Y4850434D01*
X1799691Y4860340D01*
X1801825Y4865268D01*
X1802739Y4870196D01*
X1803501Y4922672D01*
X1805025Y4926939D01*
X1806244Y4919573D01*
X1807311Y4910480D01*
X1808429Y4907838D01*
X1810308Y4904740D01*
X1811782Y4891786D01*
X1813001Y4870196D01*
X1812493Y4858461D01*
X1810257Y4841443D01*
X1807311Y4830521D01*
X1805330Y4807864D01*
X1802180Y4799838D01*
X1801317Y4786071D01*
X1798218Y4778806D01*
X1797151Y4769561D01*
X1796491Y4759096D01*
X1794002Y4752644D01*
X1793036Y4746752D01*
X1791360Y4730800D01*
X1789988Y4726940D01*
X1788414Y4714036D01*
X1787753Y4677003D01*
X1788972Y4653534D01*
X1790395Y4639970D01*
X1792020Y4629454D01*
X1793900Y4614976D01*
X1796034Y4610608D01*
X1797557Y4603343D01*
X1797608Y4597958D01*
X1799589Y4593945D01*
X1800504Y4593945D01*
X1802231Y4588510D01*
X1805838Y4583836D01*
X1807718Y4578604D01*
X1810257Y4576572D01*
X1811223Y4573270D01*
X1814118Y4569561D01*
X1816506Y4565853D01*
X1823872Y4556556D01*
X1826666Y4552086D01*
X1828342Y4551324D01*
X1830679Y4554016D01*
X1831848Y4558284D01*
X1831136Y4566767D01*
X1829257Y4574540D01*
X1827682Y4579467D01*
X1827631Y4611776D01*
X1829562Y4617110D01*
X1832406Y4634992D01*
X1834845Y4640986D01*
X1836724Y4654600D01*
X1838807Y4656328D01*
X1839823Y4660341D01*
X1840534Y4665878D01*
X1841855Y4669028D01*
X1843430Y4670602D01*
X1845970Y4680762D01*
X1848053Y4683048D01*
X1850136Y4691532D01*
X1852980Y4695494D01*
X1855114Y4701387D01*
X1856130Y4701387D01*
X1859432Y4707229D01*
X1863852Y4713224D01*
X1863852Y4715002D01*
X1867306Y4717491D01*
X1868322Y4721047D01*
X1871065Y4723180D01*
X1873605Y4728006D01*
X1874977Y4726635D01*
X1875332Y4718354D01*
X1874520Y4681169D01*
X1876043Y4667199D01*
X1878990Y4659680D01*
X1880666Y4646117D01*
X1885340Y4634992D01*
X1887728Y4632553D01*
X1889760Y4626762D01*
X1893265Y4622292D01*
X1894484Y4617415D01*
X1897430Y4613706D01*
X1898700Y4608525D01*
X1902561Y4604156D01*
X1902561Y4602683D01*
X1906574Y4598771D01*
X1908098Y4594250D01*
X1911350Y4589932D01*
X1913788Y4585360D01*
X1915820Y4584039D01*
X1917801Y4579315D01*
X1920392Y4577283D01*
X1921814Y4573168D01*
X1924354Y4570780D01*
X1925929Y4567123D01*
X1928672Y4564024D01*
X1931873Y4558487D01*
X1939798Y4548327D01*
X1939798Y4546447D01*
X1943862Y4543348D01*
X1943862Y4541418D01*
X1947925Y4536338D01*
X1947925Y4535373D01*
X1951786Y4530598D01*
X1953869Y4527397D01*
X1967331Y4509871D01*
X1967331Y4508195D01*
X1971344Y4504283D01*
X1972513Y4500067D01*
X1974748Y4498289D01*
X1976983Y4493463D01*
X1981047Y4487519D01*
X1981047Y4486148D01*
X1984197Y4482541D01*
X1986991Y4475124D01*
X1988667Y4473498D01*
X1990801Y4466640D01*
X1993849Y4461459D01*
X1995322Y4449216D01*
X1996846Y4441799D01*
X1996846Y4437837D01*
X1995271Y4430674D01*
X1993392Y4418888D01*
X1991360Y4414621D01*
X1988566Y4403953D01*
X1986178Y4402632D01*
X1981809Y4397857D01*
X1978304Y4396181D01*
X1944624Y4396282D01*
X1928317Y4398365D01*
X1926742Y4400042D01*
X1922018Y4401362D01*
X1902104Y4403242D01*
X1900275Y4404004D01*
X1896211Y4406188D01*
X1887524Y4407509D01*
X1876755Y4408830D01*
X1875180Y4408068D01*
X1868119Y4409236D01*
X1864258Y4412437D01*
X1862124Y4415891D01*
X1859280Y4419600D01*
X1857705Y4425137D01*
X1854504Y4429963D01*
X1853082Y4434941D01*
X1850186Y4438904D01*
X1847951Y4447032D01*
X1846122Y4448606D01*
X1843430Y4457700D01*
X1841093Y4461103D01*
X1838807Y4473498D01*
X1836978Y4476343D01*
X1836318Y4478528D01*
X1834743Y4490567D01*
X1832406Y4494885D01*
X1831289Y4499203D01*
X1830628Y4505401D01*
X1828596Y4511040D01*
X1823567Y4517085D01*
X1821789Y4515764D01*
X1816049Y4504994D01*
X1814830Y4493056D01*
X1812340Y4488637D01*
X1810969Y4480712D01*
X1809699Y4477359D01*
X1804974Y4484827D01*
X1802688Y4489958D01*
X1799793Y4493056D01*
X1798421Y4499203D01*
X1794662Y4503674D01*
X1793443Y4511294D01*
X1790649Y4515256D01*
X1788871Y4522419D01*
X1785975Y4526381D01*
X1784197Y4534154D01*
X1781352Y4538472D01*
X1779219Y4550105D01*
X1776780Y4553305D01*
X1775561Y4564634D01*
X1774596Y4567732D01*
X1772208Y4572050D01*
X1770532Y4581144D01*
X1769008Y4584700D01*
X1768093Y4584700D01*
X1767078Y4591202D01*
X1766519Y4608118D01*
X1765452Y4614011D01*
X1762912Y4621072D01*
X1762506Y4671415D01*
X1761489Y4674514D01*
X1759051Y4677308D01*
X1756410Y4673904D01*
X1754581Y4666488D01*
X1752752Y4663236D01*
X1750110Y4649825D01*
X1747672Y4643628D01*
X1745996Y4631944D01*
X1743608Y4627473D01*
X1742592Y4622647D01*
X1741982Y4615891D01*
X1740865Y4609084D01*
X1739036Y4604664D01*
X1737918Y4594860D01*
X1736953Y4571390D01*
X1735937Y4565243D01*
X1734312Y4559096D01*
X1733924Y4545431D01*
X1749653Y4545431D01*
X1749653Y4555134D01*
X1751177Y4557877D01*
X1752650Y4565853D01*
X1753311Y4587697D01*
X1754530Y4594047D01*
X1756257Y4586224D01*
X1757832Y4574133D01*
X1759356Y4570577D01*
X1759356Y4564989D01*
X1760931Y4550460D01*
X1762455Y4543094D01*
X1763928Y4541113D01*
X1766062Y4530750D01*
X1767535Y4527296D01*
X1768449Y4527296D01*
X1770735Y4515459D01*
X1772970Y4512157D01*
X1773986Y4509719D01*
X1774748Y4503521D01*
X1776323Y4500422D01*
X1777695Y4499457D01*
X1779879Y4490618D01*
X1782318Y4487672D01*
X1784807Y4479442D01*
X1787296Y4477004D01*
X1788566Y4470857D01*
X1792325Y4465878D01*
X1793595Y4460189D01*
X1797557Y4454906D01*
X1797557Y4453280D01*
X1801723Y4449267D01*
X1802942Y4446117D01*
X1805736Y4444492D01*
X1807718Y4439767D01*
X1810969Y4438396D01*
X1814169Y4433925D01*
X1820976Y4440936D01*
X1824126Y4460951D01*
X1825142Y4465523D01*
X1827072Y4466793D01*
X1828038Y4466793D01*
X1828698Y4464761D01*
X1829765Y4448606D01*
X1830679Y4444136D01*
X1832762Y4441901D01*
X1834794Y4433671D01*
X1842566Y4421835D01*
X1843836Y4418228D01*
X1846580Y4415637D01*
X1848815Y4410252D01*
X1852879Y4404360D01*
X1860245Y4395216D01*
X1862074Y4395114D01*
X1864936Y4393895D01*
X2001367Y4393895D01*
X2007311Y4394911D01*
X2009343Y4398822D01*
X2014474Y4400143D01*
X2023821Y4401312D01*
X2030272Y4404461D01*
X2041448Y4405782D01*
X2050643Y4408017D01*
X2059787Y4411929D01*
X2063140Y4415028D01*
X2066696Y4416806D01*
X2079701Y4418025D01*
X2084984Y4417009D01*
X2088692Y4418533D01*
X2091232Y4421428D01*
X2092706Y4424781D01*
X2092706Y4427677D01*
X2090064Y4430674D01*
X2059279Y4430522D01*
X2052167Y4429099D01*
X2047697Y4426051D01*
X2043785Y4424781D01*
X2028952Y4422495D01*
X2026208Y4420311D01*
X2010714Y4418482D01*
X2009597Y4421124D01*
X2011273Y4425137D01*
X2013610Y4428490D01*
X2015185Y4435144D01*
X2017115Y4438091D01*
X2018284Y4443018D01*
X2015794Y4445508D01*
X2014626Y4449216D01*
X2013864Y4465269D01*
X2014270Y4466183D01*
X2019350Y4469333D01*
X2019858Y4471009D01*
X2021433Y4471720D01*
X2035352Y4473651D01*
X2039924Y4474870D01*
X2041652Y4476800D01*
X2053742Y4478426D01*
X2058009Y4479798D01*
X2059279Y4482033D01*
X2061514Y4483455D01*
X2066340Y4483455D01*
X2070303Y4484928D01*
X2072843Y4487773D01*
X2074570Y4488891D01*
X2089861Y4490770D01*
X2094179Y4488688D01*
X2095246Y4487418D01*
X2093772Y4485030D01*
X2083409Y4484827D01*
X2080717Y4484014D01*
X2078634Y4481626D01*
X2068626Y4478629D01*
X2066442Y4476140D01*
X2060498Y4474057D01*
X2058517Y4471720D01*
X2058517Y4469841D01*
X2060956Y4466894D01*
X2065629Y4466031D01*
X2074570Y4467707D01*
X2079701Y4467707D01*
X2082647Y4465320D01*
X2077161Y4463796D01*
X2066442Y4461764D01*
X2064867Y4459325D01*
X2053336Y4456988D01*
X2051151Y4456125D01*
X2047443Y4453178D01*
X2034844Y4451959D01*
X2033168Y4451299D01*
X2029510Y4447844D01*
X2023414Y4446371D01*
X2021281Y4443069D01*
X2021941Y4436872D01*
X2022906Y4434636D01*
X2025294Y4433570D01*
X2031034Y4434484D01*
X2034641Y4438700D01*
X2064918Y4439361D01*
X2068931Y4441545D01*
X2070506Y4443222D01*
X2081225Y4444644D01*
X2091588Y4443526D01*
X2093315Y4441393D01*
X2095500Y4439767D01*
X2099360Y4438954D01*
X2108403Y4429099D01*
X2110994Y4422444D01*
X2112721Y4421276D01*
X2112060Y4420006D01*
X2108250Y4419142D01*
X2105456Y4417415D01*
X2104796Y4414266D01*
X2106676Y4409236D01*
X2108860Y4407509D01*
X2112264Y4406341D01*
X2116328Y4407662D01*
X2123541Y4415129D01*
X2124354Y4416806D01*
X2124913Y4425137D01*
X2123744Y4432046D01*
X2121103Y4434992D01*
X2118715Y4441444D01*
X2116632Y4442764D01*
X2115058Y4447336D01*
X2112213Y4451654D01*
X2110435Y4455972D01*
X2104390Y4463592D01*
X2095093Y4465116D01*
X2097532Y4466742D01*
X2108352Y4466793D01*
X2114854Y4459274D01*
X2121814Y4452315D01*
X2126386Y4449064D01*
X2128266Y4445406D01*
X2131161Y4443933D01*
X2134108Y4436262D01*
X2133092Y4426254D01*
X2133904Y4419600D01*
X2133955Y4411167D01*
X2131822Y4398111D01*
X2127615Y4393031D01*
X2150059Y4393031D01*
X2151938Y4402886D01*
X2153412Y4408779D01*
X2154326Y4408779D01*
X2155952Y4411776D01*
X2157374Y4422495D01*
X2158085Y4425137D01*
X2160574Y4429099D01*
X2162657Y4437481D01*
X2164994Y4440885D01*
X2166874Y4449114D01*
X2171446Y4450740D01*
X2176018Y4450791D01*
X2186736Y4454347D01*
X2195880Y4456277D01*
X2208631Y4455312D01*
X2215286Y4451400D01*
X2223058Y4449978D01*
X2226564Y4446016D01*
X2231745Y4443018D01*
X2233320Y4439056D01*
X2235962Y4436973D01*
X2238552Y4430674D01*
X2241905Y4426915D01*
X2242616Y4417618D01*
X2241550Y4409287D01*
X2237282Y4403547D01*
X2233168Y4401566D01*
X2231085Y4398365D01*
X2225294Y4395317D01*
X2223668Y4392269D01*
X2219502Y4390034D01*
X2217978Y4386376D01*
X2214981Y4383278D01*
X2212110Y4376521D01*
X2238959Y4376521D01*
X2239518Y4381906D01*
X2240635Y4387189D01*
X2243886Y4389069D01*
X2247595Y4393184D01*
X2250440Y4394454D01*
X2269286Y4395012D01*
X2273757Y4394149D01*
X2275840Y4390745D01*
X2280513Y4388307D01*
X2283053Y4385360D01*
X2286863Y4383481D01*
X2291384Y4383481D01*
X2293569Y4380077D01*
X2297226Y4376978D01*
X2298547Y4370832D01*
X2295804Y4367428D01*
X2273757Y4366615D01*
X2255164Y4369917D01*
X2248916Y4373473D01*
X2244801Y4374794D01*
X2240127Y4374845D01*
X2238959Y4376521D01*
X2212110Y4376521D01*
X2211984Y4376216D01*
X2207107Y4372813D01*
X2204313Y4369409D01*
X2198420Y4368546D01*
X2194356Y4366818D01*
X2190699Y4366818D01*
X2186228Y4364431D01*
X2180996Y4363618D01*
X2174494Y4365091D01*
X2166518Y4368241D01*
X2159812Y4375454D01*
X2158441Y4375454D01*
X2155850Y4380433D01*
X2153615Y4381703D01*
X2150059Y4393031D01*
X2127615Y4393031D01*
X2126437Y4391609D01*
X2121763Y4389069D01*
X2121763Y4387951D01*
X2116632Y4384141D01*
X2114346Y4385157D01*
X2107438Y4386681D01*
X2103424Y4390745D01*
X2095500Y4391609D01*
X2065426Y4391507D01*
X2040280Y4389475D01*
X2030272Y4390948D01*
X2024989Y4392168D01*
X2001774Y4392472D01*
X2001367Y4393895D01*
X1864936Y4393895D01*
X1865985Y4393438D01*
X1867458Y4390898D01*
X1872742Y4389120D01*
X1877872Y4388307D01*
X1879600Y4387697D01*
X1878533Y4384903D01*
X1868474Y4381500D01*
X1850898Y4380382D01*
X1838096Y4381601D01*
X1835048Y4382770D01*
X1824837Y4385259D01*
X1818284Y4386630D01*
X1814880Y4390237D01*
X1806803Y4392168D01*
X1803095Y4395774D01*
X1797812Y4397603D01*
X1784096Y4414469D01*
X1777949Y4421682D01*
X1772107Y4429810D01*
X1770481Y4436618D01*
X1767433Y4440834D01*
X1765503Y4448454D01*
X1762810Y4451858D01*
X1760829Y4460951D01*
X1758797Y4464354D01*
X1757832Y4470806D01*
X1756765Y4486249D01*
X1755343Y4492396D01*
X1753666Y4497984D01*
X1752752Y4518355D01*
X1751685Y4534408D01*
X1749653Y4545431D01*
X1733924Y4545431D01*
X1733245Y4523282D01*
X1734464Y4509211D01*
X1736953Y4504639D01*
X1737563Y4498289D01*
X1736343Y4496460D01*
X1729790Y4504385D01*
X1729790Y4505604D01*
X1725879Y4509312D01*
X1724660Y4514240D01*
X1721154Y4519371D01*
X1719935Y4524248D01*
X1717700Y4526991D01*
X1716074Y4532528D01*
X1715516Y4537049D01*
X1712417Y4541672D01*
X1710994Y4551883D01*
X1708454Y4558487D01*
X1707337Y4564024D01*
X1706727Y4593082D01*
X1677822Y4593082D01*
X1677822Y4586732D01*
X1679244Y4580890D01*
X1682038Y4576013D01*
X1682800Y4550460D01*
X1684426Y4544364D01*
X1685798Y4541824D01*
X1687068Y4537202D01*
X1686102Y4535170D01*
X1653082Y4535220D01*
X1648206Y4534560D01*
X1645107Y4531410D01*
X1637385Y4529175D01*
X1633677Y4526229D01*
X1629308Y4523486D01*
X1626209Y4515510D01*
X1623314Y4512005D01*
X1621739Y4503978D01*
X1616811Y4500118D01*
X1612188Y4500118D01*
X1610969Y4498340D01*
X1604010Y4495139D01*
X1602232Y4492752D01*
X1597660Y4489500D01*
X1590141Y4480763D01*
X1579676Y4481068D01*
X1575308Y4484573D01*
X1570532Y4485944D01*
X1538427Y4485640D01*
X1535836Y4483912D01*
X1533804Y4481728D01*
X1527759Y4479594D01*
X1524812Y4476038D01*
X1524101Y4476038D01*
X1518513Y4471517D01*
X1517243Y4469993D01*
X1511706Y4468012D01*
X1505762Y4461916D01*
X1497584Y4452010D01*
X1493469Y4452010D01*
X1488440Y4453991D01*
X1486408Y4456176D01*
X1480667Y4459427D01*
X1480108Y4461154D01*
X1475740Y4461967D01*
X1465986Y4460748D01*
X1461109Y4461865D01*
X1456334Y4460443D01*
X1452778Y4457242D01*
X1444091Y4447590D01*
X1440383Y4445203D01*
X1439722Y4442663D01*
X1435658Y4439615D01*
X1434541Y4436567D01*
X1431239Y4434230D01*
X1429410Y4430420D01*
X1426514Y4428998D01*
X1425448Y4426661D01*
X1421384Y4423562D01*
X1420215Y4420412D01*
X1417370Y4418634D01*
X1415745Y4414774D01*
X1411986Y4410100D01*
X1407414Y4403750D01*
X1404518Y4400448D01*
X1401927Y4395520D01*
X1389989Y4381652D01*
X1387805Y4375556D01*
X1385417Y4374845D01*
X1380845Y4368952D01*
X1379067Y4362196D01*
X1376070Y4358436D01*
X1374495Y4351883D01*
X1369212Y4344009D01*
X1366875Y4343958D01*
X1366875Y4315866D01*
X1385773Y4315866D01*
X1385773Y4321454D01*
X1387043Y4326483D01*
X1389837Y4329430D01*
X1391767Y4337862D01*
X1393799Y4340555D01*
X1395323Y4344263D01*
X1396441Y4349191D01*
X1398727Y4350461D01*
X1400810Y4355744D01*
X1403350Y4357268D01*
X1404874Y4361180D01*
X1408938Y4365904D01*
X1415084Y4375099D01*
X1417777Y4378198D01*
X1419656Y4381906D01*
X1421434Y4383532D01*
X1423416Y4388205D01*
X1427022Y4391558D01*
X1427022Y4393133D01*
X1431391Y4398213D01*
X1440789Y4411268D01*
X1442770Y4415891D01*
X1445260Y4417568D01*
X1446631Y4420819D01*
X1449476Y4423714D01*
X1450949Y4427931D01*
X1453489Y4429099D01*
X1455318Y4432554D01*
X1460449Y4438853D01*
X1464259Y4440326D01*
X1465732Y4442866D01*
X1472641Y4443476D01*
X1477264Y4439666D01*
X1478889Y4439615D01*
X1482344Y4437888D01*
X1482658Y4437481D01*
X1504594Y4437481D01*
X1510588Y4444542D01*
X1514449Y4446930D01*
X1515618Y4449267D01*
X1521612Y4450994D01*
X1524812Y4455007D01*
X1531670Y4456379D01*
X1534820Y4458309D01*
X1536395Y4459935D01*
X1545336Y4462475D01*
X1549095Y4464812D01*
X1553210Y4465523D01*
X1558798Y4463034D01*
X1566418Y4460392D01*
X1566824Y4459884D01*
X1602790Y4459884D01*
X1604772Y4461205D01*
X1607362Y4467707D01*
X1611680Y4472990D01*
X1617014Y4472990D01*
X1618284Y4471111D01*
X1619097Y4461357D01*
X1619097Y4457192D01*
X1634744Y4457192D01*
X1634744Y4471416D01*
X1637944Y4480712D01*
X1638655Y4489246D01*
X1639620Y4492396D01*
X1642008Y4495495D01*
X1643176Y4499965D01*
X1644954Y4501794D01*
X1648256Y4503369D01*
X1648256Y4504436D01*
X1649120Y4504436D01*
X1650288Y4501286D01*
X1653844Y4499508D01*
X1656334Y4494682D01*
X1658518Y4493818D01*
X1660093Y4489348D01*
X1663750Y4482642D01*
X1663821Y4481830D01*
X1680870Y4481830D01*
X1682953Y4484573D01*
X1684680Y4488738D01*
X1701393Y4490872D01*
X1705762Y4493209D01*
X1707388Y4496968D01*
X1707388Y4499559D01*
X1704848Y4502607D01*
X1698752Y4502607D01*
X1696110Y4503826D01*
X1693875Y4506976D01*
X1685391Y4509058D01*
X1685239Y4510328D01*
X1688236Y4511090D01*
X1692859Y4511090D01*
X1699971Y4510024D01*
X1706778Y4506315D01*
X1708454Y4506315D01*
X1712925Y4500727D01*
X1713890Y4500727D01*
X1723085Y4489754D01*
X1725726Y4487621D01*
X1725066Y4485030D01*
X1723186Y4481779D01*
X1717293Y4480407D01*
X1703019Y4479696D01*
X1697939Y4478375D01*
X1694383Y4475937D01*
X1689252Y4473498D01*
X1686052Y4468977D01*
X1684223Y4470298D01*
X1683461Y4474667D01*
X1680870Y4481830D01*
X1663821Y4481830D01*
X1664462Y4474362D01*
X1665630Y4469180D01*
X1667764Y4466640D01*
X1668525Y4462170D01*
X1669288Y4452315D01*
X1672640Y4439970D01*
X1674266Y4432909D01*
X1675596Y4431995D01*
X1679600Y4431995D01*
X1682750Y4432757D01*
X1684426Y4437024D01*
X1684426Y4444034D01*
X1687626Y4446117D01*
X1690471Y4448911D01*
X1696415Y4450384D01*
X1713230Y4450384D01*
X1718564Y4448759D01*
X1718564Y4447743D01*
X1722932Y4445914D01*
X1731873Y4444746D01*
X1736598Y4445812D01*
X1738477Y4447844D01*
X1738477Y4449165D01*
X1734108Y4454245D01*
X1732584Y4456988D01*
X1726641Y4458716D01*
X1726133Y4459274D01*
X1726742Y4461560D01*
X1733600Y4466031D01*
X1736445Y4466844D01*
X1738477Y4462780D01*
X1738477Y4461865D01*
X1741271Y4460138D01*
X1743049Y4452569D01*
X1745945Y4448962D01*
X1748180Y4436719D01*
X1750669Y4434128D01*
X1751279Y4431131D01*
X1750415Y4425950D01*
X1741779Y4425188D01*
X1713738Y4425137D01*
X1708505Y4428490D01*
X1699666Y4429810D01*
X1685188Y4430420D01*
X1679600Y4431995D01*
X1675596Y4431995D01*
X1675892Y4431792D01*
X1671218Y4430369D01*
X1664309Y4430471D01*
X1656384Y4431436D01*
X1654454Y4433570D01*
X1648206Y4435906D01*
X1646174Y4437227D01*
X1638554Y4447286D01*
X1637030Y4453636D01*
X1634744Y4457192D01*
X1619097Y4457192D01*
X1619097Y4431944D01*
X1617065Y4427931D01*
X1616710Y4427931D01*
X1613662Y4434433D01*
X1611071Y4437329D01*
X1610410Y4440936D01*
X1607007Y4446320D01*
X1603400Y4455769D01*
X1602790Y4459884D01*
X1566824Y4459884D01*
X1569618Y4456328D01*
X1571091Y4456328D01*
X1590497Y4431944D01*
X1591665Y4428236D01*
X1594510Y4426254D01*
X1596440Y4418584D01*
X1598777Y4415536D01*
X1600352Y4407509D01*
X1601927Y4404156D01*
X1604365Y4400042D01*
X1605483Y4393336D01*
X1607820Y4389932D01*
X1608937Y4387392D01*
X1608074Y4379214D01*
X1606001Y4375759D01*
X1625600Y4375759D01*
X1628444Y4385462D01*
X1629410Y4399737D01*
X1630324Y4403852D01*
X1632966Y4407611D01*
X1632966Y4409186D01*
X1635302Y4411878D01*
X1635760Y4411624D01*
X1640128Y4411167D01*
X1641093Y4408474D01*
X1642160Y4403191D01*
X1642414Y4402886D01*
X1666087Y4402886D01*
X1666087Y4408525D01*
X1667510Y4410913D01*
X1675028Y4411116D01*
X1686509Y4410049D01*
X1692859Y4408017D01*
X1706067Y4406341D01*
X1719325Y4404918D01*
X1745843Y4405782D01*
X1763674Y4406696D01*
X1768500Y4404207D01*
X1769059Y4402074D01*
X1773631Y4399381D01*
X1774139Y4398365D01*
X1772970Y4395216D01*
X1764284Y4395216D01*
X1760118Y4392879D01*
X1751939Y4392117D01*
X1748332Y4390898D01*
X1747012Y4387951D01*
X1747723Y4385310D01*
X1749552Y4384141D01*
X1769313Y4378655D01*
X1780387Y4377334D01*
X1786636Y4373422D01*
X1788363Y4370832D01*
X1788414Y4364532D01*
X1786636Y4362653D01*
X1783740Y4361789D01*
X1780997Y4359351D01*
X1771243Y4357522D01*
X1769059Y4355033D01*
X1769059Y4352747D01*
X1772412Y4346803D01*
X1775155Y4345889D01*
X1788668Y4344517D01*
X1797304Y4342688D01*
X1810054Y4342536D01*
X1826361Y4343450D01*
X1836572Y4340910D01*
X1847799Y4339590D01*
X1852523Y4339437D01*
X1857298Y4342841D01*
X1855368Y4345482D01*
X1853692Y4350054D01*
X1850847Y4351832D01*
X1845767Y4352645D01*
X1833168Y4353763D01*
X1831339Y4355795D01*
X1826818Y4357420D01*
X1817725Y4358233D01*
X1813864Y4358894D01*
X1810867Y4361942D01*
X1804822Y4364888D01*
X1801774Y4368342D01*
X1799082Y4370628D01*
X1800250Y4372356D01*
X1806498Y4372356D01*
X1812086Y4369104D01*
X1840128Y4367377D01*
X1849831Y4368190D01*
X1872742Y4368495D01*
X1878380Y4370578D01*
X1884375Y4372406D01*
X1887423Y4374337D01*
X1890826Y4378807D01*
X1891944Y4382160D01*
X1898751Y4383176D01*
X1922729Y4382973D01*
X1928825Y4381652D01*
X1943760Y4379163D01*
X1966925Y4377893D01*
X1970836Y4376826D01*
X1973884Y4373676D01*
X1981403Y4372864D01*
X1995170Y4373270D01*
X2001723Y4377385D01*
X2014982Y4378096D01*
X2020658Y4376470D01*
X2124405Y4376470D01*
X2126081Y4378909D01*
X2130806Y4382922D01*
X2131364Y4381855D01*
X2132584Y4373270D01*
X2133854Y4370171D01*
X2143912Y4357827D01*
X2150313Y4351426D01*
X2154123Y4350004D01*
X2157984Y4345178D01*
X2159355Y4345178D01*
X2169922Y4343958D01*
X2172106Y4343349D01*
X2173732Y4337608D01*
X2171700Y4332528D01*
X2169617Y4329379D01*
X2167991Y4320794D01*
X2165502Y4315663D01*
X2164537Y4311548D01*
X2163724Y4297984D01*
X2160422Y4290212D01*
X2159558Y4281474D01*
X2158441Y4280103D01*
X2154123Y4280458D01*
X2152345Y4281068D01*
X2149398Y4287672D01*
X2150668Y4289348D01*
X2151888Y4293666D01*
X2152446Y4312818D01*
X2151176Y4325569D01*
X2148179Y4329684D01*
X2147214Y4333748D01*
X2147214Y4337253D01*
X2143150Y4342130D01*
X2142591Y4345482D01*
X2140610Y4350766D01*
X2139645Y4350766D01*
X2137105Y4357268D01*
X2134920Y4359656D01*
X2133244Y4363923D01*
X2125472Y4373270D01*
X2124405Y4376470D01*
X2020658Y4376470D01*
X2022602Y4374286D01*
X2029968Y4371797D01*
X2031288Y4370882D01*
X2033066Y4368139D01*
X2038197Y4366818D01*
X2053285Y4366818D01*
X2069490Y4368088D01*
X2075129Y4369358D01*
X2088337Y4368038D01*
X2094484Y4366971D01*
X2097278Y4365599D01*
X2097278Y4364888D01*
X2093722Y4363110D01*
X2090623Y4363110D01*
X2086864Y4361180D01*
X2085086Y4358843D01*
X2079701Y4358081D01*
X2046579Y4358487D01*
X2035860Y4363008D01*
X2026767Y4364329D01*
X2021027Y4367936D01*
X1979777Y4367580D01*
X1960676Y4369866D01*
X1957882Y4370679D01*
X1950212Y4373727D01*
X1928317Y4374591D01*
X1897735Y4374489D01*
X1894535Y4372406D01*
X1894027Y4370832D01*
X1894941Y4368749D01*
X1901799Y4363262D01*
X1903831Y4362043D01*
X1910994Y4360468D01*
X1914652Y4357522D01*
X1918106Y4356201D01*
X1953310Y4355134D01*
X1964994Y4353864D01*
X1971141Y4352544D01*
X1986737Y4352544D01*
X1993138Y4350766D01*
X2010867Y4349546D01*
X2014982Y4348175D01*
X2026666Y4346498D01*
X2033320Y4345279D01*
X2044547Y4344466D01*
X2060346Y4342130D01*
X2069896Y4342130D01*
X2079193Y4343400D01*
X2085136Y4344670D01*
X2102967Y4344568D01*
X2104847Y4343349D01*
X2105507Y4340758D01*
X2109266Y4338878D01*
X2120290Y4339031D01*
X2121103Y4339640D01*
X2126335Y4337761D01*
X2126335Y4336592D01*
X2131822Y4329125D01*
X2133346Y4325112D01*
X2133904Y4320641D01*
X2131364Y4319270D01*
X2125065Y4319270D01*
X2118360Y4320489D01*
X2113635Y4323638D01*
X2103628Y4324959D01*
X2083257Y4324248D01*
X2078177Y4322572D01*
X2074570Y4320235D01*
X2063394Y4320286D01*
X2058263Y4322927D01*
X2053691Y4324197D01*
X2034489Y4325010D01*
X2032050Y4321454D01*
X2032050Y4320540D01*
X2036267Y4315866D01*
X2037892Y4313682D01*
X2041448Y4312513D01*
X2056434Y4310583D01*
X2058263Y4309821D01*
X2061057Y4307027D01*
X2068474Y4305503D01*
X2093975Y4306925D01*
X2098040Y4308144D01*
X2107387Y4308144D01*
X2110282Y4306824D01*
X2124557Y4305096D01*
X2131161Y4305046D01*
X2132533Y4303979D01*
X2133396Y4298594D01*
X2132279Y4293057D01*
X2131364Y4291634D01*
X2122830Y4288383D01*
X2122170Y4287164D01*
X2117953Y4287164D01*
X2101392Y4284675D01*
X2098344Y4281576D01*
X2093645Y4279900D01*
X2170684Y4279900D01*
X2170684Y4289348D01*
X2171598Y4294174D01*
X2173325Y4295343D01*
X2174748Y4299458D01*
X2175408Y4310176D01*
X2178761Y4314190D01*
X2180437Y4321759D01*
X2182418Y4323029D01*
X2185060Y4328160D01*
X2190800Y4334408D01*
X2195017Y4339640D01*
X2196592Y4339640D01*
X2199487Y4343857D01*
X2207107Y4345787D01*
X2211222Y4348276D01*
X2213711Y4348378D01*
X2219452Y4347514D01*
X2226259Y4349597D01*
X2241753Y4351477D01*
X2250440Y4351782D01*
X2280005Y4350054D01*
X2291181Y4348784D01*
X2295144Y4346346D01*
X2300376Y4346651D01*
X2306015Y4345228D01*
X2310841Y4344517D01*
X2319528Y4334052D01*
X2321458Y4328668D01*
X2323439Y4326991D01*
X2325065Y4323283D01*
X2334514Y4312005D01*
X2337714Y4310075D01*
X2339390Y4306925D01*
X2342438Y4305046D01*
X2344470Y4300220D01*
X2346553Y4299407D01*
X2347620Y4296105D01*
X2349195Y4288739D01*
X2349804Y4287469D01*
X2349500Y4283760D01*
X2346909Y4274362D01*
X2342083Y4268368D01*
X2337866Y4263796D01*
X2334006Y4262932D01*
X2331466Y4261358D01*
X2329535Y4258767D01*
X2324760Y4257040D01*
X2319528Y4253839D01*
X2309063Y4252620D01*
X2300173Y4251299D01*
X2295550Y4253788D01*
X2295550Y4256379D01*
X2293010Y4271060D01*
X2290572Y4277004D01*
X2288286Y4284014D01*
X2285898Y4285945D01*
X2284323Y4293971D01*
X2280767Y4298543D01*
X2280716Y4301083D01*
X2278837Y4306163D01*
X2277364Y4307230D01*
X2274620Y4312513D01*
X2272842Y4313224D01*
X2268778Y4318711D01*
X2262886Y4320540D01*
X2259634Y4322978D01*
X2252980Y4322978D01*
X2249830Y4320641D01*
X2244344Y4319320D01*
X2236216Y4318508D01*
X2231745Y4316882D01*
X2230018Y4315002D01*
X2221026Y4312412D01*
X2218232Y4308754D01*
X2214372Y4307433D01*
X2211171Y4303420D01*
X2205278Y4300575D01*
X2204313Y4298340D01*
X2198674Y4296206D01*
X2195626Y4292092D01*
X2192223Y4290415D01*
X2190292Y4287469D01*
X2187600Y4285335D01*
X2183180Y4279646D01*
X2181606Y4276242D01*
X2176373Y4269079D01*
X2174240Y4274159D01*
X2171293Y4275988D01*
X2170684Y4279900D01*
X2093645Y4279900D01*
X2093214Y4279747D01*
X2090420Y4275277D01*
X2087118Y4273600D01*
X2084933Y4270044D01*
X2078837Y4268470D01*
X2060346Y4269282D01*
X2052828Y4270502D01*
X2042972Y4268520D01*
X2009343Y4267657D01*
X2004263Y4264863D01*
X1997303Y4263085D01*
X1993036Y4263898D01*
X1991004Y4265117D01*
X1989277Y4267860D01*
X1983181Y4270603D01*
X1980946Y4273550D01*
X1973325Y4275582D01*
X1971649Y4277766D01*
X1969211Y4279290D01*
X1960981Y4281678D01*
X1958797Y4284116D01*
X1948688Y4286554D01*
X1946148Y4288840D01*
X1943912Y4290263D01*
X1935022Y4292142D01*
X1928317Y4295698D01*
X1915566Y4297730D01*
X1911908Y4300778D01*
X1908454Y4301998D01*
X1900174Y4301998D01*
X1895348Y4300220D01*
X1893620Y4298340D01*
X1883613Y4295241D01*
X1879752Y4292041D01*
X1871827Y4289602D01*
X1869693Y4287469D01*
X1863242Y4283811D01*
X1861667Y4280052D01*
X1860499Y4270298D01*
X1855419Y4268520D01*
X1821789Y4269130D01*
X1814118Y4270603D01*
X1804111Y4273550D01*
X1782013Y4275632D01*
X1778101Y4278630D01*
X1767789Y4279900D01*
X1743303Y4279188D01*
X1733042Y4277360D01*
X1730044Y4275886D01*
X1706067Y4275683D01*
X1705000Y4274870D01*
X1690624Y4275886D01*
X1688033Y4279595D01*
X1684985Y4280357D01*
X1679498Y4287113D01*
X1681530Y4298594D01*
X1681530Y4310329D01*
X1679905Y4365244D01*
X1678990Y4371035D01*
X1677263Y4374184D01*
X1676400Y4374184D01*
X1675638Y4376369D01*
X1674266Y4384243D01*
X1671878Y4388104D01*
X1670304Y4393031D01*
X1669643Y4397502D01*
X1666087Y4402886D01*
X1642414Y4402886D01*
X1645716Y4398924D01*
X1645716Y4396994D01*
X1647799Y4392422D01*
X1650238Y4388256D01*
X1650898Y4383786D01*
X1654251Y4375150D01*
X1655927Y4365345D01*
X1658975Y4359605D01*
X1659178Y4335018D01*
X1655521Y4326991D01*
X1654251Y4320489D01*
X1653286Y4319778D01*
X1648764Y4320590D01*
X1644192Y4332528D01*
X1643125Y4342942D01*
X1643125Y4353509D01*
X1642059Y4358132D01*
X1639824Y4361180D01*
X1634286Y4358436D01*
X1632508Y4354118D01*
X1631594Y4343044D01*
X1632407Y4324807D01*
X1633423Y4320184D01*
X1636014Y4315968D01*
X1636572Y4311548D01*
X1637588Y4306925D01*
X1640535Y4305096D01*
X1641703Y4300677D01*
X1643786Y4298340D01*
X1643176Y4296410D01*
X1639722Y4296410D01*
X1638350Y4298391D01*
X1637233Y4301083D01*
X1634540Y4302607D01*
X1632915Y4308602D01*
X1629918Y4312666D01*
X1629359Y4316476D01*
X1628394Y4328972D01*
X1627327Y4332325D01*
X1627327Y4337202D01*
X1625803Y4341622D01*
X1625600Y4375759D01*
X1606001Y4375759D01*
X1604975Y4368342D01*
X1604365Y4341774D01*
X1603400Y4335627D01*
X1601724Y4331919D01*
X1598676Y4328922D01*
X1594002Y4328058D01*
X1592732Y4330090D01*
X1590903Y4334408D01*
X1588719Y4337710D01*
X1586992Y4347057D01*
X1584502Y4349038D01*
X1582877Y4355998D01*
X1581759Y4357674D01*
X1579524Y4358690D01*
X1577797Y4363110D01*
X1576984Y4363110D01*
X1572310Y4368444D01*
X1568297Y4369917D01*
X1564132Y4374083D01*
X1561033Y4374946D01*
X1558798Y4378655D01*
X1553210Y4381703D01*
X1550619Y4384598D01*
X1544726Y4387088D01*
X1542694Y4390186D01*
X1538935Y4391050D01*
X1535531Y4392777D01*
X1533296Y4395825D01*
X1529232Y4397451D01*
X1526997Y4403140D01*
X1525016Y4403852D01*
X1522730Y4411218D01*
X1519377Y4414316D01*
X1518666Y4417110D01*
X1508861Y4429607D01*
X1506626Y4430420D01*
X1505407Y4432249D01*
X1504594Y4437481D01*
X1482658Y4437481D01*
X1484833Y4434687D01*
X1488846Y4433214D01*
X1490878Y4429099D01*
X1493774Y4427321D01*
X1495602Y4423511D01*
X1498752Y4421276D01*
X1499362Y4417466D01*
X1502867Y4412792D01*
X1505051Y4407560D01*
X1507540Y4405579D01*
X1508709Y4401058D01*
X1511503Y4397349D01*
X1514195Y4391660D01*
X1516329Y4389323D01*
X1518767Y4383532D01*
X1520596Y4381906D01*
X1522323Y4378655D01*
X1525219Y4377080D01*
X1526895Y4373575D01*
X1530146Y4371441D01*
X1532280Y4368546D01*
X1537258Y4365447D01*
X1539951Y4362450D01*
X1543862Y4361027D01*
X1545945Y4357573D01*
X1551381Y4354474D01*
X1555089Y4349496D01*
X1557375Y4348784D01*
X1558544Y4345787D01*
X1562150Y4343196D01*
X1564030Y4338726D01*
X1566316Y4336237D01*
X1568704Y4330496D01*
X1571955Y4327448D01*
X1572768Y4321454D01*
X1572818Y4304639D01*
X1571650Y4300423D01*
X1567688Y4295190D01*
X1566773Y4292295D01*
X1563878Y4291533D01*
X1557629Y4286148D01*
X1545031Y4284624D01*
X1537258Y4285996D01*
X1534058Y4287113D01*
X1530959Y4290263D01*
X1525168Y4292295D01*
X1521510Y4297070D01*
X1519885Y4297070D01*
X1515465Y4301540D01*
X1511249Y4303826D01*
X1509572Y4306976D01*
X1505610Y4308856D01*
X1503934Y4311954D01*
X1498142Y4315053D01*
X1495501Y4318050D01*
X1488236Y4320489D01*
X1484376Y4322876D01*
X1478788Y4323638D01*
X1472031Y4322470D01*
X1466545Y4319371D01*
X1459484Y4318508D01*
X1457147Y4317238D01*
X1456588Y4315256D01*
X1452118Y4313021D01*
X1446784Y4307230D01*
X1433779Y4291177D01*
X1429156Y4286351D01*
X1424736Y4284980D01*
X1407820Y4285183D01*
X1405382Y4286046D01*
X1390751Y4302912D01*
X1389380Y4306011D01*
X1386433Y4309313D01*
X1385773Y4315866D01*
X1366875Y4315866D01*
X1366875Y4289653D01*
X1369415Y4289653D01*
X1377391Y4281170D01*
X1382166Y4274718D01*
X1387348Y4269740D01*
X1389430Y4264660D01*
X1395831Y4256430D01*
X1401521Y4254246D01*
X1406245Y4248404D01*
X1404264Y4247642D01*
X1403096Y4244898D01*
X1401470Y4236872D01*
X1399641Y4234383D01*
X1398320Y4229455D01*
X1398117Y4205986D01*
X1398984Y4188104D01*
X1427327Y4188104D01*
X1427327Y4227576D01*
X1428699Y4234942D01*
X1431137Y4239412D01*
X1432661Y4249064D01*
X1435658Y4253230D01*
X1437335Y4260342D01*
X1440129Y4263999D01*
X1442466Y4270806D01*
X1444294Y4273296D01*
X1445818Y4277614D01*
X1449019Y4281932D01*
X1452016Y4288231D01*
X1454404Y4289501D01*
X1456029Y4293717D01*
X1458671Y4295444D01*
X1460703Y4299407D01*
X1463090Y4300118D01*
X1467358Y4304995D01*
X1470101Y4305655D01*
X1483004Y4307535D01*
X1483868Y4307433D01*
X1486408Y4306468D01*
X1492453Y4304842D01*
X1495298Y4301439D01*
X1502410Y4298696D01*
X1503426Y4295952D01*
X1508506Y4293870D01*
X1510131Y4290872D01*
X1514449Y4287621D01*
X1516583Y4284726D01*
X1521104Y4282389D01*
X1522476Y4279239D01*
X1527454Y4276750D01*
X1528064Y4274769D01*
X1530858Y4273042D01*
X1539951Y4271060D01*
X1543507Y4269028D01*
X1548231Y4268114D01*
X1552365Y4264964D01*
X1567738Y4264964D01*
X1579930Y4279849D01*
X1579930Y4281576D01*
X1582064Y4282948D01*
X1584604Y4289806D01*
X1587398Y4293057D01*
X1588160Y4303369D01*
X1589176Y4305706D01*
X1590497Y4305706D01*
X1594256Y4308754D01*
X1594459Y4308551D01*
X1597914Y4308043D01*
X1603095Y4303776D01*
X1606042Y4297375D01*
X1608393Y4294581D01*
X1644091Y4294581D01*
X1644599Y4296105D01*
X1644548Y4292396D01*
X1644091Y4294581D01*
X1608393Y4294581D01*
X1610055Y4288536D01*
X1612646Y4285132D01*
X1614728Y4280306D01*
X1617624Y4277715D01*
X1618132Y4276039D01*
X1617065Y4273296D01*
X1613458Y4270451D01*
X1608734Y4269333D01*
X1593900Y4268571D01*
X1586941Y4266844D01*
X1584706Y4265066D01*
X1577136Y4263796D01*
X1570888Y4262983D01*
X1567738Y4264964D01*
X1552498Y4264863D01*
X1554073Y4260342D01*
X1553464Y4254144D01*
X1550416Y4251045D01*
X1549400Y4247642D01*
X1545945Y4245660D01*
X1544218Y4242104D01*
X1541221Y4240225D01*
X1539240Y4235602D01*
X1537157Y4234078D01*
X1534464Y4227576D01*
X1532026Y4224121D01*
X1531366Y4220819D01*
X1529842Y4217111D01*
X1527556Y4213809D01*
X1525778Y4204919D01*
X1522831Y4200855D01*
X1521358Y4192219D01*
X1520647Y4189933D01*
X1518767Y4186986D01*
X1518767Y4184142D01*
X1516430Y4175150D01*
X1512925Y4170781D01*
X1509297Y4165650D01*
X1534261Y4165650D01*
X1535023Y4166209D01*
X1536649Y4172102D01*
X1538122Y4182516D01*
X1540205Y4185615D01*
X1542186Y4190542D01*
X1542237Y4193286D01*
X1545793Y4196588D01*
X1547825Y4204614D01*
X1550263Y4207560D01*
X1552092Y4215638D01*
X1554937Y4220006D01*
X1555496Y4224528D01*
X1556613Y4229404D01*
X1563065Y4237583D01*
X1567027Y4239006D01*
X1608734Y4239717D01*
X1613154Y4240326D01*
X1616100Y4243781D01*
X1622298Y4246016D01*
X1624939Y4248962D01*
X1630172Y4251807D01*
X1631594Y4253941D01*
X1635251Y4256125D01*
X1638960Y4256938D01*
X1643380Y4261205D01*
X1650136Y4263694D01*
X1651406Y4265523D01*
X1658162Y4266692D01*
X1662226Y4265523D01*
X1667560Y4262374D01*
X1672437Y4256430D01*
X1677416Y4249572D01*
X1677681Y4248658D01*
X1692706Y4248658D01*
X1694738Y4252010D01*
X1707134Y4251807D01*
X1713788Y4254398D01*
X1732940Y4257598D01*
X1737918Y4259986D01*
X1748891Y4261256D01*
X1765198Y4261104D01*
X1768805Y4260240D01*
X1773377Y4257598D01*
X1782419Y4255668D01*
X1786636Y4255668D01*
X1791207Y4254398D01*
X1795272Y4252163D01*
X1802434Y4250740D01*
X1817725Y4249369D01*
X1851304Y4248810D01*
X1856282Y4243781D01*
X1855724Y4240276D01*
X1854098Y4237278D01*
X1848408Y4234027D01*
X1846478Y4231081D01*
X1840687Y4230217D01*
X1836775Y4225594D01*
X1830628Y4223512D01*
X1827631Y4220006D01*
X1822907Y4218584D01*
X1819605Y4214266D01*
X1813610Y4212386D01*
X1810359Y4208170D01*
X1808734Y4208170D01*
X1806498Y4209592D01*
X1803247Y4212996D01*
X1797761Y4214926D01*
X1795932Y4217365D01*
X1790700Y4218584D01*
X1771853Y4219803D01*
X1765554Y4222292D01*
X1757730Y4223613D01*
X1747367Y4223562D01*
X1743506Y4222292D01*
X1742948Y4220514D01*
X1739239Y4219397D01*
X1732076Y4218584D01*
X1722272Y4215587D01*
X1714601Y4217974D01*
X1707337Y4219194D01*
X1704035Y4221480D01*
X1700987Y4228236D01*
X1698193Y4231792D01*
X1698193Y4234027D01*
X1696110Y4240834D01*
X1694637Y4241850D01*
X1692706Y4248658D01*
X1677681Y4248658D01*
X1679193Y4243324D01*
X1681225Y4240580D01*
X1682597Y4237482D01*
X1682496Y4214012D01*
X1681327Y4210405D01*
X1678381Y4206392D01*
X1677720Y4203547D01*
X1670405Y4194251D01*
X1667916Y4189933D01*
X1659483Y4178604D01*
X1658874Y4175607D01*
X1656029Y4173067D01*
X1653692Y4165854D01*
X1651304Y4162399D01*
X1650339Y4157827D01*
X1649791Y4146143D01*
X1660804Y4146143D01*
X1660956Y4158945D01*
X1662531Y4164787D01*
X1664665Y4167124D01*
X1666595Y4171696D01*
X1669186Y4173778D01*
X1670557Y4176979D01*
X1676907Y4185005D01*
X1682496Y4194048D01*
X1683918Y4194708D01*
X1686052Y4198874D01*
X1689760Y4200093D01*
X1719834Y4200601D01*
X1725980Y4202125D01*
X1730044Y4204512D01*
X1737207Y4205630D01*
X1743303Y4205528D01*
X1753514Y4204563D01*
X1758137Y4201414D01*
X1768297Y4199432D01*
X1772462Y4195775D01*
X1780032Y4194048D01*
X1791360Y4188663D01*
X1792986Y4187037D01*
X1792986Y4185615D01*
X1796491Y4180281D01*
X1798726Y4172102D01*
X1800656Y4168241D01*
X1800897Y4165244D01*
X1817370Y4165244D01*
X1817827Y4175201D01*
X1820925Y4181906D01*
X1822094Y4193032D01*
X1823720Y4195165D01*
X1825548Y4195876D01*
X1827479Y4199890D01*
X1831593Y4201363D01*
X1835454Y4205071D01*
X1843684Y4207052D01*
X1847799Y4209846D01*
X1855419Y4211320D01*
X1862582Y4213250D01*
X1866138Y4215536D01*
X1875688Y4218025D01*
X1881936Y4222038D01*
X1897735Y4222038D01*
X1903882Y4218127D01*
X1910486Y4216603D01*
X1912518Y4215434D01*
X1914652Y4213047D01*
X1920900Y4210761D01*
X1924253Y4206443D01*
X1929130Y4205528D01*
X1932381Y4202633D01*
X1936445Y4200144D01*
X1939036Y4200144D01*
X1942795Y4197807D01*
X1944878Y4200550D01*
X1945843Y4204563D01*
X1938629Y4212437D01*
X1933397Y4214469D01*
X1931009Y4218127D01*
X1927199Y4219956D01*
X1924964Y4223562D01*
X1919376Y4225544D01*
X1917649Y4228693D01*
X1913534Y4230827D01*
X1910232Y4234688D01*
X1905507Y4236212D01*
X1902104Y4240479D01*
X1888236Y4242663D01*
X1881530Y4245914D01*
X1878279Y4248505D01*
X1881428Y4251096D01*
X1884680Y4258513D01*
X1885899Y4264660D01*
X1886610Y4266488D01*
X1891131Y4268419D01*
X1895195Y4271619D01*
X1900783Y4272889D01*
X1906371Y4273448D01*
X1918614Y4271924D01*
X1921967Y4271010D01*
X1926539Y4267962D01*
X1934921Y4266184D01*
X1938782Y4263034D01*
X1941575Y4261713D01*
X1954022Y4260900D01*
X1958492Y4256989D01*
X1965502Y4254906D01*
X1966104Y4254042D01*
X2022297Y4254042D01*
X2024634Y4255668D01*
X2031288Y4255617D01*
X2035352Y4254042D01*
X2038908Y4251401D01*
X2051151Y4250029D01*
X2058009Y4248810D01*
X2061108Y4243120D01*
X2059635Y4241190D01*
X2057654Y4235602D01*
X2052421Y4232960D01*
X2051812Y4234129D01*
X2046427Y4237024D01*
X2045716Y4239768D01*
X2040382Y4242714D01*
X2037994Y4245762D01*
X2032711Y4247642D01*
X2029612Y4251248D01*
X2026157Y4252061D01*
X2022297Y4254042D01*
X1966104Y4254042D01*
X1967788Y4251502D01*
X1974697Y4249318D01*
X1977948Y4245610D01*
X1985314Y4243933D01*
X1992122Y4239615D01*
X2008835Y4238650D01*
X2014677Y4234688D01*
X2022093Y4232808D01*
X2026157Y4229303D01*
X2032660Y4226458D01*
X2035860Y4222597D01*
X2039924Y4216704D01*
X2041296Y4212539D01*
X2044750Y4209897D01*
X2066036Y4209897D01*
X2068169Y4211218D01*
X2070354Y4218279D01*
X2078024Y4228846D01*
X2079345Y4232554D01*
X2082495Y4235348D01*
X2084120Y4239260D01*
X2087321Y4243019D01*
X2093061Y4250436D01*
X2098294Y4256328D01*
X2099767Y4256328D01*
X2103120Y4260494D01*
X2109165Y4262628D01*
X2111908Y4266234D01*
X2128113Y4266641D01*
X2154834Y4265879D01*
X2156358Y4263237D01*
X2163114Y4261053D01*
X2165299Y4257395D01*
X2168194Y4255617D01*
X2170074Y4250232D01*
X2172332Y4248607D01*
X2202332Y4248607D01*
X2202332Y4261561D01*
X2203145Y4266895D01*
X2206294Y4270806D01*
X2208174Y4275937D01*
X2211171Y4279493D01*
X2212949Y4283456D01*
X2215438Y4284624D01*
X2217674Y4288332D01*
X2224633Y4290364D01*
X2230018Y4294581D01*
X2233625Y4295241D01*
X2238552Y4296460D01*
X2241245Y4298746D01*
X2245360Y4300118D01*
X2265222Y4300118D01*
X2268474Y4297730D01*
X2271623Y4290212D01*
X2273046Y4289552D01*
X2273706Y4287469D01*
X2275078Y4278223D01*
X2276144Y4275124D01*
X2278227Y4272026D01*
X2279650Y4259529D01*
X2281275Y4255668D01*
X2282393Y4255668D01*
X2281986Y4249064D01*
X2279853Y4245813D01*
X2278075Y4237126D01*
X2275179Y4235297D01*
X2272893Y4231589D01*
X2269286Y4230370D01*
X2263902Y4230370D01*
X2260955Y4228541D01*
X2259482Y4226001D01*
X2256028Y4224731D01*
X2249424Y4223664D01*
X2238705Y4224883D01*
X2235047Y4226052D01*
X2233218Y4228541D01*
X2229408Y4229760D01*
X2217877Y4231589D01*
X2216251Y4233418D01*
X2209038Y4237126D01*
X2205482Y4241190D01*
X2203196Y4243070D01*
X2202332Y4248607D01*
X2172332Y4248607D01*
X2174595Y4242409D01*
X2176322Y4240631D01*
X2177694Y4237482D01*
X2178456Y4230674D01*
X2180437Y4223258D01*
X2181860Y4203750D01*
X2183384Y4194962D01*
X2185822Y4191812D01*
X2187041Y4187240D01*
X2185568Y4183786D01*
X2180082Y4176522D01*
X2174951Y4172965D01*
X2172716Y4169918D01*
X2169922Y4169156D01*
X2165146Y4167327D01*
X2163572Y4164482D01*
X2155901Y4162399D01*
X2153107Y4159554D01*
X2149500Y4158234D01*
X2141423Y4156913D01*
X2135936Y4153154D01*
X2122525Y4150817D01*
X2101088Y4148328D01*
X2094128Y4149293D01*
X2089302Y4148074D01*
X2080006Y4154170D01*
X2077821Y4167733D01*
X2074875Y4173372D01*
X2072893Y4182821D01*
X2070354Y4186529D01*
X2069236Y4193641D01*
X2066696Y4204258D01*
X2066036Y4209897D01*
X2044750Y4209897D01*
X2044750Y4207560D01*
X2048306Y4202785D01*
X2051304Y4194708D01*
X2053031Y4193540D01*
X2054961Y4182110D01*
X2056739Y4178554D01*
X2057501Y4178554D01*
X2058466Y4173880D01*
X2059686Y4163669D01*
X2062022Y4159504D01*
X2063191Y4152900D01*
X2062327Y4135526D01*
X2060143Y4132173D01*
X2059432Y4126992D01*
X2057400Y4124248D01*
X2054606Y4123537D01*
X2049272Y4119372D01*
X2043125Y4118051D01*
X2038908Y4114393D01*
X2029866Y4112260D01*
X2026157Y4109212D01*
X2023110Y4108196D01*
X2014728Y4106976D01*
X2009851Y4103827D01*
X2006803Y4103827D01*
X2001774Y4101947D01*
X1938528Y4102049D01*
X1926640Y4103725D01*
X1924253Y4105605D01*
X1915566Y4106824D01*
X1902815Y4107637D01*
X1896364Y4109415D01*
X1893671Y4111701D01*
X1890064Y4112971D01*
X1882444Y4114444D01*
X1878380Y4116984D01*
X1875332Y4118152D01*
X1845919Y4119067D01*
X1842414Y4123537D01*
X1838604Y4124807D01*
X1836877Y4124807D01*
X1834540Y4128668D01*
X1828139Y4132173D01*
X1825498Y4139336D01*
X1822653Y4143044D01*
X1820976Y4152290D01*
X1817370Y4165244D01*
X1800897Y4165244D01*
X1802180Y4149191D01*
X1803196Y4145534D01*
X1805228Y4142892D01*
X1805889Y4136593D01*
X1802739Y4132224D01*
X1801622Y4126992D01*
X1800809Y4125163D01*
X1794764Y4123080D01*
X1789684Y4121861D01*
X1785112Y4119676D01*
X1760626Y4118660D01*
X1746351Y4119321D01*
X1743506Y4119981D01*
X1740712Y4122877D01*
X1734616Y4124756D01*
X1725472Y4126179D01*
X1724456Y4127093D01*
X1720240Y4129074D01*
X1711706Y4130598D01*
X1672437Y4130700D01*
X1668373Y4133138D01*
X1662074Y4140555D01*
X1660804Y4146143D01*
X1649791Y4146143D01*
X1649628Y4142638D01*
X1647139Y4140657D01*
X1645107Y4135374D01*
X1641703Y4134002D01*
X1639214Y4131665D01*
X1630680Y4130446D01*
X1605686Y4128820D01*
X1578660Y4128820D01*
X1561439Y4130598D01*
X1558137Y4134612D01*
X1554226Y4135932D01*
X1552600Y4135932D01*
X1549298Y4140860D01*
X1548231Y4140860D01*
X1541983Y4148582D01*
X1540916Y4151020D01*
X1538579Y4152442D01*
X1537563Y4153712D01*
X1534261Y4165650D01*
X1509297Y4165650D01*
X1508353Y4164329D01*
X1500835Y4162602D01*
X1497634Y4158894D01*
X1493062Y4157827D01*
X1466037Y4158487D01*
X1460093Y4161993D01*
X1452778Y4163161D01*
X1449120Y4164329D01*
X1445260Y4168038D01*
X1441500Y4169257D01*
X1438300Y4173626D01*
X1433271Y4176166D01*
X1432255Y4178909D01*
X1428089Y4184751D01*
X1427327Y4188104D01*
X1398984Y4188104D01*
X1401470Y4181906D01*
X1403654Y4174896D01*
X1410817Y4165955D01*
X1412341Y4162399D01*
X1415846Y4160570D01*
X1416761Y4157776D01*
X1418234Y4156303D01*
X1422654Y4154424D01*
X1424736Y4152087D01*
X1432915Y4150563D01*
X1435963Y4148734D01*
X1436776Y4147058D01*
X1440027Y4144924D01*
X1451762Y4144721D01*
X1457858Y4142028D01*
X1462989Y4140200D01*
X1505762Y4140758D01*
X1506931Y4141165D01*
X1516075Y4129430D01*
X1518310Y4124248D01*
X1521612Y4122216D01*
X1524812Y4118508D01*
X1530248Y4116324D01*
X1531518Y4113276D01*
X1532940Y4111802D01*
X1539290Y4110482D01*
X1540967Y4108043D01*
X1543710Y4106316D01*
X1548079Y4106316D01*
X1552854Y4104538D01*
X1556867Y4101337D01*
X1612290Y4101693D01*
X1616913Y4104894D01*
X1621993Y4106265D01*
X1644548Y4106672D01*
X1648764Y4111244D01*
X1650238Y4111244D01*
X1655114Y4113225D01*
X1658010Y4116222D01*
X1661464Y4112514D01*
X1668068Y4110634D01*
X1670557Y4107383D01*
X1675028Y4106367D01*
X1697431Y4106214D01*
X1705305Y4105351D01*
X1708404Y4101744D01*
X1721916Y4100728D01*
X1729536Y4098290D01*
X1735124Y4095902D01*
X1742998Y4093972D01*
X1762607Y4093972D01*
X1769110Y4090111D01*
X1777187Y4088942D01*
X1782521Y4090822D01*
X1786077Y4093972D01*
X1791716Y4094073D01*
X1797202Y4094987D01*
X1801114Y4100118D01*
X1802434Y4100118D01*
X1807464Y4105148D01*
X1809038Y4106164D01*
X1814118Y4106976D01*
X1818690Y4105046D01*
X1821535Y4100829D01*
X1826564Y4098848D01*
X1827885Y4096867D01*
X1832508Y4094327D01*
X1846783Y4094530D01*
X1849983Y4093260D01*
X1850542Y4091533D01*
X1853793Y4089501D01*
X1879041Y4089095D01*
X1881174Y4087469D01*
X1881174Y4084726D01*
X2014728Y4084726D01*
X2014728Y4087520D01*
X2015947Y4089044D01*
X2019554Y4089044D01*
X2024125Y4090314D01*
X2026666Y4093260D01*
X2029561Y4094581D01*
X2034946Y4093819D01*
X2038908Y4095343D01*
X2046579Y4099356D01*
X2056079Y4101541D01*
X2058771Y4104284D01*
X2061870Y4106113D01*
X2064410Y4106875D01*
X2067255Y4109923D01*
X2075129Y4112006D01*
X2080260Y4118406D01*
X2084882Y4120540D01*
X2108758Y4120235D01*
X2121204Y4123537D01*
X2124202Y4125417D01*
X2124862Y4126636D01*
X2129129Y4128058D01*
X2143404Y4128262D01*
X2146452Y4130344D01*
X2148738Y4133291D01*
X2162759Y4133850D01*
X2165299Y4135475D01*
X2167331Y4137710D01*
X2176373Y4140301D01*
X2184552Y4149648D01*
X2190496Y4152137D01*
X2195220Y4159097D01*
X2200808Y4164431D01*
X2202332Y4168800D01*
X2202637Y4183176D01*
X2203805Y4186631D01*
X2203805Y4193794D01*
X2202281Y4199077D01*
X2202281Y4204157D01*
X2203856Y4206900D01*
X2208631Y4206087D01*
X2217318Y4200702D01*
X2221890Y4201414D01*
X2229002Y4199483D01*
X2234641Y4197146D01*
X2257044Y4198061D01*
X2263394Y4200753D01*
X2268270Y4200753D01*
X2274316Y4201972D01*
X2276449Y4204360D01*
X2282190Y4206951D01*
X2289149Y4216247D01*
X2291334Y4220616D01*
X2294280Y4222800D01*
X2299360Y4229506D01*
X2301087Y4232148D01*
X2307386Y4233672D01*
X2313381Y4238548D01*
X2319375Y4237685D01*
X2327605Y4240784D01*
X2333548Y4240123D01*
X2336850Y4243476D01*
X2342184Y4245203D01*
X2345537Y4245203D01*
X2349246Y4249572D01*
X2355291Y4251604D01*
X2361438Y4260037D01*
X2364740Y4262475D01*
X2366873Y4262475D01*
X2366873Y4313732D01*
X2364333Y4313732D01*
X2358237Y4320997D01*
X2358237Y4322368D01*
X2352548Y4330395D01*
X2351074Y4330395D01*
X2347518Y4334713D01*
X2346502Y4334713D01*
X2341067Y4340656D01*
X2336901Y4343044D01*
X2335834Y4345838D01*
X2332228Y4348378D01*
X2330297Y4353509D01*
X2326792Y4358182D01*
X2325522Y4363212D01*
X2322677Y4365193D01*
X2321001Y4373473D01*
X2321001Y4375962D01*
X2318461Y4378401D01*
X2316327Y4384395D01*
X2313432Y4387189D01*
X2311857Y4393895D01*
X2307488Y4397552D01*
X2306116Y4400651D01*
X2302408Y4402531D01*
X2299868Y4403394D01*
X2297328Y4407001D01*
X2290419Y4408881D01*
X2288743Y4411929D01*
X2282545Y4415586D01*
X2279243Y4418126D01*
X2272436Y4419295D01*
X2271064Y4420666D01*
X2271064Y4422800D01*
X2268575Y4426966D01*
X2265476Y4434078D01*
X2263343Y4435602D01*
X2260904Y4441393D01*
X2259076Y4443018D01*
X2257399Y4446219D01*
X2254199Y4447844D01*
X2252167Y4452670D01*
X2249678Y4454042D01*
X2249678Y4455261D01*
X2242413Y4463694D01*
X2240991Y4463694D01*
X2236927Y4468520D01*
X2233625Y4470044D01*
X2222550Y4478629D01*
X2206599Y4478578D01*
X2201824Y4478832D01*
X2199487Y4476292D01*
X2195017Y4474718D01*
X2194102Y4475835D01*
X2191816Y4480915D01*
X2186432Y4489551D01*
X2180437Y4492040D01*
X2179066Y4495495D01*
X2175306Y4497679D01*
X2173732Y4501286D01*
X2168093Y4503826D01*
X2167483Y4503826D01*
X2165400Y4507077D01*
X2161743Y4508906D01*
X2159152Y4512310D01*
X2153615Y4514494D01*
X2150364Y4518152D01*
X2143912Y4519980D01*
X2140051Y4524502D01*
X2110079Y4524502D01*
X2107234Y4521962D01*
X2102866Y4520438D01*
X2093468Y4520641D01*
X2089759Y4518812D01*
X2084628Y4517948D01*
X2083511Y4520438D01*
X2083511Y4525975D01*
X2084527Y4529175D01*
X2086610Y4531868D01*
X2088032Y4537659D01*
X2087473Y4547463D01*
X2088184Y4554575D01*
X2091943Y4559554D01*
X2092198Y4638548D01*
X2088794Y4642408D01*
X2087981Y4644898D01*
X2087625Y4659376D01*
X2086457Y4662170D01*
X2084171Y4665268D01*
X2082901Y4675124D01*
X2078329Y4686198D01*
X2075484Y4690567D01*
X2073249Y4699203D01*
X2070252Y4703013D01*
X2069287Y4710125D01*
X2068575Y4712766D01*
X2065782Y4716678D01*
X2063496Y4725111D01*
X2060651Y4730496D01*
X2059533Y4738370D01*
X2055977Y4742891D01*
X2055977Y4745482D01*
X2054910Y4750206D01*
X2052015Y4753864D01*
X2050338Y4762195D01*
X2047849Y4766716D01*
X2044750Y4781702D01*
X2042718Y4785055D01*
X2040737Y4792878D01*
X2037994Y4797704D01*
X2036622Y4808829D01*
X2033574Y4815281D01*
X2033574Y4821123D01*
X2031441Y4830673D01*
X2028494Y4838090D01*
X2027224Y4849723D01*
X2025040Y4853686D01*
X2023719Y4858461D01*
X2023567Y4867706D01*
X2021839Y4871415D01*
X2019655Y4874768D01*
X2019757Y4926939D01*
X2021839Y4930089D01*
X2022906Y4933086D01*
X2024430Y4946040D01*
X2027936Y4954117D01*
X2027986Y4959705D01*
X2029764Y4962855D01*
X2031898Y4965649D01*
X2033574Y4972761D01*
X2036267Y4975758D01*
X2038553Y4981905D01*
X2044649Y4989931D01*
X2046325Y4993132D01*
X2044700Y4998770D01*
X2042820Y5000853D01*
X2038908Y5002530D01*
X2033879Y5002580D01*
X2029612Y4997043D01*
X2028596Y4997043D01*
X2025243Y4992420D01*
X2021586Y4990439D01*
X2013661Y4979924D01*
X2012137Y4974539D01*
X2005380Y4965852D01*
X2002180Y4960315D01*
X1999488Y4956810D01*
X1998878Y4953406D01*
X1995017Y4948986D01*
X1993798Y4942332D01*
X1991309Y4937963D01*
X1989175Y4929886D01*
X1987092Y4927600D01*
X1985568Y4924044D01*
X1984146Y4917389D01*
X1982063Y4914696D01*
X1979422Y4903774D01*
X1977186Y4900777D01*
X1975307Y4893056D01*
X1972767Y4888382D01*
X1971395Y4881981D01*
X1971395Y4864354D01*
X1967331Y4859782D01*
X1967179Y4828235D01*
X1966518Y4825238D01*
X1965452Y4824780D01*
X1963826Y4831943D01*
X1963267Y4853990D01*
X1960981Y4856937D01*
X1956358Y4858613D01*
X1951024Y4857089D01*
X1949602Y4855667D01*
X1945893Y4842408D01*
X1945893Y4837988D01*
X1944420Y4832553D01*
X1943483Y4821174D01*
X1967230Y4821174D01*
X1967534Y4823917D01*
X1970379Y4824272D01*
X1971243Y4821428D01*
X1971751Y4815027D01*
X1970024Y4811776D01*
X1967230Y4821174D01*
X1943483Y4821174D01*
X1943963Y4815281D01*
X1942744Y4811572D01*
X1941271Y4814011D01*
X1941423Y4822037D01*
X1941322Y4870602D01*
X1945132Y4879441D01*
X1945335Y4893665D01*
X1945893Y4899355D01*
X1948383Y4903774D01*
X1949450Y4908448D01*
X1949450Y4925466D01*
X1951989Y4938420D01*
X1951380Y4960924D01*
X1952498Y4965852D01*
X1954631Y4973116D01*
X1955190Y4983175D01*
X1954022Y4989931D01*
X1952243Y4993030D01*
X1952193Y4999837D01*
X1950364Y5017719D01*
X1948840Y5023154D01*
X1946503Y5027574D01*
X1945335Y5032197D01*
X1941779Y5035702D01*
X1940814Y5039918D01*
X1940814Y5043322D01*
X1937359Y5047996D01*
X1935276Y5053736D01*
X1933041Y5056428D01*
X1930654Y5062982D01*
X1928825Y5064252D01*
X1925726Y5071414D01*
X1920646Y5075326D01*
X1918817Y5077612D01*
X1916328Y5082286D01*
X1916328Y5084673D01*
G37*
G36*
X1983790Y4741468D02*
G01*
X1981707Y4738725D01*
X1980996Y4737150D01*
X1985162Y4732172D01*
X1985162Y4729784D01*
X1986737Y4724908D01*
X1989124Y4723028D01*
X1990750Y4716373D01*
X1993747Y4711801D01*
X1995474Y4705400D01*
X1997760Y4702302D01*
X1999284Y4698593D01*
X1999945Y4694275D01*
X2002891Y4689856D01*
X2005025Y4681321D01*
X2007107Y4677156D01*
X2009648Y4667351D01*
X2012086Y4663084D01*
X2013813Y4651248D01*
X2016252Y4645507D01*
X2017775Y4631944D01*
X2020976Y4617974D01*
X2020316Y4610303D01*
X2020265Y4586884D01*
X2020925Y4578858D01*
X2018233Y4571085D01*
X2016810Y4558538D01*
X2013712Y4551070D01*
X2012137Y4541824D01*
X2009597Y4537202D01*
X2011578Y4534763D01*
X2015794Y4533392D01*
X2017775Y4534154D01*
X2020214Y4538827D01*
X2023211Y4540351D01*
X2024583Y4543450D01*
X2027529Y4545279D01*
X2029002Y4549495D01*
X2031492Y4551476D01*
X2034032Y4556760D01*
X2035556Y4557471D01*
X2039112Y4566005D01*
X2040585Y4566716D01*
X2042820Y4573828D01*
X2046173Y4578350D01*
X2047951Y4585004D01*
X2049322Y4586935D01*
X2050745Y4591812D01*
X2051405Y4613402D01*
X2050338Y4618075D01*
X2047900Y4619447D01*
X2045462Y4617516D01*
X2043430Y4609439D01*
X2039772Y4610658D01*
X2038197Y4621428D01*
X2037080Y4639310D01*
X2036064Y4644288D01*
X2034032Y4647742D01*
X2032050Y4660087D01*
X2031085Y4662271D01*
X2029510Y4663846D01*
X2026970Y4674006D01*
X2024888Y4677156D01*
X2022703Y4684217D01*
X2019858Y4686757D01*
X2019147Y4690567D01*
X2017318Y4695037D01*
X2015693Y4695799D01*
X2013254Y4702505D01*
X2011273Y4704130D01*
X2009038Y4710328D01*
X2004771Y4715408D01*
X2000961Y4721199D01*
X2000961Y4722571D01*
X1998725Y4725466D01*
X1997405Y4725466D01*
X1995474Y4730699D01*
X1992172Y4735017D01*
X1989886Y4739335D01*
X1988464Y4740757D01*
G37*
D10*
X3975100Y6283197D02*
G01*
X3975100Y6178295D01*
X3904995Y6283197D02*
G01*
X3975100Y6213094D01*
X3950208Y6238239D02*
G01*
X3904995Y6178295D01*
X3832097Y6283197D02*
G01*
X3871975Y6178295D01*
X3832097Y6283197D02*
G01*
X3792220Y6178295D01*
X3856990Y6213094D02*
G01*
X3807206Y6213094D01*
X3759200Y6283197D02*
G01*
X3759200Y6178295D01*
X3759200Y6283197D02*
G01*
X3719068Y6178295D01*
X3679190Y6283197D02*
G01*
X3719068Y6178295D01*
X3679190Y6283197D02*
G01*
X3679190Y6178295D01*
X3646170Y6283197D02*
G01*
X3646170Y6178295D01*
X3613150Y6283197D02*
G01*
X3613150Y6178295D01*
X3543045Y6283197D02*
G01*
X3613150Y6213094D01*
X3588004Y6238239D02*
G01*
X3543045Y6178295D01*
X3470147Y6283197D02*
G01*
X3510025Y6178295D01*
X3470147Y6283197D02*
G01*
X3430015Y6178295D01*
X3495040Y6213094D02*
G01*
X3445002Y6213094D01*
X3327145Y6283197D02*
G01*
X3396995Y6178295D01*
X3396995Y6283197D02*
G01*
X3327145Y6283197D01*
X3396995Y6178295D02*
G01*
X3327145Y6178295D01*
X3294125Y6283197D02*
G01*
X3294125Y6178295D01*
X3294125Y6283197D02*
G01*
X3229102Y6283197D01*
X3294125Y6233160D02*
G01*
X3253993Y6233160D01*
X3294125Y6178295D02*
G01*
X3229102Y6178295D01*
X3049015Y6268212D02*
G01*
X3059175Y6278118D01*
X3074161Y6283197D01*
X3094227Y6283197D01*
X3109213Y6278118D01*
X3119120Y6268212D01*
X3119120Y6258305D01*
X3114040Y6248145D01*
X3109213Y6243320D01*
X3099054Y6238239D01*
X3069081Y6228079D01*
X3059175Y6223254D01*
X3054095Y6218173D01*
X3049015Y6208268D01*
X3049015Y6193281D01*
X3059175Y6183121D01*
X3074161Y6178295D01*
X3094227Y6178295D01*
X3109213Y6183121D01*
X3119120Y6193281D01*
X2986024Y6283197D02*
G01*
X2996184Y6278118D01*
X3006090Y6268212D01*
X3011170Y6258305D01*
X3015995Y6243320D01*
X3015995Y6218173D01*
X3011170Y6203187D01*
X3006090Y6193281D01*
X2996184Y6183121D01*
X2986024Y6178295D01*
X2966211Y6178295D01*
X2956052Y6183121D01*
X2946145Y6193281D01*
X2941065Y6203187D01*
X2935986Y6218173D01*
X2935986Y6243320D01*
X2941065Y6258305D01*
X2946145Y6268212D01*
X2956052Y6278118D01*
X2966211Y6283197D01*
X2986024Y6283197D01*
X2903220Y6283197D02*
G01*
X2903220Y6178295D01*
X2903220Y6178295D02*
G01*
X2843022Y6178295D01*
X2810002Y6283197D02*
G01*
X2810002Y6208268D01*
X2805175Y6193281D01*
X2795015Y6183121D01*
X2780029Y6178295D01*
X2770124Y6178295D01*
X2755138Y6183121D01*
X2744977Y6193281D01*
X2740152Y6208268D01*
X2740152Y6283197D01*
X2632202Y6258305D02*
G01*
X2637027Y6268212D01*
X2647188Y6278118D01*
X2657093Y6283197D01*
X2677159Y6283197D01*
X2687065Y6278118D01*
X2697225Y6268212D01*
X2702052Y6258305D01*
X2707131Y6243320D01*
X2707131Y6218173D01*
X2702052Y6203187D01*
X2697225Y6193281D01*
X2687065Y6183121D01*
X2677159Y6178295D01*
X2657093Y6178295D01*
X2647188Y6183121D01*
X2637027Y6193281D01*
X2632202Y6203187D01*
X2599181Y6283197D02*
G01*
X2599181Y6178295D01*
X2536190Y6283197D02*
G01*
X2546095Y6278118D01*
X2556002Y6268212D01*
X2561081Y6258305D01*
X2566161Y6243320D01*
X2566161Y6218173D01*
X2561081Y6203187D01*
X2556002Y6193281D01*
X2546095Y6183121D01*
X2536190Y6178295D01*
X2516124Y6178295D01*
X2506218Y6183121D01*
X2496058Y6193281D01*
X2490977Y6203187D01*
X2486152Y6218173D01*
X2486152Y6243320D01*
X2490977Y6258305D01*
X2496058Y6268212D01*
X2506218Y6278118D01*
X2516124Y6283197D01*
X2536190Y6283197D01*
X2453131Y6283197D02*
G01*
X2453131Y6178295D01*
X2453131Y6283197D02*
G01*
X2383027Y6178295D01*
X2383027Y6283197D02*
G01*
X2383027Y6178295D01*
X2350008Y6283197D02*
G01*
X2350008Y6178295D01*
X2350008Y6283197D02*
G01*
X2284984Y6283197D01*
X2350008Y6233160D02*
G01*
X2310129Y6233160D01*
X2350008Y6178295D02*
G01*
X2284984Y6178295D01*
X2182113Y6268212D02*
G01*
X2192020Y6278118D01*
X2207006Y6283197D01*
X2227072Y6283197D01*
X2242058Y6278118D01*
X2252218Y6268212D01*
X2252218Y6258305D01*
X2247138Y6248145D01*
X2242058Y6243320D01*
X2232152Y6238239D01*
X2202179Y6228079D01*
X2192020Y6223254D01*
X2187193Y6218173D01*
X2182113Y6208268D01*
X2182113Y6193281D01*
X2192020Y6183121D01*
X2207006Y6178295D01*
X2227072Y6178295D01*
X2242058Y6183121D01*
X2252218Y6193281D01*
X2072131Y6283197D02*
G01*
X2072131Y6178295D01*
X2072131Y6283197D02*
G01*
X2007108Y6283197D01*
X2072131Y6233160D02*
G01*
X2032000Y6233160D01*
X2072131Y6178295D02*
G01*
X2007108Y6178295D01*
X1974088Y6283197D02*
G01*
X1974088Y6178295D01*
X1974088Y6178295D02*
G01*
X1914144Y6178295D01*
X1881123Y6283197D02*
G01*
X1881123Y6178295D01*
X1881123Y6283197D02*
G01*
X1816100Y6283197D01*
X1881123Y6233160D02*
G01*
X1840992Y6233160D01*
X1881123Y6178295D02*
G01*
X1816100Y6178295D01*
X1708150Y6258305D02*
G01*
X1713229Y6268212D01*
X1723136Y6278118D01*
X1733042Y6283197D01*
X1753107Y6283197D01*
X1763013Y6278118D01*
X1773173Y6268212D01*
X1778000Y6258305D01*
X1783079Y6243320D01*
X1783079Y6218173D01*
X1778000Y6203187D01*
X1773173Y6193281D01*
X1763013Y6183121D01*
X1753107Y6178295D01*
X1733042Y6178295D01*
X1723136Y6183121D01*
X1713229Y6193281D01*
X1708150Y6203187D01*
X1640078Y6283197D02*
G01*
X1640078Y6178295D01*
X1675129Y6283197D02*
G01*
X1605026Y6283197D01*
X1572005Y6283197D02*
G01*
X1572005Y6178295D01*
X1572005Y6283197D02*
G01*
X1527047Y6283197D01*
X1512062Y6278118D01*
X1506981Y6273292D01*
X1502155Y6263131D01*
X1502155Y6253226D01*
X1506981Y6243320D01*
X1512062Y6238239D01*
X1527047Y6233160D01*
X1572005Y6233160D01*
X1537207Y6233160D02*
G01*
X1502155Y6178295D01*
X1439163Y6283197D02*
G01*
X1449070Y6278118D01*
X1459229Y6268212D01*
X1464055Y6258305D01*
X1469136Y6243320D01*
X1469136Y6218173D01*
X1464055Y6203187D01*
X1459229Y6193281D01*
X1449070Y6183121D01*
X1439163Y6178295D01*
X1419097Y6178295D01*
X1409192Y6183121D01*
X1399031Y6193281D01*
X1394205Y6203187D01*
X1389126Y6218173D01*
X1389126Y6243320D01*
X1394205Y6258305D01*
X1399031Y6268212D01*
X1409192Y6278118D01*
X1419097Y6283197D01*
X1439163Y6283197D01*
X1356105Y6283197D02*
G01*
X1356105Y6178295D01*
X1356105Y6283197D02*
G01*
X1286002Y6178295D01*
X1286002Y6283197D02*
G01*
X1286002Y6178295D01*
X1252981Y6283197D02*
G01*
X1252981Y6178295D01*
X1145031Y6258305D02*
G01*
X1150112Y6268212D01*
X1160018Y6278118D01*
X1170178Y6283197D01*
X1189989Y6283197D01*
X1200150Y6278118D01*
X1210055Y6268212D01*
X1215136Y6258305D01*
X1220215Y6243320D01*
X1220215Y6218173D01*
X1215136Y6203187D01*
X1210055Y6193281D01*
X1200150Y6183121D01*
X1189989Y6178295D01*
X1170178Y6178295D01*
X1160018Y6183121D01*
X1150112Y6193281D01*
X1145031Y6203187D01*
X1072134Y6283197D02*
G01*
X1112012Y6178295D01*
X1072134Y6283197D02*
G01*
X1032002Y6178295D01*
X1097026Y6213094D02*
G01*
X1046987Y6213094D01*
X929131Y6268212D02*
G01*
X939037Y6278118D01*
X954023Y6283197D01*
X974089Y6283197D01*
X989076Y6278118D01*
X998981Y6268212D01*
X998981Y6258305D01*
X994155Y6248145D01*
X989076Y6243320D01*
X979170Y6238239D01*
X949197Y6228079D01*
X939037Y6223254D01*
X934212Y6218173D01*
X929131Y6208268D01*
X929131Y6193281D01*
X939037Y6183121D01*
X954023Y6178295D01*
X974089Y6178295D01*
X989076Y6183121D01*
X998981Y6193281D01*
D11*
X6819900Y6211315D02*
G01*
X6819900Y6102350D01*
X6819900Y6211315D02*
G01*
X6773163Y6211315D01*
X6757670Y6206236D01*
X6752336Y6200902D01*
X6747256Y6190487D01*
X6747256Y6180073D01*
X6752336Y6169660D01*
X6757670Y6164579D01*
X6773163Y6159500D01*
X6819900Y6159500D02*
G01*
X6773163Y6159500D01*
X6757670Y6154165D01*
X6752336Y6149086D01*
X6747256Y6138671D01*
X6747256Y6122923D01*
X6752336Y6112510D01*
X6757670Y6107429D01*
X6773163Y6102350D01*
X6819900Y6102350D01*
X6660895Y6211315D02*
G01*
X6712965Y6138671D01*
X6634988Y6138671D01*
X6660895Y6211315D02*
G01*
X6660895Y6102350D01*
D12*
X2574381Y1988812D02*
G01*
X2592415Y1979668D01*
X2610703Y1961380D01*
X2619847Y1943346D01*
X2628991Y1915914D01*
X2628991Y1870448D01*
X2619847Y1843270D01*
X2610703Y1824982D01*
X2592415Y1806948D01*
X2574381Y1797804D01*
X2538059Y1797804D01*
X2519771Y1806948D01*
X2501737Y1824982D01*
X2492593Y1843270D01*
X2483449Y1870448D01*
X2483449Y1915914D01*
X2492593Y1943346D01*
X2501737Y1961380D01*
X2519771Y1979668D01*
X2538059Y1988812D01*
X2574381Y1988812D01*
X2423505Y1988812D02*
G01*
X2423505Y1852414D01*
X2414361Y1824982D01*
X2396073Y1806948D01*
X2368895Y1797804D01*
X2350607Y1797804D01*
X2323429Y1806948D01*
X2305141Y1824982D01*
X2296251Y1852414D01*
X2296251Y1988812D01*
X2172553Y1988812D02*
G01*
X2172553Y1797804D01*
X2236053Y1988812D02*
G01*
X2108799Y1988812D01*
X2406995Y1659882D02*
G01*
X2406995Y1496306D01*
X2488783Y1578094D02*
G01*
X2325207Y1578094D01*
X1685348Y1993765D02*
G01*
X1703636Y1984621D01*
X1721670Y1966587D01*
X1730814Y1948299D01*
X1739958Y1921121D01*
X1739958Y1875655D01*
X1730814Y1848223D01*
X1721670Y1830189D01*
X1703636Y1811901D01*
X1685348Y1802757D01*
X1649026Y1802757D01*
X1630738Y1811901D01*
X1612704Y1830189D01*
X1603560Y1848223D01*
X1594416Y1875655D01*
X1594416Y1921121D01*
X1603560Y1948299D01*
X1612704Y1966587D01*
X1630738Y1984621D01*
X1649026Y1993765D01*
X1685348Y1993765D01*
X1534472Y1993765D02*
G01*
X1534472Y1857367D01*
X1525328Y1830189D01*
X1507294Y1811901D01*
X1479862Y1802757D01*
X1461828Y1802757D01*
X1434396Y1811901D01*
X1416362Y1830189D01*
X1407218Y1857367D01*
X1407218Y1993765D01*
X1283520Y1993765D02*
G01*
X1283520Y1802757D01*
X1347274Y1993765D02*
G01*
X1220020Y1993765D01*
X1600004Y1583047D02*
G01*
X1436174Y1583047D01*
X2489263Y5963744D02*
G01*
X2489263Y5772990D01*
X2429319Y5963744D02*
G01*
X2429319Y5772990D01*
X2429319Y5963744D02*
G01*
X2301811Y5772990D01*
X2301811Y5963744D02*
G01*
X2301811Y5772990D01*
X2407475Y5635068D02*
G01*
X2407475Y5471238D01*
X2489263Y5553026D02*
G01*
X2325687Y5553026D01*
X1485968Y5913028D02*
G01*
X1485968Y5722020D01*
X1425770Y5913028D02*
G01*
X1425770Y5722020D01*
X1425770Y5913028D02*
G01*
X1298516Y5722020D01*
X1298516Y5913028D02*
G01*
X1298516Y5722020D01*
X1485968Y5502310D02*
G01*
X1322138Y5502310D01*
X3565906Y1687576D02*
G01*
X3565906Y1605534D01*
X3606800Y1646681D02*
G01*
X3525011Y1646681D01*
X4076700Y1659381D02*
G01*
X3994911Y1659381D01*
X4610100Y1659381D02*
G01*
X4528311Y1659381D01*
X5077206Y1687576D02*
G01*
X5077206Y1605534D01*
X5118100Y1646681D02*
G01*
X5036311Y1646681D01*
D11*
X6299200Y1931415D02*
G01*
X6299200Y1822450D01*
X6299200Y1931415D02*
G01*
X6252463Y1931415D01*
X6236970Y1926336D01*
X6231636Y1921002D01*
X6226556Y1910587D01*
X6226556Y1900173D01*
X6231636Y1889760D01*
X6236970Y1884679D01*
X6252463Y1879600D01*
X6299200Y1879600D01*
X6262877Y1879600D02*
G01*
X6226556Y1822450D01*
X6181852Y1931415D02*
G01*
X6124702Y1931415D01*
X6155690Y1889760D01*
X6140195Y1889760D01*
X6129781Y1884679D01*
X6124702Y1879600D01*
X6119368Y1863852D01*
X6119368Y1853437D01*
X6124702Y1837944D01*
X6135115Y1827529D01*
X6150609Y1822450D01*
X6166104Y1822450D01*
X6181852Y1827529D01*
X6186931Y1832610D01*
X6192265Y1843023D01*
X7133843Y2718815D02*
G01*
X7175500Y2609850D01*
X7133843Y2718815D02*
G01*
X7092441Y2609850D01*
X7160006Y2646171D02*
G01*
X7107936Y2646171D01*
X7058152Y2718815D02*
G01*
X7058152Y2640837D01*
X7052818Y2625344D01*
X7042404Y2614929D01*
X7026909Y2609850D01*
X7016495Y2609850D01*
X7001002Y2614929D01*
X6990588Y2625344D01*
X6985254Y2640837D01*
X6985254Y2718815D01*
X6914641Y2718815D02*
G01*
X6914641Y2609850D01*
X6950963Y2718815D02*
G01*
X6878320Y2718815D01*
X6750558Y2739644D02*
G01*
X6844029Y2573273D01*
X6716268Y2718815D02*
G01*
X6716268Y2609850D01*
X6716268Y2718815D02*
G01*
X6674611Y2609850D01*
X6633209Y2718815D02*
G01*
X6674611Y2609850D01*
X6633209Y2718815D02*
G01*
X6633209Y2609850D01*
X6557263Y2718815D02*
G01*
X6598920Y2609850D01*
X6557263Y2718815D02*
G01*
X6515608Y2609850D01*
X6583172Y2646171D02*
G01*
X6531356Y2646171D01*
X6481318Y2718815D02*
G01*
X6481318Y2609850D01*
X6481318Y2718815D02*
G01*
X6408674Y2609850D01*
X6408674Y2718815D02*
G01*
X6408674Y2609850D01*
X6280658Y2731515D02*
G01*
X6291072Y2726436D01*
X6301486Y2716021D01*
X6306820Y2705607D01*
X6311900Y2689860D01*
X6311900Y2663952D01*
X6306820Y2648457D01*
X6301486Y2638044D01*
X6291072Y2627629D01*
X6280658Y2622550D01*
X6259829Y2622550D01*
X6249670Y2627629D01*
X6239256Y2638044D01*
X6233922Y2648457D01*
X6228841Y2663952D01*
X6228841Y2689860D01*
X6233922Y2705607D01*
X6239256Y2716021D01*
X6249670Y2726436D01*
X6259829Y2731515D01*
X6280658Y2731515D01*
X6194552Y2731515D02*
G01*
X6194552Y2622550D01*
X6194552Y2731515D02*
G01*
X6121654Y2622550D01*
X6121654Y2731515D02*
G01*
X6121654Y2622550D01*
X5993891Y2752344D02*
G01*
X6087363Y2585973D01*
X5928359Y2731515D02*
G01*
X5938774Y2726436D01*
X5949188Y2716021D01*
X5954522Y2705607D01*
X5959602Y2689860D01*
X5959602Y2663952D01*
X5954522Y2648457D01*
X5949188Y2638044D01*
X5938774Y2627629D01*
X5928359Y2622550D01*
X5907786Y2622550D01*
X5897372Y2627629D01*
X5886958Y2638044D01*
X5881624Y2648457D01*
X5876543Y2663952D01*
X5876543Y2689860D01*
X5881624Y2705607D01*
X5886958Y2716021D01*
X5897372Y2726436D01*
X5907786Y2731515D01*
X5928359Y2731515D01*
X5842254Y2731515D02*
G01*
X5842254Y2622550D01*
X5842254Y2731515D02*
G01*
X5774690Y2731515D01*
X5842254Y2679700D02*
G01*
X5800597Y2679700D01*
X5740400Y2731515D02*
G01*
X5740400Y2622550D01*
X5740400Y2731515D02*
G01*
X5672836Y2731515D01*
X5740400Y2679700D02*
G01*
X5698743Y2679700D01*
X4051300Y2375915D02*
G01*
X4051300Y2266950D01*
X4051300Y2375915D02*
G01*
X4004563Y2375915D01*
X3989070Y2370836D01*
X3983736Y2365502D01*
X3978656Y2355087D01*
X3978656Y2339594D01*
X3983736Y2329179D01*
X3989070Y2324100D01*
X4004563Y2318765D01*
X4051300Y2318765D01*
X3913124Y2375915D02*
G01*
X3923538Y2370836D01*
X3933952Y2360421D01*
X3939031Y2350007D01*
X3944365Y2334260D01*
X3944365Y2308352D01*
X3939031Y2292857D01*
X3933952Y2282444D01*
X3923538Y2272029D01*
X3913124Y2266950D01*
X3892295Y2266950D01*
X3881881Y2272029D01*
X3871468Y2282444D01*
X3866388Y2292857D01*
X3861054Y2308352D01*
X3861054Y2334260D01*
X3866388Y2350007D01*
X3871468Y2360421D01*
X3881881Y2370836D01*
X3892295Y2375915D01*
X3913124Y2375915D01*
X3826763Y2375915D02*
G01*
X3800856Y2266950D01*
X3774947Y2375915D02*
G01*
X3800856Y2266950D01*
X3774947Y2375915D02*
G01*
X3749040Y2266950D01*
X3722877Y2375915D02*
G01*
X3749040Y2266950D01*
X3688588Y2375915D02*
G01*
X3688588Y2266950D01*
X3688588Y2375915D02*
G01*
X3621024Y2375915D01*
X3688588Y2324100D02*
G01*
X3647186Y2324100D01*
X3688588Y2266950D02*
G01*
X3621024Y2266950D01*
X3586734Y2375915D02*
G01*
X3586734Y2266950D01*
X3586734Y2375915D02*
G01*
X3539997Y2375915D01*
X3524504Y2370836D01*
X3519170Y2365502D01*
X3514090Y2355087D01*
X3514090Y2344673D01*
X3519170Y2334260D01*
X3524504Y2329179D01*
X3539997Y2324100D01*
X3586734Y2324100D01*
X3550411Y2324100D02*
G01*
X3514090Y2266950D01*
X5105400Y2337815D02*
G01*
X5105400Y2228850D01*
X5105400Y2337815D02*
G01*
X5063743Y2228850D01*
X5022341Y2337815D02*
G01*
X5063743Y2228850D01*
X5022341Y2337815D02*
G01*
X5022341Y2228850D01*
X4956809Y2337815D02*
G01*
X4967224Y2332736D01*
X4977638Y2322321D01*
X4982718Y2311907D01*
X4988052Y2296160D01*
X4988052Y2270252D01*
X4982718Y2254757D01*
X4977638Y2244344D01*
X4967224Y2233929D01*
X4956809Y2228850D01*
X4935981Y2228850D01*
X4925568Y2233929D01*
X4915154Y2244344D01*
X4910074Y2254757D01*
X4904740Y2270252D01*
X4904740Y2296160D01*
X4910074Y2311907D01*
X4915154Y2322321D01*
X4925568Y2332736D01*
X4935981Y2337815D01*
X4956809Y2337815D01*
X4834127Y2337815D02*
G01*
X4834127Y2228850D01*
X4870450Y2337815D02*
G01*
X4797806Y2337815D01*
X4732274Y2337815D02*
G01*
X4742688Y2332736D01*
X4753102Y2322321D01*
X4758436Y2311907D01*
X4763515Y2296160D01*
X4763515Y2270252D01*
X4758436Y2254757D01*
X4753102Y2244344D01*
X4742688Y2233929D01*
X4732274Y2228850D01*
X4711700Y2228850D01*
X4701286Y2233929D01*
X4690872Y2244344D01*
X4685538Y2254757D01*
X4680458Y2270252D01*
X4680458Y2296160D01*
X4685538Y2311907D01*
X4690872Y2322321D01*
X4701286Y2332736D01*
X4711700Y2337815D01*
X4732274Y2337815D01*
X4646168Y2337815D02*
G01*
X4646168Y2228850D01*
X4646168Y2337815D02*
G01*
X4599431Y2337815D01*
X4583684Y2332736D01*
X4578604Y2327402D01*
X4573270Y2316987D01*
X4573270Y2306573D01*
X4578604Y2296160D01*
X4583684Y2291079D01*
X4599431Y2286000D01*
X4646168Y2286000D01*
X4609845Y2286000D02*
G01*
X4573270Y2228850D01*
X4699000Y2769615D02*
G01*
X4699000Y2660650D01*
X4699000Y2769615D02*
G01*
X4652263Y2769615D01*
X4636770Y2764536D01*
X4631436Y2759202D01*
X4626356Y2748787D01*
X4626356Y2738373D01*
X4631436Y2727960D01*
X4636770Y2722879D01*
X4652263Y2717800D01*
X4699000Y2717800D01*
X4662677Y2717800D02*
G01*
X4626356Y2660650D01*
X4592065Y2748787D02*
G01*
X4581652Y2754121D01*
X4565904Y2769615D01*
X4565904Y2660650D01*
X5054600Y3391915D02*
G01*
X5054600Y3282950D01*
X5054600Y3391915D02*
G01*
X5007863Y3391915D01*
X4992370Y3386836D01*
X4987036Y3381502D01*
X4981956Y3371087D01*
X4981956Y3360673D01*
X4987036Y3350260D01*
X4992370Y3345179D01*
X5007863Y3340100D01*
X5054600Y3340100D02*
G01*
X5007863Y3340100D01*
X4992370Y3334765D01*
X4987036Y3329686D01*
X4981956Y3319271D01*
X4981956Y3303523D01*
X4987036Y3293110D01*
X4992370Y3288029D01*
X5007863Y3282950D01*
X5054600Y3282950D01*
X4937252Y3391915D02*
G01*
X4880102Y3391915D01*
X4911090Y3350260D01*
X4895595Y3350260D01*
X4885181Y3345179D01*
X4880102Y3340100D01*
X4874768Y3324352D01*
X4874768Y3313937D01*
X4880102Y3298444D01*
X4890515Y3288029D01*
X4906009Y3282950D01*
X4921504Y3282950D01*
X4937252Y3288029D01*
X4942331Y3293110D01*
X4947665Y3303523D01*
X3346958Y3455415D02*
G01*
X3357372Y3450336D01*
X3367786Y3439921D01*
X3373120Y3429507D01*
X3378200Y3413760D01*
X3378200Y3387852D01*
X3373120Y3372357D01*
X3367786Y3361944D01*
X3357372Y3351529D01*
X3346958Y3346450D01*
X3326129Y3346450D01*
X3315970Y3351529D01*
X3305556Y3361944D01*
X3300222Y3372357D01*
X3295141Y3387852D01*
X3295141Y3413760D01*
X3300222Y3429507D01*
X3305556Y3439921D01*
X3315970Y3450336D01*
X3326129Y3455415D01*
X3346958Y3455415D01*
X3331463Y3367023D02*
G01*
X3300222Y3336036D01*
X3260852Y3434587D02*
G01*
X3250438Y3439921D01*
X3234690Y3455415D01*
X3234690Y3346450D01*
D10*
X3962654Y3695700D02*
G01*
X4010406Y3695700D01*
X3962654Y3695700D02*
G01*
X3962654Y3675126D01*
X3964940Y3668521D01*
X3967225Y3666236D01*
X3971797Y3663950D01*
X3976370Y3663950D01*
X3980941Y3666236D01*
X3983227Y3668521D01*
X3985513Y3675126D01*
X3985513Y3695700D02*
G01*
X3985513Y3675126D01*
X3987800Y3668521D01*
X3990086Y3666236D01*
X3994658Y3663950D01*
X4001261Y3663950D01*
X4005834Y3666236D01*
X4008120Y3668521D01*
X4010406Y3675126D01*
X4010406Y3695700D01*
X3953763Y3632962D02*
G01*
X3958081Y3637534D01*
X3964940Y3642105D01*
X3974084Y3646678D01*
X3985513Y3648963D01*
X3994658Y3648963D01*
X4005834Y3646678D01*
X4014977Y3642105D01*
X4021836Y3637534D01*
X4026408Y3632962D01*
X3971797Y3617976D02*
G01*
X3969511Y3613404D01*
X3962654Y3606545D01*
X4010406Y3606545D01*
X3953763Y3591560D02*
G01*
X3958081Y3586987D01*
X3964940Y3582415D01*
X3974084Y3578097D01*
X3985513Y3575812D01*
X3994658Y3575812D01*
X4005834Y3578097D01*
X4014977Y3582415D01*
X4021836Y3586987D01*
X4026408Y3591560D01*
X3783584Y3699763D02*
G01*
X3779011Y3702050D01*
X3774440Y3706621D01*
X3772154Y3711194D01*
X3772154Y3720084D01*
X3774440Y3724655D01*
X3779011Y3729228D01*
X3783584Y3731513D01*
X3790441Y3733800D01*
X3801872Y3733800D01*
X3808729Y3731513D01*
X3813047Y3729228D01*
X3817620Y3724655D01*
X3819906Y3720084D01*
X3819906Y3711194D01*
X3817620Y3706621D01*
X3813047Y3702050D01*
X3808729Y3699763D01*
X3763263Y3668776D02*
G01*
X3767581Y3673347D01*
X3774440Y3677920D01*
X3783584Y3682492D01*
X3795013Y3684778D01*
X3804158Y3684778D01*
X3815334Y3682492D01*
X3824477Y3677920D01*
X3831336Y3673347D01*
X3835908Y3668776D01*
X3783584Y3651504D02*
G01*
X3781297Y3651504D01*
X3776725Y3649218D01*
X3774440Y3646931D01*
X3772154Y3642360D01*
X3772154Y3633470D01*
X3774440Y3628897D01*
X3776725Y3626612D01*
X3781297Y3624326D01*
X3785870Y3624326D01*
X3790441Y3626612D01*
X3797300Y3631184D01*
X3819906Y3653789D01*
X3819906Y3622039D01*
X3763263Y3607054D02*
G01*
X3767581Y3602481D01*
X3774440Y3597910D01*
X3783584Y3593337D01*
X3795013Y3591052D01*
X3804158Y3591052D01*
X3815334Y3593337D01*
X3824477Y3597910D01*
X3831336Y3602481D01*
X3835908Y3607054D01*
X3530854Y3721100D02*
G01*
X3578606Y3721100D01*
X3530854Y3721100D02*
G01*
X3530854Y3691636D01*
X3553713Y3721100D02*
G01*
X3553713Y3702812D01*
X3578606Y3721100D02*
G01*
X3578606Y3691636D01*
X3521963Y3660647D02*
G01*
X3526281Y3665220D01*
X3533140Y3669792D01*
X3542284Y3674363D01*
X3553713Y3676650D01*
X3562858Y3676650D01*
X3574034Y3674363D01*
X3583177Y3669792D01*
X3590036Y3665220D01*
X3594608Y3660647D01*
X3530854Y3641089D02*
G01*
X3530854Y3616197D01*
X3549141Y3629660D01*
X3549141Y3622802D01*
X3551427Y3618484D01*
X3553713Y3616197D01*
X3560572Y3613912D01*
X3565143Y3613912D01*
X3571747Y3616197D01*
X3576320Y3620770D01*
X3578606Y3627373D01*
X3578606Y3634231D01*
X3576320Y3641089D01*
X3574034Y3643376D01*
X3569461Y3645662D01*
X3521963Y3598926D02*
G01*
X3526281Y3594354D01*
X3533140Y3589781D01*
X3542284Y3585210D01*
X3553713Y3582923D01*
X3562858Y3582923D01*
X3574034Y3585210D01*
X3583177Y3589781D01*
X3590036Y3594354D01*
X3594608Y3598926D01*
D11*
X7073900Y3618737D02*
G01*
X7073900Y3523234D01*
X7073900Y3618737D02*
G01*
X7042150Y3618737D01*
X7028434Y3614165D01*
X7019290Y3605276D01*
X7014718Y3596131D01*
X7010145Y3582415D01*
X7010145Y3559810D01*
X7014718Y3546094D01*
X7019290Y3536950D01*
X7028434Y3527805D01*
X7042150Y3523234D01*
X7073900Y3523234D01*
X6980174Y3600704D02*
G01*
X6971284Y3605276D01*
X6957568Y3618737D01*
X6957568Y3523234D01*
X6927595Y3600704D02*
G01*
X6918452Y3605276D01*
X6904736Y3618737D01*
X6904736Y3523234D01*
X6832600Y3631437D02*
G01*
X6832600Y3535934D01*
X6832600Y3631437D02*
G01*
X6800850Y3631437D01*
X6787134Y3626865D01*
X6777990Y3617976D01*
X6773418Y3608831D01*
X6768845Y3595115D01*
X6768845Y3572510D01*
X6773418Y3558794D01*
X6777990Y3549650D01*
X6787134Y3540505D01*
X6800850Y3535934D01*
X6832600Y3535934D01*
X6738874Y3613404D02*
G01*
X6729984Y3617976D01*
X6716268Y3631437D01*
X6716268Y3535934D01*
X6658863Y3631437D02*
G01*
X6672579Y3626865D01*
X6681724Y3613404D01*
X6686295Y3590544D01*
X6686295Y3577081D01*
X6681724Y3554221D01*
X6672579Y3540505D01*
X6658863Y3535934D01*
X6649974Y3535934D01*
X6636258Y3540505D01*
X6627113Y3554221D01*
X6622541Y3577081D01*
X6622541Y3590544D01*
X6627113Y3613404D01*
X6636258Y3626865D01*
X6649974Y3631437D01*
X6658863Y3631437D01*
X6540500Y3631437D02*
G01*
X6540500Y3535934D01*
X6540500Y3631437D02*
G01*
X6508750Y3631437D01*
X6495034Y3626865D01*
X6485890Y3617976D01*
X6481318Y3608831D01*
X6476745Y3595115D01*
X6476745Y3572510D01*
X6481318Y3558794D01*
X6485890Y3549650D01*
X6495034Y3540505D01*
X6508750Y3535934D01*
X6540500Y3535934D01*
X6387845Y3599687D02*
G01*
X6392418Y3585971D01*
X6401308Y3577081D01*
X6415024Y3572510D01*
X6419595Y3572510D01*
X6433311Y3577081D01*
X6442202Y3585971D01*
X6446774Y3599687D01*
X6446774Y3604260D01*
X6442202Y3617976D01*
X6433311Y3626865D01*
X6419595Y3631437D01*
X6415024Y3631437D01*
X6401308Y3626865D01*
X6392418Y3617976D01*
X6387845Y3599687D01*
X6387845Y3577081D01*
X6392418Y3554221D01*
X6401308Y3540505D01*
X6415024Y3535934D01*
X6424168Y3535934D01*
X6437884Y3540505D01*
X6442202Y3549650D01*
X6299200Y3618737D02*
G01*
X6299200Y3523234D01*
X6299200Y3618737D02*
G01*
X6267450Y3618737D01*
X6253734Y3614165D01*
X6244590Y3605276D01*
X6240018Y3596131D01*
X6235445Y3582415D01*
X6235445Y3559810D01*
X6240018Y3546094D01*
X6244590Y3536950D01*
X6253734Y3527805D01*
X6267450Y3523234D01*
X6299200Y3523234D01*
X6182868Y3618737D02*
G01*
X6196584Y3614165D01*
X6200902Y3605276D01*
X6200902Y3596131D01*
X6196584Y3586987D01*
X6187440Y3582415D01*
X6169152Y3577844D01*
X6155690Y3573271D01*
X6146545Y3564381D01*
X6141974Y3555237D01*
X6141974Y3541521D01*
X6146545Y3532378D01*
X6151118Y3527805D01*
X6164579Y3523234D01*
X6182868Y3523234D01*
X6196584Y3527805D01*
X6200902Y3532378D01*
X6205474Y3541521D01*
X6205474Y3555237D01*
X6200902Y3564381D01*
X6192011Y3573271D01*
X6178295Y3577844D01*
X6160008Y3582415D01*
X6151118Y3586987D01*
X6146545Y3596131D01*
X6146545Y3605276D01*
X6151118Y3614165D01*
X6164579Y3618737D01*
X6182868Y3618737D01*
X6032500Y3618737D02*
G01*
X6032500Y3523234D01*
X6032500Y3618737D02*
G01*
X6000750Y3618737D01*
X5987034Y3614165D01*
X5977890Y3605276D01*
X5973318Y3596131D01*
X5968745Y3582415D01*
X5968745Y3559810D01*
X5973318Y3546094D01*
X5977890Y3536950D01*
X5987034Y3527805D01*
X6000750Y3523234D01*
X6032500Y3523234D01*
X5875274Y3618737D02*
G01*
X5920740Y3523234D01*
X5938774Y3618737D02*
G01*
X5875274Y3618737D01*
X5778500Y3631437D02*
G01*
X5778500Y3535934D01*
X5778500Y3631437D02*
G01*
X5746750Y3631437D01*
X5733034Y3626865D01*
X5723890Y3617976D01*
X5719318Y3608831D01*
X5714745Y3595115D01*
X5714745Y3572510D01*
X5719318Y3558794D01*
X5723890Y3549650D01*
X5733034Y3540505D01*
X5746750Y3535934D01*
X5778500Y3535934D01*
X5630418Y3617976D02*
G01*
X5634990Y3626865D01*
X5648452Y3631437D01*
X5657595Y3631437D01*
X5671311Y3626865D01*
X5680202Y3613404D01*
X5684774Y3590544D01*
X5684774Y3567937D01*
X5680202Y3549650D01*
X5671311Y3540505D01*
X5657595Y3535934D01*
X5653024Y3535934D01*
X5639308Y3540505D01*
X5630418Y3549650D01*
X5625845Y3563365D01*
X5625845Y3567937D01*
X5630418Y3581400D01*
X5639308Y3590544D01*
X5653024Y3595115D01*
X5657595Y3595115D01*
X5671311Y3590544D01*
X5680202Y3581400D01*
X5684774Y3567937D01*
X5524500Y3631437D02*
G01*
X5524500Y3535934D01*
X5524500Y3631437D02*
G01*
X5492750Y3631437D01*
X5479034Y3626865D01*
X5469890Y3617976D01*
X5465318Y3608831D01*
X5460745Y3595115D01*
X5460745Y3572510D01*
X5465318Y3558794D01*
X5469890Y3549650D01*
X5479034Y3540505D01*
X5492750Y3535934D01*
X5524500Y3535934D01*
X5376418Y3631437D02*
G01*
X5421884Y3631437D01*
X5426202Y3590544D01*
X5421884Y3595115D01*
X5408168Y3599687D01*
X5394452Y3599687D01*
X5380990Y3595115D01*
X5371845Y3585971D01*
X5367274Y3572510D01*
X5367274Y3563365D01*
X5371845Y3549650D01*
X5380990Y3540505D01*
X5394452Y3535934D01*
X5408168Y3535934D01*
X5421884Y3540505D01*
X5426202Y3545078D01*
X5430774Y3554221D01*
X5270500Y3631437D02*
G01*
X5270500Y3535934D01*
X5270500Y3631437D02*
G01*
X5238750Y3631437D01*
X5225034Y3626865D01*
X5215890Y3617976D01*
X5211318Y3608831D01*
X5206745Y3595115D01*
X5206745Y3572510D01*
X5211318Y3558794D01*
X5215890Y3549650D01*
X5225034Y3540505D01*
X5238750Y3535934D01*
X5270500Y3535934D01*
X5131308Y3631437D02*
G01*
X5176774Y3567937D01*
X5108702Y3567937D01*
X5131308Y3631437D02*
G01*
X5131308Y3535934D01*
D13*
X3694948Y4159252D02*
G01*
X3599444Y4159252D01*
X3694948Y4127502D02*
G01*
X3694948Y4191256D01*
X3694948Y4221228D02*
G01*
X3599444Y4284728D01*
X3694948Y4284728D02*
G01*
X3599444Y4221228D01*
X3694948Y4314700D02*
G01*
X3599444Y4314700D01*
X3694948Y4314700D02*
G01*
X3694948Y4346704D01*
X3690376Y4360166D01*
X3681486Y4369310D01*
X3672342Y4373882D01*
X3658626Y4378454D01*
X3636020Y4378454D01*
X3622304Y4373882D01*
X3613160Y4369310D01*
X3604016Y4360166D01*
X3599444Y4346704D01*
X3599444Y4314700D01*
D12*
X6657086Y4840478D02*
G01*
X6731000Y4646676D01*
X6657086Y4840478D02*
G01*
X6583172Y4646676D01*
X6703313Y4711192D02*
G01*
X6610858Y4711192D01*
X6522211Y4840478D02*
G01*
X6522211Y4646676D01*
X6522211Y4840478D02*
G01*
X6439154Y4840478D01*
X6411468Y4831334D01*
X6402070Y4822189D01*
X6392925Y4803647D01*
X6392925Y4785105D01*
X6402070Y4766563D01*
X6411468Y4757420D01*
X6439154Y4748276D01*
X6522211Y4748276D01*
X6457695Y4748276D02*
G01*
X6392925Y4646676D01*
X6331965Y4840478D02*
G01*
X6331965Y4646676D01*
X6331965Y4840478D02*
G01*
X6267450Y4840478D01*
X6239509Y4831334D01*
X6221222Y4812792D01*
X6211824Y4794250D01*
X6202679Y4766563D01*
X6202679Y4720589D01*
X6211824Y4692650D01*
X6221222Y4674362D01*
X6239509Y4655820D01*
X6267450Y4646676D01*
X6331965Y4646676D01*
X6141720Y4840478D02*
G01*
X6141720Y4702047D01*
X6132575Y4674362D01*
X6114034Y4655820D01*
X6086347Y4646676D01*
X6067806Y4646676D01*
X6040120Y4655820D01*
X6021577Y4674362D01*
X6012434Y4702047D01*
X6012434Y4840478D01*
X5951474Y4840478D02*
G01*
X5951474Y4646676D01*
X5890513Y4840478D02*
G01*
X5890513Y4646676D01*
X5890513Y4840478D02*
G01*
X5761227Y4646676D01*
X5761227Y4840478D02*
G01*
X5761227Y4646676D01*
X5644895Y4840478D02*
G01*
X5663184Y4831334D01*
X5681725Y4812792D01*
X5690870Y4794250D01*
X5700268Y4766563D01*
X5700268Y4720589D01*
X5690870Y4692650D01*
X5681725Y4674362D01*
X5663184Y4655820D01*
X5644895Y4646676D01*
X5607811Y4646676D01*
X5589270Y4655820D01*
X5570981Y4674362D01*
X5561584Y4692650D01*
X5552440Y4720589D01*
X5552440Y4766563D01*
X5561584Y4794250D01*
X5570981Y4812792D01*
X5589270Y4831334D01*
X5607811Y4840478D01*
X5644895Y4840478D01*
X5349240Y4840478D02*
G01*
X5349240Y4646676D01*
X5349240Y4840478D02*
G01*
X5219954Y4646676D01*
X5219954Y4840478D02*
G01*
X5219954Y4646676D01*
X5085079Y4840478D02*
G01*
X5158993Y4646676D01*
X5085079Y4840478D02*
G01*
X5011165Y4646676D01*
X5131308Y4711192D02*
G01*
X5038852Y4711192D01*
X4950206Y4840478D02*
G01*
X4950206Y4646676D01*
X4950206Y4840478D02*
G01*
X4820920Y4646676D01*
X4820920Y4840478D02*
G01*
X4820920Y4646676D01*
X4704588Y4840478D02*
G01*
X4723129Y4831334D01*
X4741418Y4812792D01*
X4750815Y4794250D01*
X4759959Y4766563D01*
X4759959Y4720589D01*
X4750815Y4692650D01*
X4741418Y4674362D01*
X4723129Y4655820D01*
X4704588Y4646676D01*
X4667504Y4646676D01*
X4649215Y4655820D01*
X4630674Y4674362D01*
X4621529Y4692650D01*
X4612131Y4720589D01*
X4612131Y4766563D01*
X4621529Y4794250D01*
X4630674Y4812792D01*
X4649215Y4831334D01*
X4667504Y4840478D01*
X4704588Y4840478D01*
D13*
X4241030Y5156197D02*
G01*
X4145526Y5156197D01*
X4241030Y5156197D02*
G01*
X4241030Y5197091D01*
X4236458Y5210807D01*
X4231886Y5215379D01*
X4222996Y5219951D01*
X4213852Y5219951D01*
X4204708Y5215379D01*
X4200136Y5210807D01*
X4195564Y5197091D01*
X4195564Y5156197D01*
X4195564Y5187947D02*
G01*
X4145526Y5219951D01*
X4227568Y5313423D02*
G01*
X4236458Y5304279D01*
X4241030Y5290817D01*
X4241030Y5272529D01*
X4236458Y5258813D01*
X4227568Y5249923D01*
X4218424Y5249923D01*
X4209280Y5254495D01*
X4204708Y5258813D01*
X4200136Y5267957D01*
X4190992Y5295389D01*
X4186674Y5304279D01*
X4182102Y5308851D01*
X4172958Y5313423D01*
X4159242Y5313423D01*
X4150098Y5304279D01*
X4145526Y5290817D01*
X4145526Y5272529D01*
X4150098Y5258813D01*
X4159242Y5249923D01*
X4241030Y5375399D02*
G01*
X4145526Y5375399D01*
X4241030Y5343395D02*
G01*
X4241030Y5407149D01*
X3977121Y5198871D02*
G01*
X3986265Y5194554D01*
X3995155Y5185410D01*
X3999727Y5176265D01*
X3999727Y5157978D01*
X3995155Y5149087D01*
X3986265Y5139944D01*
X3977121Y5135371D01*
X3963405Y5130800D01*
X3940799Y5130800D01*
X3927083Y5135371D01*
X3917939Y5139944D01*
X3908795Y5149087D01*
X3904223Y5157978D01*
X3904223Y5176265D01*
X3908795Y5185410D01*
X3917939Y5194554D01*
X3927083Y5198871D01*
X3940799Y5198871D01*
X3940799Y5176265D02*
G01*
X3940799Y5198871D01*
X3999727Y5229097D02*
G01*
X3904223Y5229097D01*
X3999727Y5229097D02*
G01*
X3904223Y5292597D01*
X3999727Y5292597D02*
G01*
X3904223Y5292597D01*
X3999727Y5322570D02*
G01*
X3904223Y5322570D01*
X3999727Y5322570D02*
G01*
X3999727Y5354320D01*
X3995155Y5368036D01*
X3986265Y5377179D01*
X3977121Y5381752D01*
X3963405Y5386323D01*
X3940799Y5386323D01*
X3927083Y5381752D01*
X3917939Y5377179D01*
X3908795Y5368036D01*
X3904223Y5354320D01*
X3904223Y5322570D01*
D11*
X6516877Y5993637D02*
G01*
X6553200Y5898134D01*
X6516877Y5993637D02*
G01*
X6480556Y5898134D01*
X6539484Y5930137D02*
G01*
X6494018Y5930137D01*
X6423152Y5993637D02*
G01*
X6436868Y5989065D01*
X6446011Y5975604D01*
X6450584Y5952744D01*
X6450584Y5939281D01*
X6446011Y5916421D01*
X6436868Y5902705D01*
X6423152Y5898134D01*
X6414008Y5898134D01*
X6400545Y5902705D01*
X6391402Y5916421D01*
X6386829Y5939281D01*
X6386829Y5952744D01*
X6391402Y5975604D01*
X6400545Y5989065D01*
X6414008Y5993637D01*
X6423152Y5993637D01*
X6224777Y5993637D02*
G01*
X6261100Y5898134D01*
X6224777Y5993637D02*
G01*
X6188456Y5898134D01*
X6247384Y5930137D02*
G01*
X6201918Y5930137D01*
X6158484Y5975604D02*
G01*
X6149340Y5980176D01*
X6135624Y5993637D01*
X6135624Y5898134D01*
X5983477Y6006337D02*
G01*
X6019800Y5910834D01*
X5983477Y6006337D02*
G01*
X5947156Y5910834D01*
X6006084Y5942837D02*
G01*
X5960618Y5942837D01*
X5912611Y5983731D02*
G01*
X5912611Y5988304D01*
X5908040Y5997194D01*
X5903468Y6001765D01*
X5894324Y6006337D01*
X5876290Y6006337D01*
X5867145Y6001765D01*
X5862574Y5997194D01*
X5858002Y5988304D01*
X5858002Y5979160D01*
X5862574Y5970015D01*
X5871718Y5956300D01*
X5917184Y5910834D01*
X5853429Y5910834D01*
D13*
X7276325Y5156202D02*
G01*
X7180821Y5156202D01*
X7276325Y5156202D02*
G01*
X7276325Y5187952D01*
X7271753Y5201668D01*
X7262863Y5210812D01*
X7253719Y5215384D01*
X7240003Y5219956D01*
X7217397Y5219956D01*
X7203681Y5215384D01*
X7194537Y5210812D01*
X7185393Y5201668D01*
X7180821Y5187952D01*
X7180821Y5156202D01*
X7258291Y5249928D02*
G01*
X7262863Y5258818D01*
X7276325Y5272534D01*
X7180821Y5272534D01*
X7276325Y5311650D02*
G01*
X7276325Y5361688D01*
X7240003Y5334510D01*
X7240003Y5347972D01*
X7235431Y5357116D01*
X7230859Y5361688D01*
X7217397Y5366260D01*
X7208253Y5366260D01*
X7194537Y5361688D01*
X7185393Y5352544D01*
X7180821Y5338828D01*
X7180821Y5325366D01*
X7185393Y5311650D01*
X7189965Y5307078D01*
X7199109Y5302506D01*
X7009630Y5114541D02*
G01*
X7009630Y5164579D01*
X6973308Y5137147D01*
X6973308Y5150863D01*
X6968736Y5160007D01*
X6964164Y5164579D01*
X6950702Y5169151D01*
X6941558Y5169151D01*
X6927842Y5164579D01*
X6918698Y5155435D01*
X6914126Y5141719D01*
X6914126Y5128003D01*
X6918698Y5114541D01*
X6923270Y5109969D01*
X6932414Y5105397D01*
X7009630Y5199123D02*
G01*
X6914126Y5235445D01*
X7009630Y5271767D02*
G01*
X6914126Y5235445D01*
X7009630Y5310883D02*
G01*
X7009630Y5360921D01*
X6973308Y5333489D01*
X6973308Y5347205D01*
X6968736Y5356349D01*
X6964164Y5360921D01*
X6950702Y5365493D01*
X6941558Y5365493D01*
X6927842Y5360921D01*
X6918698Y5351777D01*
X6914126Y5338061D01*
X6914126Y5324599D01*
X6918698Y5310883D01*
X6923270Y5306311D01*
X6932414Y5301739D01*
X6527027Y5243321D02*
G01*
X6431523Y5207000D01*
X6527027Y5243321D02*
G01*
X6431523Y5279644D01*
X6463527Y5220715D02*
G01*
X6463527Y5266181D01*
X6527027Y5337047D02*
G01*
X6522455Y5323331D01*
X6508993Y5314187D01*
X6486133Y5309615D01*
X6472671Y5309615D01*
X6449811Y5314187D01*
X6436095Y5323331D01*
X6431523Y5337047D01*
X6431523Y5346192D01*
X6436095Y5359654D01*
X6449811Y5368797D01*
X6472671Y5373370D01*
X6486133Y5373370D01*
X6508993Y5368797D01*
X6522455Y5359654D01*
X6527027Y5346192D01*
X6527027Y5337047D01*
X6273030Y5243319D02*
G01*
X6177526Y5206997D01*
X6273030Y5243319D02*
G01*
X6177526Y5279641D01*
X6209530Y5220713D02*
G01*
X6209530Y5266179D01*
X6254996Y5309613D02*
G01*
X6259568Y5318757D01*
X6273030Y5332473D01*
X6177526Y5332473D01*
X6019027Y5217921D02*
G01*
X5923523Y5181600D01*
X6019027Y5217921D02*
G01*
X5923523Y5254244D01*
X5955527Y5195315D02*
G01*
X5955527Y5240781D01*
X5996421Y5288787D02*
G01*
X6000993Y5288787D01*
X6009883Y5293360D01*
X6014455Y5297931D01*
X6019027Y5307076D01*
X6019027Y5325110D01*
X6014455Y5334254D01*
X6009883Y5338826D01*
X6000993Y5343397D01*
X5991849Y5343397D01*
X5982705Y5338826D01*
X5968989Y5329681D01*
X5923523Y5284215D01*
X5923523Y5347970D01*
X5523725Y5217924D02*
G01*
X5428221Y5181602D01*
X5523725Y5217924D02*
G01*
X5428221Y5254246D01*
X5460225Y5195318D02*
G01*
X5460225Y5240784D01*
X5523725Y5329684D02*
G01*
X5460225Y5284218D01*
X5460225Y5352544D01*
X5523725Y5329684D02*
G01*
X5428221Y5329684D01*
X5244327Y5217921D02*
G01*
X5148823Y5181600D01*
X5244327Y5217921D02*
G01*
X5148823Y5254244D01*
X5180827Y5195315D02*
G01*
X5180827Y5240781D01*
X5244327Y5338826D02*
G01*
X5244327Y5293360D01*
X5203433Y5288787D01*
X5208005Y5293360D01*
X5212577Y5307076D01*
X5212577Y5320792D01*
X5208005Y5334254D01*
X5198861Y5343397D01*
X5185399Y5347970D01*
X5176255Y5347970D01*
X5162539Y5343397D01*
X5153395Y5334254D01*
X5148823Y5320792D01*
X5148823Y5307076D01*
X5153395Y5293360D01*
X5157967Y5288787D01*
X5167111Y5284215D01*
X5003025Y5217924D02*
G01*
X4907521Y5181602D01*
X5003025Y5217924D02*
G01*
X4907521Y5254246D01*
X4939525Y5195318D02*
G01*
X4939525Y5240784D01*
X4989563Y5338828D02*
G01*
X4998453Y5334256D01*
X5003025Y5320794D01*
X5003025Y5311650D01*
X4998453Y5297934D01*
X4984991Y5288790D01*
X4962131Y5284218D01*
X4939525Y5284218D01*
X4921237Y5288790D01*
X4912093Y5297934D01*
X4907521Y5311650D01*
X4907521Y5316222D01*
X4912093Y5329684D01*
X4921237Y5338828D01*
X4934953Y5343400D01*
X4939525Y5343400D01*
X4952987Y5338828D01*
X4962131Y5329684D01*
X4966703Y5316222D01*
X4966703Y5311650D01*
X4962131Y5297934D01*
X4952987Y5288790D01*
X4939525Y5284218D01*
X4495027Y5261610D02*
G01*
X4495027Y5216144D01*
X4454133Y5211571D01*
X4458705Y5216144D01*
X4463277Y5229605D01*
X4463277Y5243321D01*
X4458705Y5257037D01*
X4449561Y5266181D01*
X4436099Y5270754D01*
X4426955Y5270754D01*
X4413239Y5266181D01*
X4404095Y5257037D01*
X4399523Y5243321D01*
X4399523Y5229605D01*
X4404095Y5216144D01*
X4408667Y5211571D01*
X4417811Y5207000D01*
X4495027Y5300726D02*
G01*
X4399523Y5337047D01*
X4495027Y5373370D02*
G01*
X4399523Y5337047D01*
D11*
X4648200Y5855715D02*
G01*
X4648200Y5746750D01*
X4648200Y5855715D02*
G01*
X4601463Y5855715D01*
X4585970Y5850636D01*
X4580636Y5845302D01*
X4575556Y5834887D01*
X4575556Y5824473D01*
X4580636Y5814060D01*
X4585970Y5808979D01*
X4601463Y5803900D01*
X4648200Y5803900D01*
X4611877Y5803900D02*
G01*
X4575556Y5746750D01*
X4541265Y5855715D02*
G01*
X4541265Y5746750D01*
X4541265Y5855715D02*
G01*
X4473702Y5855715D01*
X4541265Y5803900D02*
G01*
X4499609Y5803900D01*
X4541265Y5746750D02*
G01*
X4473702Y5746750D01*
X4366513Y5840221D02*
G01*
X4376927Y5850636D01*
X4392675Y5855715D01*
X4413250Y5855715D01*
X4428997Y5850636D01*
X4439411Y5840221D01*
X4439411Y5829807D01*
X4434077Y5819394D01*
X4428997Y5814060D01*
X4418584Y5808979D01*
X4387341Y5798565D01*
X4376927Y5793486D01*
X4371847Y5788152D01*
X4366513Y5777737D01*
X4366513Y5762244D01*
X4376927Y5751829D01*
X4392675Y5746750D01*
X4413250Y5746750D01*
X4428997Y5751829D01*
X4439411Y5762244D01*
X4332224Y5855715D02*
G01*
X4332224Y5746750D01*
X4332224Y5855715D02*
G01*
X4264659Y5855715D01*
X4332224Y5803900D02*
G01*
X4290822Y5803900D01*
X4332224Y5746750D02*
G01*
X4264659Y5746750D01*
X4194047Y5855715D02*
G01*
X4194047Y5746750D01*
X4230370Y5855715D02*
G01*
X4157725Y5855715D01*
D13*
X7276348Y4127502D02*
G01*
X7180844Y4127502D01*
X7276348Y4127502D02*
G01*
X7276348Y4159252D01*
X7271776Y4172968D01*
X7262886Y4182112D01*
X7253742Y4186684D01*
X7240026Y4191256D01*
X7217420Y4191256D01*
X7203704Y4186684D01*
X7194560Y4182112D01*
X7185416Y4172968D01*
X7180844Y4159252D01*
X7180844Y4127502D01*
X7258314Y4221228D02*
G01*
X7262886Y4230118D01*
X7276348Y4243834D01*
X7180844Y4243834D01*
X7253742Y4278378D02*
G01*
X7258314Y4278378D01*
X7267204Y4282950D01*
X7271776Y4287522D01*
X7276348Y4296666D01*
X7276348Y4314700D01*
X7271776Y4323844D01*
X7267204Y4328416D01*
X7258314Y4332988D01*
X7249170Y4332988D01*
X7240026Y4328416D01*
X7226310Y4319272D01*
X7180844Y4273806D01*
X7180844Y4337560D01*
X7022350Y4124708D02*
G01*
X6926846Y4124708D01*
X7022350Y4124708D02*
G01*
X7022350Y4156458D01*
X7017778Y4170174D01*
X7008888Y4179318D01*
X6999744Y4183890D01*
X6986028Y4188462D01*
X6963422Y4188462D01*
X6949706Y4183890D01*
X6940562Y4179318D01*
X6931418Y4170174D01*
X6926846Y4156458D01*
X6926846Y4124708D01*
X7004316Y4218434D02*
G01*
X7008888Y4227324D01*
X7022350Y4241040D01*
X6926846Y4241040D01*
X7004316Y4271012D02*
G01*
X7008888Y4280156D01*
X7022350Y4293872D01*
X6926846Y4293872D01*
X6768348Y4127502D02*
G01*
X6672844Y4127502D01*
X6768348Y4127502D02*
G01*
X6768348Y4159252D01*
X6763776Y4172968D01*
X6754886Y4182112D01*
X6745742Y4186684D01*
X6732026Y4191256D01*
X6709420Y4191256D01*
X6695704Y4186684D01*
X6686560Y4182112D01*
X6677416Y4172968D01*
X6672844Y4159252D01*
X6672844Y4127502D01*
X6750314Y4221228D02*
G01*
X6754886Y4230118D01*
X6768348Y4243834D01*
X6672844Y4243834D01*
X6768348Y4301238D02*
G01*
X6763776Y4287522D01*
X6750314Y4278378D01*
X6727454Y4273806D01*
X6713992Y4273806D01*
X6691132Y4278378D01*
X6677416Y4287522D01*
X6672844Y4301238D01*
X6672844Y4310128D01*
X6677416Y4323844D01*
X6691132Y4332988D01*
X6713992Y4337560D01*
X6727454Y4337560D01*
X6750314Y4332988D01*
X6763776Y4323844D01*
X6768348Y4310128D01*
X6768348Y4301238D01*
X6514348Y4108198D02*
G01*
X6418844Y4108198D01*
X6514348Y4108198D02*
G01*
X6514348Y4139948D01*
X6509776Y4153664D01*
X6500886Y4162808D01*
X6491742Y4167380D01*
X6478026Y4171952D01*
X6455420Y4171952D01*
X6441704Y4167380D01*
X6432560Y4162808D01*
X6423416Y4153664D01*
X6418844Y4139948D01*
X6418844Y4108198D01*
X6482598Y4260852D02*
G01*
X6468882Y4256280D01*
X6459992Y4247390D01*
X6455420Y4233674D01*
X6455420Y4229102D01*
X6459992Y4215386D01*
X6468882Y4206496D01*
X6482598Y4201924D01*
X6487170Y4201924D01*
X6500886Y4206496D01*
X6509776Y4215386D01*
X6514348Y4229102D01*
X6514348Y4233674D01*
X6509776Y4247390D01*
X6500886Y4256280D01*
X6482598Y4260852D01*
X6459992Y4260852D01*
X6437132Y4256280D01*
X6423416Y4247390D01*
X6418844Y4233674D01*
X6418844Y4224530D01*
X6423416Y4210814D01*
X6432560Y4206496D01*
X6260350Y4112770D02*
G01*
X6164846Y4112770D01*
X6260350Y4112770D02*
G01*
X6260350Y4144520D01*
X6255778Y4158236D01*
X6246888Y4167380D01*
X6237744Y4171952D01*
X6224028Y4176524D01*
X6201422Y4176524D01*
X6187706Y4171952D01*
X6178562Y4167380D01*
X6169418Y4158236D01*
X6164846Y4144520D01*
X6164846Y4112770D01*
X6260350Y4229102D02*
G01*
X6255778Y4215386D01*
X6246888Y4211068D01*
X6237744Y4211068D01*
X6228600Y4215386D01*
X6224028Y4224530D01*
X6219456Y4242818D01*
X6214884Y4256280D01*
X6205994Y4265424D01*
X6196850Y4269996D01*
X6183134Y4269996D01*
X6173990Y4265424D01*
X6169418Y4260852D01*
X6164846Y4247390D01*
X6164846Y4229102D01*
X6169418Y4215386D01*
X6173990Y4211068D01*
X6183134Y4206496D01*
X6196850Y4206496D01*
X6205994Y4211068D01*
X6214884Y4219958D01*
X6219456Y4233674D01*
X6224028Y4251962D01*
X6228600Y4260852D01*
X6237744Y4265424D01*
X6246888Y4265424D01*
X6255778Y4260852D01*
X6260350Y4247390D01*
X6260350Y4229102D01*
X6006348Y4112770D02*
G01*
X5910844Y4112770D01*
X6006348Y4112770D02*
G01*
X6006348Y4144520D01*
X6001776Y4158236D01*
X5992886Y4167380D01*
X5983742Y4171952D01*
X5970026Y4176524D01*
X5947420Y4176524D01*
X5933704Y4171952D01*
X5924560Y4167380D01*
X5915416Y4158236D01*
X5910844Y4144520D01*
X5910844Y4112770D01*
X6006348Y4269996D02*
G01*
X5910844Y4224530D01*
X6006348Y4206496D02*
G01*
X6006348Y4269996D01*
X5752348Y4108198D02*
G01*
X5656844Y4108198D01*
X5752348Y4108198D02*
G01*
X5752348Y4139948D01*
X5747776Y4153664D01*
X5738886Y4162808D01*
X5729742Y4167380D01*
X5716026Y4171952D01*
X5693420Y4171952D01*
X5679704Y4167380D01*
X5670560Y4162808D01*
X5661416Y4153664D01*
X5656844Y4139948D01*
X5656844Y4108198D01*
X5738886Y4256280D02*
G01*
X5747776Y4251708D01*
X5752348Y4238246D01*
X5752348Y4229102D01*
X5747776Y4215386D01*
X5734314Y4206496D01*
X5711454Y4201924D01*
X5688848Y4201924D01*
X5670560Y4206496D01*
X5661416Y4215386D01*
X5656844Y4229102D01*
X5656844Y4233674D01*
X5661416Y4247390D01*
X5670560Y4256280D01*
X5684276Y4260852D01*
X5688848Y4260852D01*
X5702310Y4256280D01*
X5711454Y4247390D01*
X5716026Y4233674D01*
X5716026Y4229102D01*
X5711454Y4215386D01*
X5702310Y4206496D01*
X5688848Y4201924D01*
X5498350Y4112770D02*
G01*
X5402846Y4112770D01*
X5498350Y4112770D02*
G01*
X5498350Y4144520D01*
X5493778Y4158236D01*
X5484888Y4167380D01*
X5475744Y4171952D01*
X5462028Y4176524D01*
X5439422Y4176524D01*
X5425706Y4171952D01*
X5416562Y4167380D01*
X5407418Y4158236D01*
X5402846Y4144520D01*
X5402846Y4112770D01*
X5498350Y4260852D02*
G01*
X5498350Y4215386D01*
X5457456Y4211068D01*
X5462028Y4215386D01*
X5466600Y4229102D01*
X5466600Y4242818D01*
X5462028Y4256280D01*
X5452884Y4265424D01*
X5439422Y4269996D01*
X5430278Y4269996D01*
X5416562Y4265424D01*
X5407418Y4256280D01*
X5402846Y4242818D01*
X5402846Y4229102D01*
X5407418Y4215386D01*
X5411990Y4211068D01*
X5421134Y4206496D01*
X5244348Y4117342D02*
G01*
X5148844Y4117342D01*
X5244348Y4117342D02*
G01*
X5244348Y4149092D01*
X5239776Y4162808D01*
X5230886Y4171952D01*
X5221742Y4176524D01*
X5208026Y4181096D01*
X5185420Y4181096D01*
X5171704Y4176524D01*
X5162560Y4171952D01*
X5153416Y4162808D01*
X5148844Y4149092D01*
X5148844Y4117342D01*
X5244348Y4256534D02*
G01*
X5180848Y4211068D01*
X5180848Y4279140D01*
X5244348Y4256534D02*
G01*
X5148844Y4256534D01*
X4990348Y4112770D02*
G01*
X4894844Y4112770D01*
X4990348Y4112770D02*
G01*
X4990348Y4144520D01*
X4985776Y4158236D01*
X4976886Y4167380D01*
X4967742Y4171952D01*
X4954026Y4176524D01*
X4931420Y4176524D01*
X4917704Y4171952D01*
X4908560Y4167380D01*
X4899416Y4158236D01*
X4894844Y4144520D01*
X4894844Y4112770D01*
X4990348Y4215386D02*
G01*
X4990348Y4265424D01*
X4954026Y4238246D01*
X4954026Y4251962D01*
X4949454Y4260852D01*
X4944882Y4265424D01*
X4931420Y4269996D01*
X4922276Y4269996D01*
X4908560Y4265424D01*
X4899416Y4256280D01*
X4894844Y4242818D01*
X4894844Y4229102D01*
X4899416Y4215386D01*
X4903988Y4211068D01*
X4913132Y4206496D01*
X4736350Y4112770D02*
G01*
X4640846Y4112770D01*
X4736350Y4112770D02*
G01*
X4736350Y4144520D01*
X4731778Y4158236D01*
X4722888Y4167380D01*
X4713744Y4171952D01*
X4700028Y4176524D01*
X4677422Y4176524D01*
X4663706Y4171952D01*
X4654562Y4167380D01*
X4645418Y4158236D01*
X4640846Y4144520D01*
X4640846Y4112770D01*
X4713744Y4211068D02*
G01*
X4718316Y4211068D01*
X4727206Y4215386D01*
X4731778Y4219958D01*
X4736350Y4229102D01*
X4736350Y4247390D01*
X4731778Y4256280D01*
X4727206Y4260852D01*
X4718316Y4265424D01*
X4709172Y4265424D01*
X4700028Y4260852D01*
X4686312Y4251962D01*
X4640846Y4206496D01*
X4640846Y4269996D01*
X4459742Y4182874D02*
G01*
X4468886Y4178556D01*
X4477776Y4169412D01*
X4482348Y4160268D01*
X4482348Y4141980D01*
X4477776Y4133090D01*
X4468886Y4123946D01*
X4459742Y4119374D01*
X4446026Y4114802D01*
X4423420Y4114802D01*
X4409704Y4119374D01*
X4400560Y4123946D01*
X4391416Y4133090D01*
X4386844Y4141980D01*
X4386844Y4160268D01*
X4391416Y4169412D01*
X4400560Y4178556D01*
X4409704Y4182874D01*
X4423420Y4182874D01*
X4423420Y4160268D02*
G01*
X4423420Y4182874D01*
X4482348Y4213100D02*
G01*
X4386844Y4213100D01*
X4482348Y4213100D02*
G01*
X4386844Y4276600D01*
X4482348Y4276600D02*
G01*
X4386844Y4276600D01*
X4482348Y4306572D02*
G01*
X4386844Y4306572D01*
X4482348Y4306572D02*
G01*
X4482348Y4338322D01*
X4477776Y4352038D01*
X4468886Y4361182D01*
X4459742Y4365754D01*
X4446026Y4370326D01*
X4423420Y4370326D01*
X4409704Y4365754D01*
X4400560Y4361182D01*
X4391416Y4352038D01*
X4386844Y4338322D01*
X4386844Y4306572D01*
X4228348Y4114802D02*
G01*
X4132844Y4114802D01*
X4228348Y4114802D02*
G01*
X4228348Y4155696D01*
X4223776Y4169412D01*
X4219204Y4173984D01*
X4210314Y4178556D01*
X4201170Y4178556D01*
X4192026Y4173984D01*
X4187454Y4169412D01*
X4182882Y4155696D01*
X4182882Y4114802D01*
X4182882Y4146552D02*
G01*
X4132844Y4178556D01*
X4214886Y4272028D02*
G01*
X4223776Y4262884D01*
X4228348Y4249422D01*
X4228348Y4231134D01*
X4223776Y4217418D01*
X4214886Y4208528D01*
X4205742Y4208528D01*
X4196598Y4213100D01*
X4192026Y4217418D01*
X4187454Y4226562D01*
X4178310Y4253994D01*
X4173992Y4262884D01*
X4169420Y4267456D01*
X4160276Y4272028D01*
X4146560Y4272028D01*
X4137416Y4262884D01*
X4132844Y4249422D01*
X4132844Y4231134D01*
X4137416Y4217418D01*
X4146560Y4208528D01*
X4228348Y4334004D02*
G01*
X4132844Y4334004D01*
X4228348Y4302000D02*
G01*
X4228348Y4365754D01*
X3961650Y4140202D02*
G01*
X3866146Y4140202D01*
X3961650Y4140202D02*
G01*
X3961650Y4181096D01*
X3957078Y4194812D01*
X3952506Y4199384D01*
X3943616Y4203956D01*
X3934472Y4203956D01*
X3925328Y4199384D01*
X3920756Y4194812D01*
X3916184Y4181096D01*
X3916184Y4140202D01*
X3916184Y4171952D02*
G01*
X3866146Y4203956D01*
X3961650Y4233928D02*
G01*
X3866146Y4297428D01*
X3961650Y4297428D02*
G01*
X3866146Y4233928D01*
X3961650Y4327400D02*
G01*
X3866146Y4327400D01*
X3961650Y4327400D02*
G01*
X3961650Y4359404D01*
X3957078Y4372866D01*
X3948188Y4382010D01*
X3939044Y4386582D01*
X3925328Y4391154D01*
X3902722Y4391154D01*
X3889006Y4386582D01*
X3879862Y4382010D01*
X3870718Y4372866D01*
X3866146Y4359404D01*
X3866146Y4327400D01*
X3720325Y5181602D02*
G01*
X3624821Y5217924D01*
X3720325Y5254246D02*
G01*
X3624821Y5217924D01*
X3720325Y5284218D02*
G01*
X3624821Y5284218D01*
X3720325Y5314444D02*
G01*
X3624821Y5314444D01*
X3720325Y5314444D02*
G01*
X3624821Y5377944D01*
X3720325Y5377944D02*
G01*
X3624821Y5377944D01*
X6755630Y5143497D02*
G01*
X6660126Y5143497D01*
X6755630Y5143497D02*
G01*
X6755630Y5184391D01*
X6751058Y5198107D01*
X6746486Y5202679D01*
X6737596Y5207251D01*
X6728452Y5207251D01*
X6719308Y5202679D01*
X6714736Y5198107D01*
X6710164Y5184391D01*
X6710164Y5143497D01*
X6710164Y5175247D02*
G01*
X6660126Y5207251D01*
X6755630Y5237223D02*
G01*
X6660126Y5237223D01*
X6755630Y5237223D02*
G01*
X6755630Y5296151D01*
X6710164Y5237223D02*
G01*
X6710164Y5273545D01*
X6660126Y5237223D02*
G01*
X6660126Y5296151D01*
X6755630Y5326123D02*
G01*
X6660126Y5326123D01*
X6755630Y5326123D02*
G01*
X6755630Y5385305D01*
X6710164Y5326123D02*
G01*
X6710164Y5362699D01*
X5752327Y5217921D02*
G01*
X5656823Y5181600D01*
X5752327Y5217921D02*
G01*
X5656823Y5254244D01*
X5688827Y5195315D02*
G01*
X5688827Y5240781D01*
X5752327Y5293360D02*
G01*
X5752327Y5343397D01*
X5716005Y5316220D01*
X5716005Y5329681D01*
X5711433Y5338826D01*
X5706861Y5343397D01*
X5693399Y5347970D01*
X5684255Y5347970D01*
X5670539Y5343397D01*
X5661395Y5334254D01*
X5656823Y5320792D01*
X5656823Y5307076D01*
X5661395Y5293360D01*
X5665967Y5288787D01*
X5675111Y5284215D01*
X4736327Y5243321D02*
G01*
X4640823Y5207000D01*
X4736327Y5243321D02*
G01*
X4640823Y5279644D01*
X4672827Y5220715D02*
G01*
X4672827Y5266181D01*
X4736327Y5373370D02*
G01*
X4640823Y5327904D01*
X4736327Y5309615D02*
G01*
X4736327Y5373370D01*
D14*
X6858000Y3545565D02*
G01*
X6858000Y3088365D01*
X6604000Y3545565D02*
G01*
X6604000Y3088365D01*
X6350000Y3545552D02*
G01*
X6350000Y3088352D01*
X6096000Y3545568D02*
G01*
X6096000Y3088368D01*
X5842002Y3545552D02*
G01*
X5842002Y3088352D01*
X5588002Y3545568D02*
G01*
X5588002Y3088368D01*
X5334002Y3544166D02*
G01*
X5334002Y3086966D01*
M02*
