G04 Layer: TopLayer*
G04 EasyEDA v6.5.39, 2024-02-03 14:28:59*
G04 bcd3f98de95e48d085ed2947a1ad00ac,362fd913e7484c3682bebf37a00ceee6,10*
G04 Gerber Generator version 0.2*
G04 Scale: 100 percent, Rotated: No, Reflected: No *
G04 Dimensions in millimeters *
G04 leading zeros omitted , absolute positions ,4 integer and 5 decimal *
%FSLAX45Y45*%
%MOMM*%

%ADD10C,0.1000*%
%ADD11C,0.1524*%
%ADD12C,0.2032*%
%ADD13C,1.0000*%
%ADD14C,0.2540*%
%ADD15R,2.6000X1.5000*%
%ADD16R,1.5660X1.5000*%
%ADD17R,1.8796X1.8796*%
%ADD18C,1.8796*%
%ADD19O,1.5999968X2.999994*%
%ADD20O,3.302X3.81*%
%ADD21O,3.048X3.81*%
%ADD22C,1.5240*%
%ADD23O,1.7999964X2.5999948*%
%ADD24R,1.8000X2.6000*%
%ADD25O,1.499997X2.4999949999999997*%
%ADD26O,1.5999968X2.4999949999999997*%
%ADD27R,2.5000X2.5000*%
%ADD28C,0.6096*%
%ADD29C,0.6200*%
%ADD30C,0.0147*%

%LPD*%
G36*
X1939798Y3598316D02*
G01*
X1937054Y3595928D01*
X1931974Y3589578D01*
X1925269Y3580180D01*
X1914855Y3564178D01*
X1909013Y3554222D01*
X1902866Y3543198D01*
X1896668Y3531463D01*
X1890522Y3519220D01*
X1881632Y3500628D01*
X1871167Y3476904D01*
X1866798Y3466033D01*
X1863191Y3456330D01*
X1860448Y3447948D01*
X1855825Y3428796D01*
X1854504Y3424275D01*
X1853488Y3421786D01*
X1852472Y3421735D01*
X1850389Y3422700D01*
X1847291Y3424631D01*
X1838756Y3430981D01*
X1827936Y3440023D01*
X1803907Y3461156D01*
X1797862Y3466033D01*
X1793239Y3469132D01*
X1789633Y3470757D01*
X1786686Y3471062D01*
X1783943Y3470300D01*
X1781048Y3468725D01*
X1779016Y3466998D01*
X1776526Y3464204D01*
X1770532Y3456025D01*
X1763775Y3445357D01*
X1757121Y3433572D01*
X1751228Y3421938D01*
X1747012Y3411778D01*
X1741068Y3396234D01*
X1732635Y3376117D01*
X1722374Y3352749D01*
X1710893Y3327603D01*
X1692859Y3289554D01*
X1681276Y3266084D01*
X1667293Y3239211D01*
X1765350Y3239211D01*
X1765503Y3240786D01*
X1765960Y3242106D01*
X1766570Y3242970D01*
X1767382Y3243275D01*
X1768348Y3242970D01*
X1769618Y3242106D01*
X1772208Y3239211D01*
X1772920Y3237636D01*
X1772767Y3236315D01*
X1771853Y3235452D01*
X1770176Y3235147D01*
X1768297Y3235452D01*
X1766773Y3236315D01*
X1765757Y3237636D01*
X1765350Y3239211D01*
X1667293Y3239211D01*
X1641398Y3192272D01*
X1643536Y3132378D01*
X1742135Y3132378D01*
X1742135Y3136290D01*
X1744421Y3142030D01*
X1748688Y3148990D01*
X1760880Y3164433D01*
X1765401Y3171139D01*
X1768348Y3176930D01*
X1769618Y3181654D01*
X1769313Y3185363D01*
X1767332Y3188055D01*
X1763725Y3189681D01*
X1754073Y3190544D01*
X1750415Y3191459D01*
X1747977Y3192729D01*
X1747113Y3194304D01*
X1748485Y3195929D01*
X1752295Y3197199D01*
X1757934Y3198063D01*
X1774139Y3198825D01*
X1780286Y3200450D01*
X1784451Y3203956D01*
X1787855Y3209950D01*
X1789988Y3215132D01*
X1791817Y3220669D01*
X1793239Y3226003D01*
X1794510Y3233775D01*
X1795576Y3236620D01*
X1796948Y3238500D01*
X1800555Y3240430D01*
X1803196Y3243732D01*
X1806193Y3248558D01*
X1821891Y3282187D01*
X1823821Y3287623D01*
X1828444Y3304946D01*
X1829816Y3309264D01*
X1831136Y3312261D01*
X1832457Y3314039D01*
X1833676Y3314598D01*
X1834794Y3313937D01*
X1835810Y3312109D01*
X1836674Y3309162D01*
X1837385Y3305048D01*
X1837943Y3299866D01*
X1838299Y3293567D01*
X1838502Y3279394D01*
X1839518Y3266033D01*
X1840280Y3259836D01*
X1841296Y3254044D01*
X1842465Y3248812D01*
X1843786Y3244342D01*
X1846333Y3238093D01*
X1931416Y3238093D01*
X1932990Y3238601D01*
X1936191Y3238906D01*
X1939340Y3238804D01*
X1941525Y3238398D01*
X1942541Y3237687D01*
X1942134Y3236772D01*
X1940610Y3235960D01*
X1938477Y3235655D01*
X1935937Y3235807D01*
X1933397Y3236417D01*
X1931568Y3237331D01*
X1931416Y3238093D01*
X1846333Y3238093D01*
X1847900Y3234385D01*
X1850085Y3228238D01*
X1851558Y3222853D01*
X1852066Y3218942D01*
X1852675Y3217367D01*
X1855274Y3213811D01*
X1912670Y3213811D01*
X1914906Y3214471D01*
X1924710Y3215030D01*
X1927555Y3216148D01*
X1928672Y3218027D01*
X1927453Y3223310D01*
X1927860Y3225241D01*
X1929231Y3226511D01*
X1931466Y3226968D01*
X1934006Y3226308D01*
X1935480Y3224377D01*
X1935937Y3221228D01*
X1935378Y3216757D01*
X1932990Y3210356D01*
X1929028Y3207207D01*
X1923440Y3207359D01*
X1916023Y3210661D01*
X1913077Y3212592D01*
X1912670Y3213811D01*
X1855274Y3213811D01*
X1860550Y3207867D01*
X1871314Y3196945D01*
X1913737Y3196945D01*
X1915414Y3198418D01*
X1919173Y3199638D01*
X1929079Y3202025D01*
X1929434Y3201314D01*
X1929282Y3199028D01*
X1928672Y3195574D01*
X1927606Y3191256D01*
X1926031Y3186582D01*
X1924100Y3182112D01*
X1921967Y3178403D01*
X1919986Y3175965D01*
X1918207Y3174644D01*
X1917395Y3174695D01*
X1917496Y3176219D01*
X1918512Y3179064D01*
X1919274Y3182315D01*
X1919122Y3185820D01*
X1918106Y3189224D01*
X1914042Y3194862D01*
X1913737Y3196945D01*
X1871314Y3196945D01*
X1893062Y3176625D01*
X1905406Y3165703D01*
X1916938Y3156000D01*
X1926691Y3148330D01*
X1930603Y3145485D01*
X1933752Y3143504D01*
X1935937Y3142488D01*
X1937105Y3142437D01*
X1938985Y3145485D01*
X1942388Y3152241D01*
X1958543Y3187700D01*
X1961184Y3192475D01*
X1963521Y3195828D01*
X1965756Y3197860D01*
X1967992Y3198774D01*
X1970379Y3198774D01*
X1982114Y3195624D01*
X1990140Y3194710D01*
X1995982Y3195320D01*
X1998167Y3197453D01*
X1997354Y3199434D01*
X1994966Y3202533D01*
X1986788Y3211372D01*
X1975764Y3221939D01*
X1963978Y3232302D01*
X1958543Y3236823D01*
X1953666Y3240532D01*
X1949704Y3243173D01*
X1942947Y3246780D01*
X1940915Y3251200D01*
X1940509Y3259277D01*
X1941525Y3272485D01*
X1942795Y3282899D01*
X1944319Y3292348D01*
X1945944Y3299815D01*
X1948942Y3308654D01*
X1950212Y3315766D01*
X1951228Y3324758D01*
X1952548Y3344468D01*
X1953920Y3353815D01*
X1955698Y3361588D01*
X1959406Y3370986D01*
X1960473Y3376574D01*
X1960727Y3382721D01*
X1959305Y3395167D01*
X1959660Y3399383D01*
X1961235Y3401720D01*
X1966874Y3403346D01*
X1969465Y3405733D01*
X1971700Y3409340D01*
X1975002Y3419449D01*
X1977898Y3426409D01*
X1981504Y3434029D01*
X1985518Y3441598D01*
X1989531Y3448558D01*
X1993341Y3454247D01*
X1996490Y3458159D01*
X1998675Y3459581D01*
X2000554Y3458006D01*
X2003602Y3453688D01*
X2007311Y3447287D01*
X2011324Y3439464D01*
X2013407Y3434689D01*
X2015337Y3429558D01*
X2018385Y3418789D01*
X2019503Y3413302D01*
X2020316Y3407816D01*
X2020824Y3402482D01*
X2021128Y3391103D01*
X2022144Y3379368D01*
X2023110Y3373831D01*
X2024329Y3368548D01*
X2025853Y3363366D01*
X2027732Y3358387D01*
X2029866Y3353511D01*
X2032406Y3348736D01*
X2035251Y3344062D01*
X2038502Y3339439D01*
X2042058Y3334867D01*
X2046020Y3330295D01*
X2050389Y3325672D01*
X2060346Y3316376D01*
X2093264Y3287623D01*
X2212746Y3287572D01*
X2215083Y3290417D01*
X2220722Y3294176D01*
X2227834Y3297783D01*
X2234488Y3300171D01*
X2234488Y3299612D01*
X2232050Y3295396D01*
X2229967Y3292246D01*
X2224887Y3287166D01*
X2219198Y3284372D01*
X2214626Y3284372D01*
X2212746Y3287572D01*
X2093333Y3287572D01*
X2096973Y3284880D01*
X2101342Y3282442D01*
X2105863Y3280511D01*
X2111298Y3279089D01*
X2113483Y3278276D01*
X2114397Y3277514D01*
X2115210Y3276396D01*
X2116480Y3272993D01*
X2117394Y3267303D01*
X2118004Y3258870D01*
X2118309Y3246983D01*
X2118207Y3210560D01*
X2117496Y3156204D01*
X2116582Y3108655D01*
X2115413Y3071215D01*
X2113889Y3043123D01*
X2112975Y3032252D01*
X2111959Y3023412D01*
X2110790Y3016504D01*
X2109520Y3011373D01*
X2108098Y3007969D01*
X2107387Y3006852D01*
X2106574Y3006140D01*
X2105761Y3005785D01*
X2104847Y3005785D01*
X2103932Y3006140D01*
X2102561Y3007563D01*
X2101088Y3010204D01*
X2099614Y3013964D01*
X2096566Y3024479D01*
X2093772Y3038094D01*
X2087219Y3082086D01*
X2059939Y3083356D01*
X2049068Y3084169D01*
X2039772Y3085490D01*
X2032965Y3087116D01*
X2029663Y3088894D01*
X2025751Y3094278D01*
X2021687Y3099308D01*
X2017572Y3103930D01*
X2013457Y3108147D01*
X2005279Y3115310D01*
X2001316Y3118205D01*
X1997557Y3120644D01*
X1994001Y3122574D01*
X1990699Y3123996D01*
X1987702Y3124911D01*
X1985060Y3125266D01*
X1982825Y3125063D01*
X1981047Y3124250D01*
X1979777Y3122879D01*
X1979066Y3120898D01*
X1978914Y3118256D01*
X1979422Y3114954D01*
X1980641Y3110992D01*
X1983892Y3103118D01*
X1985111Y3099104D01*
X1987143Y3089452D01*
X1988566Y3078734D01*
X1989074Y3068167D01*
X1988972Y3061258D01*
X1988616Y3055467D01*
X1987956Y3050540D01*
X1986889Y3046272D01*
X1985467Y3042513D01*
X1983536Y3039059D01*
X1981047Y3035757D01*
X1977948Y3032302D01*
X1973072Y3027781D01*
X1968957Y3025089D01*
X1965502Y3024276D01*
X1962657Y3025394D01*
X1960321Y3028543D01*
X1958390Y3033776D01*
X1956866Y3041142D01*
X1954733Y3057347D01*
X1953615Y3062986D01*
X1951989Y3067964D01*
X1949653Y3072688D01*
X1946402Y3077464D01*
X1942084Y3082645D01*
X1936445Y3088589D01*
X1918766Y3105759D01*
X1910334Y3113582D01*
X1903577Y3119475D01*
X1898142Y3123641D01*
X1893519Y3126435D01*
X1889404Y3128060D01*
X1885391Y3128822D01*
X1880971Y3129026D01*
X1877517Y3128822D01*
X1874316Y3128213D01*
X1871421Y3127197D01*
X1868830Y3125622D01*
X1866442Y3123590D01*
X1864309Y3120948D01*
X1862378Y3117697D01*
X1860651Y3113836D01*
X1859127Y3109264D01*
X1857806Y3103930D01*
X1856587Y3097885D01*
X1854657Y3083306D01*
X1853184Y3065221D01*
X1850898Y3025190D01*
X1849831Y3014014D01*
X1849221Y3010560D01*
X1848561Y3008477D01*
X1847748Y3007512D01*
X1846834Y3007614D01*
X1845767Y3008630D01*
X1839671Y3018078D01*
X1835759Y3023362D01*
X1831746Y3028238D01*
X1825040Y3035249D01*
X1822500Y3038856D01*
X1820773Y3042361D01*
X1819249Y3048152D01*
X1816760Y3051505D01*
X1813153Y3054908D01*
X1804263Y3061004D01*
X1800656Y3064306D01*
X1798218Y3067507D01*
X1796745Y3071774D01*
X1795221Y3074314D01*
X1789582Y3081426D01*
X1781251Y3090570D01*
X1760626Y3111042D01*
X1751736Y3120390D01*
X1745234Y3127857D01*
X1743202Y3130550D01*
X1742135Y3132378D01*
X1643536Y3132378D01*
X1645107Y3103829D01*
X1646174Y3091383D01*
X1647393Y3081426D01*
X1648612Y3074619D01*
X1649222Y3072536D01*
X1649831Y3071520D01*
X1652320Y3070606D01*
X1655825Y3071469D01*
X1660042Y3073958D01*
X1669186Y3081731D01*
X1673301Y3084576D01*
X1677263Y3086455D01*
X1681225Y3087420D01*
X1685137Y3087370D01*
X1689100Y3086354D01*
X1693214Y3084271D01*
X1697482Y3081172D01*
X1702003Y3076956D01*
X1706829Y3071622D01*
X1712010Y3065170D01*
X1720443Y3053588D01*
X1726245Y3044748D01*
X1762252Y3044748D01*
X1762404Y3046018D01*
X1764436Y3048000D01*
X1768093Y3050438D01*
X1772920Y3053029D01*
X1781708Y3056991D01*
X1787855Y3059074D01*
X1791512Y3059328D01*
X1792732Y3057702D01*
X1788312Y3054045D01*
X1778406Y3049219D01*
X1768043Y3045409D01*
X1762252Y3044748D01*
X1726245Y3044748D01*
X1737055Y3027222D01*
X1750310Y3004312D01*
X1784654Y3004312D01*
X1785924Y3007918D01*
X1791207Y3014014D01*
X1797862Y3019806D01*
X1802993Y3022600D01*
X1804365Y3022396D01*
X1805432Y3021685D01*
X1806193Y3020517D01*
X1806448Y3019044D01*
X1803450Y3014573D01*
X1796592Y3009138D01*
X1789226Y3004972D01*
X1784654Y3004312D01*
X1750310Y3004312D01*
X1762099Y2982772D01*
X1768607Y2970326D01*
X2189937Y2970326D01*
X2190292Y2971749D01*
X2191258Y2972511D01*
X2192731Y2972562D01*
X2194509Y2971901D01*
X2196236Y2970580D01*
X2197709Y2968904D01*
X2198674Y2967075D01*
X2199030Y2965297D01*
X2198674Y2963926D01*
X2197709Y2963164D01*
X2196236Y2963062D01*
X2194509Y2963722D01*
X2192731Y2965043D01*
X2191258Y2966720D01*
X2190292Y2968548D01*
X2189937Y2970326D01*
X1768607Y2970326D01*
X1773936Y2959760D01*
X1778457Y2950260D01*
X1781657Y2942742D01*
X1783384Y2937560D01*
X1783588Y2935986D01*
X1784705Y2933446D01*
X1787753Y2929483D01*
X1792427Y2924352D01*
X1805076Y2912059D01*
X1819859Y2899054D01*
X1827123Y2893060D01*
X1833829Y2887878D01*
X1839620Y2883763D01*
X1844090Y2881071D01*
X1846986Y2880106D01*
X1849424Y2880563D01*
X1850694Y2881884D01*
X1850847Y2884119D01*
X1849831Y2887218D01*
X1841957Y2905760D01*
X1835810Y2922574D01*
X1833625Y2929636D01*
X1832152Y2935376D01*
X1831492Y2939440D01*
X1831746Y2941624D01*
X1834032Y2943098D01*
X1837537Y2943148D01*
X1841957Y2941878D01*
X1846884Y2939542D01*
X1852117Y2936290D01*
X1857197Y2932277D01*
X1861921Y2927705D01*
X1865884Y2922778D01*
X1869439Y2916783D01*
X1872081Y2910586D01*
X1873808Y2904337D01*
X1874570Y2898292D01*
X1874418Y2892602D01*
X1873250Y2887573D01*
X1871167Y2883306D01*
X1868068Y2880106D01*
X1865426Y2877820D01*
X1863242Y2875432D01*
X1861769Y2873197D01*
X1861210Y2871419D01*
X1862175Y2869133D01*
X1864918Y2865678D01*
X1869084Y2861208D01*
X1874316Y2856077D01*
X1886915Y2844850D01*
X1893570Y2839262D01*
X1906117Y2829661D01*
X1911350Y2826105D01*
X1915414Y2823768D01*
X1918106Y2822956D01*
X1920849Y2822600D01*
X1923084Y2821736D01*
X1924557Y2820466D01*
X1925116Y2818892D01*
X1927809Y2815488D01*
X1934260Y2814980D01*
X1941982Y2817114D01*
X1948535Y2821533D01*
X1950059Y2823768D01*
X1951380Y2826969D01*
X1952447Y2831236D01*
X1953310Y2836519D01*
X1953971Y2843022D01*
X1954733Y2859684D01*
X1954784Y2911703D01*
X1965401Y2904286D01*
X1968957Y2902153D01*
X1973173Y2900172D01*
X1977999Y2898394D01*
X1983333Y2896870D01*
X1988972Y2895549D01*
X1994916Y2894482D01*
X2007107Y2893161D01*
X2013153Y2892958D01*
X2018995Y2893060D01*
X2024583Y2893517D01*
X2029714Y2894279D01*
X2033879Y2895498D01*
X2038756Y2897632D01*
X2044039Y2900476D01*
X2049576Y2903880D01*
X2055215Y2907690D01*
X2060702Y2911805D01*
X2065934Y2916072D01*
X2070607Y2920288D01*
X2074570Y2924302D01*
X2077669Y2928010D01*
X2079701Y2931261D01*
X2080412Y2933852D01*
X2080768Y2936392D01*
X2081682Y2939338D01*
X2082952Y2942336D01*
X2084527Y2944977D01*
X2087625Y2946806D01*
X2092807Y2945180D01*
X2100884Y2939643D01*
X2122627Y2921508D01*
X2131110Y2914853D01*
X2137460Y2910332D01*
X2140712Y2908655D01*
X2142083Y2909570D01*
X2143252Y2912110D01*
X2144014Y2915818D01*
X2144725Y2925267D01*
X2145944Y2929890D01*
X2147773Y2933700D01*
X2149957Y2936240D01*
X2154834Y2938780D01*
X2161184Y2940608D01*
X2168550Y2941777D01*
X2176475Y2942234D01*
X2184603Y2942031D01*
X2192477Y2941066D01*
X2199690Y2939389D01*
X2211425Y2934665D01*
X2218537Y2932531D01*
X2227072Y2930601D01*
X2236927Y2928874D01*
X2247849Y2927350D01*
X2259736Y2926080D01*
X2272487Y2925013D01*
X2285898Y2924200D01*
X2299817Y2923641D01*
X2314143Y2923387D01*
X2328672Y2923387D01*
X2343302Y2923692D01*
X2357882Y2924251D01*
X2386025Y2925927D01*
X2393797Y2925267D01*
X2397709Y2922422D01*
X2399842Y2916834D01*
X2401417Y2911602D01*
X2402687Y2909519D01*
X2404110Y2910484D01*
X2405938Y2914345D01*
X2406954Y2917850D01*
X2406853Y2921609D01*
X2405481Y2925724D01*
X2402738Y2930398D01*
X2398471Y2935833D01*
X2392527Y2942234D01*
X2384806Y2949803D01*
X2367635Y2965450D01*
X2355342Y2975813D01*
X2350160Y2979623D01*
X2345436Y2982569D01*
X2341016Y2984804D01*
X2336698Y2986328D01*
X2332278Y2987243D01*
X2327706Y2987598D01*
X2322677Y2987446D01*
X2317140Y2986938D01*
X2303780Y2985109D01*
X2288032Y2983585D01*
X2271623Y2982671D01*
X2255875Y2982417D01*
X2242312Y2982772D01*
X2232304Y2983788D01*
X2229104Y2984601D01*
X2226310Y2985922D01*
X2224024Y2987649D01*
X2222449Y2989580D01*
X2220874Y2994152D01*
X2218182Y2998165D01*
X2214219Y3002940D01*
X2203196Y3013964D01*
X2200808Y3016961D01*
X2202027Y3017266D01*
X2213406Y3012795D01*
X2217623Y3013506D01*
X2220671Y3018434D01*
X2223719Y3028442D01*
X2224633Y3034080D01*
X2224328Y3039516D01*
X2222754Y3044698D01*
X2219960Y3049524D01*
X2216556Y3054604D01*
X2215388Y3058160D01*
X2216454Y3060954D01*
X2219756Y3063849D01*
X2222449Y3066846D01*
X2224430Y3071012D01*
X2225700Y3075990D01*
X2226259Y3081426D01*
X2226056Y3086912D01*
X2225141Y3091992D01*
X2223414Y3096412D01*
X2220976Y3099663D01*
X2218740Y3102000D01*
X2218486Y3103524D01*
X2220315Y3104286D01*
X2224379Y3104489D01*
X2228392Y3104134D01*
X2232710Y3103270D01*
X2236774Y3101949D01*
X2240127Y3100374D01*
X2243277Y3098241D01*
X2244445Y3096514D01*
X2243683Y3094837D01*
X2238959Y3091434D01*
X2238044Y3089808D01*
X2238400Y3088081D01*
X2240076Y3086100D01*
X2243175Y3083814D01*
X2247849Y3081070D01*
X2262174Y3074162D01*
X2271064Y3070453D01*
X2277364Y3069590D01*
X2283663Y3071926D01*
X2298649Y3081629D01*
X2303881Y3084525D01*
X2308504Y3086557D01*
X2312568Y3087624D01*
X2316276Y3087827D01*
X2319680Y3087166D01*
X2322880Y3085642D01*
X2328113Y3081731D01*
X2329840Y3081020D01*
X2331008Y3081223D01*
X2331466Y3082391D01*
X2331110Y3084474D01*
X2330196Y3086912D01*
X2328672Y3089706D01*
X2326640Y3092805D01*
X2324100Y3096158D01*
X2317597Y3103524D01*
X2309571Y3111601D01*
X2300274Y3120085D01*
X2289962Y3128721D01*
X2278989Y3137204D01*
X2267559Y3145332D01*
X2256078Y3152800D01*
X2240280Y3162604D01*
X2232761Y3168497D01*
X2228037Y3173628D01*
X2226462Y3177895D01*
X2226106Y3181096D01*
X2225192Y3184093D01*
X2223820Y3186531D01*
X2222144Y3188055D01*
X2220823Y3189935D01*
X2220620Y3193186D01*
X2221636Y3197656D01*
X2225649Y3208020D01*
X2226919Y3213404D01*
X2227529Y3218789D01*
X2227478Y3223869D01*
X2226818Y3228340D01*
X2225548Y3231946D01*
X2223719Y3234283D01*
X2218029Y3236518D01*
X2217572Y3240074D01*
X2219807Y3245002D01*
X2227427Y3253892D01*
X2229358Y3258210D01*
X2230221Y3263188D01*
X2229916Y3268421D01*
X2229358Y3272942D01*
X2229205Y3276600D01*
X2229459Y3279089D01*
X2230170Y3280003D01*
X2231745Y3279343D01*
X2238146Y3274415D01*
X2247595Y3265932D01*
X2258618Y3255365D01*
X2269693Y3244088D01*
X2279396Y3233572D01*
X2286660Y3225038D01*
X2295448Y3215487D01*
X2306116Y3204667D01*
X2317648Y3193440D01*
X2329129Y3182721D01*
X2339594Y3173323D01*
X2348179Y3166211D01*
X2353818Y3162198D01*
X2355291Y3161690D01*
X2357526Y3162046D01*
X2358593Y3163316D01*
X2358440Y3165398D01*
X2357018Y3168497D01*
X2354376Y3172612D01*
X2350363Y3177794D01*
X2345029Y3184093D01*
X2332126Y3198520D01*
X2327300Y3204311D01*
X2323693Y3209340D01*
X2321102Y3213912D01*
X2319375Y3218484D01*
X2318359Y3223310D01*
X2317851Y3228746D01*
X2317699Y3239465D01*
X2317292Y3246780D01*
X2316784Y3250031D01*
X2315921Y3253232D01*
X2314651Y3256432D01*
X2312974Y3259683D01*
X2310688Y3263188D01*
X2307844Y3267049D01*
X2299919Y3276041D01*
X2288692Y3287623D01*
X2256790Y3318764D01*
X2243836Y3330549D01*
X2238298Y3335172D01*
X2229154Y3341878D01*
X2225548Y3343960D01*
X2222601Y3345230D01*
X2220264Y3345637D01*
X2218639Y3345179D01*
X2217623Y3343859D01*
X2217318Y3341725D01*
X2216302Y3339744D01*
X2213610Y3337051D01*
X2209647Y3334004D01*
X2204770Y3330956D01*
X2198166Y3327349D01*
X2196287Y3326942D01*
X2199182Y3330295D01*
X2222144Y3352037D01*
X2210866Y3362909D01*
X2205837Y3367125D01*
X2200859Y3370072D01*
X2196338Y3371596D01*
X2192782Y3371494D01*
X2189734Y3370834D01*
X2188057Y3371545D01*
X2187702Y3373882D01*
X2188870Y3379165D01*
X2188972Y3380486D01*
X2188667Y3382010D01*
X2187905Y3383787D01*
X2186584Y3385972D01*
X2181606Y3391966D01*
X2175408Y3398316D01*
X2163064Y3410000D01*
X2145182Y3426256D01*
X2088794Y3475888D01*
X2004822Y3548989D01*
X1991512Y3560368D01*
X1968347Y3579266D01*
X1958848Y3586530D01*
X1951024Y3592169D01*
X1945030Y3596030D01*
X1941017Y3598062D01*
G37*
G36*
X1576019Y3280003D02*
G01*
X1572260Y3279190D01*
X1567484Y3276854D01*
X1562354Y3273450D01*
X1557477Y3269284D01*
X1553667Y3265322D01*
X1550416Y3261309D01*
X1547672Y3257092D01*
X1545437Y3252571D01*
X1543659Y3247694D01*
X1542288Y3242310D01*
X1541424Y3236315D01*
X1540916Y3229660D01*
X1540814Y3222244D01*
X1541068Y3213912D01*
X1541678Y3204667D01*
X1543862Y3179572D01*
X1544878Y3157728D01*
X1545234Y3133801D01*
X1544878Y3108350D01*
X1543913Y3081782D01*
X1541373Y3040938D01*
X1538274Y3007055D01*
X1535226Y2980639D01*
X1531670Y2955391D01*
X1527657Y2931820D01*
X1524711Y2916174D01*
X1524558Y2912160D01*
X1525320Y2908401D01*
X1527251Y2904490D01*
X1530604Y2900070D01*
X1535582Y2894634D01*
X1542440Y2887878D01*
X1558899Y2872536D01*
X1571091Y2861614D01*
X1576019Y2857550D01*
X1580235Y2854452D01*
X1583791Y2852318D01*
X1586788Y2851150D01*
X1589227Y2850997D01*
X1591259Y2851861D01*
X1592884Y2853690D01*
X1594205Y2856585D01*
X1595272Y2860446D01*
X1596847Y2871368D01*
X1599692Y2902254D01*
X1601724Y2916885D01*
X1603959Y2928721D01*
X1605026Y2933090D01*
X1606702Y2938018D01*
X1607921Y2944063D01*
X1609039Y2952800D01*
X1610055Y2963926D01*
X1611782Y2991662D01*
X1613001Y3024225D01*
X1613560Y3050032D01*
X1613662Y3091840D01*
X1612950Y3120847D01*
X1612341Y3132785D01*
X1611477Y3142589D01*
X1609852Y3155442D01*
X1609140Y3163671D01*
X1608785Y3171190D01*
X1608937Y3178048D01*
X1609445Y3184296D01*
X1610461Y3189935D01*
X1611884Y3195116D01*
X1613814Y3199739D01*
X1616202Y3203905D01*
X1619046Y3207664D01*
X1622399Y3211068D01*
X1630629Y3217672D01*
X1634236Y3221431D01*
X1636623Y3225038D01*
X1637538Y3227933D01*
X1636471Y3230626D01*
X1633626Y3234588D01*
X1629206Y3239465D01*
X1623669Y3245002D01*
X1610309Y3256991D01*
X1596136Y3268268D01*
X1589582Y3272993D01*
X1583842Y3276701D01*
X1579168Y3279140D01*
G37*
G36*
X2021941Y2796895D02*
G01*
X2017623Y2796133D01*
X2013000Y2794558D01*
X2004314Y2790139D01*
X1999640Y2788767D01*
X1995170Y2788259D01*
X1991512Y2788767D01*
X1987143Y2788818D01*
X1981504Y2786481D01*
X1974443Y2781604D01*
X1966061Y2774289D01*
X1960727Y2769158D01*
X1956562Y2764739D01*
X1953361Y2760726D01*
X1951075Y2756916D01*
X1949500Y2753004D01*
X1948586Y2748737D01*
X1948129Y2743860D01*
X1947976Y2738120D01*
X1948281Y2732024D01*
X1949043Y2726232D01*
X1949991Y2722372D01*
X1961642Y2722372D01*
X1961997Y2724708D01*
X1962353Y2725013D01*
X1971576Y2715260D01*
X1990598Y2715260D01*
X1991360Y2716834D01*
X1993900Y2719730D01*
X1995170Y2720594D01*
X1996186Y2720949D01*
X1996948Y2720594D01*
X1997608Y2719730D01*
X1998014Y2718409D01*
X1998167Y2716834D01*
X1997811Y2715260D01*
X1996744Y2713939D01*
X1995220Y2713075D01*
X1993341Y2712770D01*
X1991664Y2713075D01*
X1990750Y2713939D01*
X1990598Y2715260D01*
X1971576Y2715260D01*
X1979066Y2707386D01*
X1981962Y2703830D01*
X1983435Y2701391D01*
X1983181Y2700528D01*
X1977948Y2703322D01*
X1970735Y2709773D01*
X1964385Y2717038D01*
X1961642Y2722372D01*
X1949991Y2722372D01*
X1952243Y2715361D01*
X1954530Y2710383D01*
X1957324Y2705658D01*
X1960575Y2701340D01*
X1964283Y2697378D01*
X1965635Y2696210D01*
X2167839Y2696210D01*
X2168652Y2698394D01*
X2171293Y2701086D01*
X2175713Y2704287D01*
X2181910Y2707995D01*
X2192223Y2713329D01*
X2198878Y2716022D01*
X2202484Y2716123D01*
X2203551Y2713786D01*
X2203145Y2708503D01*
X2202180Y2704033D01*
X2200605Y2700324D01*
X2198420Y2697378D01*
X2195525Y2695143D01*
X2191969Y2693568D01*
X2187651Y2692654D01*
X2182520Y2692349D01*
X2176170Y2692603D01*
X2171547Y2693314D01*
X2168804Y2694533D01*
X2167839Y2696210D01*
X1965635Y2696210D01*
X1968398Y2693822D01*
X1972919Y2690622D01*
X1977898Y2687878D01*
X1983232Y2685592D01*
X1988261Y2683967D01*
X1993646Y2682748D01*
X1999284Y2681935D01*
X2005075Y2681528D01*
X2010867Y2681478D01*
X2016607Y2681833D01*
X2022246Y2682494D01*
X2027631Y2683560D01*
X2032660Y2684983D01*
X2037283Y2686710D01*
X2041347Y2688742D01*
X2049475Y2694533D01*
X2052980Y2695651D01*
X2056536Y2694432D01*
X2065070Y2688336D01*
X2069185Y2686202D01*
X2073097Y2684729D01*
X2079396Y2683814D01*
X2082647Y2682798D01*
X2085746Y2681325D01*
X2088337Y2679547D01*
X2091334Y2678176D01*
X2095855Y2677871D01*
X2101342Y2678430D01*
X2107387Y2679750D01*
X2113432Y2681732D01*
X2119071Y2684170D01*
X2123795Y2687015D01*
X2128469Y2691434D01*
X2129536Y2691587D01*
X2130247Y2690469D01*
X2130501Y2688183D01*
X2131771Y2685186D01*
X2134503Y2682290D01*
X2211070Y2682290D01*
X2211628Y2686253D01*
X2212594Y2690215D01*
X2213660Y2693416D01*
X2214727Y2695651D01*
X2215540Y2696464D01*
X2216251Y2695651D01*
X2216810Y2693416D01*
X2216996Y2691739D01*
X2231491Y2691739D01*
X2235708Y2709570D01*
X2236622Y2714193D01*
X2237282Y2713634D01*
X2238095Y2711246D01*
X2238908Y2707182D01*
X2239213Y2702255D01*
X2238654Y2697530D01*
X2237282Y2693568D01*
X2235301Y2690825D01*
X2232761Y2689098D01*
X2231542Y2689352D01*
X2231491Y2691739D01*
X2216996Y2691739D01*
X2217318Y2686253D01*
X2217013Y2682290D01*
X2216150Y2679039D01*
X2214930Y2676855D01*
X2213356Y2676042D01*
X2212035Y2676855D01*
X2211222Y2679039D01*
X2211070Y2682290D01*
X2134503Y2682290D01*
X2135174Y2681579D01*
X2140254Y2677820D01*
X2146401Y2674366D01*
X2155088Y2670556D01*
X2161895Y2668981D01*
X2168347Y2669489D01*
X2176221Y2671927D01*
X2186533Y2674772D01*
X2192629Y2674264D01*
X2194153Y2670505D01*
X2194057Y2670302D01*
X2299665Y2670302D01*
X2300020Y2676550D01*
X2301494Y2683256D01*
X2303932Y2689707D01*
X2307031Y2695244D01*
X2310688Y2699054D01*
X2314600Y2700528D01*
X2317191Y2700324D01*
X2319782Y2699816D01*
X2321966Y2699004D01*
X2323541Y2698038D01*
X2323998Y2695397D01*
X2322677Y2690622D01*
X2320036Y2684475D01*
X2316581Y2677871D01*
X2312720Y2671521D01*
X2308910Y2666238D01*
X2305608Y2662885D01*
X2303272Y2662174D01*
X2300681Y2665272D01*
X2299665Y2670302D01*
X2194057Y2670302D01*
X2190902Y2663647D01*
X2186736Y2657144D01*
X2186533Y2653030D01*
X2191258Y2649677D01*
X2201875Y2645460D01*
X2214727Y2641041D01*
X2222144Y2639771D01*
X2225598Y2641650D01*
X2226462Y2646832D01*
X2229205Y2652369D01*
X2236216Y2657906D01*
X2245309Y2662123D01*
X2254554Y2663799D01*
X2257145Y2662986D01*
X2260650Y2660751D01*
X2264613Y2657398D01*
X2273655Y2648305D01*
X2278430Y2645511D01*
X2283815Y2644698D01*
X2297074Y2646324D01*
X2301798Y2645714D01*
X2305405Y2643530D01*
X2311146Y2636316D01*
X2314752Y2633624D01*
X2318766Y2631795D01*
X2327300Y2630220D01*
X2332837Y2627680D01*
X2338730Y2623972D01*
X2343645Y2619959D01*
X2382113Y2619959D01*
X2382621Y2621127D01*
X2385110Y2623566D01*
X2387295Y2626106D01*
X2389124Y2629357D01*
X2390343Y2632760D01*
X2390800Y2636062D01*
X2390952Y2638907D01*
X2391460Y2641244D01*
X2392172Y2642819D01*
X2393086Y2643378D01*
X2393950Y2642616D01*
X2394661Y2640533D01*
X2395169Y2637383D01*
X2395372Y2633624D01*
X2394762Y2629560D01*
X2393086Y2625852D01*
X2390546Y2622956D01*
X2387346Y2621127D01*
X2383688Y2620010D01*
X2343645Y2619959D01*
X2348890Y2615336D01*
X2353462Y2611882D01*
X2357983Y2609037D01*
X2362403Y2606903D01*
X2366822Y2605430D01*
X2371140Y2604566D01*
X2375408Y2604414D01*
X2379624Y2604871D01*
X2383790Y2605989D01*
X2387904Y2607767D01*
X2391968Y2610205D01*
X2395982Y2613304D01*
X2401062Y2618384D01*
X2405227Y2623921D01*
X2408021Y2629255D01*
X2409037Y2633675D01*
X2409698Y2638247D01*
X2411933Y2641295D01*
X2416352Y2643124D01*
X2429103Y2645054D01*
X2434031Y2646578D01*
X2438196Y2648762D01*
X2441448Y2651404D01*
X2443734Y2654503D01*
X2445004Y2657906D01*
X2445156Y2661615D01*
X2444089Y2665476D01*
X2442210Y2668727D01*
X2439822Y2670098D01*
X2436266Y2669641D01*
X2426106Y2665374D01*
X2422702Y2664714D01*
X2420467Y2665323D01*
X2419146Y2667355D01*
X2416911Y2671673D01*
X2413812Y2675432D01*
X2409901Y2678480D01*
X2405430Y2680919D01*
X2400452Y2682697D01*
X2395169Y2683764D01*
X2389682Y2684170D01*
X2384094Y2683814D01*
X2378659Y2682697D01*
X2373426Y2680817D01*
X2368550Y2678176D01*
X2364181Y2674772D01*
X2360320Y2670556D01*
X2357170Y2666034D01*
X2355037Y2661818D01*
X2353716Y2655773D01*
X2352090Y2653588D01*
X2349804Y2652064D01*
X2346909Y2651556D01*
X2344064Y2652318D01*
X2342388Y2654503D01*
X2341829Y2657856D01*
X2342286Y2662174D01*
X2343810Y2667203D01*
X2346299Y2672740D01*
X2349703Y2678582D01*
X2357424Y2689402D01*
X2359304Y2693873D01*
X2359660Y2697835D01*
X2357272Y2704388D01*
X2357983Y2707132D01*
X2360777Y2709621D01*
X2365806Y2712059D01*
X2373426Y2716834D01*
X2376728Y2722524D01*
X2375458Y2727960D01*
X2369515Y2731922D01*
X2365654Y2732379D01*
X2361438Y2731262D01*
X2357018Y2728518D01*
X2347925Y2719882D01*
X2343404Y2716276D01*
X2339136Y2713532D01*
X2335174Y2711704D01*
X2331821Y2710840D01*
X2329180Y2711043D01*
X2327503Y2712415D01*
X2326538Y2717241D01*
X2325522Y2719171D01*
X2324100Y2720441D01*
X2320544Y2721711D01*
X2319070Y2723896D01*
X2318105Y2727147D01*
X2317292Y2735326D01*
X2315921Y2738374D01*
X2313686Y2740304D01*
X2310587Y2741066D01*
X2306624Y2740710D01*
X2301798Y2739186D01*
X2296109Y2736494D01*
X2289606Y2732684D01*
X2276094Y2724099D01*
X2265273Y2733141D01*
X2260650Y2736443D01*
X2256078Y2738678D01*
X2252116Y2739694D01*
X2246223Y2738526D01*
X2242210Y2738678D01*
X2237587Y2739694D01*
X2227021Y2743809D01*
X2221788Y2744673D01*
X2216404Y2744012D01*
X2203653Y2739694D01*
X2198928Y2739542D01*
X2194763Y2741676D01*
X2184908Y2751429D01*
X2180132Y2753410D01*
X2173274Y2752598D01*
X2161946Y2749143D01*
X2152904Y2745638D01*
X2146198Y2741879D01*
X2141677Y2737612D01*
X2139137Y2732836D01*
X2137359Y2727299D01*
X2136394Y2725623D01*
X2135886Y2727756D01*
X2135581Y2733903D01*
X2134565Y2738424D01*
X2131974Y2743149D01*
X2128113Y2747822D01*
X2123389Y2752191D01*
X2118004Y2756001D01*
X2112314Y2758998D01*
X2106574Y2761030D01*
X2101088Y2761742D01*
X2094534Y2761183D01*
X2088286Y2759608D01*
X2082444Y2757119D01*
X2077212Y2753817D01*
X2072690Y2749753D01*
X2068982Y2745028D01*
X2066239Y2739796D01*
X2062327Y2725521D01*
X2058720Y2719882D01*
X2052167Y2715768D01*
X2050536Y2715158D01*
X2094179Y2715158D01*
X2094382Y2720289D01*
X2095093Y2724962D01*
X2096160Y2728620D01*
X2097481Y2730855D01*
X2100732Y2730754D01*
X2102256Y2725166D01*
X2101799Y2717190D01*
X2099056Y2709824D01*
X2096617Y2706573D01*
X2095144Y2706166D01*
X2094433Y2708960D01*
X2094179Y2715158D01*
X2050536Y2715158D01*
X2041296Y2711704D01*
X2025940Y2706624D01*
X2076653Y2706624D01*
X2076805Y2710992D01*
X2077212Y2713786D01*
X2077923Y2714853D01*
X2078786Y2713888D01*
X2079498Y2711348D01*
X2079752Y2708198D01*
X2079599Y2704795D01*
X2078939Y2701645D01*
X2078126Y2699766D01*
X2077415Y2700121D01*
X2076907Y2702458D01*
X2076653Y2706624D01*
X2025940Y2706624D01*
X2021027Y2704998D01*
X2021027Y2748127D01*
X2021586Y2761742D01*
X2022348Y2765501D01*
X2023516Y2767685D01*
X2025243Y2768549D01*
X2027580Y2768447D01*
X2030679Y2767685D01*
X2035556Y2766923D01*
X2040788Y2767228D01*
X2046020Y2768396D01*
X2050999Y2770276D01*
X2055418Y2772816D01*
X2058924Y2775762D01*
X2061260Y2779064D01*
X2062073Y2782519D01*
X2061159Y2785821D01*
X2058416Y2788564D01*
X2053793Y2790698D01*
X2047239Y2792323D01*
X2034743Y2794711D01*
X2025446Y2796743D01*
G37*
G36*
X1839010Y2793847D02*
G01*
X1834896Y2792730D01*
X1830171Y2789478D01*
X1828038Y2786735D01*
X1826310Y2782925D01*
X1825142Y2778506D01*
X1824228Y2769463D01*
X1823008Y2764993D01*
X1821230Y2761081D01*
X1819046Y2758287D01*
X1816709Y2754426D01*
X1815185Y2747772D01*
X1814575Y2738577D01*
X1815134Y2716377D01*
X1814728Y2707995D01*
X1813610Y2702509D01*
X1811985Y2700528D01*
X1810004Y2701391D01*
X1808175Y2703931D01*
X1806448Y2707894D01*
X1804924Y2713075D01*
X1803654Y2719273D01*
X1802688Y2726283D01*
X1802079Y2733903D01*
X1801875Y2741980D01*
X1801469Y2748534D01*
X1800148Y2753715D01*
X1798015Y2757525D01*
X1795018Y2759964D01*
X1791157Y2761030D01*
X1786382Y2760776D01*
X1780793Y2759151D01*
X1768652Y2753563D01*
X1764030Y2752242D01*
X1760626Y2752191D01*
X1754073Y2756712D01*
X1747672Y2757424D01*
X1740458Y2755696D01*
X1729130Y2748889D01*
X1724355Y2747619D01*
X1718462Y2747822D01*
X1703222Y2750972D01*
X1697024Y2751175D01*
X1691589Y2750058D01*
X1681784Y2745333D01*
X1676247Y2744012D01*
X1670304Y2743555D01*
X1657604Y2744825D01*
X1652879Y2743911D01*
X1649272Y2740914D01*
X1645920Y2735427D01*
X1643634Y2730195D01*
X1642770Y2726334D01*
X1643329Y2723540D01*
X1645310Y2721660D01*
X1647545Y2719019D01*
X1648509Y2716834D01*
X1665630Y2716834D01*
X1665833Y2720390D01*
X1666290Y2722524D01*
X1667052Y2723134D01*
X1667916Y2721965D01*
X1668627Y2719578D01*
X1668881Y2716834D01*
X1668627Y2714142D01*
X1667916Y2711754D01*
X1667052Y2710586D01*
X1666290Y2711145D01*
X1665833Y2713278D01*
X1665630Y2716834D01*
X1648509Y2716834D01*
X1649831Y2713837D01*
X1651965Y2706928D01*
X1653641Y2699004D01*
X1655013Y2689250D01*
X1655064Y2683459D01*
X1653692Y2680868D01*
X1650796Y2680919D01*
X1648104Y2682290D01*
X1645666Y2684729D01*
X1643583Y2688234D01*
X1641754Y2692654D01*
X1640281Y2698038D01*
X1639163Y2704338D01*
X1638401Y2711500D01*
X1637436Y2729077D01*
X1635455Y2734157D01*
X1630730Y2736088D01*
X1621840Y2736443D01*
X1614779Y2735884D01*
X1608277Y2734360D01*
X1602638Y2731922D01*
X1598320Y2728722D01*
X1594459Y2725420D01*
X1591005Y2723743D01*
X1587855Y2723642D01*
X1581200Y2727096D01*
X1577441Y2727756D01*
X1573834Y2727248D01*
X1570431Y2725775D01*
X1567383Y2723489D01*
X1564792Y2720543D01*
X1562811Y2717088D01*
X1561541Y2713329D01*
X1561084Y2709418D01*
X1561592Y2705557D01*
X1562924Y2702560D01*
X1601368Y2702560D01*
X1601622Y2710738D01*
X1605584Y2702560D01*
X1607108Y2698902D01*
X1608429Y2694990D01*
X1609344Y2691282D01*
X1609750Y2688285D01*
X1609750Y2685186D01*
X1609191Y2684170D01*
X1607921Y2685186D01*
X1605584Y2688285D01*
X1603857Y2691282D01*
X1602486Y2694990D01*
X1601622Y2698902D01*
X1601368Y2702560D01*
X1562924Y2702560D01*
X1563217Y2701899D01*
X1572514Y2690977D01*
X1576120Y2683052D01*
X1576476Y2676194D01*
X1573174Y2671724D01*
X1570228Y2670352D01*
X1567586Y2669794D01*
X1564894Y2670403D01*
X1561947Y2672283D01*
X1558391Y2675737D01*
X1553972Y2680919D01*
X1541576Y2697530D01*
X1534414Y2708249D01*
X1531315Y2713532D01*
X1528622Y2718612D01*
X1526438Y2723337D01*
X1524812Y2727553D01*
X1523746Y2731160D01*
X1522831Y2738526D01*
X1521256Y2741980D01*
X1519021Y2744317D01*
X1516329Y2745486D01*
X1513433Y2745384D01*
X1510690Y2744063D01*
X1508252Y2741320D01*
X1504848Y2734005D01*
X1502206Y2731414D01*
X1498854Y2729687D01*
X1495145Y2729077D01*
X1490878Y2728772D01*
X1486306Y2727909D01*
X1481531Y2726436D01*
X1476552Y2724454D01*
X1471472Y2721914D01*
X1466291Y2718917D01*
X1461160Y2715463D01*
X1456029Y2711551D01*
X1453083Y2708452D01*
X1450594Y2704592D01*
X1448612Y2700020D01*
X1448150Y2698496D01*
X1522831Y2698496D01*
X1535785Y2684068D01*
X1538732Y2680157D01*
X1540764Y2677007D01*
X1541526Y2675026D01*
X1540814Y2672029D01*
X1538478Y2672892D01*
X1534820Y2677363D01*
X1530096Y2685237D01*
X1522831Y2698496D01*
X1448150Y2698496D01*
X1447088Y2694990D01*
X1446022Y2689504D01*
X1445412Y2683814D01*
X1445288Y2680258D01*
X1503070Y2680258D01*
X1503527Y2686354D01*
X1504543Y2694178D01*
X1505305Y2695041D01*
X1506880Y2694533D01*
X1509064Y2692857D01*
X1511604Y2690114D01*
X1514246Y2686202D01*
X1515414Y2682849D01*
X1515110Y2679852D01*
X1513332Y2677058D01*
X1509979Y2673807D01*
X1507286Y2672029D01*
X1505305Y2671724D01*
X1503934Y2672994D01*
X1503172Y2675839D01*
X1503070Y2680258D01*
X1445288Y2680258D01*
X1445209Y2677972D01*
X1445463Y2672181D01*
X1446155Y2666746D01*
X1465783Y2666746D01*
X1467916Y2667609D01*
X1472590Y2667863D01*
X1476947Y2667203D01*
X1547672Y2667203D01*
X1548180Y2667863D01*
X1549450Y2667203D01*
X1551228Y2665476D01*
X1553260Y2662885D01*
X1555343Y2659735D01*
X1557070Y2656535D01*
X1558137Y2653944D01*
X1558442Y2652166D01*
X1557934Y2651556D01*
X1556664Y2652166D01*
X1554886Y2653944D01*
X1552854Y2656535D01*
X1550771Y2659735D01*
X1549044Y2662885D01*
X1547977Y2665476D01*
X1547672Y2667203D01*
X1476947Y2667203D01*
X1479550Y2666136D01*
X1481582Y2664206D01*
X1482293Y2661767D01*
X1481988Y2659380D01*
X1481124Y2657398D01*
X1479854Y2656128D01*
X1478280Y2655620D01*
X1476298Y2656128D01*
X1473809Y2657398D01*
X1471117Y2659380D01*
X1468577Y2661767D01*
X1466088Y2664866D01*
X1465783Y2666746D01*
X1446155Y2666746D01*
X1447241Y2661259D01*
X1448714Y2656382D01*
X1450543Y2652064D01*
X1452778Y2648458D01*
X1455369Y2645714D01*
X1458315Y2643987D01*
X1461566Y2643378D01*
X1468968Y2641244D01*
X1503476Y2641244D01*
X1506931Y2644241D01*
X1514398Y2649067D01*
X1520139Y2652166D01*
X1525117Y2654046D01*
X1529130Y2654808D01*
X1531823Y2654503D01*
X1533042Y2653233D01*
X1532585Y2651150D01*
X1530096Y2648254D01*
X1525422Y2644749D01*
X1521460Y2642616D01*
X1516786Y2640888D01*
X1512062Y2639720D01*
X1507794Y2639314D01*
X1503883Y2639720D01*
X1503476Y2641244D01*
X1468968Y2641244D01*
X1475536Y2636367D01*
X1479956Y2630170D01*
X1480413Y2624480D01*
X1479804Y2621483D01*
X1479956Y2617470D01*
X1480820Y2613050D01*
X1482293Y2608681D01*
X1484833Y2604465D01*
X1488135Y2601315D01*
X1491894Y2599232D01*
X1495755Y2598369D01*
X1499311Y2598623D01*
X1502308Y2600045D01*
X1504340Y2602738D01*
X1505762Y2610561D01*
X1507947Y2613101D01*
X1512062Y2614422D01*
X1523796Y2615234D01*
X1528876Y2616403D01*
X1533550Y2618181D01*
X1537716Y2620568D01*
X1541221Y2623362D01*
X1543913Y2626563D01*
X1545590Y2629966D01*
X1546809Y2636113D01*
X1548790Y2637485D01*
X1552143Y2637790D01*
X1562455Y2636316D01*
X1566976Y2637028D01*
X1570888Y2639161D01*
X1577746Y2646324D01*
X1580946Y2648204D01*
X1584147Y2648508D01*
X1587500Y2647238D01*
X1593697Y2644343D01*
X1598726Y2644190D01*
X1604162Y2647238D01*
X1616608Y2658262D01*
X1620621Y2660751D01*
X1623771Y2661361D01*
X1625803Y2660142D01*
X1630832Y2656586D01*
X1637639Y2655824D01*
X1644192Y2657652D01*
X1648409Y2661970D01*
X1650441Y2664815D01*
X1653844Y2666288D01*
X1658975Y2666593D01*
X1673656Y2664917D01*
X1679600Y2665171D01*
X1684172Y2666644D01*
X1687423Y2669286D01*
X1689404Y2673197D01*
X1690116Y2678430D01*
X1689658Y2684983D01*
X1684731Y2707894D01*
X1683715Y2714294D01*
X1683359Y2718866D01*
X1683512Y2722778D01*
X1684172Y2724353D01*
X1685493Y2723692D01*
X1687728Y2720949D01*
X1689455Y2717495D01*
X1690878Y2712618D01*
X1691843Y2706979D01*
X1692605Y2695092D01*
X1693621Y2689504D01*
X1695196Y2684475D01*
X1697278Y2680106D01*
X1699818Y2676448D01*
X1702765Y2673502D01*
X1706016Y2671419D01*
X1709521Y2670098D01*
X1713230Y2669743D01*
X1717039Y2670302D01*
X1721002Y2671876D01*
X1724914Y2674518D01*
X1730451Y2680868D01*
X1733092Y2687777D01*
X1732584Y2693720D01*
X1728724Y2697124D01*
X1726692Y2699461D01*
X1724609Y2704693D01*
X1722729Y2712161D01*
X1721256Y2720949D01*
X1718411Y2743352D01*
X1727617Y2733192D01*
X1766062Y2733192D01*
X1766265Y2736748D01*
X1766722Y2738882D01*
X1767484Y2739440D01*
X1767603Y2739288D01*
X1784502Y2739288D01*
X1784604Y2743657D01*
X1785061Y2746451D01*
X1785721Y2747467D01*
X1786585Y2746502D01*
X1787296Y2743962D01*
X1787601Y2740863D01*
X1787398Y2737459D01*
X1786788Y2734259D01*
X1785924Y2732430D01*
X1785213Y2732786D01*
X1784756Y2735122D01*
X1784502Y2739288D01*
X1767603Y2739288D01*
X1768398Y2738272D01*
X1769110Y2735884D01*
X1769313Y2733141D01*
X1769110Y2730449D01*
X1768398Y2728061D01*
X1767484Y2726893D01*
X1766722Y2727452D01*
X1766265Y2729585D01*
X1766062Y2733192D01*
X1727617Y2733192D01*
X1732178Y2727096D01*
X1735226Y2720746D01*
X1736688Y2715920D01*
X1767992Y2715920D01*
X1768144Y2718511D01*
X1768906Y2720289D01*
X1770329Y2720949D01*
X1771954Y2720289D01*
X1773275Y2718511D01*
X1774139Y2715920D01*
X1774494Y2712770D01*
X1774342Y2709570D01*
X1773986Y2706979D01*
X1773428Y2705252D01*
X1772716Y2704592D01*
X1771853Y2705252D01*
X1770786Y2706979D01*
X1769668Y2709570D01*
X1768602Y2712770D01*
X1767992Y2715920D01*
X1736688Y2715920D01*
X1737258Y2714040D01*
X1738630Y2701188D01*
X1740458Y2694635D01*
X1743202Y2688590D01*
X1746554Y2683764D01*
X1751482Y2678887D01*
X1755749Y2676702D01*
X1760575Y2676906D01*
X1773326Y2681224D01*
X1778660Y2682036D01*
X1783537Y2681681D01*
X1792528Y2678684D01*
X1796897Y2678684D01*
X1801571Y2680360D01*
X1812950Y2687726D01*
X1817522Y2689199D01*
X1822094Y2688336D01*
X1834032Y2682087D01*
X1838401Y2681224D01*
X1842566Y2682646D01*
X1852930Y2690114D01*
X1857095Y2691638D01*
X1861159Y2691282D01*
X1874774Y2685440D01*
X1883105Y2684475D01*
X1890979Y2686354D01*
X1898548Y2690977D01*
X1902764Y2694787D01*
X1904390Y2697734D01*
X1903526Y2700629D01*
X1900326Y2704338D01*
X1896821Y2709062D01*
X1894332Y2715107D01*
X1892807Y2721914D01*
X1892300Y2729128D01*
X1892807Y2736138D01*
X1894281Y2742539D01*
X1896770Y2747822D01*
X1900275Y2751531D01*
X1905152Y2755138D01*
X1906625Y2757881D01*
X1904593Y2760878D01*
X1894890Y2768803D01*
X1891639Y2772257D01*
X1889404Y2775356D01*
X1887880Y2780487D01*
X1885797Y2781960D01*
X1882698Y2782316D01*
X1878888Y2781604D01*
X1874570Y2779826D01*
X1870049Y2777185D01*
X1865630Y2773680D01*
X1861566Y2769463D01*
X1856790Y2762961D01*
X1854200Y2757627D01*
X1853978Y2755290D01*
X1870710Y2755290D01*
X1870811Y2758135D01*
X1871268Y2760065D01*
X1872081Y2760980D01*
X1873097Y2760624D01*
X1874012Y2759252D01*
X1874367Y2757322D01*
X1874164Y2755087D01*
X1873453Y2752801D01*
X1872437Y2751124D01*
X1871624Y2751023D01*
X1871014Y2752445D01*
X1870710Y2755290D01*
X1853978Y2755290D01*
X1853742Y2752801D01*
X1855165Y2748026D01*
X1857095Y2742641D01*
X1858314Y2736291D01*
X1858924Y2729534D01*
X1858924Y2722829D01*
X1858365Y2716580D01*
X1857197Y2711348D01*
X1855470Y2707538D01*
X1853234Y2705658D01*
X1850593Y2706268D01*
X1848815Y2710383D01*
X1847850Y2718409D01*
X1847189Y2743657D01*
X1846021Y2752394D01*
X1843989Y2757728D01*
X1840839Y2760218D01*
X1837588Y2761742D01*
X1836572Y2763824D01*
X1837842Y2767076D01*
X1841347Y2772308D01*
X1844548Y2777845D01*
X1846072Y2782976D01*
X1846122Y2787446D01*
X1844802Y2790952D01*
X1842414Y2793187D01*
G37*
G36*
X1879600Y5678119D02*
G01*
X1879600Y5675680D01*
X1877161Y5671007D01*
X1875282Y5668772D01*
X1870202Y5664860D01*
X1867103Y5657646D01*
X1865274Y5656427D01*
X1862886Y5649823D01*
X1860651Y5647131D01*
X1858568Y5641390D01*
X1855114Y5636768D01*
X1855114Y5633364D01*
X1854149Y5629148D01*
X1850643Y5625642D01*
X1849424Y5621020D01*
X1848066Y5618429D01*
X1865223Y5618429D01*
X1865884Y5622848D01*
X1866950Y5627725D01*
X1867865Y5625947D01*
X1867814Y5618530D01*
X1867052Y5616244D01*
X1865223Y5618429D01*
X1848066Y5618429D01*
X1847088Y5616600D01*
X1845564Y5611114D01*
X1843735Y5593232D01*
X1843684Y5586425D01*
X1841906Y5583326D01*
X1840738Y5576570D01*
X1841296Y5566562D01*
X1843481Y5559298D01*
X1844548Y5554319D01*
X1843938Y5531866D01*
X1846478Y5518861D01*
X1846478Y5501894D01*
X1847545Y5497169D01*
X1850034Y5492800D01*
X1850593Y5487060D01*
X1850796Y5472836D01*
X1854606Y5464048D01*
X1854504Y5415432D01*
X1854657Y5407406D01*
X1853184Y5404967D01*
X1851964Y5408676D01*
X1852472Y5414213D01*
X1851558Y5425948D01*
X1850034Y5431434D01*
X1850034Y5435803D01*
X1846376Y5449062D01*
X1844903Y5450484D01*
X1839569Y5452008D01*
X1834946Y5450382D01*
X1832660Y5447385D01*
X1832102Y5425338D01*
X1830476Y5418226D01*
X1829409Y5418632D01*
X1828749Y5421630D01*
X1828647Y5453176D01*
X1824532Y5457748D01*
X1824532Y5475376D01*
X1823161Y5481777D01*
X1820621Y5486450D01*
X1818792Y5494223D01*
X1816506Y5497169D01*
X1813864Y5508091D01*
X1811832Y5510784D01*
X1810359Y5517489D01*
X1808835Y5520994D01*
X1806752Y5523280D01*
X1804619Y5531358D01*
X1802180Y5535726D01*
X1800910Y5542432D01*
X1797100Y5546852D01*
X1796440Y5550255D01*
X1793748Y5553710D01*
X1790547Y5559298D01*
X1783791Y5567934D01*
X1782267Y5573318D01*
X1774342Y5583834D01*
X1770735Y5585815D01*
X1767382Y5590438D01*
X1766316Y5590438D01*
X1762048Y5596026D01*
X1757019Y5595975D01*
X1753107Y5594248D01*
X1751228Y5592165D01*
X1749653Y5586526D01*
X1752549Y5581497D01*
X1757375Y5575350D01*
X1759712Y5569153D01*
X1762353Y5566156D01*
X1764030Y5559044D01*
X1766214Y5556300D01*
X1767992Y5553100D01*
X1767992Y5547512D01*
X1771497Y5539486D01*
X1773021Y5526532D01*
X1774088Y5523484D01*
X1776171Y5520385D01*
X1776323Y5468162D01*
X1774088Y5464810D01*
X1772361Y5461152D01*
X1772208Y5451856D01*
X1770888Y5447080D01*
X1768703Y5443118D01*
X1767433Y5431485D01*
X1764487Y5424119D01*
X1762353Y5414518D01*
X1762353Y5408676D01*
X1759305Y5402224D01*
X1757934Y5391150D01*
X1755190Y5386273D01*
X1753209Y5378450D01*
X1751177Y5375097D01*
X1748078Y5360162D01*
X1745589Y5355590D01*
X1743913Y5347258D01*
X1741017Y5343652D01*
X1739950Y5338927D01*
X1739950Y5336286D01*
X1736394Y5331764D01*
X1735277Y5323890D01*
X1732432Y5318556D01*
X1730146Y5310073D01*
X1727352Y5306212D01*
X1726641Y5303520D01*
X1725675Y5296408D01*
X1722678Y5292598D01*
X1720443Y5283962D01*
X1717649Y5279644D01*
X1713026Y5268518D01*
X1711756Y5258663D01*
X1709470Y5255564D01*
X1708302Y5252821D01*
X1707946Y5238292D01*
X1707134Y5235803D01*
X1703730Y5231942D01*
X1703906Y5186426D01*
X1728165Y5186426D01*
X1728876Y5196332D01*
X1728673Y5224729D01*
X1730248Y5227777D01*
X1731873Y5232044D01*
X1733753Y5250027D01*
X1736293Y5255564D01*
X1738274Y5269839D01*
X1740916Y5274716D01*
X1741982Y5280253D01*
X1741982Y5285333D01*
X1743151Y5289550D01*
X1745488Y5292902D01*
X1746554Y5300014D01*
X1747672Y5305552D01*
X1749501Y5308041D01*
X1751025Y5313578D01*
X1751736Y5320588D01*
X1754174Y5323789D01*
X1755241Y5328412D01*
X1755241Y5330901D01*
X1756714Y5339232D01*
X1758797Y5342839D01*
X1761236Y5354523D01*
X1763268Y5358028D01*
X1764334Y5362346D01*
X1765452Y5371642D01*
X1768449Y5378653D01*
X1770024Y5390743D01*
X1771904Y5393842D01*
X1773123Y5396636D01*
X1775104Y5407812D01*
X1777644Y5411520D01*
X1779168Y5421426D01*
X1782216Y5428538D01*
X1783334Y5439460D01*
X1784350Y5445302D01*
X1785772Y5446725D01*
X1787296Y5452465D01*
X1788414Y5464200D01*
X1790903Y5475325D01*
X1792478Y5493867D01*
X1793087Y5497271D01*
X1793900Y5497880D01*
X1796592Y5483758D01*
X1798370Y5480862D01*
X1799132Y5478424D01*
X1800606Y5462066D01*
X1803755Y5450636D01*
X1804314Y5430266D01*
X1803146Y5411673D01*
X1802217Y5408422D01*
X1824177Y5408422D01*
X1824685Y5414822D01*
X1825599Y5417718D01*
X1828393Y5417312D01*
X1828698Y5414619D01*
X1825955Y5405221D01*
X1824177Y5408422D01*
X1802217Y5408422D01*
X1801114Y5404561D01*
X1800098Y5394452D01*
X1799082Y5379516D01*
X1796592Y5370271D01*
X1795018Y5359298D01*
X1794967Y5351780D01*
X1796999Y5349544D01*
X1801926Y5348935D01*
X1807667Y5350408D01*
X1812086Y5354015D01*
X1813610Y5354066D01*
X1817674Y5355386D01*
X1820824Y5359450D01*
X1824024Y5361482D01*
X1825599Y5365089D01*
X1827072Y5364429D01*
X1827784Y5359958D01*
X1826615Y5347258D01*
X1823516Y5340604D01*
X1822043Y5330444D01*
X1818132Y5325313D01*
X1816811Y5319623D01*
X1814322Y5318201D01*
X1812848Y5313934D01*
X1812848Y5308447D01*
X1814423Y5306517D01*
X1816455Y5305196D01*
X1819910Y5306568D01*
X1822246Y5308803D01*
X1829155Y5311546D01*
X1831949Y5314340D01*
X1837232Y5317591D01*
X1838553Y5319928D01*
X1843887Y5323179D01*
X1851304Y5332526D01*
X1852980Y5337149D01*
X1855571Y5339181D01*
X1857502Y5344464D01*
X1860651Y5348528D01*
X1862531Y5353354D01*
X1864664Y5354523D01*
X1866493Y5359298D01*
X1869439Y5362346D01*
X1871116Y5369763D01*
X1872843Y5372252D01*
X1874062Y5375148D01*
X1876094Y5383987D01*
X1877517Y5385866D01*
X1878990Y5390134D01*
X1880971Y5422239D01*
X1882292Y5425948D01*
X1882393Y5435193D01*
X1880717Y5440781D01*
X1880158Y5445099D01*
X1879092Y5463743D01*
X1877110Y5476189D01*
X1876145Y5478424D01*
X1875028Y5486450D01*
X1873961Y5498795D01*
X1871014Y5506212D01*
X1869897Y5514238D01*
X1868322Y5519369D01*
X1866950Y5520740D01*
X1864766Y5533694D01*
X1862328Y5537200D01*
X1861261Y5542635D01*
X1859686Y5554929D01*
X1857756Y5558942D01*
X1856689Y5570677D01*
X1856689Y5594451D01*
X1857603Y5599176D01*
X1859178Y5600649D01*
X1860651Y5604967D01*
X1861769Y5614670D01*
X1862378Y5615838D01*
X1864563Y5615432D01*
X1864055Y5603748D01*
X1864258Y5558028D01*
X1865782Y5548528D01*
X1867916Y5545074D01*
X1868881Y5537047D01*
X1869439Y5534253D01*
X1872335Y5530545D01*
X1873605Y5522874D01*
X1874621Y5518556D01*
X1876653Y5515051D01*
X1878939Y5502656D01*
X1881581Y5499709D01*
X1883156Y5493410D01*
X1886254Y5489143D01*
X1887931Y5481777D01*
X1890318Y5478678D01*
X1891690Y5475325D01*
X1892350Y5470855D01*
X1895348Y5465470D01*
X1897430Y5458663D01*
X1899920Y5455158D01*
X1901139Y5450636D01*
X1904085Y5446014D01*
X1907082Y5437936D01*
X1908556Y5437276D01*
X1910892Y5429250D01*
X1913331Y5426049D01*
X1915363Y5419598D01*
X1918309Y5415737D01*
X1920036Y5408218D01*
X1922475Y5404713D01*
X1924913Y5395925D01*
X1927504Y5392216D01*
X1927504Y5390692D01*
X1929028Y5384444D01*
X1931974Y5380024D01*
X1933702Y5367629D01*
X1936292Y5363057D01*
X1938731Y5347716D01*
X1940966Y5343956D01*
X1942236Y5335828D01*
X1942287Y5329021D01*
X1940712Y5326278D01*
X1936394Y5332730D01*
X1931162Y5336438D01*
X1930146Y5339029D01*
X1926386Y5341162D01*
X1924354Y5345328D01*
X1922373Y5346090D01*
X1908911Y5361330D01*
X1904847Y5363768D01*
X1902358Y5366969D01*
X1896821Y5368899D01*
X1894484Y5371947D01*
X1891792Y5367629D01*
X1890725Y5364022D01*
X1892249Y5359755D01*
X1895805Y5353507D01*
X1896516Y5346496D01*
X1897989Y5341416D01*
X1899412Y5339486D01*
X1900986Y5331510D01*
X1900986Y5325922D01*
X1903018Y5309260D01*
X1903018Y5299710D01*
X1901545Y5288280D01*
X1899970Y5271414D01*
X1899310Y5269179D01*
X1897430Y5266080D01*
X1895856Y5256174D01*
X1894890Y5251754D01*
X1892807Y5249519D01*
X1890217Y5239207D01*
X1889252Y5239207D01*
X1886762Y5232755D01*
X1886712Y5230520D01*
X1883257Y5226354D01*
X1881479Y5219750D01*
X1878126Y5216347D01*
X1876501Y5210352D01*
X1874418Y5208066D01*
X1872030Y5202377D01*
X1869439Y5200294D01*
X1867357Y5195468D01*
X1865579Y5193842D01*
X1862582Y5188915D01*
X1854860Y5177891D01*
X1853133Y5174386D01*
X1851812Y5174386D01*
X1844446Y5165242D01*
X1844446Y5164226D01*
X1841347Y5162092D01*
X1839671Y5158587D01*
X1836775Y5156555D01*
X1834997Y5152847D01*
X1832660Y5151577D01*
X1831136Y5147157D01*
X1827580Y5144668D01*
X1826971Y5141620D01*
X1823008Y5138572D01*
X1823008Y5137251D01*
X1814220Y5126888D01*
X1813052Y5124145D01*
X1810969Y5122824D01*
X1804924Y5115458D01*
X1803196Y5112156D01*
X1801114Y5111343D01*
X1799539Y5107736D01*
X1796643Y5105908D01*
X1794510Y5101539D01*
X1791970Y5100370D01*
X1790242Y5097119D01*
X1786382Y5094173D01*
X1785061Y5090922D01*
X1781098Y5089296D01*
X1778406Y5086299D01*
X1776222Y5084876D01*
X1771294Y5084826D01*
X1767433Y5083149D01*
X1763623Y5080101D01*
X1761236Y5079238D01*
X1756257Y5085791D01*
X1754784Y5092039D01*
X1752041Y5095087D01*
X1749653Y5101488D01*
X1747672Y5102758D01*
X1745538Y5111343D01*
X1742897Y5115204D01*
X1740458Y5124704D01*
X1738630Y5127802D01*
X1737461Y5131511D01*
X1736242Y5139893D01*
X1733956Y5144008D01*
X1732889Y5148173D01*
X1732229Y5157419D01*
X1730806Y5164531D01*
X1729079Y5167680D01*
X1728165Y5186426D01*
X1703906Y5186426D01*
X1704035Y5152999D01*
X1707743Y5147970D01*
X1708454Y5140909D01*
X1707946Y5131054D01*
X1709318Y5125262D01*
X1711401Y5122570D01*
X1712417Y5119370D01*
X1712417Y5113832D01*
X1711299Y5111343D01*
X1706168Y5112207D01*
X1702460Y5114036D01*
X1693062Y5113832D01*
X1688744Y5115407D01*
X1685848Y5117896D01*
X1655876Y5117896D01*
X1652016Y5113375D01*
X1645564Y5111597D01*
X1642364Y5107889D01*
X1636776Y5105704D01*
X1634185Y5102301D01*
X1630527Y5100472D01*
X1628444Y5097221D01*
X1627835Y5097221D01*
X1622196Y5094681D01*
X1620672Y5091074D01*
X1616862Y5088890D01*
X1615490Y5085435D01*
X1609496Y5082946D01*
X1604111Y5074310D01*
X1601825Y5069230D01*
X1600911Y5068112D01*
X1596491Y5069687D01*
X1594104Y5072227D01*
X1589328Y5072024D01*
X1573377Y5072024D01*
X1562303Y5063490D01*
X1559001Y5061915D01*
X1556061Y5058460D01*
X1627225Y5058460D01*
X1627784Y5061153D01*
X1627835Y5064810D01*
X1630933Y5066995D01*
X1632407Y5071313D01*
X1635404Y5073142D01*
X1636064Y5075631D01*
X1639773Y5079034D01*
X1641703Y5081879D01*
X1645666Y5083810D01*
X1647189Y5086451D01*
X1653489Y5089550D01*
X1654556Y5091988D01*
X1656080Y5093462D01*
X1658670Y5094173D01*
X1662226Y5097881D01*
X1667814Y5099761D01*
X1669846Y5100878D01*
X1674520Y5100929D01*
X1676857Y5097932D01*
X1676146Y5091684D01*
X1672742Y5088280D01*
X1669999Y5083352D01*
X1668018Y5081727D01*
X1664970Y5075123D01*
X1663446Y5074412D01*
X1660906Y5067503D01*
X1658010Y5064506D01*
X1656740Y5058206D01*
X1653895Y5055158D01*
X1652219Y5050078D01*
X1649374Y5046167D01*
X1647088Y5035042D01*
X1643227Y5033670D01*
X1642059Y5033670D01*
X1641093Y5036464D01*
X1640027Y5041696D01*
X1636979Y5045862D01*
X1635506Y5050231D01*
X1632508Y5053126D01*
X1631340Y5055870D01*
X1627225Y5058460D01*
X1556061Y5058460D01*
X1554937Y5057140D01*
X1553514Y5057140D01*
X1546250Y5048707D01*
X1546250Y5047437D01*
X1543761Y5046065D01*
X1541729Y5041239D01*
X1538528Y5039664D01*
X1536852Y5036464D01*
X1535023Y5034788D01*
X1532585Y5029047D01*
X1530502Y5027472D01*
X1527352Y5020411D01*
X1524863Y5016195D01*
X1524863Y5014061D01*
X1523492Y5012690D01*
X1516684Y5011521D01*
X1516014Y5011013D01*
X1553311Y5011013D01*
X1554022Y5020360D01*
X1557375Y5024069D01*
X1559966Y5030368D01*
X1562608Y5032502D01*
X1564233Y5036464D01*
X1569364Y5039410D01*
X1572869Y5043424D01*
X1580692Y5044795D01*
X1587296Y5048707D01*
X1600047Y5049723D01*
X1609191Y5047792D01*
X1619910Y5044186D01*
X1624482Y5044135D01*
X1629054Y5042509D01*
X1630933Y5034280D01*
X1633321Y5030876D01*
X1633618Y5029657D01*
X1661820Y5029657D01*
X1664766Y5037328D01*
X1667713Y5038801D01*
X1669542Y5042509D01*
X1674114Y5045710D01*
X1681073Y5052669D01*
X1687575Y5060188D01*
X1698396Y5060188D01*
X1700834Y5058511D01*
X1691538Y5056987D01*
X1689252Y5053838D01*
X1685493Y5049418D01*
X1683715Y5045100D01*
X1680870Y5040782D01*
X1679295Y5036159D01*
X1677212Y5034838D01*
X1674825Y5028438D01*
X1672183Y5025491D01*
X1671015Y5018532D01*
X1671574Y5010251D01*
X1672386Y5008524D01*
X1679600Y5001056D01*
X1683664Y4999736D01*
X1687068Y5000904D01*
X1689303Y5002682D01*
X1691132Y5007660D01*
X1690471Y5010810D01*
X1687677Y5012588D01*
X1683867Y5013452D01*
X1683207Y5014671D01*
X1684934Y5015839D01*
X1687525Y5022494D01*
X1696567Y5032349D01*
X1700428Y5033162D01*
X1702612Y5034838D01*
X1704339Y5036921D01*
X1714703Y5038090D01*
X1725422Y5036616D01*
X1726996Y5034940D01*
X1731010Y5032806D01*
X1761286Y5032095D01*
X1764893Y5027930D01*
X1770634Y5026964D01*
X1773021Y5028031D01*
X1773986Y5030266D01*
X1774647Y5036464D01*
X1772513Y5039766D01*
X1766417Y5041239D01*
X1762810Y5044744D01*
X1761083Y5045354D01*
X1748485Y5046573D01*
X1744776Y5049520D01*
X1742592Y5050383D01*
X1731060Y5052720D01*
X1729486Y5055158D01*
X1718818Y5057190D01*
X1713331Y5058714D01*
X1716227Y5061102D01*
X1721357Y5061102D01*
X1730349Y5059476D01*
X1734972Y5060289D01*
X1737410Y5063236D01*
X1737410Y5065166D01*
X1735480Y5067503D01*
X1729486Y5069586D01*
X1727301Y5072024D01*
X1717293Y5075021D01*
X1715211Y5077409D01*
X1712518Y5078222D01*
X1702155Y5078425D01*
X1700682Y5080812D01*
X1701749Y5082082D01*
X1706067Y5084216D01*
X1721357Y5082286D01*
X1723085Y5081168D01*
X1725625Y5078323D01*
X1729638Y5076850D01*
X1734413Y5076850D01*
X1736648Y5075428D01*
X1737918Y5073192D01*
X1742186Y5071821D01*
X1754276Y5070195D01*
X1756003Y5068316D01*
X1760575Y5067096D01*
X1774494Y5065166D01*
X1776069Y5064455D01*
X1776577Y5062728D01*
X1781657Y5059629D01*
X1782064Y5058664D01*
X1781302Y5042611D01*
X1780133Y5038902D01*
X1777644Y5036464D01*
X1779005Y5031232D01*
X1799082Y5031232D01*
X1799082Y5035194D01*
X1800606Y5042611D01*
X1802079Y5054854D01*
X1805127Y5060035D01*
X1807260Y5066893D01*
X1808937Y5068519D01*
X1811731Y5075936D01*
X1814880Y5079593D01*
X1814880Y5080914D01*
X1818944Y5086858D01*
X1821180Y5091684D01*
X1823466Y5093512D01*
X1824583Y5097678D01*
X1828647Y5101640D01*
X1828647Y5103266D01*
X1842058Y5120792D01*
X1844141Y5123992D01*
X1848002Y5128768D01*
X1848002Y5129784D01*
X1852066Y5134813D01*
X1852066Y5136743D01*
X1856130Y5139842D01*
X1856130Y5141722D01*
X1864106Y5151882D01*
X1867255Y5157419D01*
X1869998Y5160518D01*
X1871573Y5164175D01*
X1874113Y5166563D01*
X1875536Y5170678D01*
X1878126Y5172760D01*
X1880107Y5177434D01*
X1882139Y5178755D01*
X1884578Y5183378D01*
X1887829Y5187696D01*
X1889353Y5192166D01*
X1893366Y5196078D01*
X1893366Y5197551D01*
X1897227Y5201920D01*
X1898497Y5207152D01*
X1901494Y5210810D01*
X1902663Y5215686D01*
X1906168Y5220157D01*
X1908200Y5225948D01*
X1910588Y5228437D01*
X1915261Y5239512D01*
X1916938Y5253126D01*
X1919884Y5260644D01*
X1921408Y5274564D01*
X1920595Y5311749D01*
X1920951Y5320030D01*
X1922373Y5321401D01*
X1924862Y5316626D01*
X1927606Y5314442D01*
X1928622Y5310886D01*
X1932076Y5308396D01*
X1932076Y5306618D01*
X1936496Y5300624D01*
X1939798Y5294782D01*
X1940814Y5294782D01*
X1942947Y5288889D01*
X1945792Y5284927D01*
X1947875Y5276443D01*
X1949957Y5274208D01*
X1952498Y5264048D01*
X1954072Y5262473D01*
X1955444Y5259273D01*
X1956104Y5253736D01*
X1957171Y5249722D01*
X1959203Y5247995D01*
X1961083Y5234432D01*
X1963572Y5228437D01*
X1965299Y5216702D01*
X1966417Y5210505D01*
X1968296Y5205171D01*
X1968246Y5172862D01*
X1966671Y5167934D01*
X1964791Y5160213D01*
X1964080Y5151729D01*
X1965248Y5147411D01*
X1967636Y5144719D01*
X1969262Y5145481D01*
X1972056Y5149951D01*
X1979422Y5159298D01*
X1981809Y5163007D01*
X1984705Y5166664D01*
X1985670Y5170017D01*
X1988210Y5171998D01*
X1990089Y5177231D01*
X1993696Y5181904D01*
X1995424Y5187340D01*
X1996338Y5187340D01*
X1998370Y5191404D01*
X1998370Y5196738D01*
X1999894Y5204002D01*
X2002028Y5208371D01*
X2003907Y5222849D01*
X2005533Y5233365D01*
X2007006Y5246928D01*
X2008174Y5270398D01*
X2007565Y5307431D01*
X2005939Y5320334D01*
X2004568Y5324195D01*
X2002891Y5340146D01*
X2001926Y5346090D01*
X1999437Y5352491D01*
X1998776Y5363006D01*
X1997760Y5372252D01*
X1994611Y5379516D01*
X1993747Y5393232D01*
X1990598Y5401259D01*
X1988616Y5423966D01*
X1985670Y5434838D01*
X1983435Y5451856D01*
X1982978Y5463590D01*
X1984146Y5485180D01*
X1985619Y5498185D01*
X1987499Y5501233D01*
X1988667Y5503875D01*
X1989734Y5512968D01*
X1990902Y5520385D01*
X1992426Y5516067D01*
X1993188Y5463590D01*
X1994103Y5458663D01*
X1996236Y5453735D01*
X1997405Y5443829D01*
X1998472Y5439511D01*
X2000453Y5436870D01*
X2002536Y5424119D01*
X2005431Y5418531D01*
X2006650Y5410504D01*
X2008174Y5406796D01*
X2009393Y5404967D01*
X2011832Y5396534D01*
X2014321Y5393232D01*
X2016252Y5385409D01*
X2019147Y5381752D01*
X2020824Y5372658D01*
X2023160Y5369661D01*
X2024278Y5366054D01*
X2025345Y5360974D01*
X2028443Y5356301D01*
X2030222Y5350205D01*
X2032254Y5347512D01*
X2034997Y5340146D01*
X2037486Y5337048D01*
X2039112Y5330240D01*
X2042210Y5326634D01*
X2043226Y5322062D01*
X2045868Y5318404D01*
X2048103Y5310225D01*
X2051405Y5305298D01*
X2053488Y5299405D01*
X2055368Y5296916D01*
X2058009Y5288940D01*
X2060397Y5285841D01*
X2062022Y5279847D01*
X2065629Y5275021D01*
X2065680Y5272227D01*
X2067052Y5267553D01*
X2069592Y5262981D01*
X2071319Y5255768D01*
X2073706Y5252872D01*
X2075230Y5246928D01*
X2075891Y5242966D01*
X2078888Y5238394D01*
X2080412Y5226253D01*
X2083409Y5219141D01*
X2084984Y5205831D01*
X2088032Y5198719D01*
X2089200Y5186476D01*
X2088642Y5157419D01*
X2087473Y5151882D01*
X2084933Y5145328D01*
X2083511Y5135118D01*
X2080463Y5130444D01*
X2079853Y5125923D01*
X2078228Y5120386D01*
X2075992Y5117642D01*
X2074773Y5112766D01*
X2071268Y5107635D01*
X2070049Y5102707D01*
X2066137Y5098999D01*
X2066137Y5097780D01*
X2059635Y5089906D01*
X2058365Y5091684D01*
X2058974Y5098034D01*
X2061464Y5102606D01*
X2062683Y5116677D01*
X2061667Y5152491D01*
X2059990Y5158689D01*
X2058974Y5164785D01*
X2058009Y5188305D01*
X2056892Y5198059D01*
X2055063Y5202478D01*
X2053945Y5209286D01*
X2053336Y5216093D01*
X2052320Y5220868D01*
X2049932Y5225338D01*
X2048256Y5237073D01*
X2045817Y5243220D01*
X2043226Y5256631D01*
X2041347Y5259882D01*
X2039518Y5267299D01*
X2036927Y5270703D01*
X2034438Y5267909D01*
X2033422Y5264861D01*
X2033066Y5214467D01*
X2030475Y5207406D01*
X2029460Y5201564D01*
X2028850Y5184597D01*
X2027834Y5178094D01*
X2026920Y5178094D01*
X2025396Y5174538D01*
X2023719Y5165445D01*
X2021332Y5161127D01*
X2020417Y5158028D01*
X2019147Y5146700D01*
X2016760Y5143500D01*
X2014626Y5131917D01*
X2011730Y5127548D01*
X2009952Y5119776D01*
X2007107Y5115814D01*
X2005279Y5108651D01*
X2002485Y5104688D01*
X2001266Y5097119D01*
X1997506Y5092598D01*
X1996135Y5086451D01*
X1993239Y5083352D01*
X1990953Y5078222D01*
X1986229Y5070805D01*
X1984959Y5074107D01*
X1983587Y5082032D01*
X1981098Y5086451D01*
X1979879Y5098389D01*
X1974138Y5109159D01*
X1972360Y5110480D01*
X1967331Y5104434D01*
X1965299Y5098796D01*
X1964639Y5092598D01*
X1963521Y5088280D01*
X1961184Y5083962D01*
X1959610Y5071973D01*
X1958949Y5069789D01*
X1957120Y5066944D01*
X1954885Y5054498D01*
X1952498Y5051094D01*
X1949805Y5042001D01*
X1947976Y5040477D01*
X1945741Y5032298D01*
X1942846Y5028336D01*
X1941423Y5023358D01*
X1938274Y5018532D01*
X1936648Y5012994D01*
X1933803Y5009286D01*
X1931670Y5005832D01*
X1927809Y5002682D01*
X1920798Y5001463D01*
X1919224Y5002225D01*
X1908403Y5000904D01*
X1899716Y4999583D01*
X1895652Y4997399D01*
X1893824Y4996637D01*
X1873910Y4994757D01*
X1869186Y4993487D01*
X1867611Y4991811D01*
X1851304Y4989728D01*
X1817624Y4989576D01*
X1814118Y4991303D01*
X1809750Y4996027D01*
X1807362Y4997348D01*
X1804568Y5008067D01*
X1802536Y5012334D01*
X1800656Y5024069D01*
X1799082Y5031232D01*
X1779005Y5031232D01*
X1780743Y5028539D01*
X1782318Y5021935D01*
X1784654Y5018532D01*
X1786382Y5014518D01*
X1785213Y5011877D01*
X1769719Y5013706D01*
X1766976Y5015890D01*
X1752142Y5018176D01*
X1748231Y5019497D01*
X1743760Y5022494D01*
X1736648Y5023916D01*
X1705864Y5024069D01*
X1703222Y5021122D01*
X1703222Y5018176D01*
X1704695Y5014823D01*
X1707235Y5011928D01*
X1710943Y5010404D01*
X1716227Y5011470D01*
X1729232Y5010251D01*
X1732788Y5008422D01*
X1736140Y5005324D01*
X1745284Y5001412D01*
X1754479Y4999228D01*
X1765706Y4997856D01*
X1772107Y4994706D01*
X1781505Y4993538D01*
X1786585Y4992217D01*
X1788617Y4988306D01*
X1794560Y4987290D01*
X1794154Y4985867D01*
X1770938Y4985562D01*
X1765706Y4984394D01*
X1755648Y4982870D01*
X1730502Y4984902D01*
X1700428Y4985054D01*
X1692503Y4984140D01*
X1689557Y4981143D01*
X1916328Y4981143D01*
X1918055Y4981752D01*
X1923186Y4982514D01*
X1928469Y4984292D01*
X1929942Y4986832D01*
X1933854Y4988560D01*
X1935683Y4988610D01*
X1943049Y4997754D01*
X1947113Y5003647D01*
X1949348Y5009032D01*
X1952091Y5011623D01*
X1953361Y5015280D01*
X1956104Y5019141D01*
X1961184Y5027066D01*
X1963166Y5035296D01*
X1965248Y5037582D01*
X1966163Y5042001D01*
X1967230Y5058156D01*
X1967890Y5060188D01*
X1968855Y5060188D01*
X1970786Y5058968D01*
X1971802Y5054346D01*
X1974951Y5034381D01*
X1981758Y5027320D01*
X1984959Y5031790D01*
X1988210Y5033162D01*
X1990191Y5037886D01*
X1992985Y5039563D01*
X1994255Y5042662D01*
X1998370Y5046675D01*
X1998370Y5048300D01*
X2002332Y5053584D01*
X2003602Y5059273D01*
X2007362Y5064252D01*
X2008632Y5070398D01*
X2011121Y5072837D01*
X2013610Y5081066D01*
X2016048Y5084013D01*
X2018233Y5092852D01*
X2019604Y5093868D01*
X2021230Y5096916D01*
X2021941Y5103114D01*
X2022957Y5105603D01*
X2025243Y5108854D01*
X2027478Y5120690D01*
X2028393Y5120690D01*
X2029866Y5124145D01*
X2032000Y5134508D01*
X2033473Y5136489D01*
X2035048Y5143855D01*
X2036572Y5158435D01*
X2036572Y5163972D01*
X2038096Y5167579D01*
X2039670Y5179669D01*
X2041448Y5187492D01*
X2042617Y5181092D01*
X2043277Y5159298D01*
X2044801Y5151272D01*
X2046274Y5148529D01*
X2046274Y5138826D01*
X2044242Y5127802D01*
X2043175Y5111750D01*
X2042261Y5091379D01*
X2040585Y5085842D01*
X2039477Y5081016D01*
X2070201Y5081016D01*
X2072843Y5083149D01*
X2082038Y5094173D01*
X2083003Y5094173D01*
X2087473Y5099710D01*
X2089150Y5099710D01*
X2095957Y5103418D01*
X2103069Y5104485D01*
X2107692Y5104485D01*
X2110689Y5103723D01*
X2110536Y5102504D01*
X2102053Y5100370D01*
X2099818Y5097221D01*
X2097176Y5096002D01*
X2091080Y5096002D01*
X2088591Y5092954D01*
X2088591Y5090414D01*
X2090166Y5086654D01*
X2094534Y5084318D01*
X2111248Y5082133D01*
X2112975Y5077968D01*
X2115108Y5075224D01*
X2112467Y5068062D01*
X2111756Y5063693D01*
X2109927Y5062372D01*
X2106676Y5066944D01*
X2101545Y5069332D01*
X2097989Y5071821D01*
X2092909Y5073091D01*
X2078634Y5073802D01*
X2072741Y5075174D01*
X2070862Y5078425D01*
X2070201Y5081016D01*
X2039477Y5081016D01*
X2039162Y5079644D01*
X2038096Y5064201D01*
X2037130Y5057749D01*
X2035098Y5054346D01*
X2033117Y5045303D01*
X2030425Y5041849D01*
X2028494Y5034280D01*
X2025446Y5030063D01*
X2024131Y5024526D01*
X2044649Y5024526D01*
X2045258Y5027523D01*
X2047748Y5030165D01*
X2049983Y5042357D01*
X2052878Y5045964D01*
X2054656Y5053533D01*
X2057501Y5055311D01*
X2057501Y5056174D01*
X2059533Y5060238D01*
X2062327Y5059426D01*
X2069185Y5054955D01*
X2069795Y5052720D01*
X2069287Y5052110D01*
X2063343Y5050434D01*
X2061819Y5047640D01*
X2057501Y5042560D01*
X2057501Y5041239D01*
X2059330Y5039207D01*
X2064054Y5038140D01*
X2073046Y5039360D01*
X2077364Y5041188D01*
X2077364Y5042204D01*
X2082698Y5043830D01*
X2099513Y5043779D01*
X2105456Y5042306D01*
X2108301Y5039512D01*
X2111502Y5037429D01*
X2111502Y5030470D01*
X2113178Y5026202D01*
X2116328Y5025440D01*
X2115454Y5025186D01*
X2120036Y5025186D01*
X2121662Y5026304D01*
X2126691Y5045710D01*
X2127402Y5055565D01*
X2128164Y5060035D01*
X2130298Y5062626D01*
X2131466Y5067757D01*
X2132177Y5076037D01*
X2135835Y5082743D01*
X2137410Y5087264D01*
X2139594Y5088077D01*
X2142083Y5092903D01*
X2145639Y5094732D01*
X2146858Y5097881D01*
X2147671Y5097881D01*
X2147671Y5096764D01*
X2151024Y5095189D01*
X2152751Y5093411D01*
X2153920Y5088890D01*
X2156307Y5085842D01*
X2157272Y5082692D01*
X2157984Y5074107D01*
X2161184Y5064810D01*
X2161184Y5050637D01*
X2158898Y5047030D01*
X2157374Y5040680D01*
X2156855Y5040020D01*
X2176830Y5040020D01*
X2176830Y5054752D01*
X2177643Y5064506D01*
X2178913Y5066385D01*
X2184247Y5066385D01*
X2188565Y5061153D01*
X2191156Y5054600D01*
X2193137Y5053330D01*
X2192528Y5049164D01*
X2188921Y5039715D01*
X2185517Y5034330D01*
X2184857Y5030724D01*
X2182317Y5027828D01*
X2179218Y5021326D01*
X2178862Y5021326D01*
X2176881Y5025339D01*
X2176830Y5040020D01*
X2156855Y5040020D01*
X2149754Y5030622D01*
X2147722Y5029301D01*
X2141474Y5026964D01*
X2139543Y5024882D01*
X2131618Y5023866D01*
X2124710Y5023764D01*
X2120036Y5025186D01*
X2115454Y5025186D01*
X2110740Y5023866D01*
X2096262Y5023205D01*
X2087473Y5021884D01*
X2082190Y5018532D01*
X2054148Y5018582D01*
X2045512Y5019344D01*
X2044649Y5024526D01*
X2024131Y5024526D01*
X2023821Y5023205D01*
X2017979Y5015077D01*
X1998116Y4991049D01*
X1992833Y4989169D01*
X1989124Y4985562D01*
X1981047Y4983632D01*
X1977694Y4980076D01*
X1960880Y4976164D01*
X1957832Y4975047D01*
X1945030Y4973777D01*
X1927453Y4974894D01*
X1917395Y4978298D01*
X1916328Y4981143D01*
X1689557Y4981143D01*
X1688541Y4980127D01*
X1681581Y4978552D01*
X1679295Y4977536D01*
X1674215Y4981397D01*
X1674215Y4982514D01*
X1669491Y4985004D01*
X1664157Y4991506D01*
X1661972Y5004562D01*
X1662023Y5012994D01*
X1662836Y5019649D01*
X1661820Y5029657D01*
X1633618Y5029657D01*
X1635353Y5022494D01*
X1637842Y5018532D01*
X1638554Y5015890D01*
X1639976Y5005171D01*
X1641602Y5002174D01*
X1642516Y5002174D01*
X1643989Y4996332D01*
X1645869Y4986426D01*
X1644497Y4981498D01*
X1642364Y4975098D01*
X1640078Y4973828D01*
X1637487Y4968849D01*
X1636115Y4968849D01*
X1629410Y4961686D01*
X1621434Y4958486D01*
X1614932Y4957013D01*
X1609699Y4957876D01*
X1605280Y4960213D01*
X1601571Y4960213D01*
X1597507Y4961940D01*
X1591614Y4962804D01*
X1588820Y4966208D01*
X1583944Y4969611D01*
X1580997Y4976723D01*
X1577949Y4979771D01*
X1576425Y4983429D01*
X1572260Y4985664D01*
X1570634Y4988712D01*
X1564843Y4991811D01*
X1562760Y4994960D01*
X1558696Y4996942D01*
X1554378Y5002682D01*
X1553311Y5011013D01*
X1516014Y5011013D01*
X1513382Y5008981D01*
X1507185Y5005324D01*
X1505508Y5002276D01*
X1498600Y5000396D01*
X1496060Y4996789D01*
X1493520Y4995926D01*
X1489811Y4994046D01*
X1488440Y4990947D01*
X1484122Y4987340D01*
X1482496Y4980584D01*
X1479600Y4977790D01*
X1477467Y4971796D01*
X1474927Y4969357D01*
X1474927Y4966868D01*
X1474372Y4964226D01*
X1497380Y4964226D01*
X1498701Y4970373D01*
X1502359Y4973472D01*
X1504543Y4976876D01*
X1509115Y4976876D01*
X1512874Y4978806D01*
X1515414Y4981752D01*
X1520088Y4984140D01*
X1522171Y4987544D01*
X1526641Y4988407D01*
X1545488Y4987899D01*
X1548333Y4986578D01*
X1552041Y4982464D01*
X1555292Y4980584D01*
X1556410Y4975352D01*
X1557020Y4969967D01*
X1555851Y4968240D01*
X1551127Y4968240D01*
X1547012Y4966868D01*
X1540764Y4963312D01*
X1522171Y4960010D01*
X1500124Y4960823D01*
X1497380Y4964226D01*
X1474372Y4964226D01*
X1473250Y4958588D01*
X1470406Y4956606D01*
X1469136Y4951577D01*
X1465630Y4946954D01*
X1463700Y4941824D01*
X1460144Y4939233D01*
X1459026Y4936439D01*
X1454861Y4934102D01*
X1449425Y4928108D01*
X1448460Y4928108D01*
X1444853Y4923790D01*
X1443380Y4923790D01*
X1440738Y4919776D01*
X1437690Y4915814D01*
X1437690Y4914442D01*
X1431594Y4907127D01*
X1429054Y4907127D01*
X1429054Y4880864D01*
X1446174Y4880864D01*
X1446784Y4882134D01*
X1448308Y4889550D01*
X1449374Y4892802D01*
X1451457Y4893614D01*
X1453489Y4898440D01*
X1456537Y4900371D01*
X1458264Y4903470D01*
X1461414Y4905400D01*
X1470863Y4916678D01*
X1472488Y4920386D01*
X1474470Y4922062D01*
X1476400Y4927447D01*
X1485087Y4937912D01*
X1489964Y4938623D01*
X1495552Y4940096D01*
X1500784Y4939741D01*
X1504746Y4942179D01*
X1515922Y4943500D01*
X1545488Y4945227D01*
X1554175Y4944872D01*
X1569720Y4942992D01*
X1576476Y4940909D01*
X1582216Y4941773D01*
X1584706Y4941671D01*
X1588820Y4939182D01*
X1596491Y4937252D01*
X1599336Y4933035D01*
X1600911Y4933035D01*
X1602584Y4931003D01*
X1622247Y4931003D01*
X1623822Y4936744D01*
X1626006Y4937353D01*
X1636572Y4938623D01*
X1637995Y4938623D01*
X1641856Y4943398D01*
X1645615Y4944872D01*
X1652016Y4951272D01*
X1662074Y4963617D01*
X1663344Y4966665D01*
X1664563Y4975250D01*
X1665122Y4976317D01*
X1669846Y4972304D01*
X1671523Y4969865D01*
X1670456Y4966665D01*
X1662684Y4957318D01*
X1661007Y4953050D01*
X1658823Y4950663D01*
X1656283Y4944160D01*
X1655318Y4944160D01*
X1653336Y4938928D01*
X1652778Y4935524D01*
X1648714Y4930698D01*
X1648714Y4927193D01*
X1647748Y4923078D01*
X1644751Y4918964D01*
X1644244Y4914087D01*
X1662023Y4914087D01*
X1662582Y4918557D01*
X1664106Y4922570D01*
X1669592Y4929987D01*
X1669592Y4931156D01*
X1674825Y4933035D01*
X1675638Y4932426D01*
X1686712Y4932273D01*
X1690420Y4934153D01*
X1691081Y4936744D01*
X1692960Y4937963D01*
X1710791Y4938064D01*
X1716735Y4936794D01*
X1726031Y4935524D01*
X1735632Y4935524D01*
X1751431Y4937861D01*
X1762607Y4938674D01*
X1769262Y4939893D01*
X1780997Y4941570D01*
X1785061Y4942941D01*
X1802790Y4944160D01*
X1809191Y4945989D01*
X1813102Y4946142D01*
X1824786Y4945989D01*
X1830933Y4947259D01*
X1842668Y4948529D01*
X1877822Y4949596D01*
X1881276Y4950917D01*
X1884934Y4953914D01*
X1892096Y4955438D01*
X1894128Y4956657D01*
X1901037Y4962144D01*
X1901901Y4964226D01*
X1901443Y4965801D01*
X1898192Y4967935D01*
X1867611Y4967986D01*
X1845716Y4967122D01*
X1838045Y4964074D01*
X1835251Y4963261D01*
X1816150Y4960975D01*
X1774901Y4961331D01*
X1769160Y4957724D01*
X1760067Y4956403D01*
X1749399Y4951933D01*
X1716227Y4951476D01*
X1710842Y4952288D01*
X1709064Y4954625D01*
X1705305Y4956505D01*
X1702206Y4956505D01*
X1698650Y4958283D01*
X1698650Y4958994D01*
X1701444Y4960366D01*
X1707591Y4961432D01*
X1720850Y4962804D01*
X1726438Y4961483D01*
X1742643Y4960213D01*
X1757730Y4960213D01*
X1762861Y4961534D01*
X1764639Y4964277D01*
X1765960Y4965242D01*
X1773326Y4967681D01*
X1775409Y4970018D01*
X1780997Y4971491D01*
X1794205Y4970780D01*
X1800758Y4966665D01*
X1814525Y4966258D01*
X1822043Y4967122D01*
X1825091Y4970221D01*
X1829054Y4971288D01*
X1852168Y4972558D01*
X1867103Y4975047D01*
X1873250Y4976368D01*
X1897176Y4976571D01*
X1903984Y4975555D01*
X1905101Y4972253D01*
X1908505Y4967732D01*
X1911553Y4965852D01*
X1917547Y4963972D01*
X1923186Y4961890D01*
X1946097Y4961585D01*
X1955800Y4960772D01*
X1983841Y4962499D01*
X1989429Y4965750D01*
X1995678Y4965750D01*
X1996897Y4964023D01*
X1994154Y4961737D01*
X1991106Y4958283D01*
X1985060Y4955336D01*
X1982063Y4952288D01*
X1978202Y4951628D01*
X1969109Y4950815D01*
X1964639Y4949190D01*
X1962810Y4947158D01*
X1950212Y4946040D01*
X1945081Y4945227D01*
X1942236Y4943500D01*
X1940560Y4938928D01*
X1938629Y4936236D01*
X1943455Y4932832D01*
X1948129Y4932984D01*
X1959356Y4934356D01*
X1969566Y4936845D01*
X1985873Y4935982D01*
X1998624Y4936134D01*
X2007260Y4937912D01*
X2020773Y4939334D01*
X2023516Y4940198D01*
X2026920Y4946142D01*
X2026920Y4948428D01*
X2024684Y4950917D01*
X2014931Y4952796D01*
X2012238Y4955235D01*
X2009292Y4956048D01*
X2007514Y4957927D01*
X2007565Y4964226D01*
X2009292Y4966817D01*
X2015591Y4970729D01*
X2026666Y4972050D01*
X2046376Y4977536D01*
X2048256Y4978704D01*
X2048916Y4981346D01*
X2047646Y4984292D01*
X2043988Y4985562D01*
X2035810Y4986274D01*
X2031695Y4988610D01*
X2023008Y4988610D01*
X2021789Y4991760D01*
X2022297Y4992827D01*
X2026869Y4995468D01*
X2027428Y4997602D01*
X2032254Y5000091D01*
X2050084Y4999177D01*
X2076602Y4998364D01*
X2089861Y4999736D01*
X2103069Y5001412D01*
X2109419Y5003495D01*
X2120950Y5004511D01*
X2128418Y5004308D01*
X2129840Y5001971D01*
X2129840Y4996332D01*
X2126284Y4990947D01*
X2125624Y4986426D01*
X2124049Y4981498D01*
X2121662Y4977638D01*
X2120290Y4969764D01*
X2119528Y4967630D01*
X2118664Y4967630D01*
X2116937Y4964430D01*
X2116074Y4958638D01*
X2115127Y4928412D01*
X2136749Y4928412D01*
X2137003Y4953000D01*
X2140051Y4958740D01*
X2141677Y4968544D01*
X2145030Y4977180D01*
X2145690Y4981651D01*
X2148179Y4985816D01*
X2150262Y4990388D01*
X2150262Y4992370D01*
X2153767Y4996637D01*
X2154885Y5001869D01*
X2155799Y5004562D01*
X2160625Y5005273D01*
X2162962Y5002580D01*
X2162962Y5001056D01*
X2165604Y4997246D01*
X2166569Y4993132D01*
X2167393Y4980838D01*
X2186990Y4980838D01*
X2188108Y4983378D01*
X2190445Y4986731D01*
X2191562Y4993487D01*
X2194052Y4997551D01*
X2195626Y5000904D01*
X2197150Y5008930D01*
X2199487Y5012029D01*
X2201418Y5019649D01*
X2204262Y5021630D01*
X2205431Y5025339D01*
X2219452Y5043170D01*
X2224836Y5049723D01*
X2226310Y5049723D01*
X2229510Y5053838D01*
X2237130Y5056428D01*
X2242769Y5058918D01*
X2246833Y5058206D01*
X2250592Y5055870D01*
X2259533Y5053380D01*
X2261108Y5051704D01*
X2264257Y5049774D01*
X2271115Y5048453D01*
X2274366Y5044389D01*
X2280310Y5042712D01*
X2281478Y5040325D01*
X2285339Y5037937D01*
X2291334Y5030876D01*
X2290521Y5025644D01*
X2289302Y5023815D01*
X2287066Y5023002D01*
X2277262Y5010505D01*
X2276551Y5007762D01*
X2273198Y5004612D01*
X2270912Y4997297D01*
X2268931Y4996535D01*
X2266696Y4990896D01*
X2262632Y4989220D01*
X2260447Y4986172D01*
X2257044Y4984496D01*
X2253234Y4983632D01*
X2251202Y4980533D01*
X2245309Y4977993D01*
X2242769Y4975098D01*
X2237130Y4972050D01*
X2234895Y4968341D01*
X2231796Y4967528D01*
X2227630Y4963312D01*
X2223617Y4961839D01*
X2218944Y4956505D01*
X2218131Y4956505D01*
X2216404Y4952136D01*
X2214168Y4951069D01*
X2213051Y4949393D01*
X2211425Y4942433D01*
X2208936Y4940503D01*
X2207209Y4931105D01*
X2205024Y4927803D01*
X2203196Y4923485D01*
X2201976Y4921453D01*
X2197252Y4922316D01*
X2194204Y4925314D01*
X2192528Y4929022D01*
X2191562Y4935220D01*
X2190953Y4961737D01*
X2189886Y4969459D01*
X2187854Y4972608D01*
X2186990Y4980838D01*
X2167393Y4980838D01*
X2167534Y4978857D01*
X2170328Y4969154D01*
X2170125Y4935067D01*
X2168601Y4930597D01*
X2168601Y4925720D01*
X2167534Y4922418D01*
X2166569Y4909921D01*
X2166010Y4906111D01*
X2163013Y4901996D01*
X2161387Y4896053D01*
X2158695Y4894478D01*
X2157577Y4891836D01*
X2156206Y4889855D01*
X2152751Y4889855D01*
X2152142Y4891735D01*
X2154224Y4894122D01*
X2155444Y4898491D01*
X2158339Y4900320D01*
X2159355Y4904943D01*
X2159914Y4909362D01*
X2162505Y4913579D01*
X2163521Y4918202D01*
X2164334Y4936439D01*
X2163470Y4947564D01*
X2161641Y4951831D01*
X2156104Y4954574D01*
X2153869Y4951577D01*
X2152802Y4946954D01*
X2152802Y4936337D01*
X2151735Y4925923D01*
X2147214Y4913985D01*
X2142642Y4913172D01*
X2141677Y4913884D01*
X2140407Y4920386D01*
X2136749Y4928412D01*
X2115127Y4928412D01*
X2114397Y4903724D01*
X2114397Y4891989D01*
X2114829Y4889550D01*
X2151329Y4889550D01*
X2151837Y4888026D01*
X2151380Y4885842D01*
X2151329Y4889550D01*
X2114829Y4889550D01*
X2116429Y4880508D01*
X2110943Y4873752D01*
X2107895Y4872990D01*
X2105411Y4869434D01*
X2177796Y4869434D01*
X2178304Y4871110D01*
X2181199Y4873701D01*
X2183282Y4878527D01*
X2185873Y4881930D01*
X2187549Y4888026D01*
X2189886Y4890770D01*
X2192832Y4897170D01*
X2198014Y4901488D01*
X2201468Y4901996D01*
X2201672Y4902200D01*
X2205431Y4899101D01*
X2206802Y4899101D01*
X2207266Y4898034D01*
X2223109Y4898034D01*
X2223211Y4914849D01*
X2224024Y4920843D01*
X2227224Y4923891D01*
X2229662Y4929632D01*
X2231898Y4932121D01*
X2233777Y4936591D01*
X2237384Y4939182D01*
X2238552Y4942230D01*
X2240838Y4942890D01*
X2244547Y4947869D01*
X2249982Y4951018D01*
X2252065Y4954422D01*
X2255977Y4955844D01*
X2258669Y4958842D01*
X2263648Y4961940D01*
X2265781Y4964836D01*
X2269032Y4966970D01*
X2270709Y4970475D01*
X2273604Y4972050D01*
X2275332Y4975352D01*
X2277160Y4976977D01*
X2279599Y4982718D01*
X2281732Y4985054D01*
X2284425Y4990744D01*
X2287219Y4994452D01*
X2288438Y4998974D01*
X2290876Y5000955D01*
X2293112Y5006187D01*
X2296566Y5010861D01*
X2297176Y5014671D01*
X2300325Y5016957D01*
X2302205Y5020716D01*
X2305050Y5022494D01*
X2307082Y5026609D01*
X2311095Y5028082D01*
X2313584Y5031282D01*
X2317038Y5033060D01*
X2318715Y5033060D01*
X2323287Y5036870D01*
X2330246Y5036312D01*
X2331669Y5033772D01*
X2335530Y5032248D01*
X2340610Y5025948D01*
X2342438Y5022494D01*
X2344978Y5021326D01*
X2346452Y5017109D01*
X2349296Y5014214D01*
X2350668Y5010962D01*
X2353208Y5009337D01*
X2355138Y5004663D01*
X2364536Y4991608D01*
X2368905Y4986528D01*
X2368905Y4984953D01*
X2372512Y4981600D01*
X2374493Y4976977D01*
X2376322Y4975352D01*
X2378202Y4971643D01*
X2380894Y4968544D01*
X2384399Y4963007D01*
X2386990Y4959350D01*
X2391054Y4954574D01*
X2392578Y4950663D01*
X2395118Y4949139D01*
X2397201Y4943856D01*
X2399487Y4942636D01*
X2400604Y4937658D01*
X2402128Y4933950D01*
X2404160Y4931257D01*
X2406091Y4922875D01*
X2408885Y4919878D01*
X2410155Y4914849D01*
X2410155Y4909261D01*
X2409545Y4902758D01*
X2406548Y4899406D01*
X2405176Y4896307D01*
X2390546Y4879492D01*
X2388108Y4878578D01*
X2371191Y4878425D01*
X2366772Y4879746D01*
X2362149Y4884572D01*
X2349144Y4900625D01*
X2343810Y4906416D01*
X2339340Y4908651D01*
X2338781Y4910632D01*
X2336444Y4911953D01*
X2329383Y4912817D01*
X2323896Y4915865D01*
X2317140Y4917033D01*
X2311552Y4916271D01*
X2307691Y4913884D01*
X2300427Y4911445D01*
X2297785Y4908448D01*
X2291994Y4905400D01*
X2290368Y4902301D01*
X2286355Y4900371D01*
X2284679Y4897221D01*
X2280462Y4894986D01*
X2276043Y4890465D01*
X2274468Y4890465D01*
X2270760Y4885690D01*
X2264968Y4883658D01*
X2261920Y4880508D01*
X2258669Y4879390D01*
X2250897Y4878070D01*
X2238298Y4879594D01*
X2232050Y4884928D01*
X2229154Y4885690D01*
X2228240Y4888585D01*
X2224278Y4893868D01*
X2223109Y4898034D01*
X2207266Y4898034D01*
X2207818Y4896764D01*
X2208530Y4886452D01*
X2211324Y4883251D01*
X2213864Y4876342D01*
X2215997Y4874971D01*
X2215997Y4873244D01*
X2228189Y4858359D01*
X2225040Y4856378D01*
X2218791Y4857191D01*
X2211222Y4858461D01*
X2208987Y4860239D01*
X2202027Y4862017D01*
X2187194Y4862779D01*
X2182469Y4863846D01*
X2178862Y4866690D01*
X2177796Y4869434D01*
X2105411Y4869434D01*
X2105304Y4869281D01*
X2090978Y4868265D01*
X2089861Y4869078D01*
X2065883Y4869281D01*
X2062886Y4870754D01*
X2052624Y4872634D01*
X2028189Y4873294D01*
X2017826Y4872024D01*
X2013915Y4869027D01*
X1991817Y4866944D01*
X1981809Y4863998D01*
X1974138Y4862525D01*
X1940509Y4861915D01*
X1935429Y4863744D01*
X1934311Y4873498D01*
X1932686Y4877206D01*
X1926234Y4880864D01*
X1924100Y4883048D01*
X1916175Y4885436D01*
X1912366Y4888687D01*
X1902307Y4891735D01*
X1900580Y4893614D01*
X1895754Y4895392D01*
X1887474Y4895392D01*
X1884019Y4894173D01*
X1880362Y4891125D01*
X1867611Y4889144D01*
X1860905Y4885537D01*
X1852015Y4883708D01*
X1849780Y4882235D01*
X1847240Y4880000D01*
X1837131Y4877562D01*
X1834997Y4875072D01*
X1826717Y4872685D01*
X1824278Y4871161D01*
X1822602Y4868976D01*
X1815033Y4866944D01*
X1812747Y4863998D01*
X1806702Y4861255D01*
X1804924Y4858562D01*
X1802892Y4857292D01*
X1798624Y4856480D01*
X1791665Y4858258D01*
X1786585Y4861102D01*
X1752955Y4861915D01*
X1743100Y4863896D01*
X1735632Y4862677D01*
X1717090Y4861864D01*
X1710994Y4863439D01*
X1708810Y4866995D01*
X1705508Y4868672D01*
X1702714Y4873142D01*
X1697583Y4874971D01*
X1694535Y4878070D01*
X1691284Y4878730D01*
X1677974Y4880559D01*
X1673758Y4880559D01*
X1673148Y4881778D01*
X1664563Y4885029D01*
X1663649Y4886452D01*
X1662531Y4891989D01*
X1663395Y4897374D01*
X1664766Y4898440D01*
X1671370Y4898491D01*
X1685645Y4900218D01*
X1688541Y4901539D01*
X1697888Y4901539D01*
X1701952Y4900320D01*
X1727454Y4898898D01*
X1734870Y4900472D01*
X1737664Y4903216D01*
X1739493Y4904028D01*
X1754479Y4905908D01*
X1758035Y4907076D01*
X1759661Y4909261D01*
X1763877Y4913985D01*
X1763877Y4914849D01*
X1761439Y4918405D01*
X1742236Y4917643D01*
X1737664Y4916322D01*
X1732534Y4913680D01*
X1721357Y4913630D01*
X1717751Y4915966D01*
X1712671Y4917643D01*
X1692300Y4918354D01*
X1682292Y4917084D01*
X1677568Y4913884D01*
X1670862Y4912715D01*
X1664563Y4912664D01*
X1662023Y4914087D01*
X1644244Y4914087D01*
X1643481Y4906213D01*
X1644040Y4887061D01*
X1645259Y4882743D01*
X1646529Y4881118D01*
X1643583Y4874463D01*
X1641856Y4873853D01*
X1637538Y4873548D01*
X1636420Y4874869D01*
X1635506Y4883607D01*
X1632204Y4891379D01*
X1631442Y4904943D01*
X1630426Y4909058D01*
X1627936Y4914239D01*
X1626362Y4922774D01*
X1624228Y4925923D01*
X1622247Y4931003D01*
X1602584Y4931003D01*
X1605178Y4927803D01*
X1610868Y4921554D01*
X1613509Y4916424D01*
X1615490Y4915154D01*
X1617167Y4907635D01*
X1620520Y4903571D01*
X1621180Y4892852D01*
X1622602Y4888738D01*
X1624330Y4887569D01*
X1625244Y4882743D01*
X1625244Y4873345D01*
X1624634Y4869434D01*
X1621688Y4867605D01*
X1619554Y4862474D01*
X1614322Y4869637D01*
X1612798Y4873091D01*
X1608378Y4878781D01*
X1605635Y4880864D01*
X1603705Y4883810D01*
X1600301Y4885537D01*
X1597253Y4889601D01*
X1591614Y4891735D01*
X1590649Y4894021D01*
X1584756Y4896815D01*
X1581556Y4900828D01*
X1577695Y4902149D01*
X1574952Y4905806D01*
X1565910Y4908448D01*
X1564182Y4910277D01*
X1559712Y4911953D01*
X1551635Y4912766D01*
X1546148Y4914036D01*
X1542948Y4916373D01*
X1536344Y4916373D01*
X1533042Y4913985D01*
X1527149Y4912106D01*
X1523085Y4906619D01*
X1521358Y4905959D01*
X1518615Y4900625D01*
X1517091Y4899609D01*
X1515211Y4894478D01*
X1515160Y4891938D01*
X1511655Y4887417D01*
X1510030Y4879340D01*
X1507642Y4877409D01*
X1505356Y4870399D01*
X1502918Y4864455D01*
X1500378Y4849114D01*
X1514652Y4849114D01*
X1516278Y4852974D01*
X1517751Y4865471D01*
X1519783Y4868519D01*
X1520850Y4871618D01*
X1522222Y4880864D01*
X1522882Y4882946D01*
X1524304Y4883607D01*
X1527454Y4891125D01*
X1530705Y4893513D01*
X1550619Y4893513D01*
X1554683Y4892141D01*
X1557375Y4889855D01*
X1562303Y4888636D01*
X1565910Y4887976D01*
X1571345Y4883759D01*
X1578254Y4881727D01*
X1580489Y4878019D01*
X1583029Y4876901D01*
X1584756Y4872888D01*
X1587754Y4869332D01*
X1589633Y4864201D01*
X1592783Y4860290D01*
X1593596Y4854956D01*
X1593596Y4842002D01*
X1592732Y4836464D01*
X1590446Y4834585D01*
X1586890Y4830521D01*
X1579676Y4826812D01*
X1578051Y4825034D01*
X1566570Y4823206D01*
X1562760Y4821936D01*
X1560880Y4819446D01*
X1557223Y4818329D01*
X1546504Y4817059D01*
X1539900Y4818126D01*
X1536446Y4819446D01*
X1534972Y4821936D01*
X1532026Y4823764D01*
X1526641Y4823815D01*
X1523034Y4825034D01*
X1520748Y4828692D01*
X1517853Y4830521D01*
X1516075Y4839208D01*
X1513992Y4842459D01*
X1513535Y4849114D01*
X1500378Y4849114D01*
X1500378Y4847183D01*
X1495755Y4844694D01*
X1486865Y4846015D01*
X1476400Y4847234D01*
X1471168Y4850485D01*
X1466392Y4852162D01*
X1464462Y4854752D01*
X1461922Y4856327D01*
X1458061Y4857191D01*
X1453845Y4861763D01*
X1449019Y4867808D01*
X1446428Y4877206D01*
X1446174Y4880864D01*
X1429054Y4880864D01*
X1429054Y4855870D01*
X1431188Y4855870D01*
X1434490Y4853432D01*
X1440688Y4844999D01*
X1446682Y4842967D01*
X1450390Y4838598D01*
X1453743Y4838598D01*
X1459128Y4836871D01*
X1462379Y4833518D01*
X1468323Y4834178D01*
X1476603Y4831080D01*
X1482547Y4831943D01*
X1488541Y4827066D01*
X1494840Y4825542D01*
X1496568Y4822952D01*
X1501648Y4816195D01*
X1504594Y4814011D01*
X1506778Y4809693D01*
X1513789Y4800346D01*
X1519529Y4797755D01*
X1521663Y4795367D01*
X1527657Y4794148D01*
X1532534Y4794148D01*
X1538884Y4791506D01*
X1561287Y4790592D01*
X1566926Y4792878D01*
X1574038Y4794859D01*
X1578610Y4794097D01*
X1583232Y4797145D01*
X1587296Y4799533D01*
X1592122Y4800295D01*
X1593646Y4797602D01*
X1593646Y4792472D01*
X1592122Y4787188D01*
X1592122Y4780635D01*
X1608886Y4780635D01*
X1610106Y4785207D01*
X1612544Y4788357D01*
X1614068Y4797145D01*
X1615490Y4816703D01*
X1617472Y4824120D01*
X1618234Y4830876D01*
X1619605Y4834077D01*
X1621332Y4835804D01*
X1623720Y4842256D01*
X1625854Y4843627D01*
X1627733Y4849012D01*
X1630629Y4850841D01*
X1632813Y4854448D01*
X1639570Y4856632D01*
X1641093Y4859274D01*
X1667814Y4860036D01*
X1684020Y4859629D01*
X1686763Y4856022D01*
X1692808Y4853889D01*
X1696161Y4849723D01*
X1697634Y4849723D01*
X1702866Y4843830D01*
X1708567Y4836515D01*
X1734870Y4836515D01*
X1737969Y4842205D01*
X1744776Y4843424D01*
X1757019Y4844846D01*
X1760575Y4847437D01*
X1764639Y4849012D01*
X1771294Y4849063D01*
X1773631Y4847488D01*
X1769770Y4845456D01*
X1766316Y4844643D01*
X1763217Y4841036D01*
X1757934Y4839208D01*
X1755546Y4836109D01*
X1750263Y4833162D01*
X1749552Y4830470D01*
X1744116Y4827574D01*
X1743506Y4826355D01*
X1738274Y4829048D01*
X1736293Y4834585D01*
X1734870Y4836515D01*
X1708607Y4836464D01*
X1711807Y4832654D01*
X1713433Y4828743D01*
X1716582Y4825949D01*
X1717903Y4822240D01*
X1725625Y4811725D01*
X1727809Y4804664D01*
X1729892Y4803292D01*
X1729232Y4797653D01*
X1726742Y4787036D01*
X1725574Y4779924D01*
X1723034Y4776266D01*
X1721053Y4766767D01*
X1718106Y4761128D01*
X1715922Y4747564D01*
X1714004Y4746294D01*
X1732737Y4746294D01*
X1733905Y4752898D01*
X1736242Y4757064D01*
X1737461Y4767326D01*
X1738477Y4771948D01*
X1739239Y4771948D01*
X1740966Y4775555D01*
X1742897Y4786934D01*
X1744624Y4788103D01*
X1747621Y4796231D01*
X1751177Y4800955D01*
X1751177Y4803444D01*
X1754632Y4805934D01*
X1756003Y4810099D01*
X1760067Y4816043D01*
X1763268Y4819853D01*
X1769770Y4822698D01*
X1773834Y4826203D01*
X1781251Y4828082D01*
X1787093Y4832045D01*
X1803806Y4833010D01*
X1810613Y4837379D01*
X1817979Y4839055D01*
X1821230Y4842713D01*
X1828139Y4844897D01*
X1830425Y4848301D01*
X1837436Y4850384D01*
X1841957Y4854295D01*
X1854352Y4855108D01*
X1857146Y4856480D01*
X1861007Y4859578D01*
X1869439Y4861356D01*
X1873961Y4864404D01*
X1877314Y4865319D01*
X1889556Y4866843D01*
X1895144Y4866284D01*
X1900732Y4865014D01*
X1904847Y4861814D01*
X1909318Y4859883D01*
X1910080Y4858054D01*
X1911248Y4851958D01*
X1914499Y4844491D01*
X1917700Y4841951D01*
X1914398Y4839360D01*
X1910102Y4837226D01*
X1939645Y4837226D01*
X1944624Y4842205D01*
X1978202Y4842764D01*
X1993493Y4844186D01*
X2000656Y4845558D01*
X2004720Y4847793D01*
X2009292Y4849063D01*
X2013508Y4849114D01*
X2022551Y4850993D01*
X2027123Y4853635D01*
X2030730Y4854498D01*
X2047036Y4854651D01*
X2058009Y4853381D01*
X2062988Y4850993D01*
X2082190Y4847844D01*
X2088845Y4845253D01*
X2101240Y4845405D01*
X2103221Y4842052D01*
X2101291Y4835245D01*
X2099868Y4834280D01*
X2098802Y4830876D01*
X2113330Y4830876D01*
X2114702Y4833975D01*
X2116734Y4836718D01*
X2118512Y4842967D01*
X2123490Y4849876D01*
X2128367Y4855768D01*
X2133701Y4858918D01*
X2137765Y4860086D01*
X2144522Y4858918D01*
X2145792Y4857089D01*
X2152548Y4854600D01*
X2153454Y4853736D01*
X2241854Y4853736D01*
X2243429Y4858258D01*
X2247696Y4861509D01*
X2252421Y4862474D01*
X2255977Y4864455D01*
X2265121Y4866436D01*
X2267864Y4868164D01*
X2268474Y4870145D01*
X2273452Y4872634D01*
X2274874Y4875834D01*
X2279345Y4878171D01*
X2281478Y4881067D01*
X2285796Y4884267D01*
X2287422Y4887315D01*
X2292502Y4889347D01*
X2293569Y4892090D01*
X2300630Y4894834D01*
X2303475Y4898237D01*
X2309520Y4899863D01*
X2312060Y4900828D01*
X2312924Y4900930D01*
X2325827Y4899050D01*
X2328570Y4898390D01*
X2332837Y4893513D01*
X2335225Y4892802D01*
X2337257Y4888839D01*
X2339898Y4887112D01*
X2341524Y4882946D01*
X2343912Y4881626D01*
X2346909Y4875326D01*
X2350109Y4871008D01*
X2351684Y4866690D01*
X2353513Y4864201D01*
X2355799Y4857445D01*
X2358593Y4853736D01*
X2360269Y4846624D01*
X2363266Y4842459D01*
X2364790Y4832807D01*
X2367229Y4828336D01*
X2368600Y4821021D01*
X2368600Y4781499D01*
X2367889Y4778197D01*
X2363673Y4772355D01*
X2362657Y4769561D01*
X2357628Y4767021D01*
X2354427Y4762652D01*
X2350668Y4761433D01*
X2346858Y4757724D01*
X2343150Y4756607D01*
X2335834Y4755388D01*
X2329891Y4751933D01*
X2302865Y4751273D01*
X2298293Y4752289D01*
X2295093Y4755997D01*
X2287625Y4757724D01*
X2283002Y4764176D01*
X2279497Y4768545D01*
X2277160Y4777536D01*
X2277160Y4780432D01*
X2275281Y4783378D01*
X2274620Y4785664D01*
X2273096Y4794250D01*
X2270150Y4798314D01*
X2268372Y4807204D01*
X2266086Y4810506D01*
X2264562Y4814214D01*
X2263902Y4817516D01*
X2261463Y4821021D01*
X2258771Y4827473D01*
X2256688Y4829048D01*
X2254707Y4833620D01*
X2251710Y4835499D01*
X2249982Y4839055D01*
X2246528Y4841087D01*
X2245512Y4844440D01*
X2242464Y4847539D01*
X2241854Y4853736D01*
X2153454Y4853736D01*
X2156968Y4850384D01*
X2160676Y4849571D01*
X2164334Y4847336D01*
X2165807Y4845202D01*
X2170988Y4842408D01*
X2173630Y4839411D01*
X2179828Y4837176D01*
X2182774Y4833772D01*
X2187194Y4833112D01*
X2228900Y4832400D01*
X2232863Y4830978D01*
X2239314Y4822799D01*
X2240432Y4817922D01*
X2240991Y4813401D01*
X2243836Y4809083D01*
X2245664Y4801006D01*
X2248103Y4798060D01*
X2250135Y4789982D01*
X2253691Y4786680D01*
X2253742Y4783988D01*
X2255723Y4779010D01*
X2257806Y4775962D01*
X2259279Y4765497D01*
X2260904Y4759604D01*
X2261666Y4759045D01*
X2258364Y4747107D01*
X2257348Y4745888D01*
X2255012Y4744466D01*
X2253945Y4741976D01*
X2247696Y4734306D01*
X2246630Y4734306D01*
X2243328Y4729327D01*
X2241702Y4729327D01*
X2237790Y4728006D01*
X2234488Y4724044D01*
X2217267Y4722266D01*
X2190242Y4722266D01*
X2165299Y4723841D01*
X2156714Y4725111D01*
X2154275Y4727397D01*
X2150821Y4728768D01*
X2148789Y4734102D01*
X2146300Y4736033D01*
X2145588Y4751273D01*
X2144623Y4755845D01*
X2142286Y4759299D01*
X2139899Y4766462D01*
X2137054Y4769002D01*
X2136444Y4771999D01*
X2128012Y4783378D01*
X2125522Y4787696D01*
X2118258Y4796942D01*
X2117547Y4799787D01*
X2114600Y4803851D01*
X2113432Y4807407D01*
X2113330Y4830876D01*
X2098802Y4830876D01*
X2097735Y4827422D01*
X2097735Y4825187D01*
X2094941Y4821631D01*
X2091893Y4814874D01*
X2088591Y4812588D01*
X2081326Y4811369D01*
X2073656Y4808982D01*
X2063851Y4811979D01*
X2056688Y4812792D01*
X2052980Y4813909D01*
X2052421Y4815687D01*
X2048560Y4817008D01*
X2038197Y4817008D01*
X2030374Y4815687D01*
X2024075Y4813198D01*
X2005228Y4811979D01*
X1999996Y4810760D01*
X1998167Y4808321D01*
X1992680Y4806391D01*
X1989429Y4802987D01*
X1987194Y4801565D01*
X1985568Y4801565D01*
X1982317Y4805781D01*
X1976323Y4807661D01*
X1973021Y4811979D01*
X1968296Y4813452D01*
X1965299Y4816906D01*
X1959152Y4818989D01*
X1955241Y4823612D01*
X1949450Y4824476D01*
X1947519Y4827422D01*
X1941830Y4830673D01*
X1940204Y4833670D01*
X1939645Y4837226D01*
X1910102Y4837226D01*
X1907692Y4836058D01*
X1893824Y4833924D01*
X1890420Y4829657D01*
X1885696Y4828133D01*
X1882393Y4824272D01*
X1878279Y4822088D01*
X1876552Y4818938D01*
X1870964Y4816957D01*
X1868728Y4813350D01*
X1864918Y4811522D01*
X1862531Y4807915D01*
X1857298Y4805832D01*
X1850085Y4798009D01*
X1851050Y4793945D01*
X1853133Y4791252D01*
X1856892Y4793538D01*
X1859483Y4793589D01*
X1863547Y4796028D01*
X1866849Y4798974D01*
X1871675Y4799838D01*
X1875028Y4804156D01*
X1881276Y4806442D01*
X1883410Y4808829D01*
X1885442Y4810048D01*
X1892046Y4811572D01*
X1898192Y4815433D01*
X1913991Y4815433D01*
X1920290Y4811420D01*
X1929790Y4808931D01*
X1933397Y4806645D01*
X1940509Y4804714D01*
X1948129Y4803292D01*
X1952243Y4800447D01*
X1960524Y4798466D01*
X1964334Y4794758D01*
X1968449Y4793284D01*
X1970379Y4789271D01*
X1972208Y4788560D01*
X1973834Y4786426D01*
X1975002Y4775352D01*
X1978101Y4768596D01*
X1978558Y4758690D01*
X1975002Y4745685D01*
X1973275Y4736439D01*
X1970481Y4732731D01*
X1969423Y4729988D01*
X1990039Y4729988D01*
X1990699Y4736338D01*
X1992731Y4738979D01*
X1993747Y4742637D01*
X1995322Y4761636D01*
X1997202Y4765548D01*
X1999437Y4773726D01*
X2002942Y4779010D01*
X2002942Y4780432D01*
X2004568Y4782058D01*
X2015896Y4787442D01*
X2023465Y4789220D01*
X2027682Y4792827D01*
X2037842Y4794808D01*
X2042464Y4798009D01*
X2052624Y4798923D01*
X2058771Y4799076D01*
X2065883Y4797907D01*
X2069947Y4795520D01*
X2076094Y4793996D01*
X2106168Y4793488D01*
X2109927Y4792268D01*
X2112010Y4788103D01*
X2113432Y4787442D01*
X2119020Y4778400D01*
X2125370Y4770374D01*
X2126742Y4767173D01*
X2129332Y4765141D01*
X2131263Y4760518D01*
X2133396Y4758232D01*
X2134971Y4752340D01*
X2135174Y4739538D01*
X2133854Y4733950D01*
X2127554Y4726533D01*
X2123490Y4724095D01*
X2084222Y4723993D01*
X2075688Y4722469D01*
X2071471Y4720488D01*
X2070455Y4719624D01*
X2061311Y4718151D01*
X2055215Y4716272D01*
X2052421Y4713376D01*
X2049576Y4712766D01*
X2035302Y4712055D01*
X2010867Y4713071D01*
X2006244Y4715256D01*
X2001164Y4716475D01*
X1995119Y4718558D01*
X1994306Y4720386D01*
X1993239Y4725670D01*
X1990039Y4729988D01*
X1969423Y4729988D01*
X1967788Y4725568D01*
X1961388Y4722063D01*
X1959102Y4718253D01*
X1957324Y4718202D01*
X1953514Y4716932D01*
X1950008Y4712462D01*
X1920646Y4711547D01*
X1917547Y4710379D01*
X1913483Y4707839D01*
X1905863Y4706366D01*
X1902256Y4705096D01*
X1899564Y4702810D01*
X1893112Y4701032D01*
X1880362Y4700219D01*
X1871675Y4699050D01*
X1869338Y4697171D01*
X1857400Y4695444D01*
X1794205Y4695393D01*
X1789125Y4697222D01*
X1786077Y4697222D01*
X1781200Y4700371D01*
X1772818Y4701641D01*
X1769770Y4702606D01*
X1766062Y4705654D01*
X1757019Y4707788D01*
X1752803Y4711496D01*
X1746656Y4712817D01*
X1741322Y4716932D01*
X1738528Y4717694D01*
X1736496Y4720386D01*
X1735785Y4725619D01*
X1733651Y4728921D01*
X1732737Y4746294D01*
X1714004Y4746294D01*
X1706676Y4741468D01*
X1701800Y4742688D01*
X1694840Y4741722D01*
X1673453Y4744212D01*
X1659991Y4746548D01*
X1654505Y4750308D01*
X1646428Y4751628D01*
X1642872Y4753000D01*
X1640078Y4755794D01*
X1632356Y4757877D01*
X1630781Y4760772D01*
X1626006Y4762550D01*
X1623212Y4763312D01*
X1620977Y4766411D01*
X1615846Y4769916D01*
X1610360Y4777181D01*
X1608886Y4780635D01*
X1592122Y4780635D01*
X1592122Y4780026D01*
X1593291Y4776571D01*
X1593596Y4762195D01*
X1595120Y4757826D01*
X1600708Y4752492D01*
X1605432Y4745532D01*
X1611376Y4743043D01*
X1619605Y4733696D01*
X1628597Y4731105D01*
X1630629Y4728870D01*
X1633169Y4727244D01*
X1647189Y4726736D01*
X1649475Y4723739D01*
X1652524Y4721656D01*
X1666798Y4721453D01*
X1671116Y4720031D01*
X1671726Y4718862D01*
X1674723Y4716983D01*
X1687220Y4713630D01*
X1711096Y4713935D01*
X1715668Y4711801D01*
X1720850Y4705400D01*
X1728673Y4703318D01*
X1731518Y4700320D01*
X1734108Y4699558D01*
X1737156Y4697679D01*
X1739849Y4694936D01*
X1749399Y4692802D01*
X1757019Y4688738D01*
X1760982Y4687214D01*
X1766366Y4687976D01*
X1769262Y4686655D01*
X1771802Y4683709D01*
X1776374Y4682439D01*
X1780032Y4682439D01*
X1781251Y4680966D01*
X1781251Y4678121D01*
X1914753Y4678121D01*
X1914753Y4680915D01*
X1916938Y4682540D01*
X1942134Y4682896D01*
X1945386Y4684979D01*
X1945944Y4686706D01*
X1949145Y4687976D01*
X1963420Y4687722D01*
X1968042Y4690262D01*
X1969363Y4692243D01*
X1974392Y4694275D01*
X1977237Y4698441D01*
X1981809Y4700371D01*
X1986889Y4699558D01*
X1988464Y4698542D01*
X1993493Y4693564D01*
X1994814Y4693564D01*
X1998725Y4688382D01*
X2004212Y4687468D01*
X2009902Y4687366D01*
X2013407Y4684217D01*
X2018741Y4682337D01*
X2026818Y4683506D01*
X2033371Y4687366D01*
X2052929Y4687366D01*
X2060803Y4689348D01*
X2066391Y4691735D01*
X2074062Y4694174D01*
X2087575Y4695190D01*
X2090674Y4698746D01*
X2098497Y4699609D01*
X2120950Y4699762D01*
X2125370Y4700828D01*
X2127859Y4704029D01*
X2134463Y4705959D01*
X2137918Y4709617D01*
X2140813Y4706670D01*
X2145690Y4704638D01*
X2147163Y4704638D01*
X2151380Y4700066D01*
X2173935Y4699660D01*
X2179015Y4698288D01*
X2183638Y4695088D01*
X2239060Y4694732D01*
X2243074Y4697933D01*
X2247849Y4699711D01*
X2252218Y4699711D01*
X2254961Y4701489D01*
X2256637Y4703876D01*
X2262987Y4705248D01*
X2264410Y4706670D01*
X2265680Y4709718D01*
X2271115Y4711903D01*
X2274366Y4715611D01*
X2277668Y4717643D01*
X2279853Y4722876D01*
X2289048Y4734610D01*
X2290165Y4734153D01*
X2332939Y4733594D01*
X2338070Y4735423D01*
X2344166Y4738116D01*
X2355900Y4738319D01*
X2359152Y4740452D01*
X2359964Y4742129D01*
X2363012Y4743958D01*
X2371191Y4745532D01*
X2373274Y4747818D01*
X2377744Y4749749D01*
X2379218Y4751222D01*
X2380081Y4754016D01*
X2383586Y4755794D01*
X2385161Y4759401D01*
X2392273Y4768291D01*
X2394458Y4775352D01*
X2397048Y4781804D01*
X2397810Y4799380D01*
X2397658Y4822850D01*
X2396286Y4827778D01*
X2394458Y4830267D01*
X2392832Y4838293D01*
X2391664Y4841036D01*
X2389682Y4841798D01*
X2394407Y4847640D01*
X2400096Y4849825D01*
X2406497Y4858054D01*
X2408631Y4863134D01*
X2413762Y4868113D01*
X2418537Y4874564D01*
X2426512Y4883048D01*
X2429052Y4883048D01*
X2429052Y4937353D01*
X2426766Y4937404D01*
X2421432Y4945278D01*
X2419858Y4951831D01*
X2416911Y4955590D01*
X2415082Y4962347D01*
X2410510Y4968240D01*
X2408123Y4969002D01*
X2405938Y4975098D01*
X2394000Y4988915D01*
X2391410Y4993843D01*
X2388514Y4997145D01*
X2383942Y5003495D01*
X2380183Y5008219D01*
X2378557Y5012029D01*
X2375712Y5013807D01*
X2374544Y5016957D01*
X2370480Y5020056D01*
X2369464Y5022392D01*
X2366518Y5023815D01*
X2364689Y5027625D01*
X2361387Y5029962D01*
X2360269Y5033010D01*
X2356256Y5036108D01*
X2355545Y5038648D01*
X2351836Y5040985D01*
X2343150Y5050637D01*
X2339594Y5053838D01*
X2334869Y5055260D01*
X2329942Y5054142D01*
X2320239Y5055362D01*
X2315819Y5054549D01*
X2315260Y5052822D01*
X2309520Y5049570D01*
X2307488Y5047386D01*
X2302459Y5045405D01*
X2298344Y5045405D01*
X2290165Y5055311D01*
X2284222Y5061407D01*
X2278684Y5063388D01*
X2277414Y5064912D01*
X2271826Y5069484D01*
X2271115Y5069484D01*
X2268169Y5072989D01*
X2262124Y5075123D01*
X2260092Y5077358D01*
X2257552Y5079034D01*
X2225395Y5079339D01*
X2220620Y5077968D01*
X2216251Y5074513D01*
X2205786Y5074158D01*
X2198268Y5082895D01*
X2193696Y5086146D01*
X2191918Y5088534D01*
X2184958Y5091785D01*
X2183739Y5093563D01*
X2179116Y5093563D01*
X2174189Y5097373D01*
X2172614Y5105450D01*
X2169718Y5108956D01*
X2166620Y5116931D01*
X2162251Y5119624D01*
X2158542Y5122621D01*
X2150821Y5124805D01*
X2147722Y5128006D01*
X2142845Y5128666D01*
X2109825Y5128615D01*
X2108911Y5130596D01*
X2110130Y5135219D01*
X2111502Y5137759D01*
X2113127Y5143855D01*
X2113889Y5169458D01*
X2116683Y5174284D01*
X2118106Y5180177D01*
X2118106Y5195722D01*
X2117090Y5200294D01*
X2114448Y5202783D01*
X2113584Y5208066D01*
X2113534Y5216144D01*
X2111959Y5221782D01*
X2109927Y5224424D01*
X2108504Y5230164D01*
X2107793Y5236972D01*
X2104390Y5241086D01*
X2103221Y5246725D01*
X2099818Y5251653D01*
X2099157Y5256174D01*
X2097227Y5260848D01*
X2096312Y5260848D01*
X2094077Y5267553D01*
X2092553Y5269128D01*
X2088388Y5276545D01*
X2086559Y5278729D01*
X2084476Y5287162D01*
X2082342Y5289550D01*
X2080463Y5294020D01*
X2077466Y5296916D01*
X2075230Y5303316D01*
X2072792Y5306060D01*
X2071116Y5312359D01*
X2068779Y5315458D01*
X2066188Y5321604D01*
X2063343Y5324856D01*
X2062124Y5330291D01*
X2058924Y5334609D01*
X2056587Y5340959D01*
X2055012Y5341975D01*
X2052370Y5349951D01*
X2050237Y5352694D01*
X2047798Y5359095D01*
X2044242Y5364124D01*
X2044242Y5366410D01*
X2040839Y5370525D01*
X2039061Y5382717D01*
X2036165Y5388305D01*
X2034539Y5395163D01*
X2032355Y5397550D01*
X2028443Y5407710D01*
X2027529Y5407710D01*
X2024837Y5421325D01*
X2022398Y5425948D01*
X2020671Y5433364D01*
X2017826Y5438902D01*
X2015693Y5449417D01*
X2013610Y5452821D01*
X2014270Y5462981D01*
X2011578Y5477662D01*
X2011629Y5514492D01*
X2013204Y5518912D01*
X2014728Y5530291D01*
X2017115Y5536438D01*
X2017775Y5542330D01*
X2020722Y5544159D01*
X2022703Y5549595D01*
X2024888Y5550408D01*
X2027478Y5556656D01*
X2030222Y5559704D01*
X2033879Y5561990D01*
X2035556Y5565140D01*
X2039620Y5567629D01*
X2039620Y5568848D01*
X2041702Y5571337D01*
X2046325Y5571337D01*
X2051608Y5578144D01*
X2053386Y5579973D01*
X2053386Y5587441D01*
X2050897Y5590438D01*
X2042972Y5590692D01*
X2030222Y5590336D01*
X2026361Y5589168D01*
X2022957Y5585510D01*
X2014575Y5583732D01*
X2012137Y5581802D01*
X2012137Y5580786D01*
X2009546Y5579364D01*
X2003958Y5578551D01*
X2000859Y5573826D01*
X1998116Y5572252D01*
X1996744Y5568746D01*
X1993392Y5566308D01*
X1992122Y5562650D01*
X1989277Y5560212D01*
X1986229Y5553710D01*
X1984095Y5551373D01*
X1982978Y5546496D01*
X1979523Y5542635D01*
X1977542Y5536946D01*
X1975053Y5533898D01*
X1972818Y5525820D01*
X1970328Y5522925D01*
X1969312Y5518556D01*
X1969312Y5508802D01*
X1965248Y5504230D01*
X1965147Y5496915D01*
X1964385Y5491175D01*
X1961134Y5486704D01*
X1961134Y5464403D01*
X1958543Y5451500D01*
X1959152Y5448147D01*
X1958187Y5442000D01*
X1959254Y5436463D01*
X1960829Y5430875D01*
X1961388Y5408218D01*
X1963470Y5406186D01*
X1965248Y5403138D01*
X1965248Y5389880D01*
X1968246Y5385714D01*
X1969465Y5382107D01*
X1969262Y5374284D01*
X1970786Y5367883D01*
X1973325Y5364988D01*
X1973224Y5355590D01*
X1975357Y5345684D01*
X1975866Y5338724D01*
X1978456Y5331815D01*
X1980438Y5320233D01*
X1982978Y5315762D01*
X1983689Y5304739D01*
X1983181Y5303723D01*
X1984146Y5296916D01*
X1986889Y5291988D01*
X1987448Y5230266D01*
X1986381Y5227574D01*
X1981606Y5230063D01*
X1981098Y5232755D01*
X1980387Y5243220D01*
X1978507Y5252974D01*
X1977085Y5254955D01*
X1975408Y5258917D01*
X1975408Y5264404D01*
X1971395Y5269077D01*
X1970684Y5276545D01*
X1967585Y5280253D01*
X1966264Y5288686D01*
X1963216Y5297576D01*
X1960981Y5307431D01*
X1960880Y5347563D01*
X1958492Y5352237D01*
X1957070Y5358688D01*
X1957070Y5373217D01*
X1955596Y5377484D01*
X1954123Y5378196D01*
X1952853Y5381853D01*
X1953412Y5386070D01*
X1952040Y5393232D01*
X1948840Y5396484D01*
X1947316Y5404612D01*
X1944776Y5409133D01*
X1942236Y5421020D01*
X1940255Y5423560D01*
X1938121Y5431078D01*
X1935530Y5434482D01*
X1932686Y5443016D01*
X1931162Y5445099D01*
X1929028Y5454294D01*
X1926082Y5458053D01*
X1924913Y5462473D01*
X1922322Y5465470D01*
X1921002Y5468518D01*
X1919782Y5475579D01*
X1916887Y5480050D01*
X1915668Y5484571D01*
X1912620Y5489295D01*
X1910181Y5496864D01*
X1907692Y5501233D01*
X1906473Y5509768D01*
X1903272Y5514238D01*
X1900428Y5522468D01*
X1898548Y5524500D01*
X1896821Y5536133D01*
X1893925Y5541416D01*
X1892909Y5548985D01*
X1891334Y5552490D01*
X1889302Y5555589D01*
X1887931Y5564428D01*
X1884781Y5569762D01*
X1885442Y5580888D01*
X1884172Y5589320D01*
X1883714Y5590235D01*
X1882597Y5598769D01*
X1882698Y5619546D01*
X1885086Y5630875D01*
X1884578Y5636514D01*
X1887829Y5643524D01*
X1889252Y5649874D01*
X1892249Y5653735D01*
X1894433Y5663590D01*
X1896364Y5666079D01*
X1897430Y5669534D01*
X1897430Y5678119D01*
G37*
G36*
X1812137Y5334914D02*
G01*
X1807464Y5334203D01*
X1806092Y5332780D01*
X1803755Y5328412D01*
X1800453Y5324094D01*
X1798523Y5318861D01*
X1797202Y5318861D01*
X1794967Y5316016D01*
X1794967Y5314594D01*
X1791157Y5308803D01*
X1786889Y5303723D01*
X1784654Y5297576D01*
X1782724Y5295900D01*
X1780235Y5289194D01*
X1778660Y5288432D01*
X1776780Y5283962D01*
X1776069Y5280152D01*
X1773275Y5277612D01*
X1771040Y5270601D01*
X1768957Y5267401D01*
X1766417Y5257241D01*
X1764842Y5255666D01*
X1763928Y5253532D01*
X1761947Y5241137D01*
X1759864Y5237683D01*
X1758848Y5232755D01*
X1757730Y5214823D01*
X1756206Y5204053D01*
X1752498Y5202834D01*
X1750466Y5210962D01*
X1748078Y5212842D01*
X1745589Y5211521D01*
X1744522Y5206796D01*
X1745183Y5185206D01*
X1746605Y5180330D01*
X1747977Y5178399D01*
X1749755Y5171744D01*
X1753158Y5167223D01*
X1755343Y5160111D01*
X1756816Y5159451D01*
X1760372Y5150916D01*
X1761896Y5150205D01*
X1764436Y5144871D01*
X1766976Y5142890D01*
X1768398Y5138674D01*
X1771345Y5136845D01*
X1772716Y5133746D01*
X1775714Y5132222D01*
X1778152Y5127599D01*
X1780184Y5126786D01*
X1784350Y5128158D01*
X1786382Y5130596D01*
X1783791Y5135219D01*
X1782216Y5144465D01*
X1779168Y5151932D01*
X1777695Y5164480D01*
X1775002Y5172252D01*
X1775663Y5180279D01*
X1775612Y5203748D01*
X1775002Y5211368D01*
X1778152Y5225338D01*
X1779676Y5238902D01*
X1782114Y5244642D01*
X1783892Y5256479D01*
X1786280Y5260797D01*
X1788820Y5270550D01*
X1790954Y5274716D01*
X1793036Y5283250D01*
X1795983Y5287670D01*
X1796643Y5291988D01*
X1798167Y5295696D01*
X1800453Y5298795D01*
X1802180Y5305196D01*
X1805178Y5309768D01*
X1806803Y5316423D01*
X1809191Y5318302D01*
X1810816Y5323179D01*
X1810816Y5325567D01*
X1814931Y5330545D01*
X1814220Y5332120D01*
G37*
D10*
X939800Y6283197D02*
G01*
X939800Y6178295D01*
X1009904Y6283197D02*
G01*
X939800Y6213094D01*
X964692Y6238239D02*
G01*
X1009904Y6178295D01*
X1082802Y6283197D02*
G01*
X1042923Y6178295D01*
X1082802Y6283197D02*
G01*
X1122679Y6178295D01*
X1057910Y6213094D02*
G01*
X1107694Y6213094D01*
X1155700Y6283197D02*
G01*
X1155700Y6178295D01*
X1155700Y6283197D02*
G01*
X1195831Y6178295D01*
X1235710Y6283197D02*
G01*
X1195831Y6178295D01*
X1235710Y6283197D02*
G01*
X1235710Y6178295D01*
X1268729Y6283197D02*
G01*
X1268729Y6178295D01*
X1301750Y6283197D02*
G01*
X1301750Y6178295D01*
X1371854Y6283197D02*
G01*
X1301750Y6213094D01*
X1326895Y6238239D02*
G01*
X1371854Y6178295D01*
X1444752Y6283197D02*
G01*
X1404873Y6178295D01*
X1444752Y6283197D02*
G01*
X1484884Y6178295D01*
X1419860Y6213094D02*
G01*
X1469897Y6213094D01*
X1587754Y6283197D02*
G01*
X1517904Y6178295D01*
X1517904Y6283197D02*
G01*
X1587754Y6283197D01*
X1517904Y6178295D02*
G01*
X1587754Y6178295D01*
X1620773Y6283197D02*
G01*
X1620773Y6178295D01*
X1620773Y6283197D02*
G01*
X1685797Y6283197D01*
X1620773Y6233160D02*
G01*
X1660905Y6233160D01*
X1620773Y6178295D02*
G01*
X1685797Y6178295D01*
X1865884Y6268212D02*
G01*
X1855723Y6278118D01*
X1840737Y6283197D01*
X1820671Y6283197D01*
X1805686Y6278118D01*
X1795779Y6268212D01*
X1795779Y6258305D01*
X1800860Y6248145D01*
X1805686Y6243320D01*
X1815845Y6238239D01*
X1845818Y6228079D01*
X1855723Y6223254D01*
X1860804Y6218173D01*
X1865884Y6208268D01*
X1865884Y6193281D01*
X1855723Y6183121D01*
X1840737Y6178295D01*
X1820671Y6178295D01*
X1805686Y6183121D01*
X1795779Y6193281D01*
X1928876Y6283197D02*
G01*
X1918715Y6278118D01*
X1908810Y6268212D01*
X1903729Y6258305D01*
X1898904Y6243320D01*
X1898904Y6218173D01*
X1903729Y6203187D01*
X1908810Y6193281D01*
X1918715Y6183121D01*
X1928876Y6178295D01*
X1948688Y6178295D01*
X1958847Y6183121D01*
X1968754Y6193281D01*
X1973834Y6203187D01*
X1978913Y6218173D01*
X1978913Y6243320D01*
X1973834Y6258305D01*
X1968754Y6268212D01*
X1958847Y6278118D01*
X1948688Y6283197D01*
X1928876Y6283197D01*
X2011679Y6283197D02*
G01*
X2011679Y6178295D01*
X2011679Y6178295D02*
G01*
X2071877Y6178295D01*
X2104897Y6283197D02*
G01*
X2104897Y6208268D01*
X2109724Y6193281D01*
X2119884Y6183121D01*
X2134870Y6178295D01*
X2144775Y6178295D01*
X2159761Y6183121D01*
X2169922Y6193281D01*
X2174747Y6208268D01*
X2174747Y6283197D01*
X2282697Y6258305D02*
G01*
X2277872Y6268212D01*
X2267711Y6278118D01*
X2257806Y6283197D01*
X2237740Y6283197D01*
X2227834Y6278118D01*
X2217674Y6268212D01*
X2212847Y6258305D01*
X2207768Y6243320D01*
X2207768Y6218173D01*
X2212847Y6203187D01*
X2217674Y6193281D01*
X2227834Y6183121D01*
X2237740Y6178295D01*
X2257806Y6178295D01*
X2267711Y6183121D01*
X2277872Y6193281D01*
X2282697Y6203187D01*
X2315718Y6283197D02*
G01*
X2315718Y6178295D01*
X2378709Y6283197D02*
G01*
X2368804Y6278118D01*
X2358897Y6268212D01*
X2353818Y6258305D01*
X2348738Y6243320D01*
X2348738Y6218173D01*
X2353818Y6203187D01*
X2358897Y6193281D01*
X2368804Y6183121D01*
X2378709Y6178295D01*
X2398775Y6178295D01*
X2408681Y6183121D01*
X2418841Y6193281D01*
X2423922Y6203187D01*
X2428747Y6218173D01*
X2428747Y6243320D01*
X2423922Y6258305D01*
X2418841Y6268212D01*
X2408681Y6278118D01*
X2398775Y6283197D01*
X2378709Y6283197D01*
X2461768Y6283197D02*
G01*
X2461768Y6178295D01*
X2461768Y6283197D02*
G01*
X2531872Y6178295D01*
X2531872Y6283197D02*
G01*
X2531872Y6178295D01*
X2564891Y6283197D02*
G01*
X2564891Y6178295D01*
X2564891Y6283197D02*
G01*
X2629915Y6283197D01*
X2564891Y6233160D02*
G01*
X2604770Y6233160D01*
X2564891Y6178295D02*
G01*
X2629915Y6178295D01*
X2732786Y6268212D02*
G01*
X2722879Y6278118D01*
X2707893Y6283197D01*
X2687827Y6283197D01*
X2672841Y6278118D01*
X2662681Y6268212D01*
X2662681Y6258305D01*
X2667761Y6248145D01*
X2672841Y6243320D01*
X2682747Y6238239D01*
X2712720Y6228079D01*
X2722879Y6223254D01*
X2727706Y6218173D01*
X2732786Y6208268D01*
X2732786Y6193281D01*
X2722879Y6183121D01*
X2707893Y6178295D01*
X2687827Y6178295D01*
X2672841Y6183121D01*
X2662681Y6193281D01*
X2842768Y6283197D02*
G01*
X2842768Y6178295D01*
X2842768Y6283197D02*
G01*
X2907791Y6283197D01*
X2842768Y6233160D02*
G01*
X2882900Y6233160D01*
X2842768Y6178295D02*
G01*
X2907791Y6178295D01*
X2940811Y6283197D02*
G01*
X2940811Y6178295D01*
X2940811Y6178295D02*
G01*
X3000756Y6178295D01*
X3033775Y6283197D02*
G01*
X3033775Y6178295D01*
X3033775Y6283197D02*
G01*
X3098800Y6283197D01*
X3033775Y6233160D02*
G01*
X3073908Y6233160D01*
X3033775Y6178295D02*
G01*
X3098800Y6178295D01*
X3206750Y6258305D02*
G01*
X3201670Y6268212D01*
X3191763Y6278118D01*
X3181858Y6283197D01*
X3161791Y6283197D01*
X3151886Y6278118D01*
X3141725Y6268212D01*
X3136900Y6258305D01*
X3131820Y6243320D01*
X3131820Y6218173D01*
X3136900Y6203187D01*
X3141725Y6193281D01*
X3151886Y6183121D01*
X3161791Y6178295D01*
X3181858Y6178295D01*
X3191763Y6183121D01*
X3201670Y6193281D01*
X3206750Y6203187D01*
X3274822Y6283197D02*
G01*
X3274822Y6178295D01*
X3239770Y6283197D02*
G01*
X3309874Y6283197D01*
X3342893Y6283197D02*
G01*
X3342893Y6178295D01*
X3342893Y6283197D02*
G01*
X3387852Y6283197D01*
X3402838Y6278118D01*
X3407918Y6273292D01*
X3412743Y6263131D01*
X3412743Y6253226D01*
X3407918Y6243320D01*
X3402838Y6238239D01*
X3387852Y6233160D01*
X3342893Y6233160D01*
X3377691Y6233160D02*
G01*
X3412743Y6178295D01*
X3475736Y6283197D02*
G01*
X3465829Y6278118D01*
X3455670Y6268212D01*
X3450843Y6258305D01*
X3445763Y6243320D01*
X3445763Y6218173D01*
X3450843Y6203187D01*
X3455670Y6193281D01*
X3465829Y6183121D01*
X3475736Y6178295D01*
X3495802Y6178295D01*
X3505708Y6183121D01*
X3515868Y6193281D01*
X3520693Y6203187D01*
X3525774Y6218173D01*
X3525774Y6243320D01*
X3520693Y6258305D01*
X3515868Y6268212D01*
X3505708Y6278118D01*
X3495802Y6283197D01*
X3475736Y6283197D01*
X3558793Y6283197D02*
G01*
X3558793Y6178295D01*
X3558793Y6283197D02*
G01*
X3628897Y6178295D01*
X3628897Y6283197D02*
G01*
X3628897Y6178295D01*
X3661918Y6283197D02*
G01*
X3661918Y6178295D01*
X3769868Y6258305D02*
G01*
X3764788Y6268212D01*
X3754881Y6278118D01*
X3744722Y6283197D01*
X3724909Y6283197D01*
X3714750Y6278118D01*
X3704843Y6268212D01*
X3699763Y6258305D01*
X3694684Y6243320D01*
X3694684Y6218173D01*
X3699763Y6203187D01*
X3704843Y6193281D01*
X3714750Y6183121D01*
X3724909Y6178295D01*
X3744722Y6178295D01*
X3754881Y6183121D01*
X3764788Y6193281D01*
X3769868Y6203187D01*
X3842765Y6283197D02*
G01*
X3802888Y6178295D01*
X3842765Y6283197D02*
G01*
X3882897Y6178295D01*
X3817874Y6213094D02*
G01*
X3867911Y6213094D01*
X3985768Y6268212D02*
G01*
X3975861Y6278118D01*
X3960875Y6283197D01*
X3940809Y6283197D01*
X3925824Y6278118D01*
X3915918Y6268212D01*
X3915918Y6258305D01*
X3920743Y6248145D01*
X3925824Y6243320D01*
X3935729Y6238239D01*
X3965702Y6228079D01*
X3975861Y6223254D01*
X3980688Y6218173D01*
X3985768Y6208268D01*
X3985768Y6193281D01*
X3975861Y6183121D01*
X3960875Y6178295D01*
X3940809Y6178295D01*
X3925824Y6183121D01*
X3915918Y6193281D01*
D11*
X7708900Y2553715D02*
G01*
X7708900Y2444750D01*
X7708900Y2553715D02*
G01*
X7755636Y2553715D01*
X7771129Y2548636D01*
X7776463Y2543302D01*
X7781543Y2532887D01*
X7781543Y2522473D01*
X7776463Y2512060D01*
X7771129Y2506979D01*
X7755636Y2501900D01*
X7708900Y2501900D01*
X7745222Y2501900D02*
G01*
X7781543Y2444750D01*
X7815834Y2553715D02*
G01*
X7815834Y2475737D01*
X7821168Y2460244D01*
X7831581Y2449829D01*
X7847075Y2444750D01*
X7857490Y2444750D01*
X7872984Y2449829D01*
X7883397Y2460244D01*
X7888731Y2475737D01*
X7888731Y2553715D01*
X7923022Y2553715D02*
G01*
X7923022Y2444750D01*
X7923022Y2553715D02*
G01*
X7995665Y2444750D01*
X7995665Y2553715D02*
G01*
X7995665Y2444750D01*
X4876800Y6173215D02*
G01*
X4876800Y6064250D01*
X4876800Y6173215D02*
G01*
X4923536Y6173215D01*
X4939029Y6168136D01*
X4944363Y6162802D01*
X4949443Y6152387D01*
X4949443Y6141973D01*
X4944363Y6131560D01*
X4939029Y6126479D01*
X4923536Y6121400D01*
X4876800Y6121400D01*
X4913122Y6121400D02*
G01*
X4949443Y6064250D01*
X4983734Y6173215D02*
G01*
X4983734Y6064250D01*
X4983734Y6173215D02*
G01*
X5051297Y6173215D01*
X4983734Y6121400D02*
G01*
X5025390Y6121400D01*
X4983734Y6064250D02*
G01*
X5051297Y6064250D01*
X5158486Y6157721D02*
G01*
X5148072Y6168136D01*
X5132324Y6173215D01*
X5111750Y6173215D01*
X5096002Y6168136D01*
X5085588Y6157721D01*
X5085588Y6147307D01*
X5090922Y6136894D01*
X5096002Y6131560D01*
X5106415Y6126479D01*
X5137658Y6116065D01*
X5148072Y6110986D01*
X5153152Y6105652D01*
X5158486Y6095237D01*
X5158486Y6079744D01*
X5148072Y6069329D01*
X5132324Y6064250D01*
X5111750Y6064250D01*
X5096002Y6069329D01*
X5085588Y6079744D01*
X5192775Y6173215D02*
G01*
X5192775Y6064250D01*
X5192775Y6173215D02*
G01*
X5260340Y6173215D01*
X5192775Y6121400D02*
G01*
X5234177Y6121400D01*
X5192775Y6064250D02*
G01*
X5260340Y6064250D01*
X5330952Y6173215D02*
G01*
X5330952Y6064250D01*
X5294629Y6173215D02*
G01*
X5367274Y6173215D01*
X3505200Y2299715D02*
G01*
X3505200Y2190750D01*
X3505200Y2299715D02*
G01*
X3551936Y2299715D01*
X3567429Y2294636D01*
X3572763Y2289302D01*
X3577843Y2278887D01*
X3577843Y2263394D01*
X3572763Y2252979D01*
X3567429Y2247900D01*
X3551936Y2242565D01*
X3505200Y2242565D01*
X3643375Y2299715D02*
G01*
X3632961Y2294636D01*
X3622547Y2284221D01*
X3617468Y2273807D01*
X3612134Y2258060D01*
X3612134Y2232152D01*
X3617468Y2216657D01*
X3622547Y2206244D01*
X3632961Y2195829D01*
X3643375Y2190750D01*
X3664204Y2190750D01*
X3674618Y2195829D01*
X3685031Y2206244D01*
X3690111Y2216657D01*
X3695445Y2232152D01*
X3695445Y2258060D01*
X3690111Y2273807D01*
X3685031Y2284221D01*
X3674618Y2294636D01*
X3664204Y2299715D01*
X3643375Y2299715D01*
X3729736Y2299715D02*
G01*
X3755643Y2190750D01*
X3781552Y2299715D02*
G01*
X3755643Y2190750D01*
X3781552Y2299715D02*
G01*
X3807459Y2190750D01*
X3833622Y2299715D02*
G01*
X3807459Y2190750D01*
X3867911Y2299715D02*
G01*
X3867911Y2190750D01*
X3867911Y2299715D02*
G01*
X3935475Y2299715D01*
X3867911Y2247900D02*
G01*
X3909313Y2247900D01*
X3867911Y2190750D02*
G01*
X3935475Y2190750D01*
X3969765Y2299715D02*
G01*
X3969765Y2190750D01*
X3969765Y2299715D02*
G01*
X4016502Y2299715D01*
X4031995Y2294636D01*
X4037329Y2289302D01*
X4042409Y2278887D01*
X4042409Y2268473D01*
X4037329Y2258060D01*
X4031995Y2252979D01*
X4016502Y2247900D01*
X3969765Y2247900D01*
X4006088Y2247900D02*
G01*
X4042409Y2190750D01*
X4495800Y2299715D02*
G01*
X4495800Y2190750D01*
X4495800Y2299715D02*
G01*
X4537456Y2190750D01*
X4578858Y2299715D02*
G01*
X4537456Y2190750D01*
X4578858Y2299715D02*
G01*
X4578858Y2190750D01*
X4644390Y2299715D02*
G01*
X4633975Y2294636D01*
X4623561Y2284221D01*
X4618481Y2273807D01*
X4613147Y2258060D01*
X4613147Y2232152D01*
X4618481Y2216657D01*
X4623561Y2206244D01*
X4633975Y2195829D01*
X4644390Y2190750D01*
X4665218Y2190750D01*
X4675631Y2195829D01*
X4686045Y2206244D01*
X4691125Y2216657D01*
X4696459Y2232152D01*
X4696459Y2258060D01*
X4691125Y2273807D01*
X4686045Y2284221D01*
X4675631Y2294636D01*
X4665218Y2299715D01*
X4644390Y2299715D01*
X4767072Y2299715D02*
G01*
X4767072Y2190750D01*
X4730750Y2299715D02*
G01*
X4803393Y2299715D01*
X4868925Y2299715D02*
G01*
X4858511Y2294636D01*
X4848097Y2284221D01*
X4842763Y2273807D01*
X4837684Y2258060D01*
X4837684Y2232152D01*
X4842763Y2216657D01*
X4848097Y2206244D01*
X4858511Y2195829D01*
X4868925Y2190750D01*
X4889500Y2190750D01*
X4899913Y2195829D01*
X4910327Y2206244D01*
X4915661Y2216657D01*
X4920741Y2232152D01*
X4920741Y2258060D01*
X4915661Y2273807D01*
X4910327Y2284221D01*
X4899913Y2294636D01*
X4889500Y2299715D01*
X4868925Y2299715D01*
X4955031Y2299715D02*
G01*
X4955031Y2190750D01*
X4955031Y2299715D02*
G01*
X5001768Y2299715D01*
X5017515Y2294636D01*
X5022595Y2289302D01*
X5027929Y2278887D01*
X5027929Y2268473D01*
X5022595Y2258060D01*
X5017515Y2252979D01*
X5001768Y2247900D01*
X4955031Y2247900D01*
X4991354Y2247900D02*
G01*
X5027929Y2190750D01*
D10*
X3530854Y3606800D02*
G01*
X3578606Y3606800D01*
X3530854Y3606800D02*
G01*
X3530854Y3636263D01*
X3553713Y3606800D02*
G01*
X3553713Y3625087D01*
X3578606Y3606800D02*
G01*
X3578606Y3636263D01*
X3521963Y3667252D02*
G01*
X3526281Y3662679D01*
X3533140Y3658107D01*
X3542284Y3653536D01*
X3553713Y3651250D01*
X3562858Y3651250D01*
X3574034Y3653536D01*
X3583177Y3658107D01*
X3590036Y3662679D01*
X3594608Y3667252D01*
X3530854Y3686810D02*
G01*
X3530854Y3711702D01*
X3549141Y3698239D01*
X3549141Y3705097D01*
X3551427Y3709415D01*
X3553713Y3711702D01*
X3560572Y3713987D01*
X3565143Y3713987D01*
X3571747Y3711702D01*
X3576320Y3707129D01*
X3578606Y3700526D01*
X3578606Y3693668D01*
X3576320Y3686810D01*
X3574034Y3684523D01*
X3569461Y3682237D01*
X3521963Y3728973D02*
G01*
X3526281Y3733545D01*
X3533140Y3738118D01*
X3542284Y3742689D01*
X3553713Y3744976D01*
X3562858Y3744976D01*
X3574034Y3742689D01*
X3583177Y3738118D01*
X3590036Y3733545D01*
X3594608Y3728973D01*
X3783584Y3640836D02*
G01*
X3779011Y3638550D01*
X3774440Y3633978D01*
X3772154Y3629405D01*
X3772154Y3620515D01*
X3774440Y3615944D01*
X3779011Y3611371D01*
X3783584Y3609086D01*
X3790441Y3606800D01*
X3801872Y3606800D01*
X3808729Y3609086D01*
X3813047Y3611371D01*
X3817620Y3615944D01*
X3819906Y3620515D01*
X3819906Y3629405D01*
X3817620Y3633978D01*
X3813047Y3638550D01*
X3808729Y3640836D01*
X3763263Y3671823D02*
G01*
X3767581Y3667252D01*
X3774440Y3662679D01*
X3783584Y3658107D01*
X3795013Y3655821D01*
X3804158Y3655821D01*
X3815334Y3658107D01*
X3824477Y3662679D01*
X3831336Y3667252D01*
X3835908Y3671823D01*
X3783584Y3689095D02*
G01*
X3781297Y3689095D01*
X3776725Y3691381D01*
X3774440Y3693668D01*
X3772154Y3698239D01*
X3772154Y3707129D01*
X3774440Y3711702D01*
X3776725Y3713987D01*
X3781297Y3716273D01*
X3785870Y3716273D01*
X3790441Y3713987D01*
X3797300Y3709415D01*
X3819906Y3686810D01*
X3819906Y3718560D01*
X3763263Y3733545D02*
G01*
X3767581Y3738118D01*
X3774440Y3742689D01*
X3783584Y3747262D01*
X3795013Y3749547D01*
X3804158Y3749547D01*
X3815334Y3747262D01*
X3824477Y3742689D01*
X3831336Y3738118D01*
X3835908Y3733545D01*
X3975354Y3606800D02*
G01*
X4023106Y3606800D01*
X3975354Y3606800D02*
G01*
X3975354Y3627373D01*
X3977640Y3633978D01*
X3979925Y3636263D01*
X3984497Y3638550D01*
X3989070Y3638550D01*
X3993641Y3636263D01*
X3995927Y3633978D01*
X3998213Y3627373D01*
X3998213Y3606800D02*
G01*
X3998213Y3627373D01*
X4000500Y3633978D01*
X4002786Y3636263D01*
X4007358Y3638550D01*
X4013961Y3638550D01*
X4018534Y3636263D01*
X4020820Y3633978D01*
X4023106Y3627373D01*
X4023106Y3606800D01*
X3966463Y3669537D02*
G01*
X3970781Y3664965D01*
X3977640Y3660394D01*
X3986784Y3655821D01*
X3998213Y3653536D01*
X4007358Y3653536D01*
X4018534Y3655821D01*
X4027677Y3660394D01*
X4034536Y3664965D01*
X4039108Y3669537D01*
X3984497Y3684523D02*
G01*
X3982211Y3689095D01*
X3975354Y3695954D01*
X4023106Y3695954D01*
X3966463Y3710939D02*
G01*
X3970781Y3715512D01*
X3977640Y3720084D01*
X3986784Y3724402D01*
X3998213Y3726687D01*
X4007358Y3726687D01*
X4018534Y3724402D01*
X4027677Y3720084D01*
X4034536Y3715512D01*
X4039108Y3710939D01*
D12*
X3533393Y1585976D02*
G01*
X3533393Y1503934D01*
X3492500Y1545081D02*
G01*
X3574288Y1545081D01*
X4013200Y1557781D02*
G01*
X4094988Y1557781D01*
X4521200Y1557781D02*
G01*
X4602988Y1557781D01*
X5044693Y1585976D02*
G01*
X5044693Y1503934D01*
X5003800Y1545081D02*
G01*
X5085588Y1545081D01*
D11*
X5797041Y2909315D02*
G01*
X5786627Y2904236D01*
X5776213Y2893821D01*
X5770879Y2883407D01*
X5765800Y2867660D01*
X5765800Y2841752D01*
X5770879Y2826257D01*
X5776213Y2815844D01*
X5786627Y2805429D01*
X5797041Y2800350D01*
X5817870Y2800350D01*
X5828029Y2805429D01*
X5838443Y2815844D01*
X5843777Y2826257D01*
X5848858Y2841752D01*
X5848858Y2867660D01*
X5843777Y2883407D01*
X5838443Y2893821D01*
X5828029Y2904236D01*
X5817870Y2909315D01*
X5797041Y2909315D01*
X5883147Y2909315D02*
G01*
X5883147Y2800350D01*
X5883147Y2909315D02*
G01*
X5956045Y2800350D01*
X5956045Y2909315D02*
G01*
X5956045Y2800350D01*
X6083808Y2930144D02*
G01*
X5990336Y2763773D01*
X6149340Y2909315D02*
G01*
X6138925Y2904236D01*
X6128511Y2893821D01*
X6123177Y2883407D01*
X6118097Y2867660D01*
X6118097Y2841752D01*
X6123177Y2826257D01*
X6128511Y2815844D01*
X6138925Y2805429D01*
X6149340Y2800350D01*
X6169913Y2800350D01*
X6180327Y2805429D01*
X6190741Y2815844D01*
X6196075Y2826257D01*
X6201156Y2841752D01*
X6201156Y2867660D01*
X6196075Y2883407D01*
X6190741Y2893821D01*
X6180327Y2904236D01*
X6169913Y2909315D01*
X6149340Y2909315D01*
X6235445Y2909315D02*
G01*
X6235445Y2800350D01*
X6235445Y2909315D02*
G01*
X6303009Y2909315D01*
X6235445Y2857500D02*
G01*
X6277102Y2857500D01*
X6337300Y2909315D02*
G01*
X6337300Y2800350D01*
X6337300Y2909315D02*
G01*
X6404863Y2909315D01*
X6337300Y2857500D02*
G01*
X6378956Y2857500D01*
X6569456Y2922015D02*
G01*
X6527800Y2813050D01*
X6569456Y2922015D02*
G01*
X6610858Y2813050D01*
X6543293Y2849371D02*
G01*
X6595363Y2849371D01*
X6645147Y2922015D02*
G01*
X6645147Y2844037D01*
X6650481Y2828544D01*
X6660895Y2818129D01*
X6676390Y2813050D01*
X6686804Y2813050D01*
X6702297Y2818129D01*
X6712711Y2828544D01*
X6718045Y2844037D01*
X6718045Y2922015D01*
X6788658Y2922015D02*
G01*
X6788658Y2813050D01*
X6752336Y2922015D02*
G01*
X6824979Y2922015D01*
X6952741Y2942844D02*
G01*
X6859270Y2776473D01*
X6987031Y2922015D02*
G01*
X6987031Y2813050D01*
X6987031Y2922015D02*
G01*
X7028688Y2813050D01*
X7070090Y2922015D02*
G01*
X7028688Y2813050D01*
X7070090Y2922015D02*
G01*
X7070090Y2813050D01*
X7146036Y2922015D02*
G01*
X7104379Y2813050D01*
X7146036Y2922015D02*
G01*
X7187691Y2813050D01*
X7120127Y2849371D02*
G01*
X7171943Y2849371D01*
X7221981Y2922015D02*
G01*
X7221981Y2813050D01*
X7221981Y2922015D02*
G01*
X7294625Y2813050D01*
X7294625Y2922015D02*
G01*
X7294625Y2813050D01*
D13*
X4914900Y2514600D02*
G01*
X5727700Y2514600D01*
X5727700Y2527300D01*
X3149600Y2527300D02*
G01*
X3162300Y2514600D01*
X4914900Y2514600D01*
X7556500Y3226562D02*
G01*
X7556500Y2639313D01*
X7493000Y2639313D01*
X7493000Y2339187D02*
G01*
X6779412Y1625600D01*
X6515100Y1625600D01*
X6057900Y2082800D01*
X5562600Y2082800D01*
X3556000Y2953908D02*
G01*
X3999283Y2948939D01*
X5606905Y2948939D01*
X2819400Y5041900D02*
G01*
X4432300Y5041900D01*
X7569200Y4216400D02*
G01*
X7569200Y3530600D01*
X7556500Y3517900D01*
X3979453Y2728607D02*
G01*
X3977561Y2730500D01*
X2819400Y2730500D01*
X4487169Y3695700D02*
G01*
X4487169Y3695700D01*
X7251700Y3695700D01*
D14*
X7556502Y3226460D02*
G01*
X7556502Y3123488D01*
D13*
X5384800Y2286000D02*
G01*
X5384800Y1866900D01*
X5651500Y1600200D01*
X6172200Y1600200D01*
D15*
G01*
X7493000Y2639187D03*
G01*
X7493000Y2339212D03*
D16*
G01*
X7556500Y3226460D03*
G01*
X7556500Y3529939D03*
D13*
G75*
G01
X5680253Y2948940D02*
G03X5680253Y2948940I-73355J0D01*
G75*
G01
X7660792Y4216400D02*
G03X7660792Y4216400I-91592J0D01*
G75*
G01
X6226073Y1600200D02*
G03X6226073Y1600200I-53873J0D01*
G75*
G01
X4029456Y2728595D02*
G03X4029456Y2728595I-50013J0D01*
G75*
G01
X5582590Y2082800D02*
G03X5582590Y2082800I-19990J0D01*
G75*
G01
X5432298Y2286000D02*
G03X5432298Y2286000I-47498J0D01*
G75*
G01
X5781573Y2514600D02*
G03X5781573Y2514600I-53873J0D01*
G75*
G01
X4988966Y2514600D02*
G03X4988966Y2514600I-74066J0D01*
G75*
G01
X3199613Y2527300D02*
G03X3199613Y2527300I-50013J0D01*
G75*
G01
X2877490Y2730500D02*
G03X2877490Y2730500I-58090J0D01*
G75*
G01
X3619602Y2953918D02*
G03X3619602Y2953918I-63602J0D01*
G75*
G01
X7308494Y3695700D02*
G03X7308494Y3695700I-56794J0D01*
G75*
G01
X4551248Y3695700D02*
G03X4551248Y3695700I-64084J0D01*
G75*
G01
X4497070Y5041900D02*
G03X4497070Y5041900I-64770J0D01*
G75*
G01
X2896387Y5041900D02*
G03X2896387Y5041900I-76987J0D01*
D17*
G01*
X6705600Y2438400D03*
D18*
G01*
X6959600Y2438400D03*
D17*
G01*
X5956300Y2425700D03*
D18*
G01*
X6210300Y2425700D03*
D19*
G01*
X5207000Y3320567D03*
G01*
X5461000Y3315563D03*
G01*
X5715000Y3315563D03*
G01*
X5969000Y3315563D03*
G01*
X6223000Y3315563D03*
G01*
X6477000Y3315563D03*
G01*
X6731000Y3315563D03*
G01*
X6985000Y3315563D03*
G01*
X6210300Y6159500D03*
G01*
X6464300Y6159500D03*
G01*
X5956300Y6159500D03*
D20*
G01*
X5080000Y1955800D03*
D21*
G01*
X4572000Y1955800D03*
D20*
G01*
X4038600Y1955800D03*
D21*
G01*
X3530600Y1955800D03*
D22*
G01*
X4673600Y6070600D03*
G01*
X4165600Y6070600D03*
D23*
G01*
X3810025Y3390392D03*
G01*
X3556000Y3391382D03*
D24*
G01*
X4064025Y3390392D03*
D18*
G01*
X4140200Y2730500D03*
G01*
X5156200Y2730500D03*
G01*
X5676900Y1879600D03*
G01*
X6692900Y1879600D03*
D25*
G01*
X3670300Y3975100D03*
D26*
G01*
X3924300Y5499100D03*
G01*
X4432300Y5499100D03*
G01*
X4940300Y5499100D03*
G01*
X5448300Y5499100D03*
G01*
X5956300Y5499100D03*
G01*
X6464300Y5499100D03*
G01*
X6972300Y5499100D03*
D25*
G01*
X7226300Y3975100D03*
G01*
X6718300Y3975100D03*
G01*
X6210300Y3975100D03*
G01*
X5702300Y3975100D03*
G01*
X5194300Y3975100D03*
G01*
X4686300Y3975100D03*
G01*
X4178300Y3975100D03*
G01*
X3924300Y3975100D03*
G01*
X4432300Y3975100D03*
G01*
X4940300Y3975100D03*
G01*
X5448300Y3975100D03*
G01*
X5956300Y3975100D03*
G01*
X6464300Y3975100D03*
G01*
X6972300Y3975100D03*
D26*
G01*
X7226300Y5499100D03*
G01*
X6718300Y5499100D03*
G01*
X6210300Y5499100D03*
G01*
X5702300Y5499100D03*
G01*
X5194300Y5499100D03*
G01*
X4686300Y5499100D03*
G01*
X4178300Y5499100D03*
G01*
X3670300Y5499100D03*
D27*
G01*
X1081684Y5849797D03*
G01*
X2796209Y5849797D03*
G01*
X1081684Y1900123D03*
G01*
X2796209Y1900123D03*
D28*
G01*
X7251700Y3695700D03*
D29*
G01*
X4487163Y3695700D03*
G01*
X5562600Y2082800D03*
G01*
X5727700Y2527300D03*
G01*
X2819400Y2730500D03*
G01*
X3979443Y2728595D03*
G01*
X7569200Y4216400D03*
G01*
X2819400Y5041900D03*
G01*
X4432300Y5041900D03*
G01*
X3556000Y2953918D03*
G01*
X5606897Y2948939D03*
G01*
X1081684Y1900097D03*
G01*
X3149600Y2527300D03*
G01*
X5384800Y2286000D03*
G01*
X6172200Y1600200D03*
G01*
X4914900Y2514600D03*
M02*
